<?xml version="1.0" encoding="utf-8" standalone="no"?>
<!DOCTYPE svg PUBLIC "-//W3C//DTD SVG 1.1//EN"
  "http://www.w3.org/Graphics/SVG/1.1/DTD/svg11.dtd">
<svg xmlns:xlink="http://www.w3.org/1999/xlink" width="857.399688pt" height="424.714063pt" viewBox="0 0 857.399688 424.714063" xmlns="http://www.w3.org/2000/svg" version="1.1">
 <metadata>
  <rdf:RDF xmlns:dc="http://purl.org/dc/elements/1.1/" xmlns:cc="http://creativecommons.org/ns#" xmlns:rdf="http://www.w3.org/1999/02/22-rdf-syntax-ns#">
   <cc:Work>
    <dc:type rdf:resource="http://purl.org/dc/dcmitype/StillImage"/>
    <dc:date>2025-01-25T15:49:51.728253</dc:date>
    <dc:format>image/svg+xml</dc:format>
    <dc:creator>
     <cc:Agent>
      <dc:title>Matplotlib v3.7.2, https://matplotlib.org/</dc:title>
     </cc:Agent>
    </dc:creator>
   </cc:Work>
  </rdf:RDF>
 </metadata>
 <defs>
  <style type="text/css">*{stroke-linejoin: round; stroke-linecap: butt}</style>
 </defs>
 <g id="figure_1">
  <g id="patch_1">
   <path d="M 0 424.714063 
L 857.399688 424.714063 
L 857.399688 0 
L 0 0 
z
" style="fill: #ffffff"/>
  </g>
  <g id="axes_1">
   <g id="patch_2">
    <path d="M 76.7175 353.32 
L 781.1975 353.32 
L 781.1975 7.2 
L 76.7175 7.2 
z
" style="fill: #ffffff"/>
   </g>
   <g id="matplotlib.axis_1">
    <g id="xtick_1">
     <g id="line2d_1">
      <defs>
       <path id="m3fb31bd88f" d="M 0 0 
L 0 3.5 
" style="stroke: #000000; stroke-width: 0.8"/>
      </defs>
      <g>
       <use xlink:href="#m3fb31bd88f" x="108.739318" y="353.32" style="stroke: #000000; stroke-width: 0.8"/>
      </g>
     </g>
     <g id="text_1">
      <!-- 0 -->
      <g transform="translate(101.643068 379.364375) scale(0.28 -0.28)">
       <defs>
        <path id="Calibri-30" d="M 3022 2031 
Q 3022 1566 2948 1181 
Q 2875 797 2704 520 
Q 2534 244 2259 92 
Q 1984 -59 1581 -59 
Q 1200 -59 939 77 
Q 678 213 518 477 
Q 359 741 292 1127 
Q 225 1513 225 2013 
Q 225 2475 300 2861 
Q 375 3247 544 3523 
Q 713 3800 988 3951 
Q 1263 4103 1663 4103 
Q 2047 4103 2308 3967 
Q 2569 3831 2728 3567 
Q 2888 3303 2955 2917 
Q 3022 2531 3022 2031 
z
M 2472 1994 
Q 2472 2297 2450 2537 
Q 2428 2778 2386 2962 
Q 2344 3147 2276 3280 
Q 2209 3413 2115 3498 
Q 2022 3584 1901 3623 
Q 1781 3663 1631 3663 
Q 1366 3663 1200 3538 
Q 1034 3413 939 3194 
Q 844 2975 809 2681 
Q 775 2388 775 2050 
Q 775 1597 822 1280 
Q 869 963 970 763 
Q 1072 563 1230 472 
Q 1388 381 1613 381 
Q 1788 381 1920 437 
Q 2053 494 2148 598 
Q 2244 703 2306 850 
Q 2369 997 2406 1175 
Q 2444 1353 2458 1561 
Q 2472 1769 2472 1994 
z
" transform="scale(0.015625)"/>
       </defs>
       <use xlink:href="#Calibri-30"/>
      </g>
     </g>
    </g>
    <g id="xtick_2">
     <g id="line2d_2">
      <g>
       <use xlink:href="#m3fb31bd88f" x="243.568026" y="353.32" style="stroke: #000000; stroke-width: 0.8"/>
      </g>
     </g>
     <g id="text_2">
      <!-- 20 -->
      <g transform="translate(229.375526 379.364375) scale(0.28 -0.28)">
       <defs>
        <path id="Calibri-32" d="M 2888 231 
Q 2888 175 2880 131 
Q 2872 88 2858 58 
Q 2844 28 2820 14 
Q 2797 0 2769 0 
L 534 0 
Q 491 0 458 11 
Q 425 22 401 47 
Q 378 72 367 119 
Q 356 166 356 234 
Q 356 297 361 344 
Q 366 391 381 427 
Q 397 463 420 498 
Q 444 534 481 575 
L 1266 1406 
Q 1538 1694 1702 1922 
Q 1866 2150 1955 2337 
Q 2044 2525 2072 2678 
Q 2100 2831 2100 2966 
Q 2100 3100 2056 3220 
Q 2013 3341 1930 3431 
Q 1847 3522 1722 3575 
Q 1597 3628 1434 3628 
Q 1244 3628 1092 3575 
Q 941 3522 827 3459 
Q 713 3397 636 3344 
Q 559 3291 522 3291 
Q 500 3291 483 3303 
Q 466 3316 455 3344 
Q 444 3372 437 3419 
Q 431 3466 431 3531 
Q 431 3578 434 3612 
Q 438 3647 445 3672 
Q 453 3697 465 3719 
Q 478 3741 515 3773 
Q 553 3806 645 3862 
Q 738 3919 877 3973 
Q 1016 4028 1183 4065 
Q 1350 4103 1534 4103 
Q 1828 4103 2048 4020 
Q 2269 3938 2414 3794 
Q 2559 3650 2631 3459 
Q 2703 3269 2703 3053 
Q 2703 2859 2668 2667 
Q 2634 2475 2523 2251 
Q 2413 2028 2203 1754 
Q 1994 1481 1647 1125 
L 1006 456 
L 2766 456 
Q 2791 456 2814 442 
Q 2838 428 2855 400 
Q 2872 372 2880 330 
Q 2888 288 2888 231 
z
" transform="scale(0.015625)"/>
       </defs>
       <use xlink:href="#Calibri-32"/>
       <use xlink:href="#Calibri-30" x="50.683594"/>
      </g>
     </g>
    </g>
    <g id="xtick_3">
     <g id="line2d_3">
      <g>
       <use xlink:href="#m3fb31bd88f" x="378.396734" y="353.32" style="stroke: #000000; stroke-width: 0.8"/>
      </g>
     </g>
     <g id="text_3">
      <!-- 40 -->
      <g transform="translate(364.204234 379.364375) scale(0.28 -0.28)">
       <defs>
        <path id="Calibri-34" d="M 3059 1150 
Q 3059 1047 3028 987 
Q 2997 928 2941 928 
L 2484 928 
L 2484 78 
Q 2484 53 2471 36 
Q 2459 19 2428 6 
Q 2397 -6 2347 -12 
Q 2297 -19 2219 -19 
Q 2144 -19 2094 -12 
Q 2044 -6 2014 6 
Q 1984 19 1973 36 
Q 1963 53 1963 78 
L 1963 928 
L 294 928 
Q 256 928 231 937 
Q 206 947 186 972 
Q 166 997 158 1044 
Q 150 1091 150 1166 
Q 150 1225 153 1272 
Q 156 1319 165 1358 
Q 175 1397 190 1433 
Q 206 1469 228 1509 
L 1684 3966 
Q 1700 3991 1729 4009 
Q 1759 4028 1806 4040 
Q 1853 4053 1922 4058 
Q 1991 4063 2084 4063 
Q 2188 4063 2264 4055 
Q 2341 4047 2387 4034 
Q 2434 4022 2459 4001 
Q 2484 3981 2484 3953 
L 2484 1372 
L 2941 1372 
Q 2994 1372 3026 1317 
Q 3059 1263 3059 1150 
z
M 1963 3591 
L 1956 3591 
L 641 1372 
L 1963 1372 
L 1963 3591 
z
" transform="scale(0.015625)"/>
       </defs>
       <use xlink:href="#Calibri-34"/>
       <use xlink:href="#Calibri-30" x="50.683594"/>
      </g>
     </g>
    </g>
    <g id="xtick_4">
     <g id="line2d_4">
      <g>
       <use xlink:href="#m3fb31bd88f" x="513.225443" y="353.32" style="stroke: #000000; stroke-width: 0.8"/>
      </g>
     </g>
     <g id="text_4">
      <!-- 60 -->
      <g transform="translate(499.032943 379.364375) scale(0.28 -0.28)">
       <defs>
        <path id="Calibri-36" d="M 2991 1309 
Q 2991 1044 2909 795 
Q 2828 547 2659 358 
Q 2491 169 2231 55 
Q 1972 -59 1619 -59 
Q 1366 -59 1172 3 
Q 978 66 834 181 
Q 691 297 595 465 
Q 500 634 442 850 
Q 384 1066 359 1322 
Q 334 1578 334 1872 
Q 334 2131 362 2397 
Q 391 2663 462 2909 
Q 534 3156 657 3373 
Q 781 3591 967 3752 
Q 1153 3913 1412 4006 
Q 1672 4100 2016 4100 
Q 2131 4100 2250 4086 
Q 2369 4072 2469 4048 
Q 2569 4025 2637 3997 
Q 2706 3969 2728 3951 
Q 2750 3934 2761 3914 
Q 2772 3894 2778 3870 
Q 2784 3847 2787 3817 
Q 2791 3788 2791 3744 
Q 2791 3688 2789 3647 
Q 2788 3606 2777 3581 
Q 2766 3556 2748 3543 
Q 2731 3531 2703 3531 
Q 2669 3531 2609 3553 
Q 2550 3575 2465 3601 
Q 2381 3628 2261 3650 
Q 2141 3672 1981 3672 
Q 1691 3672 1481 3553 
Q 1272 3434 1139 3234 
Q 1006 3034 942 2770 
Q 878 2506 869 2219 
Q 950 2266 1051 2312 
Q 1153 2359 1273 2396 
Q 1394 2434 1528 2457 
Q 1663 2481 1816 2481 
Q 2144 2481 2369 2392 
Q 2594 2303 2733 2145 
Q 2872 1988 2931 1773 
Q 2991 1559 2991 1309 
z
M 2447 1259 
Q 2447 1441 2411 1589 
Q 2375 1738 2290 1841 
Q 2206 1944 2065 2000 
Q 1925 2056 1719 2056 
Q 1603 2056 1487 2036 
Q 1372 2016 1264 1980 
Q 1156 1944 1057 1895 
Q 959 1847 878 1791 
Q 878 1388 929 1116 
Q 981 844 1079 680 
Q 1178 516 1325 445 
Q 1472 375 1669 375 
Q 1869 375 2016 450 
Q 2163 525 2259 651 
Q 2356 778 2401 936 
Q 2447 1094 2447 1259 
z
" transform="scale(0.015625)"/>
       </defs>
       <use xlink:href="#Calibri-36"/>
       <use xlink:href="#Calibri-30" x="50.683594"/>
      </g>
     </g>
    </g>
    <g id="xtick_5">
     <g id="line2d_5">
      <g>
       <use xlink:href="#m3fb31bd88f" x="648.054151" y="353.32" style="stroke: #000000; stroke-width: 0.8"/>
      </g>
     </g>
     <g id="text_5">
      <!-- 80 -->
      <g transform="translate(633.861651 379.364375) scale(0.28 -0.28)">
       <defs>
        <path id="Calibri-38" d="M 2981 1038 
Q 2981 775 2887 570 
Q 2794 366 2617 225 
Q 2441 84 2181 12 
Q 1922 -59 1588 -59 
Q 1275 -59 1028 6 
Q 781 72 609 200 
Q 438 328 347 515 
Q 256 703 256 944 
Q 256 1134 318 1293 
Q 381 1453 498 1587 
Q 616 1722 787 1839 
Q 959 1956 1175 2063 
Q 988 2159 844 2267 
Q 700 2375 600 2501 
Q 500 2628 448 2772 
Q 397 2916 397 3084 
Q 397 3297 473 3483 
Q 550 3669 704 3806 
Q 859 3944 1098 4023 
Q 1338 4103 1656 4103 
Q 1963 4103 2186 4029 
Q 2409 3956 2554 3829 
Q 2700 3703 2769 3531 
Q 2838 3359 2838 3163 
Q 2838 3003 2786 2856 
Q 2734 2709 2634 2578 
Q 2534 2447 2389 2333 
Q 2244 2219 2056 2119 
Q 2278 2009 2451 1893 
Q 2625 1778 2742 1645 
Q 2859 1513 2920 1364 
Q 2981 1216 2981 1038 
z
M 2306 3113 
Q 2306 3244 2261 3350 
Q 2216 3456 2128 3531 
Q 2041 3606 1911 3645 
Q 1781 3684 1616 3684 
Q 1278 3684 1104 3531 
Q 931 3378 931 3113 
Q 931 2991 973 2886 
Q 1016 2781 1105 2687 
Q 1194 2594 1330 2505 
Q 1466 2416 1653 2319 
Q 1969 2481 2137 2678 
Q 2306 2875 2306 3113 
z
M 2438 981 
Q 2438 1125 2384 1242 
Q 2331 1359 2223 1461 
Q 2116 1563 1955 1658 
Q 1794 1753 1581 1856 
Q 1384 1759 1236 1662 
Q 1088 1566 992 1462 
Q 897 1359 848 1245 
Q 800 1131 800 994 
Q 800 691 1008 525 
Q 1216 359 1628 359 
Q 2028 359 2233 526 
Q 2438 694 2438 981 
z
" transform="scale(0.015625)"/>
       </defs>
       <use xlink:href="#Calibri-38"/>
       <use xlink:href="#Calibri-30" x="50.683594"/>
      </g>
     </g>
    </g>
    <g id="text_6">
     <!-- Time slots -->
     <g transform="translate(359.029063 411.468437) scale(0.34 -0.34)">
      <defs>
       <path id="Calibri-54" d="M 3072 3813 
Q 3072 3753 3065 3709 
Q 3059 3666 3045 3639 
Q 3031 3613 3011 3600 
Q 2991 3588 2966 3588 
L 1828 3588 
L 1828 81 
Q 1828 56 1815 37 
Q 1803 19 1772 8 
Q 1741 -3 1689 -11 
Q 1638 -19 1559 -19 
Q 1484 -19 1431 -11 
Q 1378 -3 1347 8 
Q 1316 19 1303 37 
Q 1291 56 1291 81 
L 1291 3588 
L 153 3588 
Q 128 3588 108 3600 
Q 88 3613 75 3639 
Q 63 3666 55 3709 
Q 47 3753 47 3813 
Q 47 3872 55 3917 
Q 63 3963 75 3991 
Q 88 4019 108 4031 
Q 128 4044 153 4044 
L 2966 4044 
Q 2991 4044 3011 4031 
Q 3031 4019 3045 3991 
Q 3059 3963 3065 3917 
Q 3072 3872 3072 3813 
z
" transform="scale(0.015625)"/>
       <path id="Calibri-69" d="M 994 78 
Q 994 53 981 36 
Q 969 19 941 6 
Q 913 -6 863 -12 
Q 813 -19 734 -19 
Q 659 -19 609 -12 
Q 559 -6 529 6 
Q 500 19 489 36 
Q 478 53 478 78 
L 478 2891 
Q 478 2913 489 2931 
Q 500 2950 529 2962 
Q 559 2975 609 2981 
Q 659 2988 734 2988 
Q 813 2988 863 2981 
Q 913 2975 941 2962 
Q 969 2950 981 2931 
Q 994 2913 994 2891 
L 994 78 
z
M 1053 3841 
Q 1053 3659 984 3593 
Q 916 3528 731 3528 
Q 550 3528 483 3592 
Q 416 3656 416 3834 
Q 416 4016 484 4081 
Q 553 4147 738 4147 
Q 919 4147 986 4083 
Q 1053 4019 1053 3841 
z
" transform="scale(0.015625)"/>
       <path id="Calibri-6d" d="M 4650 78 
Q 4650 53 4637 36 
Q 4625 19 4597 6 
Q 4569 -6 4519 -12 
Q 4469 -19 4394 -19 
Q 4316 -19 4266 -12 
Q 4216 -6 4186 6 
Q 4156 19 4143 36 
Q 4131 53 4131 78 
L 4131 1788 
Q 4131 1966 4100 2112 
Q 4069 2259 4000 2365 
Q 3931 2472 3825 2528 
Q 3719 2584 3575 2584 
Q 3397 2584 3217 2446 
Q 3038 2309 2822 2044 
L 2822 78 
Q 2822 53 2809 36 
Q 2797 19 2767 6 
Q 2738 -6 2688 -12 
Q 2638 -19 2563 -19 
Q 2491 -19 2439 -12 
Q 2388 -6 2358 6 
Q 2328 19 2317 36 
Q 2306 53 2306 78 
L 2306 1788 
Q 2306 1966 2272 2112 
Q 2238 2259 2169 2365 
Q 2100 2472 1995 2528 
Q 1891 2584 1747 2584 
Q 1569 2584 1387 2446 
Q 1206 2309 994 2044 
L 994 78 
Q 994 53 981 36 
Q 969 19 941 6 
Q 913 -6 863 -12 
Q 813 -19 734 -19 
Q 659 -19 609 -12 
Q 559 -6 529 6 
Q 500 19 489 36 
Q 478 53 478 78 
L 478 2891 
Q 478 2916 487 2933 
Q 497 2950 525 2964 
Q 553 2978 597 2983 
Q 641 2988 713 2988 
Q 781 2988 826 2983 
Q 872 2978 897 2964 
Q 922 2950 933 2933 
Q 944 2916 944 2891 
L 944 2519 
Q 1181 2784 1404 2907 
Q 1628 3031 1856 3031 
Q 2031 3031 2170 2990 
Q 2309 2950 2415 2876 
Q 2522 2803 2597 2701 
Q 2672 2600 2722 2475 
Q 2863 2628 2989 2734 
Q 3116 2841 3233 2906 
Q 3350 2972 3461 3001 
Q 3572 3031 3684 3031 
Q 3956 3031 4140 2936 
Q 4325 2841 4439 2681 
Q 4553 2522 4601 2308 
Q 4650 2094 4650 1856 
L 4650 78 
z
" transform="scale(0.015625)"/>
       <path id="Calibri-65" d="M 2878 1606 
Q 2878 1484 2817 1432 
Q 2756 1381 2678 1381 
L 834 1381 
Q 834 1147 881 959 
Q 928 772 1037 637 
Q 1147 503 1322 431 
Q 1497 359 1750 359 
Q 1950 359 2106 392 
Q 2263 425 2377 465 
Q 2491 506 2564 539 
Q 2638 572 2675 572 
Q 2697 572 2714 561 
Q 2731 550 2740 528 
Q 2750 506 2754 467 
Q 2759 428 2759 372 
Q 2759 331 2756 301 
Q 2753 272 2748 248 
Q 2744 225 2733 206 
Q 2722 188 2705 170 
Q 2688 153 2603 114 
Q 2519 75 2384 37 
Q 2250 0 2073 -29 
Q 1897 -59 1697 -59 
Q 1350 -59 1089 37 
Q 828 134 650 325 
Q 472 516 381 803 
Q 291 1091 291 1472 
Q 291 1834 384 2123 
Q 478 2413 654 2614 
Q 831 2816 1081 2923 
Q 1331 3031 1641 3031 
Q 1972 3031 2205 2925 
Q 2438 2819 2588 2639 
Q 2738 2459 2808 2217 
Q 2878 1975 2878 1700 
L 2878 1606 
z
M 2359 1759 
Q 2369 2166 2180 2397 
Q 1991 2628 1619 2628 
Q 1428 2628 1284 2556 
Q 1141 2484 1044 2365 
Q 947 2247 894 2089 
Q 841 1931 834 1759 
L 2359 1759 
z
" transform="scale(0.015625)"/>
       <path id="Calibri-20" transform="scale(0.015625)"/>
       <path id="Calibri-73" d="M 2244 844 
Q 2244 628 2164 459 
Q 2084 291 1937 175 
Q 1791 59 1587 0 
Q 1384 -59 1141 -59 
Q 991 -59 855 -36 
Q 719 -13 611 23 
Q 503 59 428 98 
Q 353 138 318 169 
Q 284 200 268 256 
Q 253 313 253 409 
Q 253 469 259 509 
Q 266 550 275 575 
Q 284 600 301 611 
Q 319 622 341 622 
Q 375 622 442 580 
Q 509 538 607 488 
Q 706 438 840 395 
Q 975 353 1150 353 
Q 1281 353 1387 381 
Q 1494 409 1572 464 
Q 1650 519 1692 603 
Q 1734 688 1734 803 
Q 1734 922 1673 1003 
Q 1613 1084 1513 1146 
Q 1413 1209 1288 1257 
Q 1163 1306 1030 1359 
Q 897 1413 770 1480 
Q 644 1547 544 1644 
Q 444 1741 383 1875 
Q 322 2009 322 2197 
Q 322 2363 386 2514 
Q 450 2666 578 2780 
Q 706 2894 898 2962 
Q 1091 3031 1347 3031 
Q 1459 3031 1571 3012 
Q 1684 2994 1775 2966 
Q 1866 2938 1930 2905 
Q 1994 2872 2026 2847 
Q 2059 2822 2070 2803 
Q 2081 2784 2086 2761 
Q 2091 2738 2095 2703 
Q 2100 2669 2100 2619 
Q 2100 2566 2095 2527 
Q 2091 2488 2080 2463 
Q 2069 2438 2053 2427 
Q 2038 2416 2019 2416 
Q 1991 2416 1937 2450 
Q 1884 2484 1800 2523 
Q 1716 2563 1602 2597 
Q 1488 2631 1341 2631 
Q 1209 2631 1109 2601 
Q 1009 2572 945 2517 
Q 881 2463 848 2388 
Q 816 2313 816 2225 
Q 816 2103 878 2020 
Q 941 1938 1041 1875 
Q 1141 1813 1269 1763 
Q 1397 1713 1530 1659 
Q 1663 1606 1792 1540 
Q 1922 1475 2022 1381 
Q 2122 1288 2183 1156 
Q 2244 1025 2244 844 
z
" transform="scale(0.015625)"/>
       <path id="Calibri-6c" d="M 994 78 
Q 994 53 981 36 
Q 969 19 941 6 
Q 913 -6 863 -12 
Q 813 -19 734 -19 
Q 659 -19 609 -12 
Q 559 -6 529 6 
Q 500 19 489 36 
Q 478 53 478 78 
L 478 4253 
Q 478 4278 489 4297 
Q 500 4316 529 4328 
Q 559 4341 609 4347 
Q 659 4353 734 4353 
Q 813 4353 863 4347 
Q 913 4341 941 4328 
Q 969 4316 981 4297 
Q 994 4278 994 4253 
L 994 78 
z
" transform="scale(0.015625)"/>
       <path id="Calibri-6f" d="M 3094 1516 
Q 3094 1172 3003 883 
Q 2913 594 2733 384 
Q 2553 175 2283 58 
Q 2013 -59 1656 -59 
Q 1309 -59 1051 44 
Q 794 147 622 344 
Q 450 541 365 822 
Q 281 1103 281 1459 
Q 281 1803 370 2092 
Q 459 2381 639 2590 
Q 819 2800 1087 2915 
Q 1356 3031 1716 3031 
Q 2063 3031 2320 2928 
Q 2578 2825 2750 2628 
Q 2922 2431 3008 2150 
Q 3094 1869 3094 1516 
z
M 2550 1481 
Q 2550 1709 2508 1912 
Q 2466 2116 2369 2269 
Q 2272 2422 2106 2511 
Q 1941 2600 1694 2600 
Q 1466 2600 1302 2519 
Q 1138 2438 1031 2289 
Q 925 2141 873 1937 
Q 822 1734 822 1494 
Q 822 1263 864 1059 
Q 906 856 1004 704 
Q 1103 553 1268 464 
Q 1434 375 1681 375 
Q 1906 375 2072 456 
Q 2238 538 2344 684 
Q 2450 831 2500 1034 
Q 2550 1238 2550 1481 
z
" transform="scale(0.015625)"/>
       <path id="Calibri-74" d="M 1941 284 
Q 1941 194 1928 141 
Q 1916 88 1891 63 
Q 1866 38 1816 16 
Q 1766 -6 1702 -20 
Q 1638 -34 1566 -43 
Q 1494 -53 1422 -53 
Q 1203 -53 1047 5 
Q 891 63 791 180 
Q 691 297 645 476 
Q 600 656 600 900 
L 600 2544 
L 206 2544 
Q 159 2544 131 2594 
Q 103 2644 103 2756 
Q 103 2816 111 2856 
Q 119 2897 131 2923 
Q 144 2950 164 2961 
Q 184 2972 209 2972 
L 600 2972 
L 600 3641 
Q 600 3663 611 3681 
Q 622 3700 651 3714 
Q 681 3728 731 3734 
Q 781 3741 856 3741 
Q 934 3741 984 3734 
Q 1034 3728 1062 3714 
Q 1091 3700 1103 3681 
Q 1116 3663 1116 3641 
L 1116 2972 
L 1838 2972 
Q 1863 2972 1881 2961 
Q 1900 2950 1914 2923 
Q 1928 2897 1934 2856 
Q 1941 2816 1941 2756 
Q 1941 2644 1912 2594 
Q 1884 2544 1838 2544 
L 1116 2544 
L 1116 975 
Q 1116 684 1202 536 
Q 1288 388 1509 388 
Q 1581 388 1637 402 
Q 1694 416 1737 431 
Q 1781 447 1812 461 
Q 1844 475 1869 475 
Q 1884 475 1898 467 
Q 1913 459 1920 437 
Q 1928 416 1934 378 
Q 1941 341 1941 284 
z
" transform="scale(0.015625)"/>
      </defs>
      <use xlink:href="#Calibri-54"/>
      <use xlink:href="#Calibri-69" x="48.730469"/>
      <use xlink:href="#Calibri-6d" x="71.679688"/>
      <use xlink:href="#Calibri-65" x="151.5625"/>
      <use xlink:href="#Calibri-20" x="201.318359"/>
      <use xlink:href="#Calibri-73" x="223.925781"/>
      <use xlink:href="#Calibri-6c" x="263.037109"/>
      <use xlink:href="#Calibri-6f" x="285.986328"/>
      <use xlink:href="#Calibri-74" x="338.720703"/>
      <use xlink:href="#Calibri-73" x="372.216797"/>
     </g>
    </g>
   </g>
   <g id="matplotlib.axis_2">
    <g id="ytick_1">
     <g id="line2d_6">
      <defs>
       <path id="m188714c288" d="M 0 0 
L -3.5 0 
" style="stroke: #000000; stroke-width: 0.8"/>
      </defs>
      <g>
       <use xlink:href="#m188714c288" x="76.7175" y="344.874866" style="stroke: #000000; stroke-width: 0.8"/>
      </g>
     </g>
     <g id="text_7">
      <!-- 0 -->
      <g transform="translate(55.525 354.397053) scale(0.28 -0.28)">
       <use xlink:href="#Calibri-30"/>
      </g>
     </g>
    </g>
    <g id="ytick_2">
     <g id="line2d_7">
      <g>
       <use xlink:href="#m188714c288" x="76.7175" y="277.083302" style="stroke: #000000; stroke-width: 0.8"/>
      </g>
     </g>
     <g id="text_8">
      <!-- 20 -->
      <g transform="translate(41.3325 286.605489) scale(0.28 -0.28)">
       <use xlink:href="#Calibri-32"/>
       <use xlink:href="#Calibri-30" x="50.683594"/>
      </g>
     </g>
    </g>
    <g id="ytick_3">
     <g id="line2d_8">
      <g>
       <use xlink:href="#m188714c288" x="76.7175" y="209.291737" style="stroke: #000000; stroke-width: 0.8"/>
      </g>
     </g>
     <g id="text_9">
      <!-- 40 -->
      <g transform="translate(41.3325 218.813925) scale(0.28 -0.28)">
       <use xlink:href="#Calibri-34"/>
       <use xlink:href="#Calibri-30" x="50.683594"/>
      </g>
     </g>
    </g>
    <g id="ytick_4">
     <g id="line2d_9">
      <g>
       <use xlink:href="#m188714c288" x="76.7175" y="141.500173" style="stroke: #000000; stroke-width: 0.8"/>
      </g>
     </g>
     <g id="text_10">
      <!-- 60 -->
      <g transform="translate(41.3325 151.022361) scale(0.28 -0.28)">
       <use xlink:href="#Calibri-36"/>
       <use xlink:href="#Calibri-30" x="50.683594"/>
      </g>
     </g>
    </g>
    <g id="ytick_5">
     <g id="line2d_10">
      <g>
       <use xlink:href="#m188714c288" x="76.7175" y="73.708609" style="stroke: #000000; stroke-width: 0.8"/>
      </g>
     </g>
     <g id="text_11">
      <!-- 80 -->
      <g transform="translate(41.3325 83.230796) scale(0.28 -0.28)">
       <use xlink:href="#Calibri-38"/>
       <use xlink:href="#Calibri-30" x="50.683594"/>
      </g>
     </g>
    </g>
    <g id="text_12">
     <!-- Price (£/MWh) -->
     <g transform="translate(31.286875 282.445938) rotate(-90) scale(0.34 -0.34)">
      <defs>
       <path id="Calibri-50" d="M 3022 2859 
Q 3022 2556 2922 2312 
Q 2822 2069 2636 1897 
Q 2450 1725 2179 1631 
Q 1909 1538 1534 1538 
L 1075 1538 
L 1075 81 
Q 1075 56 1061 37 
Q 1047 19 1017 8 
Q 988 -3 936 -11 
Q 884 -19 806 -19 
Q 728 -19 676 -11 
Q 625 -3 594 8 
Q 563 19 550 37 
Q 538 56 538 81 
L 538 3813 
Q 538 3938 603 3991 
Q 669 4044 750 4044 
L 1616 4044 
Q 1747 4044 1867 4033 
Q 1988 4022 2152 3986 
Q 2316 3950 2486 3851 
Q 2656 3753 2775 3609 
Q 2894 3466 2958 3277 
Q 3022 3088 3022 2859 
z
M 2456 2816 
Q 2456 3063 2364 3228 
Q 2272 3394 2136 3475 
Q 2000 3556 1854 3578 
Q 1709 3600 1572 3600 
L 1075 3600 
L 1075 1978 
L 1559 1978 
Q 1803 1978 1964 2040 
Q 2125 2103 2234 2214 
Q 2344 2325 2400 2479 
Q 2456 2634 2456 2816 
z
" transform="scale(0.015625)"/>
       <path id="Calibri-72" d="M 2122 2706 
Q 2122 2638 2119 2591 
Q 2116 2544 2106 2517 
Q 2097 2491 2083 2477 
Q 2069 2463 2044 2463 
Q 2019 2463 1983 2477 
Q 1947 2491 1901 2505 
Q 1856 2519 1800 2531 
Q 1744 2544 1678 2544 
Q 1600 2544 1525 2512 
Q 1450 2481 1367 2409 
Q 1284 2338 1193 2219 
Q 1103 2100 994 1928 
L 994 78 
Q 994 53 981 36 
Q 969 19 941 6 
Q 913 -6 863 -12 
Q 813 -19 734 -19 
Q 659 -19 609 -12 
Q 559 -6 529 6 
Q 500 19 489 36 
Q 478 53 478 78 
L 478 2891 
Q 478 2916 487 2933 
Q 497 2950 525 2964 
Q 553 2978 597 2983 
Q 641 2988 713 2988 
Q 781 2988 826 2983 
Q 872 2978 897 2964 
Q 922 2950 933 2933 
Q 944 2916 944 2891 
L 944 2481 
Q 1059 2650 1161 2756 
Q 1263 2863 1353 2923 
Q 1444 2984 1533 3007 
Q 1622 3031 1713 3031 
Q 1753 3031 1804 3026 
Q 1856 3022 1912 3009 
Q 1969 2997 2014 2981 
Q 2059 2966 2078 2950 
Q 2097 2934 2103 2920 
Q 2109 2906 2114 2884 
Q 2119 2863 2120 2820 
Q 2122 2778 2122 2706 
z
" transform="scale(0.015625)"/>
       <path id="Calibri-63" d="M 2500 506 
Q 2500 453 2497 414 
Q 2494 375 2486 348 
Q 2478 322 2467 301 
Q 2456 281 2417 242 
Q 2378 203 2284 145 
Q 2191 88 2073 42 
Q 1956 -3 1818 -31 
Q 1681 -59 1534 -59 
Q 1231 -59 997 41 
Q 763 141 605 333 
Q 447 525 364 804 
Q 281 1084 281 1450 
Q 281 1866 382 2164 
Q 484 2463 661 2653 
Q 838 2844 1077 2936 
Q 1316 3028 1594 3028 
Q 1728 3028 1854 3003 
Q 1981 2978 2087 2937 
Q 2194 2897 2276 2844 
Q 2359 2791 2396 2753 
Q 2434 2716 2448 2694 
Q 2463 2672 2472 2642 
Q 2481 2613 2484 2575 
Q 2488 2538 2488 2481 
Q 2488 2359 2459 2311 
Q 2431 2263 2391 2263 
Q 2344 2263 2283 2314 
Q 2222 2366 2128 2428 
Q 2034 2491 1901 2542 
Q 1769 2594 1588 2594 
Q 1216 2594 1017 2308 
Q 819 2022 819 1478 
Q 819 1206 870 1001 
Q 922 797 1022 659 
Q 1122 522 1267 455 
Q 1413 388 1600 388 
Q 1778 388 1912 444 
Q 2047 500 2145 567 
Q 2244 634 2311 689 
Q 2378 744 2416 744 
Q 2438 744 2453 731 
Q 2469 719 2480 689 
Q 2491 659 2495 614 
Q 2500 569 2500 506 
z
" transform="scale(0.015625)"/>
       <path id="Calibri-28" d="M 1547 4306 
Q 1250 3678 1104 3017 
Q 959 2356 959 1688 
Q 959 1016 1107 356 
Q 1256 -303 1541 -938 
Q 1556 -975 1557 -1001 
Q 1559 -1028 1537 -1045 
Q 1516 -1063 1470 -1070 
Q 1425 -1078 1347 -1078 
Q 1291 -1078 1250 -1075 
Q 1209 -1072 1179 -1062 
Q 1150 -1053 1131 -1040 
Q 1113 -1028 1103 -1013 
Q 934 -694 806 -367 
Q 678 -41 590 296 
Q 503 634 459 979 
Q 416 1325 416 1678 
Q 416 2031 464 2375 
Q 513 2719 602 3058 
Q 691 3397 819 3725 
Q 947 4053 1106 4375 
Q 1109 4388 1123 4397 
Q 1138 4406 1163 4415 
Q 1188 4425 1231 4429 
Q 1275 4434 1344 4434 
Q 1416 4434 1459 4425 
Q 1503 4416 1528 4400 
Q 1553 4384 1556 4359 
Q 1559 4334 1547 4306 
z
" transform="scale(0.015625)"/>
       <path id="Calibri-a3" d="M 2969 216 
Q 2969 156 2959 115 
Q 2950 75 2934 50 
Q 2919 25 2898 12 
Q 2878 0 2859 0 
L 372 0 
Q 350 0 331 12 
Q 313 25 295 50 
Q 278 75 268 115 
Q 259 156 259 216 
Q 259 272 267 314 
Q 275 356 290 382 
Q 306 409 326 421 
Q 347 434 372 434 
L 756 434 
L 756 1853 
L 372 1853 
Q 350 1853 331 1864 
Q 313 1875 295 1900 
Q 278 1925 268 1964 
Q 259 2003 259 2066 
Q 259 2119 267 2159 
Q 275 2200 290 2226 
Q 306 2253 326 2264 
Q 347 2275 372 2275 
L 756 2275 
L 756 2650 
Q 756 3034 843 3309 
Q 931 3584 1092 3759 
Q 1253 3934 1481 4014 
Q 1709 4094 1991 4094 
Q 2122 4094 2248 4070 
Q 2375 4047 2483 4006 
Q 2591 3966 2677 3912 
Q 2763 3859 2805 3818 
Q 2847 3778 2862 3753 
Q 2878 3728 2887 3697 
Q 2897 3666 2900 3628 
Q 2903 3591 2903 3534 
Q 2903 3481 2897 3440 
Q 2891 3400 2878 3373 
Q 2866 3347 2848 3333 
Q 2831 3319 2809 3319 
Q 2766 3319 2705 3372 
Q 2644 3425 2550 3487 
Q 2456 3550 2323 3603 
Q 2191 3656 2006 3656 
Q 1819 3656 1683 3592 
Q 1547 3528 1459 3403 
Q 1372 3278 1328 3093 
Q 1284 2909 1284 2669 
L 1284 2275 
L 2309 2275 
Q 2334 2275 2354 2264 
Q 2375 2253 2389 2226 
Q 2403 2200 2411 2159 
Q 2419 2119 2419 2066 
Q 2419 2003 2409 1964 
Q 2400 1925 2384 1900 
Q 2369 1875 2350 1864 
Q 2331 1853 2309 1853 
L 1284 1853 
L 1284 434 
L 2859 434 
Q 2881 434 2901 421 
Q 2922 409 2937 382 
Q 2953 356 2961 314 
Q 2969 272 2969 216 
z
" transform="scale(0.015625)"/>
       <path id="Calibri-2f" d="M 525 -753 
Q 513 -794 492 -817 
Q 472 -841 440 -853 
Q 409 -866 364 -872 
Q 319 -878 253 -878 
Q 175 -878 123 -867 
Q 72 -856 44 -836 
Q 16 -816 9 -786 
Q 3 -756 22 -716 
L 1913 4469 
Q 1925 4509 1945 4532 
Q 1966 4556 1995 4570 
Q 2025 4584 2072 4589 
Q 2119 4594 2184 4594 
Q 2263 4594 2313 4583 
Q 2363 4572 2391 4553 
Q 2419 4534 2425 4503 
Q 2431 4472 2416 4431 
L 525 -753 
z
" transform="scale(0.015625)"/>
       <path id="Calibri-4d" d="M 4934 81 
Q 4934 56 4921 37 
Q 4909 19 4878 8 
Q 4847 -3 4798 -11 
Q 4750 -19 4672 -19 
Q 4600 -19 4548 -11 
Q 4497 -3 4467 8 
Q 4438 19 4425 37 
Q 4413 56 4413 81 
L 4413 3603 
L 4406 3603 
L 2966 66 
Q 2956 44 2939 28 
Q 2922 13 2889 2 
Q 2856 -9 2811 -14 
Q 2766 -19 2703 -19 
Q 2638 -19 2591 -12 
Q 2544 -6 2512 5 
Q 2481 16 2464 31 
Q 2447 47 2441 66 
L 1063 3603 
L 1059 3603 
L 1059 81 
Q 1059 56 1046 37 
Q 1034 19 1003 8 
Q 972 -3 922 -11 
Q 872 -19 794 -19 
Q 719 -19 669 -11 
Q 619 -3 589 8 
Q 559 19 548 37 
Q 538 56 538 81 
L 538 3800 
Q 538 3931 606 3987 
Q 675 4044 759 4044 
L 1084 4044 
Q 1184 4044 1259 4025 
Q 1334 4006 1390 3965 
Q 1447 3925 1484 3862 
Q 1522 3800 1550 3716 
L 2722 788 
L 2738 788 
L 3956 3706 
Q 3991 3800 4031 3865 
Q 4072 3931 4120 3970 
Q 4169 4009 4228 4026 
Q 4288 4044 4366 4044 
L 4706 4044 
Q 4753 4044 4795 4030 
Q 4838 4016 4867 3986 
Q 4897 3956 4915 3911 
Q 4934 3866 4934 3800 
L 4934 81 
z
" transform="scale(0.015625)"/>
       <path id="Calibri-57" d="M 4409 119 
Q 4397 75 4372 48 
Q 4347 22 4303 8 
Q 4259 -6 4195 -12 
Q 4131 -19 4038 -19 
Q 3941 -19 3873 -12 
Q 3806 -6 3762 8 
Q 3719 22 3697 48 
Q 3675 75 3663 119 
L 2816 3172 
L 2809 3172 
L 2028 119 
Q 2019 75 1997 48 
Q 1975 22 1934 8 
Q 1894 -6 1830 -12 
Q 1766 -19 1666 -19 
Q 1563 -19 1494 -12 
Q 1425 -6 1381 8 
Q 1338 22 1314 48 
Q 1291 75 1281 119 
L 213 3853 
Q 194 3925 192 3965 
Q 191 4006 217 4028 
Q 244 4050 303 4056 
Q 363 4063 463 4063 
Q 559 4063 615 4058 
Q 672 4053 701 4040 
Q 731 4028 742 4006 
Q 753 3984 759 3950 
L 1669 563 
L 1672 563 
L 2534 3944 
Q 2544 3978 2558 4001 
Q 2572 4025 2603 4037 
Q 2634 4050 2692 4056 
Q 2750 4063 2844 4063 
Q 2931 4063 2982 4056 
Q 3034 4050 3065 4037 
Q 3097 4025 3111 4001 
Q 3125 3978 3134 3944 
L 4063 563 
L 4069 563 
L 4959 3947 
Q 4969 3978 4978 4001 
Q 4988 4025 5017 4037 
Q 5047 4050 5101 4056 
Q 5156 4063 5247 4063 
Q 5341 4063 5395 4055 
Q 5450 4047 5475 4025 
Q 5500 4003 5498 3962 
Q 5497 3922 5481 3850 
L 4409 119 
z
" transform="scale(0.015625)"/>
       <path id="Calibri-68" d="M 2900 78 
Q 2900 53 2887 36 
Q 2875 19 2847 6 
Q 2819 -6 2769 -12 
Q 2719 -19 2644 -19 
Q 2566 -19 2516 -12 
Q 2466 -6 2437 6 
Q 2409 19 2396 36 
Q 2384 53 2384 78 
L 2384 1725 
Q 2384 1966 2346 2112 
Q 2309 2259 2237 2365 
Q 2166 2472 2052 2528 
Q 1938 2584 1788 2584 
Q 1594 2584 1400 2446 
Q 1206 2309 994 2044 
L 994 78 
Q 994 53 981 36 
Q 969 19 941 6 
Q 913 -6 863 -12 
Q 813 -19 734 -19 
Q 659 -19 609 -12 
Q 559 -6 529 6 
Q 500 19 489 36 
Q 478 53 478 78 
L 478 4253 
Q 478 4278 489 4297 
Q 500 4316 529 4328 
Q 559 4341 609 4347 
Q 659 4353 734 4353 
Q 813 4353 863 4347 
Q 913 4341 941 4328 
Q 969 4316 981 4297 
Q 994 4278 994 4253 
L 994 2569 
Q 1216 2803 1441 2917 
Q 1666 3031 1894 3031 
Q 2175 3031 2367 2936 
Q 2559 2841 2678 2681 
Q 2797 2522 2848 2308 
Q 2900 2094 2900 1791 
L 2900 78 
z
" transform="scale(0.015625)"/>
       <path id="Calibri-29" d="M 1522 1678 
Q 1522 1325 1478 979 
Q 1434 634 1346 296 
Q 1259 -41 1132 -367 
Q 1006 -694 838 -1013 
Q 828 -1028 809 -1040 
Q 791 -1053 761 -1062 
Q 731 -1072 690 -1075 
Q 650 -1078 594 -1078 
Q 513 -1078 467 -1070 
Q 422 -1063 401 -1045 
Q 381 -1028 382 -1001 
Q 384 -975 400 -938 
Q 688 -306 834 355 
Q 981 1016 981 1688 
Q 981 2356 834 3017 
Q 688 3678 394 4306 
Q 381 4334 384 4359 
Q 388 4384 413 4400 
Q 438 4416 481 4425 
Q 525 4434 597 4434 
Q 663 4434 706 4429 
Q 750 4425 776 4415 
Q 803 4406 815 4397 
Q 828 4388 834 4375 
Q 1156 3734 1339 3057 
Q 1522 2381 1522 1678 
z
" transform="scale(0.015625)"/>
      </defs>
      <use xlink:href="#Calibri-50"/>
      <use xlink:href="#Calibri-72" x="51.660156"/>
      <use xlink:href="#Calibri-69" x="86.523438"/>
      <use xlink:href="#Calibri-63" x="109.472656"/>
      <use xlink:href="#Calibri-65" x="151.757812"/>
      <use xlink:href="#Calibri-20" x="201.513672"/>
      <use xlink:href="#Calibri-28" x="224.121094"/>
      <use xlink:href="#Calibri-a3" x="254.443359"/>
      <use xlink:href="#Calibri-2f" x="305.126953"/>
      <use xlink:href="#Calibri-4d" x="343.75"/>
      <use xlink:href="#Calibri-57" x="429.248047"/>
      <use xlink:href="#Calibri-68" x="518.212891"/>
      <use xlink:href="#Calibri-29" x="570.751953"/>
     </g>
    </g>
   </g>
   <g id="line2d_11">
    <path d="M 108.739318 232.069703 
L 115.480754 232.069703 
L 122.222189 232.069703 
L 128.963624 232.069703 
L 135.70506 243.18752 
L 142.446495 243.18752 
L 149.187931 243.18752 
L 155.929366 243.18752 
L 162.670801 246.068661 
L 169.412237 246.068661 
L 176.153672 246.068661 
L 182.895108 246.068661 
L 189.636543 248.305783 
L 196.377978 248.305783 
L 203.119414 248.305783 
L 209.860849 248.305783 
L 216.602285 227.392085 
L 223.34372 227.392085 
L 230.085156 227.392085 
L 236.826591 227.392085 
L 243.568026 175.362059 
L 250.309462 175.362059 
L 257.050897 175.362059 
L 263.792333 175.362059 
L 270.533768 102.452232 
L 277.275203 102.452232 
L 284.016639 102.452232 
L 290.758074 102.452232 
L 297.49951 80.69114 
L 304.240945 80.69114 
L 310.98238 80.69114 
L 317.723816 80.69114 
L 324.465251 67.03114 
L 331.206687 67.03114 
L 337.948122 67.03114 
L 344.689557 67.03114 
L 351.430993 46.930941 
L 358.172428 46.930941 
L 364.913864 46.930941 
L 371.655299 46.930941 
L 378.396734 30.457591 
L 385.13817 30.457591 
L 391.879605 30.457591 
L 398.621041 30.457591 
L 405.362476 22.932727 
L 412.103911 22.932727 
L 418.845347 22.932727 
L 425.586782 22.932727 
L 432.328218 31.982901 
L 439.069653 31.982901 
L 445.811089 31.982901 
L 452.552524 31.982901 
L 459.293959 39.711139 
L 466.035395 39.711139 
L 472.77683 39.711139 
L 479.518266 39.711139 
L 486.259701 39.507765 
L 493.001136 39.507765 
L 499.742572 39.507765 
L 506.484007 39.507765 
L 513.225443 48.490147 
L 519.966878 48.490147 
L 526.708313 48.490147 
L 533.449749 48.490147 
L 540.191184 55.506574 
L 546.93262 55.506574 
L 553.674055 55.506574 
L 560.41549 55.506574 
L 567.156926 73.810296 
L 573.898361 73.810296 
L 580.639797 73.810296 
L 587.381232 73.810296 
L 594.122667 73.979775 
L 600.864103 73.979775 
L 607.605538 73.979775 
L 614.346974 73.979775 
L 621.088409 81.063994 
L 627.829844 81.063994 
L 634.57128 81.063994 
L 641.312715 81.063994 
L 648.054151 86.31784 
L 654.795586 86.31784 
L 661.537022 86.31784 
L 668.278457 86.31784 
L 675.019892 124.348907 
L 681.761328 124.348907 
L 688.502763 124.348907 
L 695.244199 124.348907 
L 701.985634 164.98995 
L 708.727069 164.98995 
L 715.468505 164.98995 
L 722.20994 164.98995 
L 728.951376 229.086874 
L 735.692811 229.086874 
L 742.434246 229.086874 
L 749.175682 229.086874 
" clip-path="url(#pb185757527)" style="fill: none; stroke: #0000ff; stroke-width: 1.5; stroke-linecap: square"/>
    <defs>
     <path id="m02df06fc54" d="M 0 3 
C 0.795609 3 1.55874 2.683901 2.12132 2.12132 
C 2.683901 1.55874 3 0.795609 3 0 
C 3 -0.795609 2.683901 -1.55874 2.12132 -2.12132 
C 1.55874 -2.683901 0.795609 -3 0 -3 
C -0.795609 -3 -1.55874 -2.683901 -2.12132 -2.12132 
C -2.683901 -1.55874 -3 -0.795609 -3 0 
C -3 0.795609 -2.683901 1.55874 -2.12132 2.12132 
C -1.55874 2.683901 -0.795609 3 0 3 
z
" style="stroke: #0000ff"/>
    </defs>
    <g clip-path="url(#pb185757527)">
     <use xlink:href="#m02df06fc54" x="108.739318" y="232.069703" style="fill: #0000ff; stroke: #0000ff"/>
     <use xlink:href="#m02df06fc54" x="115.480754" y="232.069703" style="fill: #0000ff; stroke: #0000ff"/>
     <use xlink:href="#m02df06fc54" x="122.222189" y="232.069703" style="fill: #0000ff; stroke: #0000ff"/>
     <use xlink:href="#m02df06fc54" x="128.963624" y="232.069703" style="fill: #0000ff; stroke: #0000ff"/>
     <use xlink:href="#m02df06fc54" x="135.70506" y="243.18752" style="fill: #0000ff; stroke: #0000ff"/>
     <use xlink:href="#m02df06fc54" x="142.446495" y="243.18752" style="fill: #0000ff; stroke: #0000ff"/>
     <use xlink:href="#m02df06fc54" x="149.187931" y="243.18752" style="fill: #0000ff; stroke: #0000ff"/>
     <use xlink:href="#m02df06fc54" x="155.929366" y="243.18752" style="fill: #0000ff; stroke: #0000ff"/>
     <use xlink:href="#m02df06fc54" x="162.670801" y="246.068661" style="fill: #0000ff; stroke: #0000ff"/>
     <use xlink:href="#m02df06fc54" x="169.412237" y="246.068661" style="fill: #0000ff; stroke: #0000ff"/>
     <use xlink:href="#m02df06fc54" x="176.153672" y="246.068661" style="fill: #0000ff; stroke: #0000ff"/>
     <use xlink:href="#m02df06fc54" x="182.895108" y="246.068661" style="fill: #0000ff; stroke: #0000ff"/>
     <use xlink:href="#m02df06fc54" x="189.636543" y="248.305783" style="fill: #0000ff; stroke: #0000ff"/>
     <use xlink:href="#m02df06fc54" x="196.377978" y="248.305783" style="fill: #0000ff; stroke: #0000ff"/>
     <use xlink:href="#m02df06fc54" x="203.119414" y="248.305783" style="fill: #0000ff; stroke: #0000ff"/>
     <use xlink:href="#m02df06fc54" x="209.860849" y="248.305783" style="fill: #0000ff; stroke: #0000ff"/>
     <use xlink:href="#m02df06fc54" x="216.602285" y="227.392085" style="fill: #0000ff; stroke: #0000ff"/>
     <use xlink:href="#m02df06fc54" x="223.34372" y="227.392085" style="fill: #0000ff; stroke: #0000ff"/>
     <use xlink:href="#m02df06fc54" x="230.085156" y="227.392085" style="fill: #0000ff; stroke: #0000ff"/>
     <use xlink:href="#m02df06fc54" x="236.826591" y="227.392085" style="fill: #0000ff; stroke: #0000ff"/>
     <use xlink:href="#m02df06fc54" x="243.568026" y="175.362059" style="fill: #0000ff; stroke: #0000ff"/>
     <use xlink:href="#m02df06fc54" x="250.309462" y="175.362059" style="fill: #0000ff; stroke: #0000ff"/>
     <use xlink:href="#m02df06fc54" x="257.050897" y="175.362059" style="fill: #0000ff; stroke: #0000ff"/>
     <use xlink:href="#m02df06fc54" x="263.792333" y="175.362059" style="fill: #0000ff; stroke: #0000ff"/>
     <use xlink:href="#m02df06fc54" x="270.533768" y="102.452232" style="fill: #0000ff; stroke: #0000ff"/>
     <use xlink:href="#m02df06fc54" x="277.275203" y="102.452232" style="fill: #0000ff; stroke: #0000ff"/>
     <use xlink:href="#m02df06fc54" x="284.016639" y="102.452232" style="fill: #0000ff; stroke: #0000ff"/>
     <use xlink:href="#m02df06fc54" x="290.758074" y="102.452232" style="fill: #0000ff; stroke: #0000ff"/>
     <use xlink:href="#m02df06fc54" x="297.49951" y="80.69114" style="fill: #0000ff; stroke: #0000ff"/>
     <use xlink:href="#m02df06fc54" x="304.240945" y="80.69114" style="fill: #0000ff; stroke: #0000ff"/>
     <use xlink:href="#m02df06fc54" x="310.98238" y="80.69114" style="fill: #0000ff; stroke: #0000ff"/>
     <use xlink:href="#m02df06fc54" x="317.723816" y="80.69114" style="fill: #0000ff; stroke: #0000ff"/>
     <use xlink:href="#m02df06fc54" x="324.465251" y="67.03114" style="fill: #0000ff; stroke: #0000ff"/>
     <use xlink:href="#m02df06fc54" x="331.206687" y="67.03114" style="fill: #0000ff; stroke: #0000ff"/>
     <use xlink:href="#m02df06fc54" x="337.948122" y="67.03114" style="fill: #0000ff; stroke: #0000ff"/>
     <use xlink:href="#m02df06fc54" x="344.689557" y="67.03114" style="fill: #0000ff; stroke: #0000ff"/>
     <use xlink:href="#m02df06fc54" x="351.430993" y="46.930941" style="fill: #0000ff; stroke: #0000ff"/>
     <use xlink:href="#m02df06fc54" x="358.172428" y="46.930941" style="fill: #0000ff; stroke: #0000ff"/>
     <use xlink:href="#m02df06fc54" x="364.913864" y="46.930941" style="fill: #0000ff; stroke: #0000ff"/>
     <use xlink:href="#m02df06fc54" x="371.655299" y="46.930941" style="fill: #0000ff; stroke: #0000ff"/>
     <use xlink:href="#m02df06fc54" x="378.396734" y="30.457591" style="fill: #0000ff; stroke: #0000ff"/>
     <use xlink:href="#m02df06fc54" x="385.13817" y="30.457591" style="fill: #0000ff; stroke: #0000ff"/>
     <use xlink:href="#m02df06fc54" x="391.879605" y="30.457591" style="fill: #0000ff; stroke: #0000ff"/>
     <use xlink:href="#m02df06fc54" x="398.621041" y="30.457591" style="fill: #0000ff; stroke: #0000ff"/>
     <use xlink:href="#m02df06fc54" x="405.362476" y="22.932727" style="fill: #0000ff; stroke: #0000ff"/>
     <use xlink:href="#m02df06fc54" x="412.103911" y="22.932727" style="fill: #0000ff; stroke: #0000ff"/>
     <use xlink:href="#m02df06fc54" x="418.845347" y="22.932727" style="fill: #0000ff; stroke: #0000ff"/>
     <use xlink:href="#m02df06fc54" x="425.586782" y="22.932727" style="fill: #0000ff; stroke: #0000ff"/>
     <use xlink:href="#m02df06fc54" x="432.328218" y="31.982901" style="fill: #0000ff; stroke: #0000ff"/>
     <use xlink:href="#m02df06fc54" x="439.069653" y="31.982901" style="fill: #0000ff; stroke: #0000ff"/>
     <use xlink:href="#m02df06fc54" x="445.811089" y="31.982901" style="fill: #0000ff; stroke: #0000ff"/>
     <use xlink:href="#m02df06fc54" x="452.552524" y="31.982901" style="fill: #0000ff; stroke: #0000ff"/>
     <use xlink:href="#m02df06fc54" x="459.293959" y="39.711139" style="fill: #0000ff; stroke: #0000ff"/>
     <use xlink:href="#m02df06fc54" x="466.035395" y="39.711139" style="fill: #0000ff; stroke: #0000ff"/>
     <use xlink:href="#m02df06fc54" x="472.77683" y="39.711139" style="fill: #0000ff; stroke: #0000ff"/>
     <use xlink:href="#m02df06fc54" x="479.518266" y="39.711139" style="fill: #0000ff; stroke: #0000ff"/>
     <use xlink:href="#m02df06fc54" x="486.259701" y="39.507765" style="fill: #0000ff; stroke: #0000ff"/>
     <use xlink:href="#m02df06fc54" x="493.001136" y="39.507765" style="fill: #0000ff; stroke: #0000ff"/>
     <use xlink:href="#m02df06fc54" x="499.742572" y="39.507765" style="fill: #0000ff; stroke: #0000ff"/>
     <use xlink:href="#m02df06fc54" x="506.484007" y="39.507765" style="fill: #0000ff; stroke: #0000ff"/>
     <use xlink:href="#m02df06fc54" x="513.225443" y="48.490147" style="fill: #0000ff; stroke: #0000ff"/>
     <use xlink:href="#m02df06fc54" x="519.966878" y="48.490147" style="fill: #0000ff; stroke: #0000ff"/>
     <use xlink:href="#m02df06fc54" x="526.708313" y="48.490147" style="fill: #0000ff; stroke: #0000ff"/>
     <use xlink:href="#m02df06fc54" x="533.449749" y="48.490147" style="fill: #0000ff; stroke: #0000ff"/>
     <use xlink:href="#m02df06fc54" x="540.191184" y="55.506574" style="fill: #0000ff; stroke: #0000ff"/>
     <use xlink:href="#m02df06fc54" x="546.93262" y="55.506574" style="fill: #0000ff; stroke: #0000ff"/>
     <use xlink:href="#m02df06fc54" x="553.674055" y="55.506574" style="fill: #0000ff; stroke: #0000ff"/>
     <use xlink:href="#m02df06fc54" x="560.41549" y="55.506574" style="fill: #0000ff; stroke: #0000ff"/>
     <use xlink:href="#m02df06fc54" x="567.156926" y="73.810296" style="fill: #0000ff; stroke: #0000ff"/>
     <use xlink:href="#m02df06fc54" x="573.898361" y="73.810296" style="fill: #0000ff; stroke: #0000ff"/>
     <use xlink:href="#m02df06fc54" x="580.639797" y="73.810296" style="fill: #0000ff; stroke: #0000ff"/>
     <use xlink:href="#m02df06fc54" x="587.381232" y="73.810296" style="fill: #0000ff; stroke: #0000ff"/>
     <use xlink:href="#m02df06fc54" x="594.122667" y="73.979775" style="fill: #0000ff; stroke: #0000ff"/>
     <use xlink:href="#m02df06fc54" x="600.864103" y="73.979775" style="fill: #0000ff; stroke: #0000ff"/>
     <use xlink:href="#m02df06fc54" x="607.605538" y="73.979775" style="fill: #0000ff; stroke: #0000ff"/>
     <use xlink:href="#m02df06fc54" x="614.346974" y="73.979775" style="fill: #0000ff; stroke: #0000ff"/>
     <use xlink:href="#m02df06fc54" x="621.088409" y="81.063994" style="fill: #0000ff; stroke: #0000ff"/>
     <use xlink:href="#m02df06fc54" x="627.829844" y="81.063994" style="fill: #0000ff; stroke: #0000ff"/>
     <use xlink:href="#m02df06fc54" x="634.57128" y="81.063994" style="fill: #0000ff; stroke: #0000ff"/>
     <use xlink:href="#m02df06fc54" x="641.312715" y="81.063994" style="fill: #0000ff; stroke: #0000ff"/>
     <use xlink:href="#m02df06fc54" x="648.054151" y="86.31784" style="fill: #0000ff; stroke: #0000ff"/>
     <use xlink:href="#m02df06fc54" x="654.795586" y="86.31784" style="fill: #0000ff; stroke: #0000ff"/>
     <use xlink:href="#m02df06fc54" x="661.537022" y="86.31784" style="fill: #0000ff; stroke: #0000ff"/>
     <use xlink:href="#m02df06fc54" x="668.278457" y="86.31784" style="fill: #0000ff; stroke: #0000ff"/>
     <use xlink:href="#m02df06fc54" x="675.019892" y="124.348907" style="fill: #0000ff; stroke: #0000ff"/>
     <use xlink:href="#m02df06fc54" x="681.761328" y="124.348907" style="fill: #0000ff; stroke: #0000ff"/>
     <use xlink:href="#m02df06fc54" x="688.502763" y="124.348907" style="fill: #0000ff; stroke: #0000ff"/>
     <use xlink:href="#m02df06fc54" x="695.244199" y="124.348907" style="fill: #0000ff; stroke: #0000ff"/>
     <use xlink:href="#m02df06fc54" x="701.985634" y="164.98995" style="fill: #0000ff; stroke: #0000ff"/>
     <use xlink:href="#m02df06fc54" x="708.727069" y="164.98995" style="fill: #0000ff; stroke: #0000ff"/>
     <use xlink:href="#m02df06fc54" x="715.468505" y="164.98995" style="fill: #0000ff; stroke: #0000ff"/>
     <use xlink:href="#m02df06fc54" x="722.20994" y="164.98995" style="fill: #0000ff; stroke: #0000ff"/>
     <use xlink:href="#m02df06fc54" x="728.951376" y="229.086874" style="fill: #0000ff; stroke: #0000ff"/>
     <use xlink:href="#m02df06fc54" x="735.692811" y="229.086874" style="fill: #0000ff; stroke: #0000ff"/>
     <use xlink:href="#m02df06fc54" x="742.434246" y="229.086874" style="fill: #0000ff; stroke: #0000ff"/>
     <use xlink:href="#m02df06fc54" x="749.175682" y="229.086874" style="fill: #0000ff; stroke: #0000ff"/>
    </g>
   </g>
   <g id="line2d_12">
    <path d="M 108.739318 333.757049 
L 115.480754 333.757049 
L 122.222189 333.757049 
L 128.963624 333.757049 
L 135.70506 334.706131 
L 142.446495 334.706131 
L 149.187931 334.706131 
L 155.929366 334.706131 
L 162.670801 337.587273 
L 169.412237 337.587273 
L 176.153672 337.587273 
L 182.895108 337.587273 
L 189.636543 336.434816 
L 196.377978 336.434816 
L 203.119414 336.434816 
L 209.860849 336.434816 
L 216.602285 332.46901 
L 223.34372 332.46901 
L 230.085156 332.46901 
L 236.826591 332.46901 
L 243.568026 327.893079 
L 250.309462 327.893079 
L 257.050897 327.893079 
L 263.792333 327.893079 
L 270.533768 319.385238 
L 277.275203 319.385238 
L 284.016639 319.385238 
L 290.758074 319.385238 
L 297.49951 317.961615 
L 304.240945 317.961615 
L 310.98238 317.961615 
L 317.723816 317.961615 
L 324.465251 314.470349 
L 331.206687 314.470349 
L 337.948122 314.470349 
L 344.689557 314.470349 
L 351.430993 314.70762 
L 358.172428 314.70762 
L 364.913864 314.70762 
L 371.655299 314.70762 
L 378.396734 311.792583 
L 385.13817 311.792583 
L 391.879605 311.792583 
L 398.621041 311.792583 
L 405.362476 311.046875 
L 412.103911 311.046875 
L 418.845347 311.046875 
L 425.586782 311.046875 
L 432.328218 313.317893 
L 439.069653 313.317893 
L 445.811089 313.317893 
L 452.552524 313.317893 
L 459.293959 314.266975 
L 466.035395 314.266975 
L 472.77683 314.266975 
L 479.518266 314.266975 
L 486.259701 314.0636 
L 493.001136 314.0636 
L 499.742572 314.0636 
L 506.484007 314.0636 
L 513.225443 316.266826 
L 519.966878 316.266826 
L 526.708313 316.266826 
L 533.449749 316.266826 
L 540.191184 316.504096 
L 546.93262 316.504096 
L 553.674055 316.504096 
L 560.41549 316.504096 
L 567.156926 317.859928 
L 573.898361 317.859928 
L 580.639797 317.859928 
L 587.381232 317.859928 
L 594.122667 318.029406 
L 600.864103 318.029406 
L 607.605538 318.029406 
L 614.346974 318.029406 
L 621.088409 318.334468 
L 627.829844 318.334468 
L 634.57128 318.334468 
L 641.312715 318.334468 
L 648.054151 320.198736 
L 654.795586 320.198736 
L 661.537022 320.198736 
L 668.278457 320.198736 
L 675.019892 324.334022 
L 681.761328 324.334022 
L 688.502763 324.334022 
L 695.244199 324.334022 
L 701.985634 327.689704 
L 708.727069 327.689704 
L 715.468505 327.689704 
L 722.20994 327.689704 
L 728.951376 334.163799 
L 735.692811 334.163799 
L 742.434246 334.163799 
L 749.175682 334.163799 
" clip-path="url(#pb185757527)" style="fill: none; stroke-dasharray: 5.55,2.4; stroke-dashoffset: 0; stroke: #ff0000; stroke-width: 1.5"/>
    <defs>
     <path id="mc940f801ea" d="M -3 3 
L 3 -3 
M -3 -3 
L 3 3 
" style="stroke: #ff0000"/>
    </defs>
    <g clip-path="url(#pb185757527)">
     <use xlink:href="#mc940f801ea" x="108.739318" y="333.757049" style="fill: #ff0000; stroke: #ff0000"/>
     <use xlink:href="#mc940f801ea" x="115.480754" y="333.757049" style="fill: #ff0000; stroke: #ff0000"/>
     <use xlink:href="#mc940f801ea" x="122.222189" y="333.757049" style="fill: #ff0000; stroke: #ff0000"/>
     <use xlink:href="#mc940f801ea" x="128.963624" y="333.757049" style="fill: #ff0000; stroke: #ff0000"/>
     <use xlink:href="#mc940f801ea" x="135.70506" y="334.706131" style="fill: #ff0000; stroke: #ff0000"/>
     <use xlink:href="#mc940f801ea" x="142.446495" y="334.706131" style="fill: #ff0000; stroke: #ff0000"/>
     <use xlink:href="#mc940f801ea" x="149.187931" y="334.706131" style="fill: #ff0000; stroke: #ff0000"/>
     <use xlink:href="#mc940f801ea" x="155.929366" y="334.706131" style="fill: #ff0000; stroke: #ff0000"/>
     <use xlink:href="#mc940f801ea" x="162.670801" y="337.587273" style="fill: #ff0000; stroke: #ff0000"/>
     <use xlink:href="#mc940f801ea" x="169.412237" y="337.587273" style="fill: #ff0000; stroke: #ff0000"/>
     <use xlink:href="#mc940f801ea" x="176.153672" y="337.587273" style="fill: #ff0000; stroke: #ff0000"/>
     <use xlink:href="#mc940f801ea" x="182.895108" y="337.587273" style="fill: #ff0000; stroke: #ff0000"/>
     <use xlink:href="#mc940f801ea" x="189.636543" y="336.434816" style="fill: #ff0000; stroke: #ff0000"/>
     <use xlink:href="#mc940f801ea" x="196.377978" y="336.434816" style="fill: #ff0000; stroke: #ff0000"/>
     <use xlink:href="#mc940f801ea" x="203.119414" y="336.434816" style="fill: #ff0000; stroke: #ff0000"/>
     <use xlink:href="#mc940f801ea" x="209.860849" y="336.434816" style="fill: #ff0000; stroke: #ff0000"/>
     <use xlink:href="#mc940f801ea" x="216.602285" y="332.46901" style="fill: #ff0000; stroke: #ff0000"/>
     <use xlink:href="#mc940f801ea" x="223.34372" y="332.46901" style="fill: #ff0000; stroke: #ff0000"/>
     <use xlink:href="#mc940f801ea" x="230.085156" y="332.46901" style="fill: #ff0000; stroke: #ff0000"/>
     <use xlink:href="#mc940f801ea" x="236.826591" y="332.46901" style="fill: #ff0000; stroke: #ff0000"/>
     <use xlink:href="#mc940f801ea" x="243.568026" y="327.893079" style="fill: #ff0000; stroke: #ff0000"/>
     <use xlink:href="#mc940f801ea" x="250.309462" y="327.893079" style="fill: #ff0000; stroke: #ff0000"/>
     <use xlink:href="#mc940f801ea" x="257.050897" y="327.893079" style="fill: #ff0000; stroke: #ff0000"/>
     <use xlink:href="#mc940f801ea" x="263.792333" y="327.893079" style="fill: #ff0000; stroke: #ff0000"/>
     <use xlink:href="#mc940f801ea" x="270.533768" y="319.385238" style="fill: #ff0000; stroke: #ff0000"/>
     <use xlink:href="#mc940f801ea" x="277.275203" y="319.385238" style="fill: #ff0000; stroke: #ff0000"/>
     <use xlink:href="#mc940f801ea" x="284.016639" y="319.385238" style="fill: #ff0000; stroke: #ff0000"/>
     <use xlink:href="#mc940f801ea" x="290.758074" y="319.385238" style="fill: #ff0000; stroke: #ff0000"/>
     <use xlink:href="#mc940f801ea" x="297.49951" y="317.961615" style="fill: #ff0000; stroke: #ff0000"/>
     <use xlink:href="#mc940f801ea" x="304.240945" y="317.961615" style="fill: #ff0000; stroke: #ff0000"/>
     <use xlink:href="#mc940f801ea" x="310.98238" y="317.961615" style="fill: #ff0000; stroke: #ff0000"/>
     <use xlink:href="#mc940f801ea" x="317.723816" y="317.961615" style="fill: #ff0000; stroke: #ff0000"/>
     <use xlink:href="#mc940f801ea" x="324.465251" y="314.470349" style="fill: #ff0000; stroke: #ff0000"/>
     <use xlink:href="#mc940f801ea" x="331.206687" y="314.470349" style="fill: #ff0000; stroke: #ff0000"/>
     <use xlink:href="#mc940f801ea" x="337.948122" y="314.470349" style="fill: #ff0000; stroke: #ff0000"/>
     <use xlink:href="#mc940f801ea" x="344.689557" y="314.470349" style="fill: #ff0000; stroke: #ff0000"/>
     <use xlink:href="#mc940f801ea" x="351.430993" y="314.70762" style="fill: #ff0000; stroke: #ff0000"/>
     <use xlink:href="#mc940f801ea" x="358.172428" y="314.70762" style="fill: #ff0000; stroke: #ff0000"/>
     <use xlink:href="#mc940f801ea" x="364.913864" y="314.70762" style="fill: #ff0000; stroke: #ff0000"/>
     <use xlink:href="#mc940f801ea" x="371.655299" y="314.70762" style="fill: #ff0000; stroke: #ff0000"/>
     <use xlink:href="#mc940f801ea" x="378.396734" y="311.792583" style="fill: #ff0000; stroke: #ff0000"/>
     <use xlink:href="#mc940f801ea" x="385.13817" y="311.792583" style="fill: #ff0000; stroke: #ff0000"/>
     <use xlink:href="#mc940f801ea" x="391.879605" y="311.792583" style="fill: #ff0000; stroke: #ff0000"/>
     <use xlink:href="#mc940f801ea" x="398.621041" y="311.792583" style="fill: #ff0000; stroke: #ff0000"/>
     <use xlink:href="#mc940f801ea" x="405.362476" y="311.046875" style="fill: #ff0000; stroke: #ff0000"/>
     <use xlink:href="#mc940f801ea" x="412.103911" y="311.046875" style="fill: #ff0000; stroke: #ff0000"/>
     <use xlink:href="#mc940f801ea" x="418.845347" y="311.046875" style="fill: #ff0000; stroke: #ff0000"/>
     <use xlink:href="#mc940f801ea" x="425.586782" y="311.046875" style="fill: #ff0000; stroke: #ff0000"/>
     <use xlink:href="#mc940f801ea" x="432.328218" y="313.317893" style="fill: #ff0000; stroke: #ff0000"/>
     <use xlink:href="#mc940f801ea" x="439.069653" y="313.317893" style="fill: #ff0000; stroke: #ff0000"/>
     <use xlink:href="#mc940f801ea" x="445.811089" y="313.317893" style="fill: #ff0000; stroke: #ff0000"/>
     <use xlink:href="#mc940f801ea" x="452.552524" y="313.317893" style="fill: #ff0000; stroke: #ff0000"/>
     <use xlink:href="#mc940f801ea" x="459.293959" y="314.266975" style="fill: #ff0000; stroke: #ff0000"/>
     <use xlink:href="#mc940f801ea" x="466.035395" y="314.266975" style="fill: #ff0000; stroke: #ff0000"/>
     <use xlink:href="#mc940f801ea" x="472.77683" y="314.266975" style="fill: #ff0000; stroke: #ff0000"/>
     <use xlink:href="#mc940f801ea" x="479.518266" y="314.266975" style="fill: #ff0000; stroke: #ff0000"/>
     <use xlink:href="#mc940f801ea" x="486.259701" y="314.0636" style="fill: #ff0000; stroke: #ff0000"/>
     <use xlink:href="#mc940f801ea" x="493.001136" y="314.0636" style="fill: #ff0000; stroke: #ff0000"/>
     <use xlink:href="#mc940f801ea" x="499.742572" y="314.0636" style="fill: #ff0000; stroke: #ff0000"/>
     <use xlink:href="#mc940f801ea" x="506.484007" y="314.0636" style="fill: #ff0000; stroke: #ff0000"/>
     <use xlink:href="#mc940f801ea" x="513.225443" y="316.266826" style="fill: #ff0000; stroke: #ff0000"/>
     <use xlink:href="#mc940f801ea" x="519.966878" y="316.266826" style="fill: #ff0000; stroke: #ff0000"/>
     <use xlink:href="#mc940f801ea" x="526.708313" y="316.266826" style="fill: #ff0000; stroke: #ff0000"/>
     <use xlink:href="#mc940f801ea" x="533.449749" y="316.266826" style="fill: #ff0000; stroke: #ff0000"/>
     <use xlink:href="#mc940f801ea" x="540.191184" y="316.504096" style="fill: #ff0000; stroke: #ff0000"/>
     <use xlink:href="#mc940f801ea" x="546.93262" y="316.504096" style="fill: #ff0000; stroke: #ff0000"/>
     <use xlink:href="#mc940f801ea" x="553.674055" y="316.504096" style="fill: #ff0000; stroke: #ff0000"/>
     <use xlink:href="#mc940f801ea" x="560.41549" y="316.504096" style="fill: #ff0000; stroke: #ff0000"/>
     <use xlink:href="#mc940f801ea" x="567.156926" y="317.859928" style="fill: #ff0000; stroke: #ff0000"/>
     <use xlink:href="#mc940f801ea" x="573.898361" y="317.859928" style="fill: #ff0000; stroke: #ff0000"/>
     <use xlink:href="#mc940f801ea" x="580.639797" y="317.859928" style="fill: #ff0000; stroke: #ff0000"/>
     <use xlink:href="#mc940f801ea" x="587.381232" y="317.859928" style="fill: #ff0000; stroke: #ff0000"/>
     <use xlink:href="#mc940f801ea" x="594.122667" y="318.029406" style="fill: #ff0000; stroke: #ff0000"/>
     <use xlink:href="#mc940f801ea" x="600.864103" y="318.029406" style="fill: #ff0000; stroke: #ff0000"/>
     <use xlink:href="#mc940f801ea" x="607.605538" y="318.029406" style="fill: #ff0000; stroke: #ff0000"/>
     <use xlink:href="#mc940f801ea" x="614.346974" y="318.029406" style="fill: #ff0000; stroke: #ff0000"/>
     <use xlink:href="#mc940f801ea" x="621.088409" y="318.334468" style="fill: #ff0000; stroke: #ff0000"/>
     <use xlink:href="#mc940f801ea" x="627.829844" y="318.334468" style="fill: #ff0000; stroke: #ff0000"/>
     <use xlink:href="#mc940f801ea" x="634.57128" y="318.334468" style="fill: #ff0000; stroke: #ff0000"/>
     <use xlink:href="#mc940f801ea" x="641.312715" y="318.334468" style="fill: #ff0000; stroke: #ff0000"/>
     <use xlink:href="#mc940f801ea" x="648.054151" y="320.198736" style="fill: #ff0000; stroke: #ff0000"/>
     <use xlink:href="#mc940f801ea" x="654.795586" y="320.198736" style="fill: #ff0000; stroke: #ff0000"/>
     <use xlink:href="#mc940f801ea" x="661.537022" y="320.198736" style="fill: #ff0000; stroke: #ff0000"/>
     <use xlink:href="#mc940f801ea" x="668.278457" y="320.198736" style="fill: #ff0000; stroke: #ff0000"/>
     <use xlink:href="#mc940f801ea" x="675.019892" y="324.334022" style="fill: #ff0000; stroke: #ff0000"/>
     <use xlink:href="#mc940f801ea" x="681.761328" y="324.334022" style="fill: #ff0000; stroke: #ff0000"/>
     <use xlink:href="#mc940f801ea" x="688.502763" y="324.334022" style="fill: #ff0000; stroke: #ff0000"/>
     <use xlink:href="#mc940f801ea" x="695.244199" y="324.334022" style="fill: #ff0000; stroke: #ff0000"/>
     <use xlink:href="#mc940f801ea" x="701.985634" y="327.689704" style="fill: #ff0000; stroke: #ff0000"/>
     <use xlink:href="#mc940f801ea" x="708.727069" y="327.689704" style="fill: #ff0000; stroke: #ff0000"/>
     <use xlink:href="#mc940f801ea" x="715.468505" y="327.689704" style="fill: #ff0000; stroke: #ff0000"/>
     <use xlink:href="#mc940f801ea" x="722.20994" y="327.689704" style="fill: #ff0000; stroke: #ff0000"/>
     <use xlink:href="#mc940f801ea" x="728.951376" y="334.163799" style="fill: #ff0000; stroke: #ff0000"/>
     <use xlink:href="#mc940f801ea" x="735.692811" y="334.163799" style="fill: #ff0000; stroke: #ff0000"/>
     <use xlink:href="#mc940f801ea" x="742.434246" y="334.163799" style="fill: #ff0000; stroke: #ff0000"/>
     <use xlink:href="#mc940f801ea" x="749.175682" y="334.163799" style="fill: #ff0000; stroke: #ff0000"/>
    </g>
   </g>
   <g id="patch_3">
    <path d="M 76.7175 353.32 
L 76.7175 7.2 
" style="fill: none; stroke: #000000; stroke-width: 0.8; stroke-linejoin: miter; stroke-linecap: square"/>
   </g>
   <g id="patch_4">
    <path d="M 781.1975 353.32 
L 781.1975 7.2 
" style="fill: none; stroke: #000000; stroke-width: 0.8; stroke-linejoin: miter; stroke-linecap: square"/>
   </g>
   <g id="patch_5">
    <path d="M 76.7175 353.32 
L 781.1975 353.32 
" style="fill: none; stroke: #000000; stroke-width: 0.8; stroke-linejoin: miter; stroke-linecap: square"/>
   </g>
   <g id="patch_6">
    <path d="M 76.7175 7.2 
L 781.1975 7.2 
" style="fill: none; stroke: #000000; stroke-width: 0.8; stroke-linejoin: miter; stroke-linecap: square"/>
   </g>
  </g>
  <g id="axes_2">
   <g id="matplotlib.axis_3">
    <g id="ytick_6">
     <g id="line2d_13">
      <defs>
       <path id="m2ae7899ad9" d="M 0 0 
L 3.5 0 
" style="stroke: #000000; stroke-width: 0.8"/>
      </defs>
      <g>
       <use xlink:href="#m2ae7899ad9" x="781.1975" y="337.587273" style="stroke: #000000; stroke-width: 0.8"/>
      </g>
     </g>
     <g id="text_13">
      <!-- 0 -->
      <g transform="translate(788.1975 347.10946) scale(0.28 -0.28)">
       <use xlink:href="#Calibri-30"/>
      </g>
     </g>
    </g>
    <g id="ytick_7">
     <g id="line2d_14">
      <g>
       <use xlink:href="#m2ae7899ad9" x="781.1975" y="258.923636" style="stroke: #000000; stroke-width: 0.8"/>
      </g>
     </g>
     <g id="text_14">
      <!-- 10 -->
      <g transform="translate(788.1975 268.445824) scale(0.28 -0.28)">
       <defs>
        <path id="Calibri-31" d="M 2897 213 
Q 2897 153 2887 112 
Q 2878 72 2862 47 
Q 2847 22 2826 11 
Q 2806 0 2784 0 
L 672 0 
Q 650 0 631 11 
Q 613 22 595 47 
Q 578 72 568 112 
Q 559 153 559 213 
Q 559 269 568 309 
Q 578 350 592 376 
Q 606 403 626 417 
Q 647 431 672 431 
L 1516 431 
L 1516 3506 
L 734 3041 
Q 675 3009 639 3003 
Q 603 2997 581 3017 
Q 559 3038 551 3084 
Q 544 3131 544 3203 
Q 544 3256 548 3293 
Q 553 3331 562 3356 
Q 572 3381 589 3400 
Q 606 3419 634 3438 
L 1566 4034 
Q 1578 4044 1597 4050 
Q 1616 4056 1644 4062 
Q 1672 4069 1709 4070 
Q 1747 4072 1803 4072 
Q 1878 4072 1928 4065 
Q 1978 4059 2006 4048 
Q 2034 4038 2043 4020 
Q 2053 4003 2053 3984 
L 2053 431 
L 2784 431 
Q 2809 431 2831 417 
Q 2853 403 2867 376 
Q 2881 350 2889 309 
Q 2897 269 2897 213 
z
" transform="scale(0.015625)"/>
       </defs>
       <use xlink:href="#Calibri-31"/>
       <use xlink:href="#Calibri-30" x="50.683594"/>
      </g>
     </g>
    </g>
    <g id="ytick_8">
     <g id="line2d_15">
      <g>
       <use xlink:href="#m2ae7899ad9" x="781.1975" y="180.26" style="stroke: #000000; stroke-width: 0.8"/>
      </g>
     </g>
     <g id="text_15">
      <!-- 20 -->
      <g transform="translate(788.1975 189.782188) scale(0.28 -0.28)">
       <use xlink:href="#Calibri-32"/>
       <use xlink:href="#Calibri-30" x="50.683594"/>
      </g>
     </g>
    </g>
    <g id="ytick_9">
     <g id="line2d_16">
      <g>
       <use xlink:href="#m2ae7899ad9" x="781.1975" y="101.596364" style="stroke: #000000; stroke-width: 0.8"/>
      </g>
     </g>
     <g id="text_16">
      <!-- 30 -->
      <g transform="translate(788.1975 111.118551) scale(0.28 -0.28)">
       <defs>
        <path id="Calibri-33" d="M 2856 1156 
Q 2856 878 2759 654 
Q 2663 431 2481 272 
Q 2300 113 2034 27 
Q 1769 -59 1434 -59 
Q 1231 -59 1054 -26 
Q 878 6 740 51 
Q 603 97 512 145 
Q 422 194 398 216 
Q 375 238 362 259 
Q 350 281 340 312 
Q 331 344 326 389 
Q 322 434 322 500 
Q 322 613 344 656 
Q 366 700 406 700 
Q 434 700 517 650 
Q 600 600 729 542 
Q 859 484 1032 434 
Q 1206 384 1419 384 
Q 1625 384 1781 437 
Q 1938 491 2044 587 
Q 2150 684 2203 817 
Q 2256 950 2256 1106 
Q 2256 1278 2189 1415 
Q 2122 1553 1992 1653 
Q 1863 1753 1673 1806 
Q 1484 1859 1244 1859 
L 859 1859 
Q 834 1859 811 1870 
Q 788 1881 770 1906 
Q 753 1931 742 1972 
Q 731 2013 731 2078 
Q 731 2138 740 2177 
Q 750 2216 767 2239 
Q 784 2263 806 2273 
Q 828 2284 856 2284 
L 1209 2284 
Q 1416 2284 1580 2337 
Q 1744 2391 1858 2491 
Q 1972 2591 2033 2730 
Q 2094 2869 2094 3041 
Q 2094 3166 2053 3280 
Q 2013 3394 1931 3478 
Q 1850 3563 1723 3611 
Q 1597 3659 1431 3659 
Q 1250 3659 1098 3604 
Q 947 3550 828 3487 
Q 709 3425 631 3370 
Q 553 3316 522 3316 
Q 500 3316 483 3323 
Q 466 3331 455 3354 
Q 444 3378 439 3420 
Q 434 3463 434 3531 
Q 434 3578 437 3614 
Q 441 3650 450 3676 
Q 459 3703 471 3725 
Q 484 3747 514 3776 
Q 544 3806 634 3862 
Q 725 3919 858 3973 
Q 991 4028 1164 4065 
Q 1338 4103 1538 4103 
Q 1819 4103 2031 4031 
Q 2244 3959 2386 3828 
Q 2528 3697 2598 3514 
Q 2669 3331 2669 3109 
Q 2669 2919 2619 2755 
Q 2569 2591 2472 2464 
Q 2375 2338 2234 2248 
Q 2094 2159 1909 2125 
L 1909 2119 
Q 2119 2097 2292 2014 
Q 2466 1931 2591 1806 
Q 2716 1681 2786 1514 
Q 2856 1347 2856 1156 
z
" transform="scale(0.015625)"/>
       </defs>
       <use xlink:href="#Calibri-33"/>
       <use xlink:href="#Calibri-30" x="50.683594"/>
      </g>
     </g>
    </g>
    <g id="ytick_10">
     <g id="line2d_17">
      <g>
       <use xlink:href="#m2ae7899ad9" x="781.1975" y="22.932727" style="stroke: #000000; stroke-width: 0.8"/>
      </g>
     </g>
     <g id="text_17">
      <!-- 40 -->
      <g transform="translate(788.1975 32.454915) scale(0.28 -0.28)">
       <use xlink:href="#Calibri-34"/>
       <use xlink:href="#Calibri-30" x="50.683594"/>
      </g>
     </g>
    </g>
    <g id="text_18">
     <!-- Wind generation (MW) -->
     <g transform="translate(844.138125 340.227344) rotate(-90) scale(0.34 -0.34)">
      <defs>
       <path id="Calibri-6e" d="M 2900 78 
Q 2900 53 2887 36 
Q 2875 19 2847 6 
Q 2819 -6 2769 -12 
Q 2719 -19 2644 -19 
Q 2566 -19 2516 -12 
Q 2466 -6 2437 6 
Q 2409 19 2396 36 
Q 2384 53 2384 78 
L 2384 1725 
Q 2384 1966 2346 2112 
Q 2309 2259 2237 2365 
Q 2166 2472 2052 2528 
Q 1938 2584 1788 2584 
Q 1594 2584 1400 2446 
Q 1206 2309 994 2044 
L 994 78 
Q 994 53 981 36 
Q 969 19 941 6 
Q 913 -6 863 -12 
Q 813 -19 734 -19 
Q 659 -19 609 -12 
Q 559 -6 529 6 
Q 500 19 489 36 
Q 478 53 478 78 
L 478 2891 
Q 478 2916 487 2933 
Q 497 2950 525 2964 
Q 553 2978 597 2983 
Q 641 2988 713 2988 
Q 781 2988 826 2983 
Q 872 2978 897 2964 
Q 922 2950 933 2933 
Q 944 2916 944 2891 
L 944 2519 
Q 1181 2784 1417 2907 
Q 1653 3031 1894 3031 
Q 2175 3031 2367 2936 
Q 2559 2841 2678 2681 
Q 2797 2522 2848 2308 
Q 2900 2094 2900 1794 
L 2900 78 
z
" transform="scale(0.015625)"/>
       <path id="Calibri-64" d="M 2888 78 
Q 2888 53 2877 34 
Q 2866 16 2839 5 
Q 2813 -6 2769 -12 
Q 2725 -19 2663 -19 
Q 2597 -19 2553 -12 
Q 2509 -6 2481 5 
Q 2453 16 2440 34 
Q 2428 53 2428 78 
L 2428 450 
Q 2206 209 1967 75 
Q 1728 -59 1444 -59 
Q 1134 -59 915 61 
Q 697 181 561 386 
Q 425 591 362 867 
Q 300 1144 300 1450 
Q 300 1813 378 2105 
Q 456 2397 609 2603 
Q 763 2809 989 2920 
Q 1216 3031 1513 3031 
Q 1759 3031 1964 2923 
Q 2169 2816 2369 2606 
L 2369 4241 
Q 2369 4263 2380 4283 
Q 2391 4303 2422 4314 
Q 2453 4325 2501 4333 
Q 2550 4341 2625 4341 
Q 2703 4341 2753 4333 
Q 2803 4325 2831 4314 
Q 2859 4303 2873 4283 
Q 2888 4263 2888 4241 
L 2888 78 
z
M 2369 2056 
Q 2159 2316 1964 2452 
Q 1769 2588 1556 2588 
Q 1359 2588 1221 2494 
Q 1084 2400 998 2247 
Q 913 2094 873 1900 
Q 834 1706 834 1506 
Q 834 1294 867 1091 
Q 900 888 981 730 
Q 1063 572 1197 476 
Q 1331 381 1534 381 
Q 1638 381 1733 409 
Q 1828 438 1928 503 
Q 2028 569 2137 673 
Q 2247 778 2369 931 
L 2369 2056 
z
" transform="scale(0.015625)"/>
       <path id="Calibri-67" d="M 2828 2763 
Q 2828 2653 2798 2604 
Q 2769 2556 2722 2556 
L 2319 2556 
Q 2428 2444 2472 2308 
Q 2516 2172 2516 2025 
Q 2516 1781 2437 1593 
Q 2359 1406 2214 1276 
Q 2069 1147 1869 1078 
Q 1669 1009 1425 1009 
Q 1253 1009 1098 1054 
Q 944 1100 859 1169 
Q 803 1113 767 1041 
Q 731 969 731 875 
Q 731 766 832 694 
Q 934 622 1103 616 
L 1838 584 
Q 2047 578 2222 526 
Q 2397 475 2525 379 
Q 2653 284 2725 145 
Q 2797 6 2797 -178 
Q 2797 -372 2715 -547 
Q 2634 -722 2467 -855 
Q 2300 -988 2040 -1064 
Q 1781 -1141 1428 -1141 
Q 1088 -1141 848 -1083 
Q 609 -1025 456 -925 
Q 303 -825 234 -686 
Q 166 -547 166 -384 
Q 166 -281 191 -184 
Q 216 -88 267 0 
Q 319 88 395 167 
Q 472 247 572 325 
Q 419 403 345 522 
Q 272 641 272 778 
Q 272 969 350 1119 
Q 428 1269 544 1388 
Q 447 1503 390 1648 
Q 334 1794 334 2000 
Q 334 2241 415 2431 
Q 497 2622 640 2753 
Q 784 2884 986 2954 
Q 1188 3025 1425 3025 
Q 1553 3025 1664 3011 
Q 1775 2997 1872 2972 
L 2722 2972 
Q 2775 2972 2801 2920 
Q 2828 2869 2828 2763 
z
M 2022 2022 
Q 2022 2309 1864 2470 
Q 1706 2631 1416 2631 
Q 1266 2631 1155 2581 
Q 1044 2531 970 2443 
Q 897 2356 861 2242 
Q 825 2128 825 2003 
Q 825 1725 983 1565 
Q 1141 1406 1425 1406 
Q 1578 1406 1690 1454 
Q 1803 1503 1876 1589 
Q 1950 1675 1986 1787 
Q 2022 1900 2022 2022 
z
M 2281 -206 
Q 2281 -25 2132 73 
Q 1984 172 1731 178 
L 1003 203 
Q 903 125 839 54 
Q 775 -16 737 -80 
Q 700 -144 686 -206 
Q 672 -269 672 -334 
Q 672 -538 878 -642 
Q 1084 -747 1453 -747 
Q 1688 -747 1845 -701 
Q 2003 -656 2100 -581 
Q 2197 -506 2239 -409 
Q 2281 -313 2281 -206 
z
" transform="scale(0.015625)"/>
       <path id="Calibri-61" d="M 2597 75 
Q 2597 38 2572 19 
Q 2547 0 2503 -9 
Q 2459 -19 2375 -19 
Q 2294 -19 2245 -9 
Q 2197 0 2175 19 
Q 2153 38 2153 75 
L 2153 356 
Q 1969 159 1742 50 
Q 1516 -59 1263 -59 
Q 1041 -59 861 -1 
Q 681 56 554 165 
Q 428 275 358 434 
Q 288 594 288 797 
Q 288 1034 384 1209 
Q 481 1384 662 1500 
Q 844 1616 1106 1673 
Q 1369 1731 1697 1731 
L 2084 1731 
L 2084 1950 
Q 2084 2113 2050 2238 
Q 2016 2363 1939 2445 
Q 1863 2528 1741 2570 
Q 1619 2613 1441 2613 
Q 1250 2613 1098 2567 
Q 947 2522 833 2467 
Q 719 2413 642 2367 
Q 566 2322 528 2322 
Q 503 2322 484 2334 
Q 466 2347 452 2372 
Q 438 2397 431 2436 
Q 425 2475 425 2522 
Q 425 2600 436 2645 
Q 447 2691 489 2731 
Q 531 2772 634 2826 
Q 738 2881 872 2926 
Q 1006 2972 1165 3001 
Q 1325 3031 1488 3031 
Q 1791 3031 2003 2962 
Q 2216 2894 2347 2761 
Q 2478 2628 2537 2431 
Q 2597 2234 2597 1972 
L 2597 75 
z
M 2084 1359 
L 1644 1359 
Q 1431 1359 1275 1323 
Q 1119 1288 1016 1217 
Q 913 1147 864 1048 
Q 816 950 816 822 
Q 816 603 955 473 
Q 1094 344 1344 344 
Q 1547 344 1720 447 
Q 1894 550 2084 763 
L 2084 1359 
z
" transform="scale(0.015625)"/>
      </defs>
      <use xlink:href="#Calibri-57"/>
      <use xlink:href="#Calibri-69" x="88.964844"/>
      <use xlink:href="#Calibri-6e" x="111.914062"/>
      <use xlink:href="#Calibri-64" x="164.453125"/>
      <use xlink:href="#Calibri-20" x="216.992188"/>
      <use xlink:href="#Calibri-67" x="239.599609"/>
      <use xlink:href="#Calibri-65" x="286.669922"/>
      <use xlink:href="#Calibri-6e" x="336.425781"/>
      <use xlink:href="#Calibri-65" x="388.964844"/>
      <use xlink:href="#Calibri-72" x="438.720703"/>
      <use xlink:href="#Calibri-61" x="473.583984"/>
      <use xlink:href="#Calibri-74" x="521.484375"/>
      <use xlink:href="#Calibri-69" x="554.980469"/>
      <use xlink:href="#Calibri-6f" x="577.929688"/>
      <use xlink:href="#Calibri-6e" x="630.664062"/>
      <use xlink:href="#Calibri-20" x="683.203125"/>
      <use xlink:href="#Calibri-28" x="705.810547"/>
      <use xlink:href="#Calibri-4d" x="736.132812"/>
      <use xlink:href="#Calibri-57" x="821.630859"/>
      <use xlink:href="#Calibri-29" x="910.595703"/>
     </g>
    </g>
   </g>
   <g id="line2d_18">
    <path d="M 108.739318 277.61812 
L 115.480754 302.049403 
L 122.222189 309.617267 
L 128.963624 318.044169 
L 135.70506 334.506918 
L 142.446495 326.403758 
L 149.187931 322.954787 
L 155.929366 332.186235 
L 162.670801 320.16612 
L 169.412237 314.438135 
L 176.153672 306.209966 
L 182.895108 282.765934 
L 189.636543 264.902441 
L 196.377978 253.879195 
L 203.119414 255.273528 
L 209.860849 258.033347 
L 216.602285 256.949934 
L 223.34372 263.482465 
L 230.085156 273.720397 
L 236.826591 269.547014 
L 243.568026 273.665906 
L 250.309462 269.813059 
L 257.050897 255.231859 
L 263.792333 219.722837 
L 270.533768 184.168941 
L 277.275203 200.753494 
L 284.016639 223.312845 
L 290.758074 238.352412 
L 297.49951 227.223389 
L 304.240945 213.562128 
L 310.98238 201.20545 
L 317.723816 200.830423 
L 324.465251 180.409049 
L 331.206687 164.606605 
L 337.948122 118.465392 
L 344.689557 58.057105 
L 351.430993 46.7005 
L 358.172428 40.703265 
L 364.913864 22.932727 
L 371.655299 23.298139 
L 378.396734 25.554715 
L 385.13817 42.286714 
L 391.879605 103.42262 
L 398.621041 154.535352 
L 405.362476 197.72122 
L 412.103911 220.383142 
L 418.845347 244.577229 
L 425.586782 257.222389 
L 432.328218 264.501771 
L 439.069653 280.246518 
L 445.811089 293.128876 
L 452.552524 283.999999 
L 459.293959 268.1046 
L 466.035395 255.170957 
L 472.77683 241.343017 
L 479.518266 250.128919 
L 486.259701 245.064444 
L 493.001136 224.550115 
L 499.742572 238.833217 
L 506.484007 247.772977 
L 513.225443 244.727881 
L 519.966878 233.563599 
L 526.708313 236.817043 
L 533.449749 236.04455 
L 540.191184 256.241548 
L 546.93262 259.084706 
L 553.674055 267.162223 
L 560.41549 252.058548 
L 567.156926 267.123759 
L 573.898361 269.960506 
L 580.639797 268.905941 
L 587.381232 262.001587 
L 594.122667 246.506858 
L 600.864103 239.288379 
L 607.605538 234.909852 
L 614.346974 246.458778 
L 621.088409 258.0654 
L 627.829844 251.693137 
L 634.57128 250.88218 
L 641.312715 253.92407 
L 648.054151 272.303627 
L 654.795586 278.845774 
L 661.537022 287.820793 
L 668.278457 292.846804 
L 675.019892 302.866771 
L 681.761328 287.718221 
L 688.502763 290.917175 
L 695.244199 320.233433 
L 701.985634 327.009572 
L 708.727069 316.268398 
L 715.468505 315.826057 
L 722.20994 314.367617 
L 728.951376 310.248724 
L 735.692811 325.313934 
L 742.434246 333.542104 
L 749.175682 337.587273 
" clip-path="url(#pb185757527)" style="fill: none; stroke: #008000; stroke-width: 1.5; stroke-linecap: square"/>
    <defs>
     <path id="m885f9a86ea" d="M 0 3 
C 0.795609 3 1.55874 2.683901 2.12132 2.12132 
C 2.683901 1.55874 3 0.795609 3 0 
C 3 -0.795609 2.683901 -1.55874 2.12132 -2.12132 
C 1.55874 -2.683901 0.795609 -3 0 -3 
C -0.795609 -3 -1.55874 -2.683901 -2.12132 -2.12132 
C -2.683901 -1.55874 -3 -0.795609 -3 0 
C -3 0.795609 -2.683901 1.55874 -2.12132 2.12132 
C -1.55874 2.683901 -0.795609 3 0 3 
z
" style="stroke: #008000"/>
    </defs>
    <g clip-path="url(#pb185757527)">
     <use xlink:href="#m885f9a86ea" x="108.739318" y="277.61812" style="fill: #008000; stroke: #008000"/>
     <use xlink:href="#m885f9a86ea" x="115.480754" y="302.049403" style="fill: #008000; stroke: #008000"/>
     <use xlink:href="#m885f9a86ea" x="122.222189" y="309.617267" style="fill: #008000; stroke: #008000"/>
     <use xlink:href="#m885f9a86ea" x="128.963624" y="318.044169" style="fill: #008000; stroke: #008000"/>
     <use xlink:href="#m885f9a86ea" x="135.70506" y="334.506918" style="fill: #008000; stroke: #008000"/>
     <use xlink:href="#m885f9a86ea" x="142.446495" y="326.403758" style="fill: #008000; stroke: #008000"/>
     <use xlink:href="#m885f9a86ea" x="149.187931" y="322.954787" style="fill: #008000; stroke: #008000"/>
     <use xlink:href="#m885f9a86ea" x="155.929366" y="332.186235" style="fill: #008000; stroke: #008000"/>
     <use xlink:href="#m885f9a86ea" x="162.670801" y="320.16612" style="fill: #008000; stroke: #008000"/>
     <use xlink:href="#m885f9a86ea" x="169.412237" y="314.438135" style="fill: #008000; stroke: #008000"/>
     <use xlink:href="#m885f9a86ea" x="176.153672" y="306.209966" style="fill: #008000; stroke: #008000"/>
     <use xlink:href="#m885f9a86ea" x="182.895108" y="282.765934" style="fill: #008000; stroke: #008000"/>
     <use xlink:href="#m885f9a86ea" x="189.636543" y="264.902441" style="fill: #008000; stroke: #008000"/>
     <use xlink:href="#m885f9a86ea" x="196.377978" y="253.879195" style="fill: #008000; stroke: #008000"/>
     <use xlink:href="#m885f9a86ea" x="203.119414" y="255.273528" style="fill: #008000; stroke: #008000"/>
     <use xlink:href="#m885f9a86ea" x="209.860849" y="258.033347" style="fill: #008000; stroke: #008000"/>
     <use xlink:href="#m885f9a86ea" x="216.602285" y="256.949934" style="fill: #008000; stroke: #008000"/>
     <use xlink:href="#m885f9a86ea" x="223.34372" y="263.482465" style="fill: #008000; stroke: #008000"/>
     <use xlink:href="#m885f9a86ea" x="230.085156" y="273.720397" style="fill: #008000; stroke: #008000"/>
     <use xlink:href="#m885f9a86ea" x="236.826591" y="269.547014" style="fill: #008000; stroke: #008000"/>
     <use xlink:href="#m885f9a86ea" x="243.568026" y="273.665906" style="fill: #008000; stroke: #008000"/>
     <use xlink:href="#m885f9a86ea" x="250.309462" y="269.813059" style="fill: #008000; stroke: #008000"/>
     <use xlink:href="#m885f9a86ea" x="257.050897" y="255.231859" style="fill: #008000; stroke: #008000"/>
     <use xlink:href="#m885f9a86ea" x="263.792333" y="219.722837" style="fill: #008000; stroke: #008000"/>
     <use xlink:href="#m885f9a86ea" x="270.533768" y="184.168941" style="fill: #008000; stroke: #008000"/>
     <use xlink:href="#m885f9a86ea" x="277.275203" y="200.753494" style="fill: #008000; stroke: #008000"/>
     <use xlink:href="#m885f9a86ea" x="284.016639" y="223.312845" style="fill: #008000; stroke: #008000"/>
     <use xlink:href="#m885f9a86ea" x="290.758074" y="238.352412" style="fill: #008000; stroke: #008000"/>
     <use xlink:href="#m885f9a86ea" x="297.49951" y="227.223389" style="fill: #008000; stroke: #008000"/>
     <use xlink:href="#m885f9a86ea" x="304.240945" y="213.562128" style="fill: #008000; stroke: #008000"/>
     <use xlink:href="#m885f9a86ea" x="310.98238" y="201.20545" style="fill: #008000; stroke: #008000"/>
     <use xlink:href="#m885f9a86ea" x="317.723816" y="200.830423" style="fill: #008000; stroke: #008000"/>
     <use xlink:href="#m885f9a86ea" x="324.465251" y="180.409049" style="fill: #008000; stroke: #008000"/>
     <use xlink:href="#m885f9a86ea" x="331.206687" y="164.606605" style="fill: #008000; stroke: #008000"/>
     <use xlink:href="#m885f9a86ea" x="337.948122" y="118.465392" style="fill: #008000; stroke: #008000"/>
     <use xlink:href="#m885f9a86ea" x="344.689557" y="58.057105" style="fill: #008000; stroke: #008000"/>
     <use xlink:href="#m885f9a86ea" x="351.430993" y="46.7005" style="fill: #008000; stroke: #008000"/>
     <use xlink:href="#m885f9a86ea" x="358.172428" y="40.703265" style="fill: #008000; stroke: #008000"/>
     <use xlink:href="#m885f9a86ea" x="364.913864" y="22.932727" style="fill: #008000; stroke: #008000"/>
     <use xlink:href="#m885f9a86ea" x="371.655299" y="23.298139" style="fill: #008000; stroke: #008000"/>
     <use xlink:href="#m885f9a86ea" x="378.396734" y="25.554715" style="fill: #008000; stroke: #008000"/>
     <use xlink:href="#m885f9a86ea" x="385.13817" y="42.286714" style="fill: #008000; stroke: #008000"/>
     <use xlink:href="#m885f9a86ea" x="391.879605" y="103.42262" style="fill: #008000; stroke: #008000"/>
     <use xlink:href="#m885f9a86ea" x="398.621041" y="154.535352" style="fill: #008000; stroke: #008000"/>
     <use xlink:href="#m885f9a86ea" x="405.362476" y="197.72122" style="fill: #008000; stroke: #008000"/>
     <use xlink:href="#m885f9a86ea" x="412.103911" y="220.383142" style="fill: #008000; stroke: #008000"/>
     <use xlink:href="#m885f9a86ea" x="418.845347" y="244.577229" style="fill: #008000; stroke: #008000"/>
     <use xlink:href="#m885f9a86ea" x="425.586782" y="257.222389" style="fill: #008000; stroke: #008000"/>
     <use xlink:href="#m885f9a86ea" x="432.328218" y="264.501771" style="fill: #008000; stroke: #008000"/>
     <use xlink:href="#m885f9a86ea" x="439.069653" y="280.246518" style="fill: #008000; stroke: #008000"/>
     <use xlink:href="#m885f9a86ea" x="445.811089" y="293.128876" style="fill: #008000; stroke: #008000"/>
     <use xlink:href="#m885f9a86ea" x="452.552524" y="283.999999" style="fill: #008000; stroke: #008000"/>
     <use xlink:href="#m885f9a86ea" x="459.293959" y="268.1046" style="fill: #008000; stroke: #008000"/>
     <use xlink:href="#m885f9a86ea" x="466.035395" y="255.170957" style="fill: #008000; stroke: #008000"/>
     <use xlink:href="#m885f9a86ea" x="472.77683" y="241.343017" style="fill: #008000; stroke: #008000"/>
     <use xlink:href="#m885f9a86ea" x="479.518266" y="250.128919" style="fill: #008000; stroke: #008000"/>
     <use xlink:href="#m885f9a86ea" x="486.259701" y="245.064444" style="fill: #008000; stroke: #008000"/>
     <use xlink:href="#m885f9a86ea" x="493.001136" y="224.550115" style="fill: #008000; stroke: #008000"/>
     <use xlink:href="#m885f9a86ea" x="499.742572" y="238.833217" style="fill: #008000; stroke: #008000"/>
     <use xlink:href="#m885f9a86ea" x="506.484007" y="247.772977" style="fill: #008000; stroke: #008000"/>
     <use xlink:href="#m885f9a86ea" x="513.225443" y="244.727881" style="fill: #008000; stroke: #008000"/>
     <use xlink:href="#m885f9a86ea" x="519.966878" y="233.563599" style="fill: #008000; stroke: #008000"/>
     <use xlink:href="#m885f9a86ea" x="526.708313" y="236.817043" style="fill: #008000; stroke: #008000"/>
     <use xlink:href="#m885f9a86ea" x="533.449749" y="236.04455" style="fill: #008000; stroke: #008000"/>
     <use xlink:href="#m885f9a86ea" x="540.191184" y="256.241548" style="fill: #008000; stroke: #008000"/>
     <use xlink:href="#m885f9a86ea" x="546.93262" y="259.084706" style="fill: #008000; stroke: #008000"/>
     <use xlink:href="#m885f9a86ea" x="553.674055" y="267.162223" style="fill: #008000; stroke: #008000"/>
     <use xlink:href="#m885f9a86ea" x="560.41549" y="252.058548" style="fill: #008000; stroke: #008000"/>
     <use xlink:href="#m885f9a86ea" x="567.156926" y="267.123759" style="fill: #008000; stroke: #008000"/>
     <use xlink:href="#m885f9a86ea" x="573.898361" y="269.960506" style="fill: #008000; stroke: #008000"/>
     <use xlink:href="#m885f9a86ea" x="580.639797" y="268.905941" style="fill: #008000; stroke: #008000"/>
     <use xlink:href="#m885f9a86ea" x="587.381232" y="262.001587" style="fill: #008000; stroke: #008000"/>
     <use xlink:href="#m885f9a86ea" x="594.122667" y="246.506858" style="fill: #008000; stroke: #008000"/>
     <use xlink:href="#m885f9a86ea" x="600.864103" y="239.288379" style="fill: #008000; stroke: #008000"/>
     <use xlink:href="#m885f9a86ea" x="607.605538" y="234.909852" style="fill: #008000; stroke: #008000"/>
     <use xlink:href="#m885f9a86ea" x="614.346974" y="246.458778" style="fill: #008000; stroke: #008000"/>
     <use xlink:href="#m885f9a86ea" x="621.088409" y="258.0654" style="fill: #008000; stroke: #008000"/>
     <use xlink:href="#m885f9a86ea" x="627.829844" y="251.693137" style="fill: #008000; stroke: #008000"/>
     <use xlink:href="#m885f9a86ea" x="634.57128" y="250.88218" style="fill: #008000; stroke: #008000"/>
     <use xlink:href="#m885f9a86ea" x="641.312715" y="253.92407" style="fill: #008000; stroke: #008000"/>
     <use xlink:href="#m885f9a86ea" x="648.054151" y="272.303627" style="fill: #008000; stroke: #008000"/>
     <use xlink:href="#m885f9a86ea" x="654.795586" y="278.845774" style="fill: #008000; stroke: #008000"/>
     <use xlink:href="#m885f9a86ea" x="661.537022" y="287.820793" style="fill: #008000; stroke: #008000"/>
     <use xlink:href="#m885f9a86ea" x="668.278457" y="292.846804" style="fill: #008000; stroke: #008000"/>
     <use xlink:href="#m885f9a86ea" x="675.019892" y="302.866771" style="fill: #008000; stroke: #008000"/>
     <use xlink:href="#m885f9a86ea" x="681.761328" y="287.718221" style="fill: #008000; stroke: #008000"/>
     <use xlink:href="#m885f9a86ea" x="688.502763" y="290.917175" style="fill: #008000; stroke: #008000"/>
     <use xlink:href="#m885f9a86ea" x="695.244199" y="320.233433" style="fill: #008000; stroke: #008000"/>
     <use xlink:href="#m885f9a86ea" x="701.985634" y="327.009572" style="fill: #008000; stroke: #008000"/>
     <use xlink:href="#m885f9a86ea" x="708.727069" y="316.268398" style="fill: #008000; stroke: #008000"/>
     <use xlink:href="#m885f9a86ea" x="715.468505" y="315.826057" style="fill: #008000; stroke: #008000"/>
     <use xlink:href="#m885f9a86ea" x="722.20994" y="314.367617" style="fill: #008000; stroke: #008000"/>
     <use xlink:href="#m885f9a86ea" x="728.951376" y="310.248724" style="fill: #008000; stroke: #008000"/>
     <use xlink:href="#m885f9a86ea" x="735.692811" y="325.313934" style="fill: #008000; stroke: #008000"/>
     <use xlink:href="#m885f9a86ea" x="742.434246" y="333.542104" style="fill: #008000; stroke: #008000"/>
     <use xlink:href="#m885f9a86ea" x="749.175682" y="337.587273" style="fill: #008000; stroke: #008000"/>
    </g>
   </g>
   <g id="patch_7">
    <path d="M 76.7175 353.32 
L 76.7175 7.2 
" style="fill: none; stroke: #000000; stroke-width: 0.8; stroke-linejoin: miter; stroke-linecap: square"/>
   </g>
   <g id="patch_8">
    <path d="M 781.1975 353.32 
L 781.1975 7.2 
" style="fill: none; stroke: #000000; stroke-width: 0.8; stroke-linejoin: miter; stroke-linecap: square"/>
   </g>
   <g id="patch_9">
    <path d="M 76.7175 353.32 
L 781.1975 353.32 
" style="fill: none; stroke: #000000; stroke-width: 0.8; stroke-linejoin: miter; stroke-linecap: square"/>
   </g>
   <g id="patch_10">
    <path d="M 76.7175 7.2 
L 781.1975 7.2 
" style="fill: none; stroke: #000000; stroke-width: 0.8; stroke-linejoin: miter; stroke-linecap: square"/>
   </g>
  </g>
  <g id="legend_1">
   <g id="patch_11">
    <path d="M 98.0375 156.4385 
L 239.42875 156.4385 
Q 243.82875 156.4385 243.82875 152.0385 
L 243.82875 20.44 
Q 243.82875 16.04 239.42875 16.04 
L 98.0375 16.04 
Q 93.6375 16.04 93.6375 20.44 
L 93.6375 152.0385 
Q 93.6375 156.4385 98.0375 156.4385 
z
" style="fill: #ffffff; opacity: 0.8; stroke: #cccccc; stroke-linejoin: miter"/>
   </g>
   <g id="line2d_19">
    <path d="M 102.4375 44.993375 
L 124.4375 44.993375 
L 146.4375 44.993375 
" style="fill: none; stroke: #0000ff; stroke-width: 1.5; stroke-linecap: square"/>
    <g>
     <use xlink:href="#m02df06fc54" x="124.4375" y="44.993375" style="fill: #0000ff; stroke: #0000ff"/>
    </g>
   </g>
   <g id="text_19">
    <!-- Energy -->
    <g transform="translate(164.0375 39.793125) scale(0.22 -0.22)">
     <defs>
      <path id="Calibri-45" d="M 2788 222 
Q 2788 166 2781 123 
Q 2775 81 2759 53 
Q 2744 25 2723 12 
Q 2703 0 2678 0 
L 738 0 
Q 666 0 602 48 
Q 538 97 538 219 
L 538 3825 
Q 538 3947 602 3995 
Q 666 4044 738 4044 
L 2656 4044 
Q 2681 4044 2701 4031 
Q 2722 4019 2734 3991 
Q 2747 3963 2755 3920 
Q 2763 3878 2763 3816 
Q 2763 3759 2755 3717 
Q 2747 3675 2734 3648 
Q 2722 3622 2701 3609 
Q 2681 3597 2656 3597 
L 1075 3597 
L 1075 2328 
L 2431 2328 
Q 2456 2328 2476 2314 
Q 2497 2300 2511 2275 
Q 2525 2250 2531 2206 
Q 2538 2163 2538 2103 
Q 2538 2047 2531 2006 
Q 2525 1966 2511 1941 
Q 2497 1916 2476 1905 
Q 2456 1894 2431 1894 
L 1075 1894 
L 1075 447 
L 2678 447 
Q 2703 447 2723 434 
Q 2744 422 2759 395 
Q 2775 369 2781 326 
Q 2788 284 2788 222 
z
" transform="scale(0.015625)"/>
      <path id="Calibri-79" d="M 1759 0 
L 1384 -1034 
Q 1366 -1084 1289 -1111 
Q 1213 -1138 1056 -1138 
Q 975 -1138 925 -1130 
Q 875 -1122 848 -1103 
Q 822 -1084 819 -1053 
Q 816 -1022 834 -978 
L 1222 0 
Q 1194 13 1169 41 
Q 1144 69 1134 100 
L 131 2788 
Q 106 2853 106 2890 
Q 106 2928 131 2950 
Q 156 2972 212 2980 
Q 269 2988 363 2988 
Q 456 2988 509 2983 
Q 563 2978 594 2965 
Q 625 2953 639 2929 
Q 653 2906 669 2866 
L 1472 609 
L 1481 609 
L 2256 2878 
Q 2275 2938 2301 2955 
Q 2328 2972 2381 2980 
Q 2434 2988 2534 2988 
Q 2622 2988 2678 2980 
Q 2734 2972 2761 2950 
Q 2788 2928 2788 2890 
Q 2788 2853 2769 2797 
L 1759 0 
z
" transform="scale(0.015625)"/>
     </defs>
     <use xlink:href="#Calibri-45"/>
     <use xlink:href="#Calibri-6e" x="48.828125"/>
     <use xlink:href="#Calibri-65" x="101.367188"/>
     <use xlink:href="#Calibri-72" x="151.123047"/>
     <use xlink:href="#Calibri-67" x="185.986328"/>
     <use xlink:href="#Calibri-79" x="233.056641"/>
    </g>
    <!-- price -->
    <g transform="translate(164.0375 61.671438) scale(0.22 -0.22)">
     <defs>
      <path id="Calibri-70" d="M 3066 1528 
Q 3066 1159 2986 865 
Q 2906 572 2751 367 
Q 2597 163 2369 52 
Q 2141 -59 1847 -59 
Q 1722 -59 1615 -34 
Q 1509 -9 1407 44 
Q 1306 97 1206 178 
Q 1106 259 994 369 
L 994 -1038 
Q 994 -1063 981 -1081 
Q 969 -1100 941 -1112 
Q 913 -1125 863 -1131 
Q 813 -1138 734 -1138 
Q 659 -1138 609 -1131 
Q 559 -1125 529 -1112 
Q 500 -1100 489 -1081 
Q 478 -1063 478 -1038 
L 478 2891 
Q 478 2919 487 2936 
Q 497 2953 525 2965 
Q 553 2978 597 2983 
Q 641 2988 703 2988 
Q 769 2988 811 2983 
Q 853 2978 881 2965 
Q 909 2953 920 2936 
Q 931 2919 931 2891 
L 931 2513 
Q 1059 2644 1178 2741 
Q 1297 2838 1417 2902 
Q 1538 2966 1664 2998 
Q 1791 3031 1931 3031 
Q 2238 3031 2453 2912 
Q 2669 2794 2805 2587 
Q 2941 2381 3003 2107 
Q 3066 1834 3066 1528 
z
M 2522 1469 
Q 2522 1684 2489 1886 
Q 2456 2088 2376 2244 
Q 2297 2400 2162 2494 
Q 2028 2588 1828 2588 
Q 1728 2588 1631 2558 
Q 1534 2528 1434 2464 
Q 1334 2400 1225 2295 
Q 1116 2191 994 2038 
L 994 919 
Q 1206 659 1397 521 
Q 1588 384 1797 384 
Q 1991 384 2130 478 
Q 2269 572 2355 728 
Q 2441 884 2481 1078 
Q 2522 1272 2522 1469 
z
" transform="scale(0.015625)"/>
     </defs>
     <use xlink:href="#Calibri-70"/>
     <use xlink:href="#Calibri-72" x="52.539062"/>
     <use xlink:href="#Calibri-69" x="87.402344"/>
     <use xlink:href="#Calibri-63" x="110.351562"/>
     <use xlink:href="#Calibri-65" x="152.636719"/>
    </g>
   </g>
   <g id="line2d_20">
    <path d="M 102.4375 96.736688 
L 124.4375 96.736688 
L 146.4375 96.736688 
" style="fill: none; stroke-dasharray: 5.55,2.4; stroke-dashoffset: 0; stroke: #ff0000; stroke-width: 1.5"/>
    <g>
     <use xlink:href="#mc940f801ea" x="124.4375" y="96.736688" style="fill: #ff0000; stroke: #ff0000"/>
    </g>
   </g>
   <g id="text_20">
    <!-- Reserve -->
    <g transform="translate(164.0375 91.54675) scale(0.22 -0.22)">
     <defs>
      <path id="Calibri-52" d="M 3234 81 
Q 3234 56 3225 37 
Q 3216 19 3184 6 
Q 3153 -6 3097 -12 
Q 3041 -19 2947 -19 
Q 2866 -19 2814 -12 
Q 2763 -6 2731 8 
Q 2700 22 2683 47 
Q 2666 72 2653 109 
L 2281 1063 
Q 2216 1225 2145 1361 
Q 2075 1497 1978 1595 
Q 1881 1694 1750 1748 
Q 1619 1803 1434 1803 
L 1075 1803 
L 1075 81 
Q 1075 56 1061 37 
Q 1047 19 1017 8 
Q 988 -3 936 -11 
Q 884 -19 806 -19 
Q 728 -19 676 -11 
Q 625 -3 594 8 
Q 563 19 550 37 
Q 538 56 538 81 
L 538 3825 
Q 538 3947 602 3995 
Q 666 4044 738 4044 
L 1597 4044 
Q 1750 4044 1851 4036 
Q 1953 4028 2034 4019 
Q 2269 3978 2448 3890 
Q 2628 3803 2750 3668 
Q 2872 3534 2933 3361 
Q 2994 3188 2994 2978 
Q 2994 2775 2939 2614 
Q 2884 2453 2781 2329 
Q 2678 2206 2534 2115 
Q 2391 2025 2213 1963 
Q 2313 1919 2394 1851 
Q 2475 1784 2545 1690 
Q 2616 1597 2678 1475 
Q 2741 1353 2803 1200 
L 3166 309 
Q 3209 197 3221 151 
Q 3234 106 3234 81 
z
M 2425 2922 
Q 2425 3159 2319 3323 
Q 2213 3488 1963 3559 
Q 1884 3581 1786 3590 
Q 1688 3600 1528 3600 
L 1075 3600 
L 1075 2238 
L 1600 2238 
Q 1813 2238 1967 2289 
Q 2122 2341 2225 2433 
Q 2328 2525 2376 2650 
Q 2425 2775 2425 2922 
z
" transform="scale(0.015625)"/>
      <path id="Calibri-76" d="M 2784 2897 
Q 2784 2884 2782 2870 
Q 2781 2856 2778 2840 
Q 2775 2825 2770 2806 
Q 2766 2788 2759 2766 
L 1800 94 
Q 1788 59 1767 37 
Q 1747 16 1706 3 
Q 1666 -9 1603 -14 
Q 1541 -19 1447 -19 
Q 1353 -19 1290 -12 
Q 1228 -6 1189 6 
Q 1150 19 1128 41 
Q 1106 63 1094 94 
L 138 2766 
Q 125 2803 117 2831 
Q 109 2859 107 2873 
Q 106 2888 106 2897 
Q 106 2922 118 2940 
Q 131 2959 161 2970 
Q 191 2981 239 2984 
Q 288 2988 359 2988 
Q 450 2988 504 2983 
Q 559 2978 589 2965 
Q 619 2953 633 2934 
Q 647 2916 659 2888 
L 1453 569 
L 1466 531 
L 1475 569 
L 2259 2888 
Q 2266 2916 2281 2934 
Q 2297 2953 2326 2965 
Q 2356 2978 2407 2983 
Q 2459 2988 2544 2988 
Q 2616 2988 2662 2984 
Q 2709 2981 2736 2968 
Q 2763 2956 2773 2939 
Q 2784 2922 2784 2897 
z
" transform="scale(0.015625)"/>
     </defs>
     <use xlink:href="#Calibri-52"/>
     <use xlink:href="#Calibri-65" x="54.296875"/>
     <use xlink:href="#Calibri-73" x="104.052734"/>
     <use xlink:href="#Calibri-65" x="143.164062"/>
     <use xlink:href="#Calibri-72" x="192.919922"/>
     <use xlink:href="#Calibri-76" x="227.783203"/>
     <use xlink:href="#Calibri-65" x="272.949219"/>
    </g>
    <!-- price -->
    <g transform="translate(164.0375 113.41475) scale(0.22 -0.22)">
     <use xlink:href="#Calibri-70"/>
     <use xlink:href="#Calibri-72" x="52.539062"/>
     <use xlink:href="#Calibri-69" x="87.402344"/>
     <use xlink:href="#Calibri-63" x="110.351562"/>
     <use xlink:href="#Calibri-65" x="152.636719"/>
    </g>
   </g>
   <g id="line2d_21">
    <path d="M 102.4375 136.026625 
L 124.4375 136.026625 
L 146.4375 136.026625 
" style="fill: none; stroke: #008000; stroke-width: 1.5; stroke-linecap: square"/>
    <g>
     <use xlink:href="#m885f9a86ea" x="124.4375" y="136.026625" style="fill: #008000; stroke: #008000"/>
    </g>
   </g>
   <g id="text_21">
    <!-- Wind -->
    <g transform="translate(164.0375 143.726625) scale(0.22 -0.22)">
     <use xlink:href="#Calibri-57"/>
     <use xlink:href="#Calibri-69" x="88.964844"/>
     <use xlink:href="#Calibri-6e" x="111.914062"/>
     <use xlink:href="#Calibri-64" x="164.453125"/>
    </g>
   </g>
  </g>
 </g>
 <defs>
  <clipPath id="pb185757527">
   <rect x="76.7175" y="7.2" width="704.48" height="346.12"/>
  </clipPath>
 </defs>
</svg>
