<?xml version="1.0" encoding="utf-8" standalone="no"?>
<!DOCTYPE svg PUBLIC "-//W3C//DTD SVG 1.1//EN"
  "http://www.w3.org/Graphics/SVG/1.1/DTD/svg11.dtd">
<svg xmlns:xlink="http://www.w3.org/1999/xlink" width="854.766187pt" height="422.900725pt" viewBox="0 0 854.766187 422.900725" xmlns="http://www.w3.org/2000/svg" version="1.1">
 <metadata>
  <rdf:RDF xmlns:dc="http://purl.org/dc/elements/1.1/" xmlns:cc="http://creativecommons.org/ns#" xmlns:rdf="http://www.w3.org/1999/02/22-rdf-syntax-ns#">
   <cc:Work>
    <dc:type rdf:resource="http://purl.org/dc/dcmitype/StillImage"/>
    <dc:date>2025-01-25T15:49:47.372255</dc:date>
    <dc:format>image/svg+xml</dc:format>
    <dc:creator>
     <cc:Agent>
      <dc:title>Matplotlib v3.7.2, https://matplotlib.org/</dc:title>
     </cc:Agent>
    </dc:creator>
   </cc:Work>
  </rdf:RDF>
 </metadata>
 <defs>
  <style type="text/css">*{stroke-linejoin: round; stroke-linecap: butt}</style>
 </defs>
 <g id="figure_1">
  <g id="patch_1">
   <path d="M 0 422.900725 
L 854.766187 422.900725 
L 854.766187 0 
L 0 0 
z
" style="fill: #ffffff"/>
  </g>
  <g id="axes_1">
   <g id="patch_2">
    <path d="M 102.599688 330.224 
L 783.103688 330.224 
L 783.103688 7.2 
L 102.599688 7.2 
z
" style="fill: #ffffff"/>
   </g>
   <g id="patch_3">
    <path d="M 133.531688 330.224 
L 138.697784 330.224 
L 138.697784 79.613784 
L 133.531688 79.613784 
z
" clip-path="url(#p813b8375a3)" style="fill: #008000"/>
   </g>
   <g id="patch_4">
    <path d="M 139.989308 330.224 
L 145.155404 330.224 
L 145.155404 57.29667 
L 139.989308 57.29667 
z
" clip-path="url(#p813b8375a3)" style="fill: #008000"/>
   </g>
   <g id="patch_5">
    <path d="M 146.446928 330.224 
L 151.613024 330.224 
L 151.613024 50.383694 
L 146.446928 50.383694 
z
" clip-path="url(#p813b8375a3)" style="fill: #008000"/>
   </g>
   <g id="patch_6">
    <path d="M 152.904548 330.224 
L 158.070644 330.224 
L 158.070644 42.686017 
L 152.904548 42.686017 
z
" clip-path="url(#p813b8375a3)" style="fill: #008000"/>
   </g>
   <g id="patch_7">
    <path d="M 159.362168 330.224 
L 164.528264 330.224 
L 164.528264 27.647878 
L 159.362168 27.647878 
z
" clip-path="url(#p813b8375a3)" style="fill: #008000"/>
   </g>
   <g id="patch_8">
    <path d="M 165.819788 330.224 
L 170.985884 330.224 
L 170.985884 85.948148 
L 165.819788 85.948148 
z
" clip-path="url(#p813b8375a3)" style="fill: #008000"/>
   </g>
   <g id="patch_9">
    <path d="M 172.277408 330.224 
L 177.443504 330.224 
L 177.443504 38.200342 
L 172.277408 38.200342 
z
" clip-path="url(#p813b8375a3)" style="fill: #008000"/>
   </g>
   <g id="patch_10">
    <path d="M 178.735028 330.224 
L 183.901124 330.224 
L 183.901124 22.582095 
L 178.735028 22.582095 
z
" clip-path="url(#p813b8375a3)" style="fill: #008000"/>
   </g>
   <g id="patch_11">
    <path d="M 185.192648 330.224 
L 190.358744 330.224 
L 190.358744 33.562045 
L 185.192648 33.562045 
z
" clip-path="url(#p813b8375a3)" style="fill: #008000"/>
   </g>
   <g id="patch_12">
    <path d="M 191.650268 330.224 
L 196.816364 330.224 
L 196.816364 38.794357 
L 191.650268 38.794357 
z
" clip-path="url(#p813b8375a3)" style="fill: #008000"/>
   </g>
   <g id="patch_13">
    <path d="M 198.107888 330.224 
L 203.273984 330.224 
L 203.273984 46.310499 
L 198.107888 46.310499 
z
" clip-path="url(#p813b8375a3)" style="fill: #008000"/>
   </g>
   <g id="patch_14">
    <path d="M 204.565508 330.224 
L 209.731604 330.224 
L 209.731604 118.624112 
L 204.565508 118.624112 
z
" clip-path="url(#p813b8375a3)" style="fill: #008000"/>
   </g>
   <g id="patch_15">
    <path d="M 211.023128 330.224 
L 216.189224 330.224 
L 216.189224 86.438677 
L 211.023128 86.438677 
z
" clip-path="url(#p813b8375a3)" style="fill: #008000"/>
   </g>
   <g id="patch_16">
    <path d="M 217.480748 330.224 
L 222.646844 330.224 
L 222.646844 96.508023 
L 217.480748 96.508023 
z
" clip-path="url(#p813b8375a3)" style="fill: #008000"/>
   </g>
   <g id="patch_17">
    <path d="M 223.938368 330.224 
L 229.104464 330.224 
L 229.104464 89.246311 
L 223.938368 89.246311 
z
" clip-path="url(#p813b8375a3)" style="fill: #008000"/>
   </g>
   <g id="patch_18">
    <path d="M 230.395988 330.224 
L 235.562084 330.224 
L 235.562084 85.527707 
L 230.395988 85.527707 
z
" clip-path="url(#p813b8375a3)" style="fill: #008000"/>
   </g>
   <g id="patch_19">
    <path d="M 236.853608 330.224 
L 242.019704 330.224 
L 242.019704 87.714974 
L 236.853608 87.714974 
z
" clip-path="url(#p813b8375a3)" style="fill: #008000"/>
   </g>
   <g id="patch_20">
    <path d="M 243.311228 330.224 
L 248.477324 330.224 
L 248.477324 183.544376 
L 243.311228 183.544376 
z
" clip-path="url(#p813b8375a3)" style="fill: #008000"/>
   </g>
   <g id="patch_21">
    <path d="M 249.768848 330.224 
L 254.934944 330.224 
L 254.934944 78.383786 
L 249.768848 78.383786 
z
" clip-path="url(#p813b8375a3)" style="fill: #008000"/>
   </g>
   <g id="patch_22">
    <path d="M 256.226468 330.224 
L 261.392564 330.224 
L 261.392564 79.800809 
L 256.226468 79.800809 
z
" clip-path="url(#p813b8375a3)" style="fill: #008000"/>
   </g>
   <g id="patch_23">
    <path d="M 262.684088 330.224 
L 267.850184 330.224 
L 267.850184 74.840739 
L 262.684088 74.840739 
z
" clip-path="url(#p813b8375a3)" style="fill: #008000"/>
   </g>
   <g id="patch_24">
    <path d="M 269.141708 330.224 
L 274.307804 330.224 
L 274.307804 78.360179 
L 269.141708 78.360179 
z
" clip-path="url(#p813b8375a3)" style="fill: #008000"/>
   </g>
   <g id="patch_25">
    <path d="M 275.599328 330.224 
L 280.765424 330.224 
L 280.765424 89.284375 
L 275.599328 89.284375 
z
" clip-path="url(#p813b8375a3)" style="fill: #008000"/>
   </g>
   <g id="patch_26">
    <path d="M 282.056948 330.224 
L 287.223044 330.224 
L 287.223044 172.61893 
L 282.056948 172.61893 
z
" clip-path="url(#p813b8375a3)" style="fill: #008000"/>
   </g>
   <g id="patch_27">
    <path d="M 288.514569 330.224 
L 293.680665 330.224 
L 293.680665 154.197838 
L 288.514569 154.197838 
z
" clip-path="url(#p813b8375a3)" style="fill: #008000"/>
   </g>
   <g id="patch_28">
    <path d="M 294.972189 330.224 
L 300.138285 330.224 
L 300.138285 145.036473 
L 294.972189 145.036473 
z
" clip-path="url(#p813b8375a3)" style="fill: #008000"/>
   </g>
   <g id="patch_29">
    <path d="M 301.429809 330.224 
L 306.595905 330.224 
L 306.595905 124.429303 
L 301.429809 124.429303 
z
" clip-path="url(#p813b8375a3)" style="fill: #008000"/>
   </g>
   <g id="patch_30">
    <path d="M 307.887429 330.224 
L 313.053525 330.224 
L 313.053525 104.703152 
L 307.887429 104.703152 
z
" clip-path="url(#p813b8375a3)" style="fill: #008000"/>
   </g>
   <g id="patch_31">
    <path d="M 314.345049 330.224 
L 319.511145 330.224 
L 319.511145 111.276299 
L 314.345049 111.276299 
z
" clip-path="url(#p813b8375a3)" style="fill: #008000"/>
   </g>
   <g id="patch_32">
    <path d="M 320.802669 330.224 
L 325.968765 330.224 
L 325.968765 225.552017 
L 320.802669 225.552017 
z
" clip-path="url(#p813b8375a3)" style="fill: #008000"/>
   </g>
   <g id="patch_33">
    <path d="M 327.260289 330.224 
L 332.426385 330.224 
L 332.426385 142.228412 
L 327.260289 142.228412 
z
" clip-path="url(#p813b8375a3)" style="fill: #008000"/>
   </g>
   <g id="patch_34">
    <path d="M 333.717909 330.224 
L 338.884005 330.224 
L 338.884005 142.570986 
L 333.717909 142.570986 
z
" clip-path="url(#p813b8375a3)" style="fill: #008000"/>
   </g>
   <g id="patch_35">
    <path d="M 340.175529 330.224 
L 345.341625 330.224 
L 345.341625 164.818011 
L 340.175529 164.818011 
z
" clip-path="url(#p813b8375a3)" style="fill: #008000"/>
   </g>
   <g id="patch_36">
    <path d="M 346.633149 330.224 
L 351.799245 330.224 
L 351.799245 175.660163 
L 346.633149 175.660163 
z
" clip-path="url(#p813b8375a3)" style="fill: #008000"/>
   </g>
   <g id="patch_37">
    <path d="M 353.090769 330.224 
L 358.256865 330.224 
L 358.256865 210.622884 
L 353.090769 210.622884 
z
" clip-path="url(#p813b8375a3)" style="fill: #008000"/>
   </g>
   <g id="patch_38">
    <path d="M 359.548389 330.224 
L 364.714485 330.224 
L 364.714485 330.224 
L 359.548389 330.224 
z
" clip-path="url(#p813b8375a3)" style="fill: #008000"/>
   </g>
   <g id="patch_39">
    <path d="M 366.006009 330.224 
L 371.172105 330.224 
L 371.172105 279.770399 
L 366.006009 279.770399 
z
" clip-path="url(#p813b8375a3)" style="fill: #008000"/>
   </g>
   <g id="patch_40">
    <path d="M 372.463629 330.224 
L 377.629725 330.224 
L 377.629725 288.841484 
L 372.463629 288.841484 
z
" clip-path="url(#p813b8375a3)" style="fill: #008000"/>
   </g>
   <g id="patch_41">
    <path d="M 378.921249 330.224 
L 384.087345 330.224 
L 384.087345 308.667065 
L 378.921249 308.667065 
z
" clip-path="url(#p813b8375a3)" style="fill: #008000"/>
   </g>
   <g id="patch_42">
    <path d="M 385.378869 330.224 
L 390.544965 330.224 
L 390.544965 304.740452 
L 385.378869 304.740452 
z
" clip-path="url(#p813b8375a3)" style="fill: #008000"/>
   </g>
   <g id="patch_43">
    <path d="M 391.836489 330.224 
L 397.002585 330.224 
L 397.002585 295.493504 
L 391.836489 295.493504 
z
" clip-path="url(#p813b8375a3)" style="fill: #008000"/>
   </g>
   <g id="patch_44">
    <path d="M 398.294109 330.224 
L 403.460205 330.224 
L 403.460205 330.224 
L 398.294109 330.224 
z
" clip-path="url(#p813b8375a3)" style="fill: #008000"/>
   </g>
   <g id="patch_45">
    <path d="M 404.751729 330.224 
L 409.917825 330.224 
L 409.917825 227.956748 
L 404.751729 227.956748 
z
" clip-path="url(#p813b8375a3)" style="fill: #008000"/>
   </g>
   <g id="patch_46">
    <path d="M 411.209349 330.224 
L 416.375445 330.224 
L 416.375445 184.859896 
L 411.209349 184.859896 
z
" clip-path="url(#p813b8375a3)" style="fill: #008000"/>
   </g>
   <g id="patch_47">
    <path d="M 417.666969 330.224 
L 422.833065 330.224 
L 422.833065 149.003956 
L 417.666969 149.003956 
z
" clip-path="url(#p813b8375a3)" style="fill: #008000"/>
   </g>
   <g id="patch_48">
    <path d="M 424.124589 330.224 
L 429.290685 330.224 
L 429.290685 124.710268 
L 424.124589 124.710268 
z
" clip-path="url(#p813b8375a3)" style="fill: #008000"/>
   </g>
   <g id="patch_49">
    <path d="M 430.582209 330.224 
L 435.748305 330.224 
L 435.748305 95.42418 
L 430.582209 95.42418 
z
" clip-path="url(#p813b8375a3)" style="fill: #008000"/>
   </g>
   <g id="patch_50">
    <path d="M 437.039829 330.224 
L 442.205925 330.224 
L 442.205925 288.664158 
L 437.039829 288.664158 
z
" clip-path="url(#p813b8375a3)" style="fill: #008000"/>
   </g>
   <g id="patch_51">
    <path d="M 443.49745 330.224 
L 448.663546 330.224 
L 448.663546 233.511596 
L 443.49745 233.511596 
z
" clip-path="url(#p813b8375a3)" style="fill: #008000"/>
   </g>
   <g id="patch_52">
    <path d="M 449.95507 330.224 
L 455.121166 330.224 
L 455.121166 222.722149 
L 449.95507 222.722149 
z
" clip-path="url(#p813b8375a3)" style="fill: #008000"/>
   </g>
   <g id="patch_53">
    <path d="M 456.41269 330.224 
L 461.578786 330.224 
L 461.578786 213.349785 
L 456.41269 213.349785 
z
" clip-path="url(#p813b8375a3)" style="fill: #008000"/>
   </g>
   <g id="patch_54">
    <path d="M 462.87031 330.224 
L 468.036406 330.224 
L 468.036406 222.886299 
L 462.87031 222.886299 
z
" clip-path="url(#p813b8375a3)" style="fill: #008000"/>
   </g>
   <g id="patch_55">
    <path d="M 469.32793 330.224 
L 474.494026 330.224 
L 474.494026 226.627717 
L 469.32793 226.627717 
z
" clip-path="url(#p813b8375a3)" style="fill: #008000"/>
   </g>
   <g id="patch_56">
    <path d="M 475.78555 330.224 
L 480.951646 330.224 
L 480.951646 330.224 
L 475.78555 330.224 
z
" clip-path="url(#p813b8375a3)" style="fill: #008000"/>
   </g>
   <g id="patch_57">
    <path d="M 482.24317 330.224 
L 487.409266 330.224 
L 487.409266 258.259122 
L 482.24317 258.259122 
z
" clip-path="url(#p813b8375a3)" style="fill: #008000"/>
   </g>
   <g id="patch_58">
    <path d="M 488.70079 330.224 
L 493.866886 330.224 
L 493.866886 250.233511 
L 488.70079 250.233511 
z
" clip-path="url(#p813b8375a3)" style="fill: #008000"/>
   </g>
   <g id="patch_59">
    <path d="M 495.15841 330.224 
L 500.324506 330.224 
L 500.324506 254.859729 
L 495.15841 254.859729 
z
" clip-path="url(#p813b8375a3)" style="fill: #008000"/>
   </g>
   <g id="patch_60">
    <path d="M 501.61603 330.224 
L 506.782126 330.224 
L 506.782126 278.389274 
L 501.61603 278.389274 
z
" clip-path="url(#p813b8375a3)" style="fill: #008000"/>
   </g>
   <g id="patch_61">
    <path d="M 508.07365 330.224 
L 513.239746 330.224 
L 513.239746 264.144558 
L 508.07365 264.144558 
z
" clip-path="url(#p813b8375a3)" style="fill: #008000"/>
   </g>
   <g id="patch_62">
    <path d="M 514.53127 330.224 
L 519.697366 330.224 
L 519.697366 330.224 
L 514.53127 330.224 
z
" clip-path="url(#p813b8375a3)" style="fill: #008000"/>
   </g>
   <g id="patch_63">
    <path d="M 520.98889 330.224 
L 526.154986 330.224 
L 526.154986 251.574346 
L 520.98889 251.574346 
z
" clip-path="url(#p813b8375a3)" style="fill: #008000"/>
   </g>
   <g id="patch_64">
    <path d="M 527.44651 330.224 
L 532.612606 330.224 
L 532.612606 261.772523 
L 527.44651 261.772523 
z
" clip-path="url(#p813b8375a3)" style="fill: #008000"/>
   </g>
   <g id="patch_65">
    <path d="M 533.90413 330.224 
L 539.070226 330.224 
L 539.070226 262.393439 
L 533.90413 262.393439 
z
" clip-path="url(#p813b8375a3)" style="fill: #008000"/>
   </g>
   <g id="patch_66">
    <path d="M 540.36175 330.224 
L 545.527846 330.224 
L 545.527846 265.494299 
L 540.36175 265.494299 
z
" clip-path="url(#p813b8375a3)" style="fill: #008000"/>
   </g>
   <g id="patch_67">
    <path d="M 546.81937 330.224 
L 551.985466 330.224 
L 551.985466 248.242663 
L 546.81937 248.242663 
z
" clip-path="url(#p813b8375a3)" style="fill: #008000"/>
   </g>
   <g id="patch_68">
    <path d="M 553.27699 330.224 
L 558.443086 330.224 
L 558.443086 330.224 
L 553.27699 330.224 
z
" clip-path="url(#p813b8375a3)" style="fill: #008000"/>
   </g>
   <g id="patch_69">
    <path d="M 559.73461 330.224 
L 564.900706 330.224 
L 564.900706 237.069405 
L 559.73461 237.069405 
z
" clip-path="url(#p813b8375a3)" style="fill: #008000"/>
   </g>
   <g id="patch_70">
    <path d="M 566.19223 330.224 
L 571.358326 330.224 
L 571.358326 252.063685 
L 566.19223 252.063685 
z
" clip-path="url(#p813b8375a3)" style="fill: #008000"/>
   </g>
   <g id="patch_71">
    <path d="M 572.64985 330.224 
L 577.815946 330.224 
L 577.815946 234.709326 
L 572.64985 234.709326 
z
" clip-path="url(#p813b8375a3)" style="fill: #008000"/>
   </g>
   <g id="patch_72">
    <path d="M 579.10747 330.224 
L 584.273566 330.224 
L 584.273566 232.118058 
L 579.10747 232.118058 
z
" clip-path="url(#p813b8375a3)" style="fill: #008000"/>
   </g>
   <g id="patch_73">
    <path d="M 585.56509 330.224 
L 590.731186 330.224 
L 590.731186 236.674188 
L 585.56509 236.674188 
z
" clip-path="url(#p813b8375a3)" style="fill: #008000"/>
   </g>
   <g id="patch_74">
    <path d="M 592.02271 330.224 
L 597.188806 330.224 
L 597.188806 330.224 
L 592.02271 330.224 
z
" clip-path="url(#p813b8375a3)" style="fill: #008000"/>
   </g>
   <g id="patch_75">
    <path d="M 598.480331 330.224 
L 603.646427 330.224 
L 603.646427 108.032822 
L 598.480331 108.032822 
z
" clip-path="url(#p813b8375a3)" style="fill: #008000"/>
   </g>
   <g id="patch_76">
    <path d="M 604.937951 330.224 
L 610.104047 330.224 
L 610.104047 107.441003 
L 604.937951 107.441003 
z
" clip-path="url(#p813b8375a3)" style="fill: #008000"/>
   </g>
   <g id="patch_77">
    <path d="M 611.395571 330.224 
L 616.561667 330.224 
L 616.561667 111.440632 
L 611.395571 111.440632 
z
" clip-path="url(#p813b8375a3)" style="fill: #008000"/>
   </g>
   <g id="patch_78">
    <path d="M 617.853191 330.224 
L 623.019287 330.224 
L 623.019287 103.286312 
L 617.853191 103.286312 
z
" clip-path="url(#p813b8375a3)" style="fill: #008000"/>
   </g>
   <g id="patch_79">
    <path d="M 624.310811 330.224 
L 629.476907 330.224 
L 629.476907 93.88168 
L 624.310811 93.88168 
z
" clip-path="url(#p813b8375a3)" style="fill: #008000"/>
   </g>
   <g id="patch_80">
    <path d="M 630.768431 330.224 
L 635.934527 330.224 
L 635.934527 303.295795 
L 630.768431 303.295795 
z
" clip-path="url(#p813b8375a3)" style="fill: #008000"/>
   </g>
   <g id="patch_81">
    <path d="M 637.226051 330.224 
L 642.392147 330.224 
L 642.392147 104.03612 
L 637.226051 104.03612 
z
" clip-path="url(#p813b8375a3)" style="fill: #008000"/>
   </g>
   <g id="patch_82">
    <path d="M 643.683671 330.224 
L 648.849767 330.224 
L 648.849767 90.478993 
L 643.683671 90.478993 
z
" clip-path="url(#p813b8375a3)" style="fill: #008000"/>
   </g>
   <g id="patch_83">
    <path d="M 650.141291 330.224 
L 655.307387 330.224 
L 655.307387 73.689918 
L 650.141291 73.689918 
z
" clip-path="url(#p813b8375a3)" style="fill: #008000"/>
   </g>
   <g id="patch_84">
    <path d="M 656.598911 330.224 
L 661.765007 330.224 
L 661.765007 70.109113 
L 656.598911 70.109113 
z
" clip-path="url(#p813b8375a3)" style="fill: #008000"/>
   </g>
   <g id="patch_85">
    <path d="M 663.056531 330.224 
L 668.222627 330.224 
L 668.222627 63.108358 
L 663.056531 63.108358 
z
" clip-path="url(#p813b8375a3)" style="fill: #008000"/>
   </g>
   <g id="patch_86">
    <path d="M 669.514151 330.224 
L 674.680247 330.224 
L 674.680247 262.110553 
L 669.514151 262.110553 
z
" clip-path="url(#p813b8375a3)" style="fill: #008000"/>
   </g>
   <g id="patch_87">
    <path d="M 675.971771 330.224 
L 681.137867 330.224 
L 681.137867 330.224 
L 675.971771 330.224 
z
" clip-path="url(#p813b8375a3)" style="fill: #008000"/>
   </g>
   <g id="patch_88">
    <path d="M 682.429391 330.224 
L 687.595487 330.224 
L 687.595487 330.224 
L 682.429391 330.224 
z
" clip-path="url(#p813b8375a3)" style="fill: #008000"/>
   </g>
   <g id="patch_89">
    <path d="M 688.887011 330.224 
L 694.053107 330.224 
L 694.053107 330.224 
L 688.887011 330.224 
z
" clip-path="url(#p813b8375a3)" style="fill: #008000"/>
   </g>
   <g id="patch_90">
    <path d="M 695.344631 330.224 
L 700.510727 330.224 
L 700.510727 330.224 
L 695.344631 330.224 
z
" clip-path="url(#p813b8375a3)" style="fill: #008000"/>
   </g>
   <g id="patch_91">
    <path d="M 701.802251 330.224 
L 706.968347 330.224 
L 706.968347 329.107888 
L 701.802251 329.107888 
z
" clip-path="url(#p813b8375a3)" style="fill: #008000"/>
   </g>
   <g id="patch_92">
    <path d="M 708.259871 330.224 
L 713.425967 330.224 
L 713.425967 330.224 
L 708.259871 330.224 
z
" clip-path="url(#p813b8375a3)" style="fill: #008000"/>
   </g>
   <g id="patch_93">
    <path d="M 714.717491 330.224 
L 719.883587 330.224 
L 719.883587 330.224 
L 714.717491 330.224 
z
" clip-path="url(#p813b8375a3)" style="fill: #008000"/>
   </g>
   <g id="patch_94">
    <path d="M 721.175111 330.224 
L 726.341207 330.224 
L 726.341207 330.224 
L 721.175111 330.224 
z
" clip-path="url(#p813b8375a3)" style="fill: #008000"/>
   </g>
   <g id="patch_95">
    <path d="M 727.632731 330.224 
L 732.798827 330.224 
L 732.798827 330.224 
L 727.632731 330.224 
z
" clip-path="url(#p813b8375a3)" style="fill: #008000"/>
   </g>
   <g id="patch_96">
    <path d="M 734.090351 330.224 
L 739.256447 330.224 
L 739.256447 330.224 
L 734.090351 330.224 
z
" clip-path="url(#p813b8375a3)" style="fill: #008000"/>
   </g>
   <g id="patch_97">
    <path d="M 740.547971 330.224 
L 745.714067 330.224 
L 745.714067 329.128689 
L 740.547971 329.128689 
z
" clip-path="url(#p813b8375a3)" style="fill: #008000"/>
   </g>
   <g id="patch_98">
    <path d="M 747.005591 330.224 
L 752.171688 330.224 
L 752.171688 326.631177 
L 747.005591 326.631177 
z
" clip-path="url(#p813b8375a3)" style="fill: #008000"/>
   </g>
   <g id="matplotlib.axis_1">
    <g id="xtick_1">
     <g id="line2d_1">
      <defs>
       <path id="m67808c4e2b" d="M 0 0 
L 0 3.5 
" style="stroke: #000000; stroke-width: 0.8"/>
      </defs>
      <g>
       <use xlink:href="#m67808c4e2b" x="136.114736" y="330.224" style="stroke: #000000; stroke-width: 0.8"/>
      </g>
     </g>
     <g id="text_1">
      <!-- 0 -->
      <g transform="translate(129.018486 356.268375) scale(0.28 -0.28)">
       <defs>
        <path id="Calibri-30" d="M 3022 2031 
Q 3022 1566 2948 1181 
Q 2875 797 2704 520 
Q 2534 244 2259 92 
Q 1984 -59 1581 -59 
Q 1200 -59 939 77 
Q 678 213 518 477 
Q 359 741 292 1127 
Q 225 1513 225 2013 
Q 225 2475 300 2861 
Q 375 3247 544 3523 
Q 713 3800 988 3951 
Q 1263 4103 1663 4103 
Q 2047 4103 2308 3967 
Q 2569 3831 2728 3567 
Q 2888 3303 2955 2917 
Q 3022 2531 3022 2031 
z
M 2472 1994 
Q 2472 2297 2450 2537 
Q 2428 2778 2386 2962 
Q 2344 3147 2276 3280 
Q 2209 3413 2115 3498 
Q 2022 3584 1901 3623 
Q 1781 3663 1631 3663 
Q 1366 3663 1200 3538 
Q 1034 3413 939 3194 
Q 844 2975 809 2681 
Q 775 2388 775 2050 
Q 775 1597 822 1280 
Q 869 963 970 763 
Q 1072 563 1230 472 
Q 1388 381 1613 381 
Q 1788 381 1920 437 
Q 2053 494 2148 598 
Q 2244 703 2306 850 
Q 2369 997 2406 1175 
Q 2444 1353 2458 1561 
Q 2472 1769 2472 1994 
z
" transform="scale(0.015625)"/>
       </defs>
       <use xlink:href="#Calibri-30"/>
      </g>
     </g>
    </g>
    <g id="xtick_2">
     <g id="line2d_2">
      <g>
       <use xlink:href="#m67808c4e2b" x="187.775696" y="330.224" style="stroke: #000000; stroke-width: 0.8"/>
      </g>
     </g>
     <g id="text_2">
      <!-- 8 -->
      <g transform="translate(180.679446 356.268375) scale(0.28 -0.28)">
       <defs>
        <path id="Calibri-38" d="M 2981 1038 
Q 2981 775 2887 570 
Q 2794 366 2617 225 
Q 2441 84 2181 12 
Q 1922 -59 1588 -59 
Q 1275 -59 1028 6 
Q 781 72 609 200 
Q 438 328 347 515 
Q 256 703 256 944 
Q 256 1134 318 1293 
Q 381 1453 498 1587 
Q 616 1722 787 1839 
Q 959 1956 1175 2063 
Q 988 2159 844 2267 
Q 700 2375 600 2501 
Q 500 2628 448 2772 
Q 397 2916 397 3084 
Q 397 3297 473 3483 
Q 550 3669 704 3806 
Q 859 3944 1098 4023 
Q 1338 4103 1656 4103 
Q 1963 4103 2186 4029 
Q 2409 3956 2554 3829 
Q 2700 3703 2769 3531 
Q 2838 3359 2838 3163 
Q 2838 3003 2786 2856 
Q 2734 2709 2634 2578 
Q 2534 2447 2389 2333 
Q 2244 2219 2056 2119 
Q 2278 2009 2451 1893 
Q 2625 1778 2742 1645 
Q 2859 1513 2920 1364 
Q 2981 1216 2981 1038 
z
M 2306 3113 
Q 2306 3244 2261 3350 
Q 2216 3456 2128 3531 
Q 2041 3606 1911 3645 
Q 1781 3684 1616 3684 
Q 1278 3684 1104 3531 
Q 931 3378 931 3113 
Q 931 2991 973 2886 
Q 1016 2781 1105 2687 
Q 1194 2594 1330 2505 
Q 1466 2416 1653 2319 
Q 1969 2481 2137 2678 
Q 2306 2875 2306 3113 
z
M 2438 981 
Q 2438 1125 2384 1242 
Q 2331 1359 2223 1461 
Q 2116 1563 1955 1658 
Q 1794 1753 1581 1856 
Q 1384 1759 1236 1662 
Q 1088 1566 992 1462 
Q 897 1359 848 1245 
Q 800 1131 800 994 
Q 800 691 1008 525 
Q 1216 359 1628 359 
Q 2028 359 2233 526 
Q 2438 694 2438 981 
z
" transform="scale(0.015625)"/>
       </defs>
       <use xlink:href="#Calibri-38"/>
      </g>
     </g>
    </g>
    <g id="xtick_3">
     <g id="line2d_3">
      <g>
       <use xlink:href="#m67808c4e2b" x="239.436656" y="330.224" style="stroke: #000000; stroke-width: 0.8"/>
      </g>
     </g>
     <g id="text_3">
      <!-- 16 -->
      <g transform="translate(225.244156 356.268375) scale(0.28 -0.28)">
       <defs>
        <path id="Calibri-31" d="M 2897 213 
Q 2897 153 2887 112 
Q 2878 72 2862 47 
Q 2847 22 2826 11 
Q 2806 0 2784 0 
L 672 0 
Q 650 0 631 11 
Q 613 22 595 47 
Q 578 72 568 112 
Q 559 153 559 213 
Q 559 269 568 309 
Q 578 350 592 376 
Q 606 403 626 417 
Q 647 431 672 431 
L 1516 431 
L 1516 3506 
L 734 3041 
Q 675 3009 639 3003 
Q 603 2997 581 3017 
Q 559 3038 551 3084 
Q 544 3131 544 3203 
Q 544 3256 548 3293 
Q 553 3331 562 3356 
Q 572 3381 589 3400 
Q 606 3419 634 3438 
L 1566 4034 
Q 1578 4044 1597 4050 
Q 1616 4056 1644 4062 
Q 1672 4069 1709 4070 
Q 1747 4072 1803 4072 
Q 1878 4072 1928 4065 
Q 1978 4059 2006 4048 
Q 2034 4038 2043 4020 
Q 2053 4003 2053 3984 
L 2053 431 
L 2784 431 
Q 2809 431 2831 417 
Q 2853 403 2867 376 
Q 2881 350 2889 309 
Q 2897 269 2897 213 
z
" transform="scale(0.015625)"/>
        <path id="Calibri-36" d="M 2991 1309 
Q 2991 1044 2909 795 
Q 2828 547 2659 358 
Q 2491 169 2231 55 
Q 1972 -59 1619 -59 
Q 1366 -59 1172 3 
Q 978 66 834 181 
Q 691 297 595 465 
Q 500 634 442 850 
Q 384 1066 359 1322 
Q 334 1578 334 1872 
Q 334 2131 362 2397 
Q 391 2663 462 2909 
Q 534 3156 657 3373 
Q 781 3591 967 3752 
Q 1153 3913 1412 4006 
Q 1672 4100 2016 4100 
Q 2131 4100 2250 4086 
Q 2369 4072 2469 4048 
Q 2569 4025 2637 3997 
Q 2706 3969 2728 3951 
Q 2750 3934 2761 3914 
Q 2772 3894 2778 3870 
Q 2784 3847 2787 3817 
Q 2791 3788 2791 3744 
Q 2791 3688 2789 3647 
Q 2788 3606 2777 3581 
Q 2766 3556 2748 3543 
Q 2731 3531 2703 3531 
Q 2669 3531 2609 3553 
Q 2550 3575 2465 3601 
Q 2381 3628 2261 3650 
Q 2141 3672 1981 3672 
Q 1691 3672 1481 3553 
Q 1272 3434 1139 3234 
Q 1006 3034 942 2770 
Q 878 2506 869 2219 
Q 950 2266 1051 2312 
Q 1153 2359 1273 2396 
Q 1394 2434 1528 2457 
Q 1663 2481 1816 2481 
Q 2144 2481 2369 2392 
Q 2594 2303 2733 2145 
Q 2872 1988 2931 1773 
Q 2991 1559 2991 1309 
z
M 2447 1259 
Q 2447 1441 2411 1589 
Q 2375 1738 2290 1841 
Q 2206 1944 2065 2000 
Q 1925 2056 1719 2056 
Q 1603 2056 1487 2036 
Q 1372 2016 1264 1980 
Q 1156 1944 1057 1895 
Q 959 1847 878 1791 
Q 878 1388 929 1116 
Q 981 844 1079 680 
Q 1178 516 1325 445 
Q 1472 375 1669 375 
Q 1869 375 2016 450 
Q 2163 525 2259 651 
Q 2356 778 2401 936 
Q 2447 1094 2447 1259 
z
" transform="scale(0.015625)"/>
       </defs>
       <use xlink:href="#Calibri-31"/>
       <use xlink:href="#Calibri-36" x="50.683594"/>
      </g>
     </g>
    </g>
    <g id="xtick_4">
     <g id="line2d_4">
      <g>
       <use xlink:href="#m67808c4e2b" x="291.097617" y="330.224" style="stroke: #000000; stroke-width: 0.8"/>
      </g>
     </g>
     <g id="text_4">
      <!-- 24 -->
      <g transform="translate(276.905117 356.268375) scale(0.28 -0.28)">
       <defs>
        <path id="Calibri-32" d="M 2888 231 
Q 2888 175 2880 131 
Q 2872 88 2858 58 
Q 2844 28 2820 14 
Q 2797 0 2769 0 
L 534 0 
Q 491 0 458 11 
Q 425 22 401 47 
Q 378 72 367 119 
Q 356 166 356 234 
Q 356 297 361 344 
Q 366 391 381 427 
Q 397 463 420 498 
Q 444 534 481 575 
L 1266 1406 
Q 1538 1694 1702 1922 
Q 1866 2150 1955 2337 
Q 2044 2525 2072 2678 
Q 2100 2831 2100 2966 
Q 2100 3100 2056 3220 
Q 2013 3341 1930 3431 
Q 1847 3522 1722 3575 
Q 1597 3628 1434 3628 
Q 1244 3628 1092 3575 
Q 941 3522 827 3459 
Q 713 3397 636 3344 
Q 559 3291 522 3291 
Q 500 3291 483 3303 
Q 466 3316 455 3344 
Q 444 3372 437 3419 
Q 431 3466 431 3531 
Q 431 3578 434 3612 
Q 438 3647 445 3672 
Q 453 3697 465 3719 
Q 478 3741 515 3773 
Q 553 3806 645 3862 
Q 738 3919 877 3973 
Q 1016 4028 1183 4065 
Q 1350 4103 1534 4103 
Q 1828 4103 2048 4020 
Q 2269 3938 2414 3794 
Q 2559 3650 2631 3459 
Q 2703 3269 2703 3053 
Q 2703 2859 2668 2667 
Q 2634 2475 2523 2251 
Q 2413 2028 2203 1754 
Q 1994 1481 1647 1125 
L 1006 456 
L 2766 456 
Q 2791 456 2814 442 
Q 2838 428 2855 400 
Q 2872 372 2880 330 
Q 2888 288 2888 231 
z
" transform="scale(0.015625)"/>
        <path id="Calibri-34" d="M 3059 1150 
Q 3059 1047 3028 987 
Q 2997 928 2941 928 
L 2484 928 
L 2484 78 
Q 2484 53 2471 36 
Q 2459 19 2428 6 
Q 2397 -6 2347 -12 
Q 2297 -19 2219 -19 
Q 2144 -19 2094 -12 
Q 2044 -6 2014 6 
Q 1984 19 1973 36 
Q 1963 53 1963 78 
L 1963 928 
L 294 928 
Q 256 928 231 937 
Q 206 947 186 972 
Q 166 997 158 1044 
Q 150 1091 150 1166 
Q 150 1225 153 1272 
Q 156 1319 165 1358 
Q 175 1397 190 1433 
Q 206 1469 228 1509 
L 1684 3966 
Q 1700 3991 1729 4009 
Q 1759 4028 1806 4040 
Q 1853 4053 1922 4058 
Q 1991 4063 2084 4063 
Q 2188 4063 2264 4055 
Q 2341 4047 2387 4034 
Q 2434 4022 2459 4001 
Q 2484 3981 2484 3953 
L 2484 1372 
L 2941 1372 
Q 2994 1372 3026 1317 
Q 3059 1263 3059 1150 
z
M 1963 3591 
L 1956 3591 
L 641 1372 
L 1963 1372 
L 1963 3591 
z
" transform="scale(0.015625)"/>
       </defs>
       <use xlink:href="#Calibri-32"/>
       <use xlink:href="#Calibri-34" x="50.683594"/>
      </g>
     </g>
    </g>
    <g id="xtick_5">
     <g id="line2d_5">
      <g>
       <use xlink:href="#m67808c4e2b" x="342.758577" y="330.224" style="stroke: #000000; stroke-width: 0.8"/>
      </g>
     </g>
     <g id="text_5">
      <!-- 32 -->
      <g transform="translate(328.566077 356.268375) scale(0.28 -0.28)">
       <defs>
        <path id="Calibri-33" d="M 2856 1156 
Q 2856 878 2759 654 
Q 2663 431 2481 272 
Q 2300 113 2034 27 
Q 1769 -59 1434 -59 
Q 1231 -59 1054 -26 
Q 878 6 740 51 
Q 603 97 512 145 
Q 422 194 398 216 
Q 375 238 362 259 
Q 350 281 340 312 
Q 331 344 326 389 
Q 322 434 322 500 
Q 322 613 344 656 
Q 366 700 406 700 
Q 434 700 517 650 
Q 600 600 729 542 
Q 859 484 1032 434 
Q 1206 384 1419 384 
Q 1625 384 1781 437 
Q 1938 491 2044 587 
Q 2150 684 2203 817 
Q 2256 950 2256 1106 
Q 2256 1278 2189 1415 
Q 2122 1553 1992 1653 
Q 1863 1753 1673 1806 
Q 1484 1859 1244 1859 
L 859 1859 
Q 834 1859 811 1870 
Q 788 1881 770 1906 
Q 753 1931 742 1972 
Q 731 2013 731 2078 
Q 731 2138 740 2177 
Q 750 2216 767 2239 
Q 784 2263 806 2273 
Q 828 2284 856 2284 
L 1209 2284 
Q 1416 2284 1580 2337 
Q 1744 2391 1858 2491 
Q 1972 2591 2033 2730 
Q 2094 2869 2094 3041 
Q 2094 3166 2053 3280 
Q 2013 3394 1931 3478 
Q 1850 3563 1723 3611 
Q 1597 3659 1431 3659 
Q 1250 3659 1098 3604 
Q 947 3550 828 3487 
Q 709 3425 631 3370 
Q 553 3316 522 3316 
Q 500 3316 483 3323 
Q 466 3331 455 3354 
Q 444 3378 439 3420 
Q 434 3463 434 3531 
Q 434 3578 437 3614 
Q 441 3650 450 3676 
Q 459 3703 471 3725 
Q 484 3747 514 3776 
Q 544 3806 634 3862 
Q 725 3919 858 3973 
Q 991 4028 1164 4065 
Q 1338 4103 1538 4103 
Q 1819 4103 2031 4031 
Q 2244 3959 2386 3828 
Q 2528 3697 2598 3514 
Q 2669 3331 2669 3109 
Q 2669 2919 2619 2755 
Q 2569 2591 2472 2464 
Q 2375 2338 2234 2248 
Q 2094 2159 1909 2125 
L 1909 2119 
Q 2119 2097 2292 2014 
Q 2466 1931 2591 1806 
Q 2716 1681 2786 1514 
Q 2856 1347 2856 1156 
z
" transform="scale(0.015625)"/>
       </defs>
       <use xlink:href="#Calibri-33"/>
       <use xlink:href="#Calibri-32" x="50.683594"/>
      </g>
     </g>
    </g>
    <g id="xtick_6">
     <g id="line2d_6">
      <g>
       <use xlink:href="#m67808c4e2b" x="394.419537" y="330.224" style="stroke: #000000; stroke-width: 0.8"/>
      </g>
     </g>
     <g id="text_6">
      <!-- 40 -->
      <g transform="translate(380.227037 356.268375) scale(0.28 -0.28)">
       <use xlink:href="#Calibri-34"/>
       <use xlink:href="#Calibri-30" x="50.683594"/>
      </g>
     </g>
    </g>
    <g id="xtick_7">
     <g id="line2d_7">
      <g>
       <use xlink:href="#m67808c4e2b" x="446.080498" y="330.224" style="stroke: #000000; stroke-width: 0.8"/>
      </g>
     </g>
     <g id="text_7">
      <!-- 48 -->
      <g transform="translate(431.887998 356.268375) scale(0.28 -0.28)">
       <use xlink:href="#Calibri-34"/>
       <use xlink:href="#Calibri-38" x="50.683594"/>
      </g>
     </g>
    </g>
    <g id="xtick_8">
     <g id="line2d_8">
      <g>
       <use xlink:href="#m67808c4e2b" x="497.741458" y="330.224" style="stroke: #000000; stroke-width: 0.8"/>
      </g>
     </g>
     <g id="text_8">
      <!-- 56 -->
      <g transform="translate(483.548958 356.268375) scale(0.28 -0.28)">
       <defs>
        <path id="Calibri-35" d="M 2869 1300 
Q 2869 975 2759 722 
Q 2650 469 2450 295 
Q 2250 122 1973 31 
Q 1697 -59 1359 -59 
Q 1172 -59 1003 -32 
Q 834 -6 703 33 
Q 572 72 487 109 
Q 403 147 379 169 
Q 356 191 347 209 
Q 338 228 330 254 
Q 322 281 319 322 
Q 316 363 316 419 
Q 316 472 320 514 
Q 325 556 337 582 
Q 350 609 367 621 
Q 384 634 406 634 
Q 438 634 503 595 
Q 569 556 680 511 
Q 791 466 955 425 
Q 1119 384 1344 384 
Q 1553 384 1728 434 
Q 1903 484 2029 590 
Q 2156 697 2228 858 
Q 2300 1019 2300 1250 
Q 2300 1444 2239 1592 
Q 2178 1741 2051 1839 
Q 1925 1938 1731 1986 
Q 1538 2034 1269 2034 
Q 1078 2034 940 2015 
Q 803 1997 684 1997 
Q 597 1997 559 2037 
Q 522 2078 522 2194 
L 522 3841 
Q 522 3944 570 3994 
Q 619 4044 709 4044 
L 2500 4044 
Q 2525 4044 2548 4030 
Q 2572 4016 2587 3987 
Q 2603 3959 2611 3915 
Q 2619 3872 2619 3813 
Q 2619 3700 2587 3637 
Q 2556 3575 2500 3575 
L 991 3575 
L 991 2441 
Q 1100 2456 1214 2459 
Q 1328 2463 1478 2463 
Q 1825 2463 2084 2380 
Q 2344 2297 2517 2145 
Q 2691 1994 2780 1778 
Q 2869 1563 2869 1300 
z
" transform="scale(0.015625)"/>
       </defs>
       <use xlink:href="#Calibri-35"/>
       <use xlink:href="#Calibri-36" x="50.683594"/>
      </g>
     </g>
    </g>
    <g id="xtick_9">
     <g id="line2d_9">
      <g>
       <use xlink:href="#m67808c4e2b" x="549.402418" y="330.224" style="stroke: #000000; stroke-width: 0.8"/>
      </g>
     </g>
     <g id="text_9">
      <!-- 64 -->
      <g transform="translate(535.209918 356.268375) scale(0.28 -0.28)">
       <use xlink:href="#Calibri-36"/>
       <use xlink:href="#Calibri-34" x="50.683594"/>
      </g>
     </g>
    </g>
    <g id="xtick_10">
     <g id="line2d_10">
      <g>
       <use xlink:href="#m67808c4e2b" x="601.063379" y="330.224" style="stroke: #000000; stroke-width: 0.8"/>
      </g>
     </g>
     <g id="text_10">
      <!-- 72 -->
      <g transform="translate(586.870879 356.268375) scale(0.28 -0.28)">
       <defs>
        <path id="Calibri-37" d="M 2947 3813 
Q 2947 3756 2942 3711 
Q 2938 3666 2930 3623 
Q 2922 3581 2908 3542 
Q 2894 3503 2875 3459 
L 1419 103 
Q 1403 66 1379 42 
Q 1356 19 1320 5 
Q 1284 -9 1228 -14 
Q 1172 -19 1091 -19 
Q 984 -19 925 -9 
Q 866 0 839 20 
Q 813 41 816 70 
Q 819 100 838 141 
L 2369 3572 
L 428 3572 
Q 369 3572 339 3634 
Q 309 3697 309 3809 
Q 309 3869 317 3912 
Q 325 3956 340 3986 
Q 356 4016 378 4030 
Q 400 4044 428 4044 
L 2784 4044 
Q 2828 4044 2861 4034 
Q 2894 4025 2911 3997 
Q 2928 3969 2937 3925 
Q 2947 3881 2947 3813 
z
" transform="scale(0.015625)"/>
       </defs>
       <use xlink:href="#Calibri-37"/>
       <use xlink:href="#Calibri-32" x="50.683594"/>
      </g>
     </g>
    </g>
    <g id="xtick_11">
     <g id="line2d_11">
      <g>
       <use xlink:href="#m67808c4e2b" x="652.724339" y="330.224" style="stroke: #000000; stroke-width: 0.8"/>
      </g>
     </g>
     <g id="text_11">
      <!-- 80 -->
      <g transform="translate(638.531839 356.268375) scale(0.28 -0.28)">
       <use xlink:href="#Calibri-38"/>
       <use xlink:href="#Calibri-30" x="50.683594"/>
      </g>
     </g>
    </g>
    <g id="xtick_12">
     <g id="line2d_12">
      <g>
       <use xlink:href="#m67808c4e2b" x="704.385299" y="330.224" style="stroke: #000000; stroke-width: 0.8"/>
      </g>
     </g>
     <g id="text_12">
      <!-- 88 -->
      <g transform="translate(690.192799 356.268375) scale(0.28 -0.28)">
       <use xlink:href="#Calibri-38"/>
       <use xlink:href="#Calibri-38" x="50.683594"/>
      </g>
     </g>
    </g>
    <g id="xtick_13">
     <g id="line2d_13">
      <g>
       <use xlink:href="#m67808c4e2b" x="749.588639" y="330.224" style="stroke: #000000; stroke-width: 0.8"/>
      </g>
     </g>
     <g id="text_13">
      <!-- 95 -->
      <g transform="translate(735.396139 356.268375) scale(0.28 -0.28)">
       <defs>
        <path id="Calibri-39" d="M 2919 2181 
Q 2919 1919 2887 1650 
Q 2856 1381 2781 1132 
Q 2706 884 2579 667 
Q 2453 450 2261 287 
Q 2069 125 1805 33 
Q 1541 -59 1191 -59 
Q 1056 -59 929 -42 
Q 803 -25 701 0 
Q 600 25 531 53 
Q 463 81 431 109 
Q 400 138 386 186 
Q 372 234 372 316 
Q 372 384 376 425 
Q 381 466 390 487 
Q 400 509 417 517 
Q 434 525 459 525 
Q 494 525 556 501 
Q 619 478 714 450 
Q 809 422 937 398 
Q 1066 375 1225 375 
Q 1528 375 1745 492 
Q 1963 609 2100 806 
Q 2238 1003 2306 1262 
Q 2375 1522 2381 1809 
Q 2216 1713 1984 1638 
Q 1753 1563 1453 1563 
Q 1116 1563 886 1655 
Q 656 1747 517 1906 
Q 378 2066 317 2284 
Q 256 2503 256 2763 
Q 256 3031 334 3273 
Q 413 3516 578 3700 
Q 744 3884 1000 3993 
Q 1256 4103 1613 4103 
Q 1866 4103 2061 4039 
Q 2256 3975 2400 3854 
Q 2544 3734 2644 3564 
Q 2744 3394 2805 3178 
Q 2866 2963 2892 2711 
Q 2919 2459 2919 2181 
z
M 2372 2241 
Q 2372 2641 2319 2914 
Q 2266 3188 2162 3356 
Q 2059 3525 1909 3600 
Q 1759 3675 1563 3675 
Q 1359 3675 1215 3601 
Q 1072 3528 980 3404 
Q 888 3281 844 3125 
Q 800 2969 800 2803 
Q 800 2619 839 2466 
Q 878 2313 965 2206 
Q 1053 2100 1193 2042 
Q 1334 1984 1541 1984 
Q 1775 1984 1994 2054 
Q 2213 2125 2372 2241 
z
" transform="scale(0.015625)"/>
       </defs>
       <use xlink:href="#Calibri-39"/>
       <use xlink:href="#Calibri-35" x="50.683594"/>
      </g>
     </g>
    </g>
    <g id="text_14">
     <!-- Time slots -->
     <g transform="translate(381.150125 385.651813) scale(0.3 -0.3)">
      <defs>
       <path id="Calibri-54" d="M 3072 3813 
Q 3072 3753 3065 3709 
Q 3059 3666 3045 3639 
Q 3031 3613 3011 3600 
Q 2991 3588 2966 3588 
L 1828 3588 
L 1828 81 
Q 1828 56 1815 37 
Q 1803 19 1772 8 
Q 1741 -3 1689 -11 
Q 1638 -19 1559 -19 
Q 1484 -19 1431 -11 
Q 1378 -3 1347 8 
Q 1316 19 1303 37 
Q 1291 56 1291 81 
L 1291 3588 
L 153 3588 
Q 128 3588 108 3600 
Q 88 3613 75 3639 
Q 63 3666 55 3709 
Q 47 3753 47 3813 
Q 47 3872 55 3917 
Q 63 3963 75 3991 
Q 88 4019 108 4031 
Q 128 4044 153 4044 
L 2966 4044 
Q 2991 4044 3011 4031 
Q 3031 4019 3045 3991 
Q 3059 3963 3065 3917 
Q 3072 3872 3072 3813 
z
" transform="scale(0.015625)"/>
       <path id="Calibri-69" d="M 994 78 
Q 994 53 981 36 
Q 969 19 941 6 
Q 913 -6 863 -12 
Q 813 -19 734 -19 
Q 659 -19 609 -12 
Q 559 -6 529 6 
Q 500 19 489 36 
Q 478 53 478 78 
L 478 2891 
Q 478 2913 489 2931 
Q 500 2950 529 2962 
Q 559 2975 609 2981 
Q 659 2988 734 2988 
Q 813 2988 863 2981 
Q 913 2975 941 2962 
Q 969 2950 981 2931 
Q 994 2913 994 2891 
L 994 78 
z
M 1053 3841 
Q 1053 3659 984 3593 
Q 916 3528 731 3528 
Q 550 3528 483 3592 
Q 416 3656 416 3834 
Q 416 4016 484 4081 
Q 553 4147 738 4147 
Q 919 4147 986 4083 
Q 1053 4019 1053 3841 
z
" transform="scale(0.015625)"/>
       <path id="Calibri-6d" d="M 4650 78 
Q 4650 53 4637 36 
Q 4625 19 4597 6 
Q 4569 -6 4519 -12 
Q 4469 -19 4394 -19 
Q 4316 -19 4266 -12 
Q 4216 -6 4186 6 
Q 4156 19 4143 36 
Q 4131 53 4131 78 
L 4131 1788 
Q 4131 1966 4100 2112 
Q 4069 2259 4000 2365 
Q 3931 2472 3825 2528 
Q 3719 2584 3575 2584 
Q 3397 2584 3217 2446 
Q 3038 2309 2822 2044 
L 2822 78 
Q 2822 53 2809 36 
Q 2797 19 2767 6 
Q 2738 -6 2688 -12 
Q 2638 -19 2563 -19 
Q 2491 -19 2439 -12 
Q 2388 -6 2358 6 
Q 2328 19 2317 36 
Q 2306 53 2306 78 
L 2306 1788 
Q 2306 1966 2272 2112 
Q 2238 2259 2169 2365 
Q 2100 2472 1995 2528 
Q 1891 2584 1747 2584 
Q 1569 2584 1387 2446 
Q 1206 2309 994 2044 
L 994 78 
Q 994 53 981 36 
Q 969 19 941 6 
Q 913 -6 863 -12 
Q 813 -19 734 -19 
Q 659 -19 609 -12 
Q 559 -6 529 6 
Q 500 19 489 36 
Q 478 53 478 78 
L 478 2891 
Q 478 2916 487 2933 
Q 497 2950 525 2964 
Q 553 2978 597 2983 
Q 641 2988 713 2988 
Q 781 2988 826 2983 
Q 872 2978 897 2964 
Q 922 2950 933 2933 
Q 944 2916 944 2891 
L 944 2519 
Q 1181 2784 1404 2907 
Q 1628 3031 1856 3031 
Q 2031 3031 2170 2990 
Q 2309 2950 2415 2876 
Q 2522 2803 2597 2701 
Q 2672 2600 2722 2475 
Q 2863 2628 2989 2734 
Q 3116 2841 3233 2906 
Q 3350 2972 3461 3001 
Q 3572 3031 3684 3031 
Q 3956 3031 4140 2936 
Q 4325 2841 4439 2681 
Q 4553 2522 4601 2308 
Q 4650 2094 4650 1856 
L 4650 78 
z
" transform="scale(0.015625)"/>
       <path id="Calibri-65" d="M 2878 1606 
Q 2878 1484 2817 1432 
Q 2756 1381 2678 1381 
L 834 1381 
Q 834 1147 881 959 
Q 928 772 1037 637 
Q 1147 503 1322 431 
Q 1497 359 1750 359 
Q 1950 359 2106 392 
Q 2263 425 2377 465 
Q 2491 506 2564 539 
Q 2638 572 2675 572 
Q 2697 572 2714 561 
Q 2731 550 2740 528 
Q 2750 506 2754 467 
Q 2759 428 2759 372 
Q 2759 331 2756 301 
Q 2753 272 2748 248 
Q 2744 225 2733 206 
Q 2722 188 2705 170 
Q 2688 153 2603 114 
Q 2519 75 2384 37 
Q 2250 0 2073 -29 
Q 1897 -59 1697 -59 
Q 1350 -59 1089 37 
Q 828 134 650 325 
Q 472 516 381 803 
Q 291 1091 291 1472 
Q 291 1834 384 2123 
Q 478 2413 654 2614 
Q 831 2816 1081 2923 
Q 1331 3031 1641 3031 
Q 1972 3031 2205 2925 
Q 2438 2819 2588 2639 
Q 2738 2459 2808 2217 
Q 2878 1975 2878 1700 
L 2878 1606 
z
M 2359 1759 
Q 2369 2166 2180 2397 
Q 1991 2628 1619 2628 
Q 1428 2628 1284 2556 
Q 1141 2484 1044 2365 
Q 947 2247 894 2089 
Q 841 1931 834 1759 
L 2359 1759 
z
" transform="scale(0.015625)"/>
       <path id="Calibri-20" transform="scale(0.015625)"/>
       <path id="Calibri-73" d="M 2244 844 
Q 2244 628 2164 459 
Q 2084 291 1937 175 
Q 1791 59 1587 0 
Q 1384 -59 1141 -59 
Q 991 -59 855 -36 
Q 719 -13 611 23 
Q 503 59 428 98 
Q 353 138 318 169 
Q 284 200 268 256 
Q 253 313 253 409 
Q 253 469 259 509 
Q 266 550 275 575 
Q 284 600 301 611 
Q 319 622 341 622 
Q 375 622 442 580 
Q 509 538 607 488 
Q 706 438 840 395 
Q 975 353 1150 353 
Q 1281 353 1387 381 
Q 1494 409 1572 464 
Q 1650 519 1692 603 
Q 1734 688 1734 803 
Q 1734 922 1673 1003 
Q 1613 1084 1513 1146 
Q 1413 1209 1288 1257 
Q 1163 1306 1030 1359 
Q 897 1413 770 1480 
Q 644 1547 544 1644 
Q 444 1741 383 1875 
Q 322 2009 322 2197 
Q 322 2363 386 2514 
Q 450 2666 578 2780 
Q 706 2894 898 2962 
Q 1091 3031 1347 3031 
Q 1459 3031 1571 3012 
Q 1684 2994 1775 2966 
Q 1866 2938 1930 2905 
Q 1994 2872 2026 2847 
Q 2059 2822 2070 2803 
Q 2081 2784 2086 2761 
Q 2091 2738 2095 2703 
Q 2100 2669 2100 2619 
Q 2100 2566 2095 2527 
Q 2091 2488 2080 2463 
Q 2069 2438 2053 2427 
Q 2038 2416 2019 2416 
Q 1991 2416 1937 2450 
Q 1884 2484 1800 2523 
Q 1716 2563 1602 2597 
Q 1488 2631 1341 2631 
Q 1209 2631 1109 2601 
Q 1009 2572 945 2517 
Q 881 2463 848 2388 
Q 816 2313 816 2225 
Q 816 2103 878 2020 
Q 941 1938 1041 1875 
Q 1141 1813 1269 1763 
Q 1397 1713 1530 1659 
Q 1663 1606 1792 1540 
Q 1922 1475 2022 1381 
Q 2122 1288 2183 1156 
Q 2244 1025 2244 844 
z
" transform="scale(0.015625)"/>
       <path id="Calibri-6c" d="M 994 78 
Q 994 53 981 36 
Q 969 19 941 6 
Q 913 -6 863 -12 
Q 813 -19 734 -19 
Q 659 -19 609 -12 
Q 559 -6 529 6 
Q 500 19 489 36 
Q 478 53 478 78 
L 478 4253 
Q 478 4278 489 4297 
Q 500 4316 529 4328 
Q 559 4341 609 4347 
Q 659 4353 734 4353 
Q 813 4353 863 4347 
Q 913 4341 941 4328 
Q 969 4316 981 4297 
Q 994 4278 994 4253 
L 994 78 
z
" transform="scale(0.015625)"/>
       <path id="Calibri-6f" d="M 3094 1516 
Q 3094 1172 3003 883 
Q 2913 594 2733 384 
Q 2553 175 2283 58 
Q 2013 -59 1656 -59 
Q 1309 -59 1051 44 
Q 794 147 622 344 
Q 450 541 365 822 
Q 281 1103 281 1459 
Q 281 1803 370 2092 
Q 459 2381 639 2590 
Q 819 2800 1087 2915 
Q 1356 3031 1716 3031 
Q 2063 3031 2320 2928 
Q 2578 2825 2750 2628 
Q 2922 2431 3008 2150 
Q 3094 1869 3094 1516 
z
M 2550 1481 
Q 2550 1709 2508 1912 
Q 2466 2116 2369 2269 
Q 2272 2422 2106 2511 
Q 1941 2600 1694 2600 
Q 1466 2600 1302 2519 
Q 1138 2438 1031 2289 
Q 925 2141 873 1937 
Q 822 1734 822 1494 
Q 822 1263 864 1059 
Q 906 856 1004 704 
Q 1103 553 1268 464 
Q 1434 375 1681 375 
Q 1906 375 2072 456 
Q 2238 538 2344 684 
Q 2450 831 2500 1034 
Q 2550 1238 2550 1481 
z
" transform="scale(0.015625)"/>
       <path id="Calibri-74" d="M 1941 284 
Q 1941 194 1928 141 
Q 1916 88 1891 63 
Q 1866 38 1816 16 
Q 1766 -6 1702 -20 
Q 1638 -34 1566 -43 
Q 1494 -53 1422 -53 
Q 1203 -53 1047 5 
Q 891 63 791 180 
Q 691 297 645 476 
Q 600 656 600 900 
L 600 2544 
L 206 2544 
Q 159 2544 131 2594 
Q 103 2644 103 2756 
Q 103 2816 111 2856 
Q 119 2897 131 2923 
Q 144 2950 164 2961 
Q 184 2972 209 2972 
L 600 2972 
L 600 3641 
Q 600 3663 611 3681 
Q 622 3700 651 3714 
Q 681 3728 731 3734 
Q 781 3741 856 3741 
Q 934 3741 984 3734 
Q 1034 3728 1062 3714 
Q 1091 3700 1103 3681 
Q 1116 3663 1116 3641 
L 1116 2972 
L 1838 2972 
Q 1863 2972 1881 2961 
Q 1900 2950 1914 2923 
Q 1928 2897 1934 2856 
Q 1941 2816 1941 2756 
Q 1941 2644 1912 2594 
Q 1884 2544 1838 2544 
L 1116 2544 
L 1116 975 
Q 1116 684 1202 536 
Q 1288 388 1509 388 
Q 1581 388 1637 402 
Q 1694 416 1737 431 
Q 1781 447 1812 461 
Q 1844 475 1869 475 
Q 1884 475 1898 467 
Q 1913 459 1920 437 
Q 1928 416 1934 378 
Q 1941 341 1941 284 
z
" transform="scale(0.015625)"/>
      </defs>
      <use xlink:href="#Calibri-54"/>
      <use xlink:href="#Calibri-69" x="48.730469"/>
      <use xlink:href="#Calibri-6d" x="71.679688"/>
      <use xlink:href="#Calibri-65" x="151.5625"/>
      <use xlink:href="#Calibri-20" x="201.318359"/>
      <use xlink:href="#Calibri-73" x="223.925781"/>
      <use xlink:href="#Calibri-6c" x="263.037109"/>
      <use xlink:href="#Calibri-6f" x="285.986328"/>
      <use xlink:href="#Calibri-74" x="338.720703"/>
      <use xlink:href="#Calibri-73" x="372.216797"/>
     </g>
    </g>
   </g>
   <g id="matplotlib.axis_2">
    <g id="ytick_1">
     <g id="line2d_14">
      <path d="M 102.599688 330.224 
L 783.103688 330.224 
" clip-path="url(#p813b8375a3)" style="fill: none; stroke-dasharray: 2.96,1.28; stroke-dashoffset: 0; stroke: #b0b0b0; stroke-opacity: 0.7; stroke-width: 0.8"/>
     </g>
     <g id="line2d_15">
      <defs>
       <path id="me0c58c083a" d="M 0 0 
L -3.5 0 
" style="stroke: #000000; stroke-width: 0.8"/>
      </defs>
      <g>
       <use xlink:href="#me0c58c083a" x="102.599688" y="330.224" style="stroke: #000000; stroke-width: 0.8"/>
      </g>
     </g>
     <g id="text_15">
      <!-- 0 -->
      <g transform="translate(81.407188 339.746188) scale(0.28 -0.28)">
       <use xlink:href="#Calibri-30"/>
      </g>
     </g>
    </g>
    <g id="ytick_2">
     <g id="line2d_16">
      <path d="M 102.599688 258.367549 
L 783.103688 258.367549 
" clip-path="url(#p813b8375a3)" style="fill: none; stroke-dasharray: 2.96,1.28; stroke-dashoffset: 0; stroke: #b0b0b0; stroke-opacity: 0.7; stroke-width: 0.8"/>
     </g>
     <g id="line2d_17">
      <g>
       <use xlink:href="#me0c58c083a" x="102.599688" y="258.367549" style="stroke: #000000; stroke-width: 0.8"/>
      </g>
     </g>
     <g id="text_16">
      <!-- 10 -->
      <g transform="translate(67.214688 267.889736) scale(0.28 -0.28)">
       <use xlink:href="#Calibri-31"/>
       <use xlink:href="#Calibri-30" x="50.683594"/>
      </g>
     </g>
    </g>
    <g id="ytick_3">
     <g id="line2d_18">
      <path d="M 102.599688 186.511098 
L 783.103688 186.511098 
" clip-path="url(#p813b8375a3)" style="fill: none; stroke-dasharray: 2.96,1.28; stroke-dashoffset: 0; stroke: #b0b0b0; stroke-opacity: 0.7; stroke-width: 0.8"/>
     </g>
     <g id="line2d_19">
      <g>
       <use xlink:href="#me0c58c083a" x="102.599688" y="186.511098" style="stroke: #000000; stroke-width: 0.8"/>
      </g>
     </g>
     <g id="text_17">
      <!-- 20 -->
      <g transform="translate(67.214688 196.033285) scale(0.28 -0.28)">
       <use xlink:href="#Calibri-32"/>
       <use xlink:href="#Calibri-30" x="50.683594"/>
      </g>
     </g>
    </g>
    <g id="ytick_4">
     <g id="line2d_20">
      <path d="M 102.599688 114.654647 
L 783.103688 114.654647 
" clip-path="url(#p813b8375a3)" style="fill: none; stroke-dasharray: 2.96,1.28; stroke-dashoffset: 0; stroke: #b0b0b0; stroke-opacity: 0.7; stroke-width: 0.8"/>
     </g>
     <g id="line2d_21">
      <g>
       <use xlink:href="#me0c58c083a" x="102.599688" y="114.654647" style="stroke: #000000; stroke-width: 0.8"/>
      </g>
     </g>
     <g id="text_18">
      <!-- 30 -->
      <g transform="translate(67.214688 124.176834) scale(0.28 -0.28)">
       <use xlink:href="#Calibri-33"/>
       <use xlink:href="#Calibri-30" x="50.683594"/>
      </g>
     </g>
    </g>
    <g id="ytick_5">
     <g id="line2d_22">
      <path d="M 102.599688 42.798196 
L 783.103688 42.798196 
" clip-path="url(#p813b8375a3)" style="fill: none; stroke-dasharray: 2.96,1.28; stroke-dashoffset: 0; stroke: #b0b0b0; stroke-opacity: 0.7; stroke-width: 0.8"/>
     </g>
     <g id="line2d_23">
      <g>
       <use xlink:href="#me0c58c083a" x="102.599688" y="42.798196" style="stroke: #000000; stroke-width: 0.8"/>
      </g>
     </g>
     <g id="text_19">
      <!-- 40 -->
      <g transform="translate(67.214688 52.320383) scale(0.28 -0.28)">
       <use xlink:href="#Calibri-34"/>
       <use xlink:href="#Calibri-30" x="50.683594"/>
      </g>
     </g>
    </g>
    <g id="text_20">
     <!-- Electricity -->
     <g transform="translate(27.604688 228.58075) rotate(-90) scale(0.3 -0.3)">
      <defs>
       <path id="Calibri-45" d="M 2788 222 
Q 2788 166 2781 123 
Q 2775 81 2759 53 
Q 2744 25 2723 12 
Q 2703 0 2678 0 
L 738 0 
Q 666 0 602 48 
Q 538 97 538 219 
L 538 3825 
Q 538 3947 602 3995 
Q 666 4044 738 4044 
L 2656 4044 
Q 2681 4044 2701 4031 
Q 2722 4019 2734 3991 
Q 2747 3963 2755 3920 
Q 2763 3878 2763 3816 
Q 2763 3759 2755 3717 
Q 2747 3675 2734 3648 
Q 2722 3622 2701 3609 
Q 2681 3597 2656 3597 
L 1075 3597 
L 1075 2328 
L 2431 2328 
Q 2456 2328 2476 2314 
Q 2497 2300 2511 2275 
Q 2525 2250 2531 2206 
Q 2538 2163 2538 2103 
Q 2538 2047 2531 2006 
Q 2525 1966 2511 1941 
Q 2497 1916 2476 1905 
Q 2456 1894 2431 1894 
L 1075 1894 
L 1075 447 
L 2678 447 
Q 2703 447 2723 434 
Q 2744 422 2759 395 
Q 2775 369 2781 326 
Q 2788 284 2788 222 
z
" transform="scale(0.015625)"/>
       <path id="Calibri-63" d="M 2500 506 
Q 2500 453 2497 414 
Q 2494 375 2486 348 
Q 2478 322 2467 301 
Q 2456 281 2417 242 
Q 2378 203 2284 145 
Q 2191 88 2073 42 
Q 1956 -3 1818 -31 
Q 1681 -59 1534 -59 
Q 1231 -59 997 41 
Q 763 141 605 333 
Q 447 525 364 804 
Q 281 1084 281 1450 
Q 281 1866 382 2164 
Q 484 2463 661 2653 
Q 838 2844 1077 2936 
Q 1316 3028 1594 3028 
Q 1728 3028 1854 3003 
Q 1981 2978 2087 2937 
Q 2194 2897 2276 2844 
Q 2359 2791 2396 2753 
Q 2434 2716 2448 2694 
Q 2463 2672 2472 2642 
Q 2481 2613 2484 2575 
Q 2488 2538 2488 2481 
Q 2488 2359 2459 2311 
Q 2431 2263 2391 2263 
Q 2344 2263 2283 2314 
Q 2222 2366 2128 2428 
Q 2034 2491 1901 2542 
Q 1769 2594 1588 2594 
Q 1216 2594 1017 2308 
Q 819 2022 819 1478 
Q 819 1206 870 1001 
Q 922 797 1022 659 
Q 1122 522 1267 455 
Q 1413 388 1600 388 
Q 1778 388 1912 444 
Q 2047 500 2145 567 
Q 2244 634 2311 689 
Q 2378 744 2416 744 
Q 2438 744 2453 731 
Q 2469 719 2480 689 
Q 2491 659 2495 614 
Q 2500 569 2500 506 
z
" transform="scale(0.015625)"/>
       <path id="Calibri-72" d="M 2122 2706 
Q 2122 2638 2119 2591 
Q 2116 2544 2106 2517 
Q 2097 2491 2083 2477 
Q 2069 2463 2044 2463 
Q 2019 2463 1983 2477 
Q 1947 2491 1901 2505 
Q 1856 2519 1800 2531 
Q 1744 2544 1678 2544 
Q 1600 2544 1525 2512 
Q 1450 2481 1367 2409 
Q 1284 2338 1193 2219 
Q 1103 2100 994 1928 
L 994 78 
Q 994 53 981 36 
Q 969 19 941 6 
Q 913 -6 863 -12 
Q 813 -19 734 -19 
Q 659 -19 609 -12 
Q 559 -6 529 6 
Q 500 19 489 36 
Q 478 53 478 78 
L 478 2891 
Q 478 2916 487 2933 
Q 497 2950 525 2964 
Q 553 2978 597 2983 
Q 641 2988 713 2988 
Q 781 2988 826 2983 
Q 872 2978 897 2964 
Q 922 2950 933 2933 
Q 944 2916 944 2891 
L 944 2481 
Q 1059 2650 1161 2756 
Q 1263 2863 1353 2923 
Q 1444 2984 1533 3007 
Q 1622 3031 1713 3031 
Q 1753 3031 1804 3026 
Q 1856 3022 1912 3009 
Q 1969 2997 2014 2981 
Q 2059 2966 2078 2950 
Q 2097 2934 2103 2920 
Q 2109 2906 2114 2884 
Q 2119 2863 2120 2820 
Q 2122 2778 2122 2706 
z
" transform="scale(0.015625)"/>
       <path id="Calibri-79" d="M 1759 0 
L 1384 -1034 
Q 1366 -1084 1289 -1111 
Q 1213 -1138 1056 -1138 
Q 975 -1138 925 -1130 
Q 875 -1122 848 -1103 
Q 822 -1084 819 -1053 
Q 816 -1022 834 -978 
L 1222 0 
Q 1194 13 1169 41 
Q 1144 69 1134 100 
L 131 2788 
Q 106 2853 106 2890 
Q 106 2928 131 2950 
Q 156 2972 212 2980 
Q 269 2988 363 2988 
Q 456 2988 509 2983 
Q 563 2978 594 2965 
Q 625 2953 639 2929 
Q 653 2906 669 2866 
L 1472 609 
L 1481 609 
L 2256 2878 
Q 2275 2938 2301 2955 
Q 2328 2972 2381 2980 
Q 2434 2988 2534 2988 
Q 2622 2988 2678 2980 
Q 2734 2972 2761 2950 
Q 2788 2928 2788 2890 
Q 2788 2853 2769 2797 
L 1759 0 
z
" transform="scale(0.015625)"/>
      </defs>
      <use xlink:href="#Calibri-45"/>
      <use xlink:href="#Calibri-6c" x="48.828125"/>
      <use xlink:href="#Calibri-65" x="71.777344"/>
      <use xlink:href="#Calibri-63" x="121.533203"/>
      <use xlink:href="#Calibri-74" x="163.818359"/>
      <use xlink:href="#Calibri-72" x="197.314453"/>
      <use xlink:href="#Calibri-69" x="232.177734"/>
      <use xlink:href="#Calibri-63" x="255.126953"/>
      <use xlink:href="#Calibri-69" x="297.412109"/>
      <use xlink:href="#Calibri-74" x="320.361328"/>
      <use xlink:href="#Calibri-79" x="353.857422"/>
     </g>
     <!-- consumption (MWh) -->
     <g transform="translate(57.880313 295.262781) rotate(-90) scale(0.3 -0.3)">
      <defs>
       <path id="Calibri-6e" d="M 2900 78 
Q 2900 53 2887 36 
Q 2875 19 2847 6 
Q 2819 -6 2769 -12 
Q 2719 -19 2644 -19 
Q 2566 -19 2516 -12 
Q 2466 -6 2437 6 
Q 2409 19 2396 36 
Q 2384 53 2384 78 
L 2384 1725 
Q 2384 1966 2346 2112 
Q 2309 2259 2237 2365 
Q 2166 2472 2052 2528 
Q 1938 2584 1788 2584 
Q 1594 2584 1400 2446 
Q 1206 2309 994 2044 
L 994 78 
Q 994 53 981 36 
Q 969 19 941 6 
Q 913 -6 863 -12 
Q 813 -19 734 -19 
Q 659 -19 609 -12 
Q 559 -6 529 6 
Q 500 19 489 36 
Q 478 53 478 78 
L 478 2891 
Q 478 2916 487 2933 
Q 497 2950 525 2964 
Q 553 2978 597 2983 
Q 641 2988 713 2988 
Q 781 2988 826 2983 
Q 872 2978 897 2964 
Q 922 2950 933 2933 
Q 944 2916 944 2891 
L 944 2519 
Q 1181 2784 1417 2907 
Q 1653 3031 1894 3031 
Q 2175 3031 2367 2936 
Q 2559 2841 2678 2681 
Q 2797 2522 2848 2308 
Q 2900 2094 2900 1794 
L 2900 78 
z
" transform="scale(0.015625)"/>
       <path id="Calibri-75" d="M 2888 78 
Q 2888 53 2877 36 
Q 2866 19 2837 6 
Q 2809 -6 2764 -12 
Q 2719 -19 2653 -19 
Q 2581 -19 2536 -12 
Q 2491 -6 2464 6 
Q 2438 19 2428 36 
Q 2419 53 2419 78 
L 2419 450 
Q 2178 184 1943 62 
Q 1709 -59 1469 -59 
Q 1188 -59 995 34 
Q 803 128 684 289 
Q 566 450 514 664 
Q 463 878 463 1184 
L 463 2891 
Q 463 2916 473 2933 
Q 484 2950 515 2964 
Q 547 2978 597 2983 
Q 647 2988 722 2988 
Q 797 2988 847 2983 
Q 897 2978 926 2964 
Q 956 2950 968 2933 
Q 981 2916 981 2891 
L 981 1253 
Q 981 1006 1017 857 
Q 1053 709 1126 604 
Q 1200 500 1312 442 
Q 1425 384 1575 384 
Q 1769 384 1961 521 
Q 2153 659 2369 925 
L 2369 2891 
Q 2369 2916 2380 2933 
Q 2391 2950 2422 2964 
Q 2453 2978 2501 2983 
Q 2550 2988 2628 2988 
Q 2703 2988 2753 2983 
Q 2803 2978 2831 2964 
Q 2859 2950 2873 2933 
Q 2888 2916 2888 2891 
L 2888 78 
z
" transform="scale(0.015625)"/>
       <path id="Calibri-70" d="M 3066 1528 
Q 3066 1159 2986 865 
Q 2906 572 2751 367 
Q 2597 163 2369 52 
Q 2141 -59 1847 -59 
Q 1722 -59 1615 -34 
Q 1509 -9 1407 44 
Q 1306 97 1206 178 
Q 1106 259 994 369 
L 994 -1038 
Q 994 -1063 981 -1081 
Q 969 -1100 941 -1112 
Q 913 -1125 863 -1131 
Q 813 -1138 734 -1138 
Q 659 -1138 609 -1131 
Q 559 -1125 529 -1112 
Q 500 -1100 489 -1081 
Q 478 -1063 478 -1038 
L 478 2891 
Q 478 2919 487 2936 
Q 497 2953 525 2965 
Q 553 2978 597 2983 
Q 641 2988 703 2988 
Q 769 2988 811 2983 
Q 853 2978 881 2965 
Q 909 2953 920 2936 
Q 931 2919 931 2891 
L 931 2513 
Q 1059 2644 1178 2741 
Q 1297 2838 1417 2902 
Q 1538 2966 1664 2998 
Q 1791 3031 1931 3031 
Q 2238 3031 2453 2912 
Q 2669 2794 2805 2587 
Q 2941 2381 3003 2107 
Q 3066 1834 3066 1528 
z
M 2522 1469 
Q 2522 1684 2489 1886 
Q 2456 2088 2376 2244 
Q 2297 2400 2162 2494 
Q 2028 2588 1828 2588 
Q 1728 2588 1631 2558 
Q 1534 2528 1434 2464 
Q 1334 2400 1225 2295 
Q 1116 2191 994 2038 
L 994 919 
Q 1206 659 1397 521 
Q 1588 384 1797 384 
Q 1991 384 2130 478 
Q 2269 572 2355 728 
Q 2441 884 2481 1078 
Q 2522 1272 2522 1469 
z
" transform="scale(0.015625)"/>
       <path id="Calibri-28" d="M 1547 4306 
Q 1250 3678 1104 3017 
Q 959 2356 959 1688 
Q 959 1016 1107 356 
Q 1256 -303 1541 -938 
Q 1556 -975 1557 -1001 
Q 1559 -1028 1537 -1045 
Q 1516 -1063 1470 -1070 
Q 1425 -1078 1347 -1078 
Q 1291 -1078 1250 -1075 
Q 1209 -1072 1179 -1062 
Q 1150 -1053 1131 -1040 
Q 1113 -1028 1103 -1013 
Q 934 -694 806 -367 
Q 678 -41 590 296 
Q 503 634 459 979 
Q 416 1325 416 1678 
Q 416 2031 464 2375 
Q 513 2719 602 3058 
Q 691 3397 819 3725 
Q 947 4053 1106 4375 
Q 1109 4388 1123 4397 
Q 1138 4406 1163 4415 
Q 1188 4425 1231 4429 
Q 1275 4434 1344 4434 
Q 1416 4434 1459 4425 
Q 1503 4416 1528 4400 
Q 1553 4384 1556 4359 
Q 1559 4334 1547 4306 
z
" transform="scale(0.015625)"/>
       <path id="Calibri-4d" d="M 4934 81 
Q 4934 56 4921 37 
Q 4909 19 4878 8 
Q 4847 -3 4798 -11 
Q 4750 -19 4672 -19 
Q 4600 -19 4548 -11 
Q 4497 -3 4467 8 
Q 4438 19 4425 37 
Q 4413 56 4413 81 
L 4413 3603 
L 4406 3603 
L 2966 66 
Q 2956 44 2939 28 
Q 2922 13 2889 2 
Q 2856 -9 2811 -14 
Q 2766 -19 2703 -19 
Q 2638 -19 2591 -12 
Q 2544 -6 2512 5 
Q 2481 16 2464 31 
Q 2447 47 2441 66 
L 1063 3603 
L 1059 3603 
L 1059 81 
Q 1059 56 1046 37 
Q 1034 19 1003 8 
Q 972 -3 922 -11 
Q 872 -19 794 -19 
Q 719 -19 669 -11 
Q 619 -3 589 8 
Q 559 19 548 37 
Q 538 56 538 81 
L 538 3800 
Q 538 3931 606 3987 
Q 675 4044 759 4044 
L 1084 4044 
Q 1184 4044 1259 4025 
Q 1334 4006 1390 3965 
Q 1447 3925 1484 3862 
Q 1522 3800 1550 3716 
L 2722 788 
L 2738 788 
L 3956 3706 
Q 3991 3800 4031 3865 
Q 4072 3931 4120 3970 
Q 4169 4009 4228 4026 
Q 4288 4044 4366 4044 
L 4706 4044 
Q 4753 4044 4795 4030 
Q 4838 4016 4867 3986 
Q 4897 3956 4915 3911 
Q 4934 3866 4934 3800 
L 4934 81 
z
" transform="scale(0.015625)"/>
       <path id="Calibri-57" d="M 4409 119 
Q 4397 75 4372 48 
Q 4347 22 4303 8 
Q 4259 -6 4195 -12 
Q 4131 -19 4038 -19 
Q 3941 -19 3873 -12 
Q 3806 -6 3762 8 
Q 3719 22 3697 48 
Q 3675 75 3663 119 
L 2816 3172 
L 2809 3172 
L 2028 119 
Q 2019 75 1997 48 
Q 1975 22 1934 8 
Q 1894 -6 1830 -12 
Q 1766 -19 1666 -19 
Q 1563 -19 1494 -12 
Q 1425 -6 1381 8 
Q 1338 22 1314 48 
Q 1291 75 1281 119 
L 213 3853 
Q 194 3925 192 3965 
Q 191 4006 217 4028 
Q 244 4050 303 4056 
Q 363 4063 463 4063 
Q 559 4063 615 4058 
Q 672 4053 701 4040 
Q 731 4028 742 4006 
Q 753 3984 759 3950 
L 1669 563 
L 1672 563 
L 2534 3944 
Q 2544 3978 2558 4001 
Q 2572 4025 2603 4037 
Q 2634 4050 2692 4056 
Q 2750 4063 2844 4063 
Q 2931 4063 2982 4056 
Q 3034 4050 3065 4037 
Q 3097 4025 3111 4001 
Q 3125 3978 3134 3944 
L 4063 563 
L 4069 563 
L 4959 3947 
Q 4969 3978 4978 4001 
Q 4988 4025 5017 4037 
Q 5047 4050 5101 4056 
Q 5156 4063 5247 4063 
Q 5341 4063 5395 4055 
Q 5450 4047 5475 4025 
Q 5500 4003 5498 3962 
Q 5497 3922 5481 3850 
L 4409 119 
z
" transform="scale(0.015625)"/>
       <path id="Calibri-68" d="M 2900 78 
Q 2900 53 2887 36 
Q 2875 19 2847 6 
Q 2819 -6 2769 -12 
Q 2719 -19 2644 -19 
Q 2566 -19 2516 -12 
Q 2466 -6 2437 6 
Q 2409 19 2396 36 
Q 2384 53 2384 78 
L 2384 1725 
Q 2384 1966 2346 2112 
Q 2309 2259 2237 2365 
Q 2166 2472 2052 2528 
Q 1938 2584 1788 2584 
Q 1594 2584 1400 2446 
Q 1206 2309 994 2044 
L 994 78 
Q 994 53 981 36 
Q 969 19 941 6 
Q 913 -6 863 -12 
Q 813 -19 734 -19 
Q 659 -19 609 -12 
Q 559 -6 529 6 
Q 500 19 489 36 
Q 478 53 478 78 
L 478 4253 
Q 478 4278 489 4297 
Q 500 4316 529 4328 
Q 559 4341 609 4347 
Q 659 4353 734 4353 
Q 813 4353 863 4347 
Q 913 4341 941 4328 
Q 969 4316 981 4297 
Q 994 4278 994 4253 
L 994 2569 
Q 1216 2803 1441 2917 
Q 1666 3031 1894 3031 
Q 2175 3031 2367 2936 
Q 2559 2841 2678 2681 
Q 2797 2522 2848 2308 
Q 2900 2094 2900 1791 
L 2900 78 
z
" transform="scale(0.015625)"/>
       <path id="Calibri-29" d="M 1522 1678 
Q 1522 1325 1478 979 
Q 1434 634 1346 296 
Q 1259 -41 1132 -367 
Q 1006 -694 838 -1013 
Q 828 -1028 809 -1040 
Q 791 -1053 761 -1062 
Q 731 -1072 690 -1075 
Q 650 -1078 594 -1078 
Q 513 -1078 467 -1070 
Q 422 -1063 401 -1045 
Q 381 -1028 382 -1001 
Q 384 -975 400 -938 
Q 688 -306 834 355 
Q 981 1016 981 1688 
Q 981 2356 834 3017 
Q 688 3678 394 4306 
Q 381 4334 384 4359 
Q 388 4384 413 4400 
Q 438 4416 481 4425 
Q 525 4434 597 4434 
Q 663 4434 706 4429 
Q 750 4425 776 4415 
Q 803 4406 815 4397 
Q 828 4388 834 4375 
Q 1156 3734 1339 3057 
Q 1522 2381 1522 1678 
z
" transform="scale(0.015625)"/>
      </defs>
      <use xlink:href="#Calibri-63"/>
      <use xlink:href="#Calibri-6f" x="42.285156"/>
      <use xlink:href="#Calibri-6e" x="95.019531"/>
      <use xlink:href="#Calibri-73" x="147.558594"/>
      <use xlink:href="#Calibri-75" x="186.669922"/>
      <use xlink:href="#Calibri-6d" x="239.208984"/>
      <use xlink:href="#Calibri-70" x="319.091797"/>
      <use xlink:href="#Calibri-74" x="371.630859"/>
      <use xlink:href="#Calibri-69" x="405.126953"/>
      <use xlink:href="#Calibri-6f" x="428.076172"/>
      <use xlink:href="#Calibri-6e" x="480.810547"/>
      <use xlink:href="#Calibri-20" x="533.349609"/>
      <use xlink:href="#Calibri-28" x="555.957031"/>
      <use xlink:href="#Calibri-4d" x="586.279297"/>
      <use xlink:href="#Calibri-57" x="671.777344"/>
      <use xlink:href="#Calibri-68" x="760.742188"/>
      <use xlink:href="#Calibri-29" x="813.28125"/>
     </g>
    </g>
   </g>
   <g id="patch_99">
    <path d="M 102.599688 330.224 
L 102.599688 7.2 
" style="fill: none; stroke: #000000; stroke-width: 0.8; stroke-linejoin: miter; stroke-linecap: square"/>
   </g>
   <g id="patch_100">
    <path d="M 783.103688 330.224 
L 783.103688 7.2 
" style="fill: none; stroke: #000000; stroke-width: 0.8; stroke-linejoin: miter; stroke-linecap: square"/>
   </g>
   <g id="patch_101">
    <path d="M 102.599688 330.224 
L 783.103688 330.224 
" style="fill: none; stroke: #000000; stroke-width: 0.8; stroke-linejoin: miter; stroke-linecap: square"/>
   </g>
   <g id="legend_1">
    <g id="patch_102">
     <path d="M 179.650088 406.721975 
L 199.650088 406.721975 
L 199.650088 399.721975 
L 179.650088 399.721975 
z
" style="fill: #008000"/>
    </g>
    <g id="text_21">
     <!-- Electricity consumption -->
     <g transform="translate(207.650088 406.721975) scale(0.28 -0.28)">
      <use xlink:href="#Calibri-45"/>
      <use xlink:href="#Calibri-6c" x="48.828125"/>
      <use xlink:href="#Calibri-65" x="71.777344"/>
      <use xlink:href="#Calibri-63" x="121.533203"/>
      <use xlink:href="#Calibri-74" x="163.818359"/>
      <use xlink:href="#Calibri-72" x="197.314453"/>
      <use xlink:href="#Calibri-69" x="232.177734"/>
      <use xlink:href="#Calibri-63" x="255.126953"/>
      <use xlink:href="#Calibri-69" x="297.412109"/>
      <use xlink:href="#Calibri-74" x="320.361328"/>
      <use xlink:href="#Calibri-79" x="353.857422"/>
      <use xlink:href="#Calibri-20" x="399.121094"/>
      <use xlink:href="#Calibri-63" x="421.728516"/>
      <use xlink:href="#Calibri-6f" x="464.013672"/>
      <use xlink:href="#Calibri-6e" x="516.748047"/>
      <use xlink:href="#Calibri-73" x="569.287109"/>
      <use xlink:href="#Calibri-75" x="608.398438"/>
      <use xlink:href="#Calibri-6d" x="660.9375"/>
      <use xlink:href="#Calibri-70" x="740.820312"/>
      <use xlink:href="#Calibri-74" x="793.359375"/>
      <use xlink:href="#Calibri-69" x="826.855469"/>
      <use xlink:href="#Calibri-6f" x="849.804688"/>
      <use xlink:href="#Calibri-6e" x="902.539062"/>
     </g>
    </g>
   </g>
  </g>
  <g id="axes_2">
   <g id="matplotlib.axis_3">
    <g id="ytick_6">
     <g id="line2d_24">
      <defs>
       <path id="mc8d7416ae9" d="M 0 0 
L 3.5 0 
" style="stroke: #000000; stroke-width: 0.8"/>
      </defs>
      <g>
       <use xlink:href="#mc8d7416ae9" x="783.103688" y="264.706294" style="stroke: #000000; stroke-width: 0.8"/>
      </g>
     </g>
     <g id="text_22">
      <!-- 40 -->
      <g transform="translate(790.103688 274.228481) scale(0.28 -0.28)">
       <use xlink:href="#Calibri-34"/>
       <use xlink:href="#Calibri-30" x="50.683594"/>
      </g>
     </g>
    </g>
    <g id="ytick_7">
     <g id="line2d_25">
      <g>
       <use xlink:href="#mc8d7416ae9" x="783.103688" y="176.37476" style="stroke: #000000; stroke-width: 0.8"/>
      </g>
     </g>
     <g id="text_23">
      <!-- 60 -->
      <g transform="translate(790.103688 185.896948) scale(0.28 -0.28)">
       <use xlink:href="#Calibri-36"/>
       <use xlink:href="#Calibri-30" x="50.683594"/>
      </g>
     </g>
    </g>
    <g id="ytick_8">
     <g id="line2d_26">
      <g>
       <use xlink:href="#mc8d7416ae9" x="783.103688" y="88.043227" style="stroke: #000000; stroke-width: 0.8"/>
      </g>
     </g>
     <g id="text_24">
      <!-- 80 -->
      <g transform="translate(790.103688 97.565415) scale(0.28 -0.28)">
       <use xlink:href="#Calibri-38"/>
       <use xlink:href="#Calibri-30" x="50.683594"/>
      </g>
     </g>
    </g>
    <g id="text_25">
     <!-- Electricity prices(/MWh) -->
     <g transform="translate(842.587438 314.342625) rotate(-90) scale(0.28 -0.28)">
      <defs>
       <path id="Calibri-a3" d="M 2969 216 
Q 2969 156 2959 115 
Q 2950 75 2934 50 
Q 2919 25 2898 12 
Q 2878 0 2859 0 
L 372 0 
Q 350 0 331 12 
Q 313 25 295 50 
Q 278 75 268 115 
Q 259 156 259 216 
Q 259 272 267 314 
Q 275 356 290 382 
Q 306 409 326 421 
Q 347 434 372 434 
L 756 434 
L 756 1853 
L 372 1853 
Q 350 1853 331 1864 
Q 313 1875 295 1900 
Q 278 1925 268 1964 
Q 259 2003 259 2066 
Q 259 2119 267 2159 
Q 275 2200 290 2226 
Q 306 2253 326 2264 
Q 347 2275 372 2275 
L 756 2275 
L 756 2650 
Q 756 3034 843 3309 
Q 931 3584 1092 3759 
Q 1253 3934 1481 4014 
Q 1709 4094 1991 4094 
Q 2122 4094 2248 4070 
Q 2375 4047 2483 4006 
Q 2591 3966 2677 3912 
Q 2763 3859 2805 3818 
Q 2847 3778 2862 3753 
Q 2878 3728 2887 3697 
Q 2897 3666 2900 3628 
Q 2903 3591 2903 3534 
Q 2903 3481 2897 3440 
Q 2891 3400 2878 3373 
Q 2866 3347 2848 3333 
Q 2831 3319 2809 3319 
Q 2766 3319 2705 3372 
Q 2644 3425 2550 3487 
Q 2456 3550 2323 3603 
Q 2191 3656 2006 3656 
Q 1819 3656 1683 3592 
Q 1547 3528 1459 3403 
Q 1372 3278 1328 3093 
Q 1284 2909 1284 2669 
L 1284 2275 
L 2309 2275 
Q 2334 2275 2354 2264 
Q 2375 2253 2389 2226 
Q 2403 2200 2411 2159 
Q 2419 2119 2419 2066 
Q 2419 2003 2409 1964 
Q 2400 1925 2384 1900 
Q 2369 1875 2350 1864 
Q 2331 1853 2309 1853 
L 1284 1853 
L 1284 434 
L 2859 434 
Q 2881 434 2901 421 
Q 2922 409 2937 382 
Q 2953 356 2961 314 
Q 2969 272 2969 216 
z
" transform="scale(0.015625)"/>
       <path id="Calibri-2f" d="M 525 -753 
Q 513 -794 492 -817 
Q 472 -841 440 -853 
Q 409 -866 364 -872 
Q 319 -878 253 -878 
Q 175 -878 123 -867 
Q 72 -856 44 -836 
Q 16 -816 9 -786 
Q 3 -756 22 -716 
L 1913 4469 
Q 1925 4509 1945 4532 
Q 1966 4556 1995 4570 
Q 2025 4584 2072 4589 
Q 2119 4594 2184 4594 
Q 2263 4594 2313 4583 
Q 2363 4572 2391 4553 
Q 2419 4534 2425 4503 
Q 2431 4472 2416 4431 
L 525 -753 
z
" transform="scale(0.015625)"/>
      </defs>
      <use xlink:href="#Calibri-45"/>
      <use xlink:href="#Calibri-6c" x="48.828125"/>
      <use xlink:href="#Calibri-65" x="71.777344"/>
      <use xlink:href="#Calibri-63" x="121.533203"/>
      <use xlink:href="#Calibri-74" x="163.818359"/>
      <use xlink:href="#Calibri-72" x="197.314453"/>
      <use xlink:href="#Calibri-69" x="232.177734"/>
      <use xlink:href="#Calibri-63" x="255.126953"/>
      <use xlink:href="#Calibri-69" x="297.412109"/>
      <use xlink:href="#Calibri-74" x="320.361328"/>
      <use xlink:href="#Calibri-79" x="353.857422"/>
      <use xlink:href="#Calibri-20" x="399.121094"/>
      <use xlink:href="#Calibri-70" x="421.728516"/>
      <use xlink:href="#Calibri-72" x="474.267578"/>
      <use xlink:href="#Calibri-69" x="509.130859"/>
      <use xlink:href="#Calibri-63" x="532.080078"/>
      <use xlink:href="#Calibri-65" x="574.365234"/>
      <use xlink:href="#Calibri-73" x="624.121094"/>
      <use xlink:href="#Calibri-28" x="663.232422"/>
      <use xlink:href="#Calibri-a3" x="693.554688"/>
      <use xlink:href="#Calibri-2f" x="744.238281"/>
      <use xlink:href="#Calibri-4d" x="782.861328"/>
      <use xlink:href="#Calibri-57" x="868.359375"/>
      <use xlink:href="#Calibri-68" x="957.324219"/>
      <use xlink:href="#Calibri-29" x="1009.863281"/>
     </g>
    </g>
   </g>
   <g id="line2d_27">
    <path d="M 136.114736 294.385689 
L 142.572356 294.385689 
L 149.029976 294.385689 
L 155.487596 294.385689 
L 161.945216 308.87206 
L 168.402836 308.87206 
L 174.860456 308.87206 
L 181.318076 308.87206 
L 187.775696 312.62615 
L 194.233316 312.62615 
L 200.690936 312.62615 
L 207.148556 312.62615 
L 213.606176 315.541091 
L 220.063796 315.541091 
L 226.521416 315.541091 
L 232.979036 315.541091 
L 239.436656 288.290813 
L 245.894276 288.290813 
L 252.351896 288.290813 
L 258.809516 288.290813 
L 265.267136 220.496361 
L 271.724756 220.496361 
L 278.182376 220.496361 
L 284.639996 220.496361 
L 291.097617 125.495797 
L 297.555237 125.495797 
L 304.012857 125.495797 
L 310.470477 125.495797 
L 316.928097 97.141375 
L 323.385717 97.141375 
L 329.843337 97.141375 
L 336.300957 97.141375 
L 342.758577 79.342571 
L 349.216197 79.342571 
L 355.673817 79.342571 
L 362.131437 79.342571 
L 368.589057 53.152272 
L 375.046677 53.152272 
L 381.504297 53.152272 
L 387.961917 53.152272 
L 394.419537 31.687709 
L 400.877157 31.687709 
L 407.334777 31.687709 
L 413.792397 31.687709 
L 420.250017 21.882909 
L 426.707637 21.882909 
L 433.165257 21.882909 
L 439.622877 21.882909 
L 446.080498 33.675169 
L 452.538118 33.675169 
L 458.995738 33.675169 
L 465.453358 33.675169 
L 471.910978 43.744964 
L 478.368598 43.744964 
L 484.826218 43.744964 
L 491.283838 43.744964 
L 497.741458 43.479969 
L 504.199078 43.479969 
L 510.656698 43.479969 
L 517.114318 43.479969 
L 523.571938 55.183897 
L 530.029558 55.183897 
L 536.487178 55.183897 
L 542.944798 55.183897 
L 549.402418 64.326211 
L 555.860038 64.326211 
L 562.317658 64.326211 
L 568.775278 64.326211 
L 575.232898 88.175725 
L 581.690518 88.175725 
L 588.148138 88.175725 
L 594.605758 88.175725 
L 601.063379 88.396554 
L 607.520999 88.396554 
L 613.978619 88.396554 
L 620.436239 88.396554 
L 626.893859 97.627199 
L 633.351479 97.627199 
L 639.809099 97.627199 
L 646.266719 97.627199 
L 652.724339 104.472893 
L 659.181959 104.472893 
L 665.639579 104.472893 
L 672.097199 104.472893 
L 678.554819 154.026883 
L 685.012439 154.026883 
L 691.470059 154.026883 
L 697.927679 154.026883 
L 704.385299 206.981637 
L 710.842919 206.981637 
L 717.300539 206.981637 
L 723.758159 206.981637 
L 730.215779 290.499101 
L 736.673399 290.499101 
L 743.131019 290.499101 
L 749.588639 290.499101 
" clip-path="url(#p813b8375a3)" style="fill: none; stroke: #000000; stroke-width: 5; stroke-linecap: square"/>
    <defs>
     <path id="m55d888a9a3" d="M 0 3 
C 0.795609 3 1.55874 2.683901 2.12132 2.12132 
C 2.683901 1.55874 3 0.795609 3 0 
C 3 -0.795609 2.683901 -1.55874 2.12132 -2.12132 
C 1.55874 -2.683901 0.795609 -3 0 -3 
C -0.795609 -3 -1.55874 -2.683901 -2.12132 -2.12132 
C -2.683901 -1.55874 -3 -0.795609 -3 0 
C -3 0.795609 -2.683901 1.55874 -2.12132 2.12132 
C -1.55874 2.683901 -0.795609 3 0 3 
z
" style="stroke: #000000"/>
    </defs>
    <g clip-path="url(#p813b8375a3)">
     <use xlink:href="#m55d888a9a3" x="136.114736" y="294.385689" style="stroke: #000000"/>
     <use xlink:href="#m55d888a9a3" x="142.572356" y="294.385689" style="stroke: #000000"/>
     <use xlink:href="#m55d888a9a3" x="149.029976" y="294.385689" style="stroke: #000000"/>
     <use xlink:href="#m55d888a9a3" x="155.487596" y="294.385689" style="stroke: #000000"/>
     <use xlink:href="#m55d888a9a3" x="161.945216" y="308.87206" style="stroke: #000000"/>
     <use xlink:href="#m55d888a9a3" x="168.402836" y="308.87206" style="stroke: #000000"/>
     <use xlink:href="#m55d888a9a3" x="174.860456" y="308.87206" style="stroke: #000000"/>
     <use xlink:href="#m55d888a9a3" x="181.318076" y="308.87206" style="stroke: #000000"/>
     <use xlink:href="#m55d888a9a3" x="187.775696" y="312.62615" style="stroke: #000000"/>
     <use xlink:href="#m55d888a9a3" x="194.233316" y="312.62615" style="stroke: #000000"/>
     <use xlink:href="#m55d888a9a3" x="200.690936" y="312.62615" style="stroke: #000000"/>
     <use xlink:href="#m55d888a9a3" x="207.148556" y="312.62615" style="stroke: #000000"/>
     <use xlink:href="#m55d888a9a3" x="213.606176" y="315.541091" style="stroke: #000000"/>
     <use xlink:href="#m55d888a9a3" x="220.063796" y="315.541091" style="stroke: #000000"/>
     <use xlink:href="#m55d888a9a3" x="226.521416" y="315.541091" style="stroke: #000000"/>
     <use xlink:href="#m55d888a9a3" x="232.979036" y="315.541091" style="stroke: #000000"/>
     <use xlink:href="#m55d888a9a3" x="239.436656" y="288.290813" style="stroke: #000000"/>
     <use xlink:href="#m55d888a9a3" x="245.894276" y="288.290813" style="stroke: #000000"/>
     <use xlink:href="#m55d888a9a3" x="252.351896" y="288.290813" style="stroke: #000000"/>
     <use xlink:href="#m55d888a9a3" x="258.809516" y="288.290813" style="stroke: #000000"/>
     <use xlink:href="#m55d888a9a3" x="265.267136" y="220.496361" style="stroke: #000000"/>
     <use xlink:href="#m55d888a9a3" x="271.724756" y="220.496361" style="stroke: #000000"/>
     <use xlink:href="#m55d888a9a3" x="278.182376" y="220.496361" style="stroke: #000000"/>
     <use xlink:href="#m55d888a9a3" x="284.639996" y="220.496361" style="stroke: #000000"/>
     <use xlink:href="#m55d888a9a3" x="291.097617" y="125.495797" style="stroke: #000000"/>
     <use xlink:href="#m55d888a9a3" x="297.555237" y="125.495797" style="stroke: #000000"/>
     <use xlink:href="#m55d888a9a3" x="304.012857" y="125.495797" style="stroke: #000000"/>
     <use xlink:href="#m55d888a9a3" x="310.470477" y="125.495797" style="stroke: #000000"/>
     <use xlink:href="#m55d888a9a3" x="316.928097" y="97.141375" style="stroke: #000000"/>
     <use xlink:href="#m55d888a9a3" x="323.385717" y="97.141375" style="stroke: #000000"/>
     <use xlink:href="#m55d888a9a3" x="329.843337" y="97.141375" style="stroke: #000000"/>
     <use xlink:href="#m55d888a9a3" x="336.300957" y="97.141375" style="stroke: #000000"/>
     <use xlink:href="#m55d888a9a3" x="342.758577" y="79.342571" style="stroke: #000000"/>
     <use xlink:href="#m55d888a9a3" x="349.216197" y="79.342571" style="stroke: #000000"/>
     <use xlink:href="#m55d888a9a3" x="355.673817" y="79.342571" style="stroke: #000000"/>
     <use xlink:href="#m55d888a9a3" x="362.131437" y="79.342571" style="stroke: #000000"/>
     <use xlink:href="#m55d888a9a3" x="368.589057" y="53.152272" style="stroke: #000000"/>
     <use xlink:href="#m55d888a9a3" x="375.046677" y="53.152272" style="stroke: #000000"/>
     <use xlink:href="#m55d888a9a3" x="381.504297" y="53.152272" style="stroke: #000000"/>
     <use xlink:href="#m55d888a9a3" x="387.961917" y="53.152272" style="stroke: #000000"/>
     <use xlink:href="#m55d888a9a3" x="394.419537" y="31.687709" style="stroke: #000000"/>
     <use xlink:href="#m55d888a9a3" x="400.877157" y="31.687709" style="stroke: #000000"/>
     <use xlink:href="#m55d888a9a3" x="407.334777" y="31.687709" style="stroke: #000000"/>
     <use xlink:href="#m55d888a9a3" x="413.792397" y="31.687709" style="stroke: #000000"/>
     <use xlink:href="#m55d888a9a3" x="420.250017" y="21.882909" style="stroke: #000000"/>
     <use xlink:href="#m55d888a9a3" x="426.707637" y="21.882909" style="stroke: #000000"/>
     <use xlink:href="#m55d888a9a3" x="433.165257" y="21.882909" style="stroke: #000000"/>
     <use xlink:href="#m55d888a9a3" x="439.622877" y="21.882909" style="stroke: #000000"/>
     <use xlink:href="#m55d888a9a3" x="446.080498" y="33.675169" style="stroke: #000000"/>
     <use xlink:href="#m55d888a9a3" x="452.538118" y="33.675169" style="stroke: #000000"/>
     <use xlink:href="#m55d888a9a3" x="458.995738" y="33.675169" style="stroke: #000000"/>
     <use xlink:href="#m55d888a9a3" x="465.453358" y="33.675169" style="stroke: #000000"/>
     <use xlink:href="#m55d888a9a3" x="471.910978" y="43.744964" style="stroke: #000000"/>
     <use xlink:href="#m55d888a9a3" x="478.368598" y="43.744964" style="stroke: #000000"/>
     <use xlink:href="#m55d888a9a3" x="484.826218" y="43.744964" style="stroke: #000000"/>
     <use xlink:href="#m55d888a9a3" x="491.283838" y="43.744964" style="stroke: #000000"/>
     <use xlink:href="#m55d888a9a3" x="497.741458" y="43.479969" style="stroke: #000000"/>
     <use xlink:href="#m55d888a9a3" x="504.199078" y="43.479969" style="stroke: #000000"/>
     <use xlink:href="#m55d888a9a3" x="510.656698" y="43.479969" style="stroke: #000000"/>
     <use xlink:href="#m55d888a9a3" x="517.114318" y="43.479969" style="stroke: #000000"/>
     <use xlink:href="#m55d888a9a3" x="523.571938" y="55.183897" style="stroke: #000000"/>
     <use xlink:href="#m55d888a9a3" x="530.029558" y="55.183897" style="stroke: #000000"/>
     <use xlink:href="#m55d888a9a3" x="536.487178" y="55.183897" style="stroke: #000000"/>
     <use xlink:href="#m55d888a9a3" x="542.944798" y="55.183897" style="stroke: #000000"/>
     <use xlink:href="#m55d888a9a3" x="549.402418" y="64.326211" style="stroke: #000000"/>
     <use xlink:href="#m55d888a9a3" x="555.860038" y="64.326211" style="stroke: #000000"/>
     <use xlink:href="#m55d888a9a3" x="562.317658" y="64.326211" style="stroke: #000000"/>
     <use xlink:href="#m55d888a9a3" x="568.775278" y="64.326211" style="stroke: #000000"/>
     <use xlink:href="#m55d888a9a3" x="575.232898" y="88.175725" style="stroke: #000000"/>
     <use xlink:href="#m55d888a9a3" x="581.690518" y="88.175725" style="stroke: #000000"/>
     <use xlink:href="#m55d888a9a3" x="588.148138" y="88.175725" style="stroke: #000000"/>
     <use xlink:href="#m55d888a9a3" x="594.605758" y="88.175725" style="stroke: #000000"/>
     <use xlink:href="#m55d888a9a3" x="601.063379" y="88.396554" style="stroke: #000000"/>
     <use xlink:href="#m55d888a9a3" x="607.520999" y="88.396554" style="stroke: #000000"/>
     <use xlink:href="#m55d888a9a3" x="613.978619" y="88.396554" style="stroke: #000000"/>
     <use xlink:href="#m55d888a9a3" x="620.436239" y="88.396554" style="stroke: #000000"/>
     <use xlink:href="#m55d888a9a3" x="626.893859" y="97.627199" style="stroke: #000000"/>
     <use xlink:href="#m55d888a9a3" x="633.351479" y="97.627199" style="stroke: #000000"/>
     <use xlink:href="#m55d888a9a3" x="639.809099" y="97.627199" style="stroke: #000000"/>
     <use xlink:href="#m55d888a9a3" x="646.266719" y="97.627199" style="stroke: #000000"/>
     <use xlink:href="#m55d888a9a3" x="652.724339" y="104.472893" style="stroke: #000000"/>
     <use xlink:href="#m55d888a9a3" x="659.181959" y="104.472893" style="stroke: #000000"/>
     <use xlink:href="#m55d888a9a3" x="665.639579" y="104.472893" style="stroke: #000000"/>
     <use xlink:href="#m55d888a9a3" x="672.097199" y="104.472893" style="stroke: #000000"/>
     <use xlink:href="#m55d888a9a3" x="678.554819" y="154.026883" style="stroke: #000000"/>
     <use xlink:href="#m55d888a9a3" x="685.012439" y="154.026883" style="stroke: #000000"/>
     <use xlink:href="#m55d888a9a3" x="691.470059" y="154.026883" style="stroke: #000000"/>
     <use xlink:href="#m55d888a9a3" x="697.927679" y="154.026883" style="stroke: #000000"/>
     <use xlink:href="#m55d888a9a3" x="704.385299" y="206.981637" style="stroke: #000000"/>
     <use xlink:href="#m55d888a9a3" x="710.842919" y="206.981637" style="stroke: #000000"/>
     <use xlink:href="#m55d888a9a3" x="717.300539" y="206.981637" style="stroke: #000000"/>
     <use xlink:href="#m55d888a9a3" x="723.758159" y="206.981637" style="stroke: #000000"/>
     <use xlink:href="#m55d888a9a3" x="730.215779" y="290.499101" style="stroke: #000000"/>
     <use xlink:href="#m55d888a9a3" x="736.673399" y="290.499101" style="stroke: #000000"/>
     <use xlink:href="#m55d888a9a3" x="743.131019" y="290.499101" style="stroke: #000000"/>
     <use xlink:href="#m55d888a9a3" x="749.588639" y="290.499101" style="stroke: #000000"/>
    </g>
   </g>
   <g id="patch_103">
    <path d="M 102.599688 330.224 
L 102.599688 7.2 
" style="fill: none; stroke: #000000; stroke-width: 0.8; stroke-linejoin: miter; stroke-linecap: square"/>
   </g>
   <g id="patch_104">
    <path d="M 783.103688 330.224 
L 783.103688 7.2 
" style="fill: none; stroke: #000000; stroke-width: 0.8; stroke-linejoin: miter; stroke-linecap: square"/>
   </g>
   <g id="patch_105">
    <path d="M 102.599688 330.224 
L 783.103688 330.224 
" style="fill: none; stroke: #000000; stroke-width: 0.8; stroke-linejoin: miter; stroke-linecap: square"/>
   </g>
   <g id="legend_2">
    <g id="line2d_28">
     <path d="M 587.952488 403.221975 
L 597.952488 403.221975 
L 607.952488 403.221975 
" style="fill: none; stroke: #000000; stroke-width: 5; stroke-linecap: square"/>
     <g>
      <use xlink:href="#m55d888a9a3" x="597.952488" y="403.221975" style="stroke: #000000"/>
     </g>
    </g>
    <g id="text_26">
     <!-- Electricity price -->
     <g transform="translate(615.952488 406.721975) scale(0.28 -0.28)">
      <use xlink:href="#Calibri-45"/>
      <use xlink:href="#Calibri-6c" x="48.828125"/>
      <use xlink:href="#Calibri-65" x="71.777344"/>
      <use xlink:href="#Calibri-63" x="121.533203"/>
      <use xlink:href="#Calibri-74" x="163.818359"/>
      <use xlink:href="#Calibri-72" x="197.314453"/>
      <use xlink:href="#Calibri-69" x="232.177734"/>
      <use xlink:href="#Calibri-63" x="255.126953"/>
      <use xlink:href="#Calibri-69" x="297.412109"/>
      <use xlink:href="#Calibri-74" x="320.361328"/>
      <use xlink:href="#Calibri-79" x="353.857422"/>
      <use xlink:href="#Calibri-20" x="399.121094"/>
      <use xlink:href="#Calibri-70" x="421.728516"/>
      <use xlink:href="#Calibri-72" x="474.267578"/>
      <use xlink:href="#Calibri-69" x="509.130859"/>
      <use xlink:href="#Calibri-63" x="532.080078"/>
      <use xlink:href="#Calibri-65" x="574.365234"/>
     </g>
    </g>
   </g>
  </g>
 </g>
 <defs>
  <clipPath id="p813b8375a3">
   <rect x="102.599688" y="7.2" width="680.504" height="323.024"/>
  </clipPath>
 </defs>
</svg>
