<svg width="3141" height="1558" xmlns="http://www.w3.org/2000/svg" xmlns:xlink="http://www.w3.org/1999/xlink" xml:space="preserve" overflow="hidden"><defs><clipPath id="clip0"><rect x="235" y="263" width="3141" height="1558"/></clipPath></defs><g clip-path="url(#clip0)" transform="translate(-235 -263)"><path d="M0 1558 3139.86 1558 3139.86 0 0 0Z" fill="#FFFFFF" transform="matrix(1.00009 0 0 1 235.437 263)"/><path d="M477.14 1299.83 3113.48 1299.83 3113.48 26.3806 477.14 26.3806Z" fill="#FFFFFF" transform="matrix(1.00009 0 0 1 235.437 263)"/><path d="M0 0 0 12.8239" stroke="#000000" stroke-width="2.93117" stroke-linejoin="round" fill="none" transform="matrix(1.00009 0 0 1 816.376 1562.83)"/><path d="M31.4403 65.6938C26.4217 65.6938 22.645 63.2206 20.11 58.2743 17.5854 53.3383 16.323 45.9084 16.323 35.9847 16.323 26.1024 17.5854 18.688 20.11 13.7416 22.645 8.79524 26.4217 6.32206 31.4403 6.32206 36.4999 6.32206 40.2923 8.79524 42.8169 13.7416 45.3519 18.688 46.6194 26.1024 46.6194 35.9847 46.6194 45.9084 45.3519 53.3383 42.8169 58.2743 40.2923 63.2206 36.4999 65.6938 31.4403 65.6938ZM31.4403 73.4225C39.5296 73.4225 45.7074 70.2228 49.9737 63.8235 54.2399 57.4345 56.373 48.1548 56.373 35.9847 56.373 23.8456 54.2399 14.5763 49.9737 8.17695 45.7074 1.78791 39.5296-1.40662 31.4403-1.40662 23.3612-1.40662 17.1886 1.78791 12.9224 8.17695 8.65613 14.5763 6.52301 23.8456 6.52301 35.9847 6.52301 48.1548 8.65613 57.4345 12.9224 63.8235 17.1886 70.2228 23.3612 73.4225 31.4403 73.4225Z" transform="matrix(1.00009 0 0 -1 784.9 1663.65)"/><path d="M0 0 0 12.8239" stroke="#000000" stroke-width="2.93117" stroke-linejoin="round" fill="none" transform="matrix(1.00009 0 0 1 1138.1 1562.83)"/><path d="M18.9816 8.20786 53.0342 8.20786 53.0342 0 7.2495 0 7.2495 8.20786C10.949 12.0413 15.9933 17.1835 22.3823 23.6343 28.7816 30.0955 32.8005 34.2639 34.439 36.1393 37.5614 39.643 39.7409 42.6109 40.9775 45.0428 42.2244 47.4747 42.8478 49.8655 42.8478 52.215 42.8478 56.0484 41.503 59.1708 38.8134 61.5821 36.1239 64.0039 32.6201 65.2146 28.3024 65.2146 25.2419 65.2146 22.0113 64.684 18.6107 63.6225 15.2204 62.5611 11.593 60.9484 7.72868 58.7844L7.72868 68.6462C11.6549 70.2228 15.3234 71.413 18.7343 72.2168 22.1555 73.0206 25.2831 73.4225 28.1169 73.4225 35.588 73.4225 41.5443 71.5521 45.9857 67.8115 50.427 64.0811 52.6478 59.0935 52.6478 52.8487 52.6478 49.8809 52.0913 47.0677 50.9784 44.409 49.8758 41.7607 47.856 38.6331 44.9191 35.0264 44.1153 34.0886 41.5545 31.3888 37.2368 26.9267 32.9293 22.4647 26.8443 16.2251 18.9816 8.20786Z" transform="matrix(1.00009 0 0 -1 1075.16 1663.65)"/><path d="M31.4403 65.6938C26.4217 65.6938 22.645 63.2206 20.11 58.2743 17.5854 53.3383 16.323 45.9084 16.323 35.9847 16.323 26.1024 17.5854 18.688 20.11 13.7416 22.645 8.79524 26.4217 6.32206 31.4403 6.32206 36.4999 6.32206 40.2923 8.79524 42.8169 13.7416 45.3519 18.688 46.6194 26.1024 46.6194 35.9847 46.6194 45.9084 45.3519 53.3383 42.8169 58.2743 40.2923 63.2206 36.4999 65.6938 31.4403 65.6938ZM31.4403 73.4225C39.5296 73.4225 45.7074 70.2228 49.9737 63.8235 54.2399 57.4345 56.373 48.1548 56.373 35.9847 56.373 23.8456 54.2399 14.5763 49.9737 8.17695 45.7074 1.78791 39.5296-1.40662 31.4403-1.40662 23.3612-1.40662 17.1886 1.78791 12.9224 8.17695 8.65613 14.5763 6.52301 23.8456 6.52301 35.9847 6.52301 48.1548 8.65613 57.4345 12.9224 63.8235 17.1886 70.2228 23.3612 73.4225 31.4403 73.4225Z" transform="matrix(1.00009 0 0 -1 1138.1 1663.65)"/><path d="M0 0 0 12.8239" stroke="#000000" stroke-width="2.93117" stroke-linejoin="round" fill="none" transform="matrix(1.00009 0 0 1 1459.83 1562.83)"/><path d="M37.3914 63.6225 12.7523 25.1182 37.3914 25.1182 37.3914 63.6225ZM34.8254 72.1241 47.0986 72.1241 47.0986 25.1182 57.3932 25.1182 57.3932 17.0031 47.0986 17.0031 47.0986 0 37.3914 0 37.3914 17.0031 4.83816 17.0031 4.83816 26.4166 34.8254 72.1241Z" transform="matrix(1.00009 0 0 -1 1396.88 1663.65)"/><path d="M31.4403 65.6938C26.4217 65.6938 22.645 63.2206 20.11 58.2743 17.5854 53.3383 16.323 45.9084 16.323 35.9847 16.323 26.1024 17.5854 18.688 20.11 13.7416 22.645 8.79524 26.4217 6.32206 31.4403 6.32206 36.4999 6.32206 40.2923 8.79524 42.8169 13.7416 45.3519 18.688 46.6194 26.1024 46.6194 35.9847 46.6194 45.9084 45.3519 53.3383 42.8169 58.2743 40.2923 63.2206 36.4999 65.6938 31.4403 65.6938ZM31.4403 73.4225C39.5296 73.4225 45.7074 70.2228 49.9737 63.8235 54.2399 57.4345 56.373 48.1548 56.373 35.9847 56.373 23.8456 54.2399 14.5763 49.9737 8.17695 45.7074 1.78791 39.5296-1.40662 31.4403-1.40662 23.3612-1.40662 17.1886 1.78791 12.9224 8.17695 8.65613 14.5763 6.52301 23.8456 6.52301 35.9847 6.52301 48.1548 8.65613 57.4345 12.9224 63.8235 17.1886 70.2228 23.3612 73.4225 31.4403 73.4225Z" transform="matrix(1.00009 0 0 -1 1459.83 1663.65)"/><path d="M0 0 0 12.8239" stroke="#000000" stroke-width="2.93117" stroke-linejoin="round" fill="none" transform="matrix(1.00009 0 0 1 1781.56 1562.83)"/><path d="M32.6614 39.9418C28.2819 39.9418 24.8091 38.4425 22.2431 35.4437 19.6876 32.4554 18.4097 28.3539 18.4097 23.1397 18.4097 17.9564 19.6876 13.8549 22.2431 10.8356 24.8091 7.82657 28.2819 6.32206 32.6614 6.32206 37.041 6.32206 40.5087 7.82657 43.0642 10.8356 45.6198 13.8549 46.8976 17.9564 46.8976 23.1397 46.8976 28.3539 45.6198 32.4554 43.0642 35.4437 40.5087 38.4425 37.041 39.9418 32.6614 39.9418ZM52.0295 70.532 52.0295 61.644C49.5769 62.7982 47.1037 63.6792 44.61 64.2872 42.1162 64.9055 39.643 65.2146 37.1904 65.2146 30.7498 65.2146 25.8293 63.0402 22.4286 58.6916 19.0384 54.343 17.1009 47.7736 16.6167 38.9835 18.5128 41.7864 20.8933 43.9349 23.758 45.4292 26.633 46.9235 29.7914 47.6705 33.2333 47.6705 40.4777 47.6705 46.2021 45.4705 50.4065 41.0702 54.6109 36.6803 56.7131 30.7034 56.7131 23.1397 56.7131 15.7305 54.5232 9.78451 50.1437 5.30188 45.7642 0.829546 39.9367-1.40662 32.6614-1.40662 24.3144-1.40662 17.9356 1.78791 13.5252 8.17695 9.1147 14.5763 6.90944 23.8456 6.90944 35.9847 6.90944 47.3819 9.61448 56.4709 15.0246 63.2515 20.4346 70.0322 27.6945 73.4225 36.804 73.4225 39.2566 73.4225 41.7298 73.1803 44.2235 72.696 46.7173 72.2117 49.3194 71.4903 52.0295 70.532Z" transform="matrix(1.00009 0 0 -1 1718.61 1663.65)"/><path d="M31.4403 65.6938C26.4217 65.6938 22.645 63.2206 20.11 58.2743 17.5854 53.3383 16.323 45.9084 16.323 35.9847 16.323 26.1024 17.5854 18.688 20.11 13.7416 22.645 8.79524 26.4217 6.32206 31.4403 6.32206 36.4999 6.32206 40.2923 8.79524 42.8169 13.7416 45.3519 18.688 46.6194 26.1024 46.6194 35.9847 46.6194 45.9084 45.3519 53.3383 42.8169 58.2743 40.2923 63.2206 36.4999 65.6938 31.4403 65.6938ZM31.4403 73.4225C39.5296 73.4225 45.7074 70.2228 49.9737 63.8235 54.2399 57.4345 56.373 48.1548 56.373 35.9847 56.373 23.8456 54.2399 14.5763 49.9737 8.17695 45.7074 1.78791 39.5296-1.40662 31.4403-1.40662 23.3612-1.40662 17.1886 1.78791 12.9224 8.17695 8.65613 14.5763 6.52301 23.8456 6.52301 35.9847 6.52301 48.1548 8.65613 57.4345 12.9224 63.8235 17.1886 70.2228 23.3612 73.4225 31.4403 73.4225Z" transform="matrix(1.00009 0 0 -1 1781.56 1663.65)"/><path d="M0 0 0 12.8239" stroke="#000000" stroke-width="2.93117" stroke-linejoin="round" fill="none" transform="matrix(1.00009 0 0 1 2103.29 1562.83)"/><path d="M31.4403 34.2535C26.8031 34.2535 23.1551 33.0118 20.4965 30.5283 17.8482 28.0448 16.5239 24.6339 16.5239 20.2955 16.5239 15.9469 17.8482 12.5308 20.4965 10.0473 23.1551 7.5638 26.8031 6.32206 31.4403 6.32206 36.0775 6.32206 39.7305 7.56896 42.3996 10.0627 45.0788 12.5668 46.4185 15.9778 46.4185 20.2955 46.4185 24.6339 45.0891 28.0448 42.4305 30.5283 39.7822 33.0118 36.1188 34.2535 31.4403 34.2535ZM21.6867 38.3961C17.5028 39.4266 14.2414 41.3743 11.9022 44.239 9.57326 47.1141 8.40881 50.6125 8.40881 54.7345 8.40881 60.495 10.4595 65.0497 14.5608 68.3988 18.6725 71.748 24.299 73.4225 31.4403 73.4225 38.6229 73.4225 44.2595 71.748 48.3506 68.3988 52.4417 65.0497 54.4872 60.495 54.4872 54.7345 54.4872 50.6125 53.3176 47.1141 50.9784 44.239 48.6494 41.3743 45.4086 39.4266 41.2557 38.3961 45.9547 37.3037 49.613 35.1604 52.2304 31.9658 54.8582 28.7816 56.1721 24.8915 56.1721 20.2955 56.1721 13.2985 54.039 7.92963 49.7727 4.18895 45.5065 0.458569 39.3957-1.40662 31.4403-1.40662 23.4952-1.40662 17.3844 0.458569 13.1078 4.18895 8.84161 7.92963 6.7085 13.2985 6.7085 20.2955 6.7085 24.8915 8.02752 28.7816 10.6656 31.9658 13.3139 35.1604 16.9876 37.3037 21.6867 38.3961ZM18.116 53.8071C18.116 50.0768 19.2804 47.1655 21.6094 45.0737 23.9486 42.9818 27.2255 41.9358 31.4403 41.9358 35.6343 41.9358 38.9113 42.9818 41.2712 45.0737 43.6412 47.1655 44.8264 50.0768 44.8264 53.8071 44.8264 57.5478 43.6412 60.4641 41.2712 62.556 38.9113 64.6478 35.6343 65.6938 31.4403 65.6938 27.2255 65.6938 23.9486 64.6478 21.6094 62.556 19.2804 60.4641 18.116 57.5478 18.116 53.8071Z" transform="matrix(1.00009 0 0 -1 2040.34 1663.65)"/><path d="M31.4403 65.6938C26.4217 65.6938 22.645 63.2206 20.11 58.2743 17.5854 53.3383 16.323 45.9084 16.323 35.9847 16.323 26.1024 17.5854 18.688 20.11 13.7416 22.645 8.79524 26.4217 6.32206 31.4403 6.32206 36.4999 6.32206 40.2923 8.79524 42.8169 13.7416 45.3519 18.688 46.6194 26.1024 46.6194 35.9847 46.6194 45.9084 45.3519 53.3383 42.8169 58.2743 40.2923 63.2206 36.4999 65.6938 31.4403 65.6938ZM31.4403 73.4225C39.5296 73.4225 45.7074 70.2228 49.9737 63.8235 54.2399 57.4345 56.373 48.1548 56.373 35.9847 56.373 23.8456 54.2399 14.5763 49.9737 8.17695 45.7074 1.78791 39.5296-1.40662 31.4403-1.40662 23.3612-1.40662 17.1886 1.78791 12.9224 8.17695 8.65613 14.5763 6.52301 23.8456 6.52301 35.9847 6.52301 48.1548 8.65613 57.4345 12.9224 63.8235 17.1886 70.2228 23.3612 73.4225 31.4403 73.4225Z" transform="matrix(1.00009 0 0 -1 2103.28 1663.65)"/><path d="M0 0 0 12.8239" stroke="#000000" stroke-width="2.93117" stroke-linejoin="round" fill="none" transform="matrix(1.00009 0 0 1 2425.01 1562.83)"/><path d="M12.2731 8.20786 28.2097 8.20786 28.2097 63.2361 10.8665 59.7582 10.8665 68.6462 28.1169 72.1241 37.8705 72.1241 37.8705 8.20786 53.8071 8.20786 53.8071 0 12.2731 0 12.2731 8.20786Z" transform="matrix(1.00009 0 0 -1 2330.59 1663.65)"/><path d="M31.4403 65.6938C26.4217 65.6938 22.645 63.2206 20.11 58.2743 17.5854 53.3383 16.323 45.9084 16.323 35.9847 16.323 26.1024 17.5854 18.688 20.11 13.7416 22.645 8.79524 26.4217 6.32206 31.4403 6.32206 36.4999 6.32206 40.2923 8.79524 42.8169 13.7416 45.3519 18.688 46.6194 26.1024 46.6194 35.9847 46.6194 45.9084 45.3519 53.3383 42.8169 58.2743 40.2923 63.2206 36.4999 65.6938 31.4403 65.6938ZM31.4403 73.4225C39.5296 73.4225 45.7074 70.2228 49.9737 63.8235 54.2399 57.4345 56.373 48.1548 56.373 35.9847 56.373 23.8456 54.2399 14.5763 49.9737 8.17695 45.7074 1.78791 39.5296-1.40662 31.4403-1.40662 23.3612-1.40662 17.1886 1.78791 12.9224 8.17695 8.65613 14.5763 6.52301 23.8456 6.52301 35.9847 6.52301 48.1548 8.65613 57.4345 12.9224 63.8235 17.1886 70.2228 23.3612 73.4225 31.4403 73.4225Z" transform="matrix(1.00009 0 0 -1 2393.54 1663.65)"/><path d="M31.4403 65.6938C26.4217 65.6938 22.645 63.2206 20.11 58.2743 17.5854 53.3383 16.323 45.9084 16.323 35.9847 16.323 26.1024 17.5854 18.688 20.11 13.7416 22.645 8.79524 26.4217 6.32206 31.4403 6.32206 36.4999 6.32206 40.2923 8.79524 42.8169 13.7416 45.3519 18.688 46.6194 26.1024 46.6194 35.9847 46.6194 45.9084 45.3519 53.3383 42.8169 58.2743 40.2923 63.2206 36.4999 65.6938 31.4403 65.6938ZM31.4403 73.4225C39.5296 73.4225 45.7074 70.2228 49.9737 63.8235 54.2399 57.4345 56.373 48.1548 56.373 35.9847 56.373 23.8456 54.2399 14.5763 49.9737 8.17695 45.7074 1.78791 39.5296-1.40662 31.4403-1.40662 23.3612-1.40662 17.1886 1.78791 12.9224 8.17695 8.65613 14.5763 6.52301 23.8456 6.52301 35.9847 6.52301 48.1548 8.65613 57.4345 12.9224 63.8235 17.1886 70.2228 23.3612 73.4225 31.4403 73.4225Z" transform="matrix(1.00009 0 0 -1 2456.49 1663.65)"/><path d="M0 0 0 12.8239" stroke="#000000" stroke-width="2.93117" stroke-linejoin="round" fill="none" transform="matrix(1.00009 0 0 1 2746.74 1562.83)"/><path d="M12.2731 8.20786 28.2097 8.20786 28.2097 63.2361 10.8665 59.7582 10.8665 68.6462 28.1169 72.1241 37.8705 72.1241 37.8705 8.20786 53.8071 8.20786 53.8071 0 12.2731 0 12.2731 8.20786Z" transform="matrix(1.00009 0 0 -1 2652.32 1663.65)"/><path d="M18.9816 8.20786 53.0342 8.20786 53.0342 0 7.2495 0 7.2495 8.20786C10.949 12.0413 15.9933 17.1835 22.3823 23.6343 28.7816 30.0955 32.8005 34.2639 34.439 36.1393 37.5614 39.643 39.7409 42.6109 40.9775 45.0428 42.2244 47.4747 42.8478 49.8655 42.8478 52.215 42.8478 56.0484 41.503 59.1708 38.8134 61.5821 36.1239 64.0039 32.6201 65.2146 28.3024 65.2146 25.2419 65.2146 22.0113 64.684 18.6107 63.6225 15.2204 62.5611 11.593 60.9484 7.72868 58.7844L7.72868 68.6462C11.6549 70.2228 15.3234 71.413 18.7343 72.2168 22.1555 73.0206 25.2831 73.4225 28.1169 73.4225 35.588 73.4225 41.5443 71.5521 45.9857 67.8115 50.427 64.0811 52.6478 59.0935 52.6478 52.8487 52.6478 49.8809 52.0913 47.0677 50.9784 44.409 49.8758 41.7607 47.856 38.6331 44.9191 35.0264 44.1153 34.0886 41.5545 31.3888 37.2368 26.9267 32.9293 22.4647 26.8443 16.2251 18.9816 8.20786Z" transform="matrix(1.00009 0 0 -1 2715.27 1663.65)"/><path d="M31.4403 65.6938C26.4217 65.6938 22.645 63.2206 20.11 58.2743 17.5854 53.3383 16.323 45.9084 16.323 35.9847 16.323 26.1024 17.5854 18.688 20.11 13.7416 22.645 8.79524 26.4217 6.32206 31.4403 6.32206 36.4999 6.32206 40.2923 8.79524 42.8169 13.7416 45.3519 18.688 46.6194 26.1024 46.6194 35.9847 46.6194 45.9084 45.3519 53.3383 42.8169 58.2743 40.2923 63.2206 36.4999 65.6938 31.4403 65.6938ZM31.4403 73.4225C39.5296 73.4225 45.7074 70.2228 49.9737 63.8235 54.2399 57.4345 56.373 48.1548 56.373 35.9847 56.373 23.8456 54.2399 14.5763 49.9737 8.17695 45.7074 1.78791 39.5296-1.40662 31.4403-1.40662 23.3612-1.40662 17.1886 1.78791 12.9224 8.17695 8.65613 14.5763 6.52301 23.8456 6.52301 35.9847 6.52301 48.1548 8.65613 57.4345 12.9224 63.8235 17.1886 70.2228 23.3612 73.4225 31.4403 73.4225Z" transform="matrix(1.00009 0 0 -1 2778.21 1663.65)"/><path d="M0 0 0 12.8239" stroke="#000000" stroke-width="2.93117" stroke-linejoin="round" fill="none" transform="matrix(1.00009 0 0 1 3068.47 1562.83)"/><path d="M12.2731 8.20786 28.2097 8.20786 28.2097 63.2361 10.8665 59.7582 10.8665 68.6462 28.1169 72.1241 37.8705 72.1241 37.8705 8.20786 53.8071 8.20786 53.8071 0 12.2731 0 12.2731 8.20786Z" transform="matrix(1.00009 0 0 -1 2974.05 1663.65)"/><path d="M37.3914 63.6225 12.7523 25.1182 37.3914 25.1182 37.3914 63.6225ZM34.8254 72.1241 47.0986 72.1241 47.0986 25.1182 57.3932 25.1182 57.3932 17.0031 47.0986 17.0031 47.0986 0 37.3914 0 37.3914 17.0031 4.83816 17.0031 4.83816 26.4166 34.8254 72.1241Z" transform="matrix(1.00009 0 0 -1 3036.99 1663.65)"/><path d="M31.4403 65.6938C26.4217 65.6938 22.645 63.2206 20.11 58.2743 17.5854 53.3383 16.323 45.9084 16.323 35.9847 16.323 26.1024 17.5854 18.688 20.11 13.7416 22.645 8.79524 26.4217 6.32206 31.4403 6.32206 36.4999 6.32206 40.2923 8.79524 42.8169 13.7416 45.3519 18.688 46.6194 26.1024 46.6194 35.9847 46.6194 45.9084 45.3519 53.3383 42.8169 58.2743 40.2923 63.2206 36.4999 65.6938 31.4403 65.6938ZM31.4403 73.4225C39.5296 73.4225 45.7074 70.2228 49.9737 63.8235 54.2399 57.4345 56.373 48.1548 56.373 35.9847 56.373 23.8456 54.2399 14.5763 49.9737 8.17695 45.7074 1.78791 39.5296-1.40662 31.4403-1.40662 23.3612-1.40662 17.1886 1.78791 12.9224 8.17695 8.65613 14.5763 6.52301 23.8456 6.52301 35.9847 6.52301 48.1548 8.65613 57.4345 12.9224 63.8235 17.1886 70.2228 23.3612 73.4225 31.4403 73.4225Z" transform="matrix(1.00009 0 0 -1 3099.94 1663.65)"/><path d="M9.70723 72.1241 19.4608 72.1241 19.4608 0 9.70723 0 9.70723 72.1241Z" transform="matrix(1.00009 0 0 -1 1795.3 1774.05)"/><path d="M18.116 69.4654 18.116 54.1008 36.4176 54.1008 36.4176 47.1913 18.116 47.1913 18.116 17.8223C18.116 13.4118 18.7189 10.578 19.9245 9.32079 21.1302 8.0636 23.5879 7.43499 27.2977 7.43499L36.4176 7.43499 36.4176 0 27.2977 0C20.4346 0 15.6996 1.27781 13.0924 3.83343 10.4852 6.39935 9.18167 11.0623 9.18167 17.8223L9.18167 47.1913 2.65867 47.1913 2.65867 54.1008 9.18167 54.1008 9.18167 69.4654 18.116 69.4654Z" transform="matrix(1.00009 0 0 -1 1824.48 1774.05)"/><path d="M55.6001 29.2763 55.6001 24.9327 14.7309 24.9327C15.1225 18.8116 16.9671 14.1486 20.2646 10.9438 23.5621 7.73899 28.1582 6.13657 34.0526 6.13657 37.4636 6.13657 40.7714 6.55392 43.9762 7.38862 47.181 8.22332 50.3652 9.48051 53.5289 11.1602L53.5289 2.75141C50.3343 1.40147 47.0626 0.370977 43.7134-0.340062 40.3643-1.0511 36.9689-1.40662 33.527-1.40662 24.8915-1.40662 18.0542 1.10262 13.0151 6.12112 7.976 11.1499 5.45645 17.9511 5.45645 26.5248 5.45645 35.3768 7.84719 42.3996 12.6287 47.5932 17.4101 52.7973 23.8611 55.3992 31.9813 55.3992 39.2566 55.3992 45.0118 53.0548 49.2472 48.3661 53.4825 43.6876 55.6001 37.3244 55.6001 29.2763ZM46.7122 31.8885C46.6503 36.7422 45.2901 40.6169 42.6314 43.5125 39.9727 46.4185 36.4536 47.8715 32.074 47.8715 27.1173 47.8715 23.15 46.4699 20.1719 43.6671 17.1937 40.8642 15.4779 36.9173 15.0246 31.8267L46.7122 31.8885Z" transform="matrix(1.00009 0 0 -1 1863.27 1774.05)"/><path d="M40.6683 45.8002C39.6687 46.3772 38.5816 46.7998 37.4068 47.0677 36.2321 47.3459 34.9387 47.485 33.527 47.485 28.4983 47.485 24.639 45.8517 21.9495 42.585 19.2599 39.3184 17.9151 34.6245 17.9151 28.5034L17.9151 0 8.98073 0 8.98073 54.1008 17.9151 54.1008 17.9151 45.692C19.7905 48.9793 22.2226 51.4163 25.211 53.0033 28.2097 54.6005 31.8525 55.3992 36.1393 55.3992 36.7473 55.3992 37.4223 55.3579 38.1642 55.2755 38.9062 55.2034 39.7254 55.0849 40.622 54.92L40.6683 45.8002Z" transform="matrix(1.00009 0 0 -1 1924.14 1774.05)"/><path d="M33.9135 27.1895C26.7309 27.1895 21.7536 26.3703 18.9816 24.7318 16.2097 23.0933 14.8236 20.2904 14.8236 16.323 14.8236 13.1697 15.8644 10.6656 17.946 8.8107 20.0276 6.96612 22.8511 6.04383 26.4166 6.04383 31.3526 6.04383 35.3097 7.79051 38.2879 11.2839 41.2661 14.7772 42.7551 19.4196 42.7551 25.211L42.7551 27.1895 33.9135 27.1895ZM51.6431 30.8684 51.6431 0 42.7551 0 42.7551 8.20786C40.7251 4.9309 38.1952 2.50924 35.1655 0.942899 32.1359-0.623447 28.4312-1.40662 24.0517-1.40662 18.5179-1.40662 14.1126 0.149421 10.8356 3.2615 7.56896 6.37358 5.93563 10.5368 5.93563 15.7511 5.93563 21.8309 7.97085 26.4166 12.0413 29.5081 16.122 32.5996 22.2019 34.1453 30.281 34.1453L42.7551 34.1453 42.7551 35.0264C42.7551 39.1175 41.4103 42.281 38.7207 44.5172 36.0311 46.7534 32.2544 47.8715 27.3905 47.8715 24.299 47.8715 21.2848 47.5005 18.3479 46.7585 15.4213 46.0166 12.6081 44.9036 9.90817 43.4197L9.90817 51.6431C13.1542 52.9002 16.3075 53.838 19.3681 54.4563 22.4286 55.0849 25.4068 55.3992 28.3024 55.3992 36.1342 55.3992 41.9822 53.3692 45.8465 49.309 49.7109 45.2592 51.6431 39.1122 51.6431 30.8684Z" transform="matrix(1.00009 0 0 -1 1964.81 1774.05)"/><path d="M18.116 69.4654 18.116 54.1008 36.4176 54.1008 36.4176 47.1913 18.116 47.1913 18.116 17.8223C18.116 13.4118 18.7189 10.578 19.9245 9.32079 21.1302 8.0636 23.5879 7.43499 27.2977 7.43499L36.4176 7.43499 36.4176 0 27.2977 0C20.4346 0 15.6996 1.27781 13.0924 3.83343 10.4852 6.39935 9.18167 11.0623 9.18167 17.8223L9.18167 47.1913 2.65867 47.1913 2.65867 54.1008 9.18167 54.1008 9.18167 69.4654 18.116 69.4654Z" transform="matrix(1.00009 0 0 -1 2025.44 1774.05)"/><path d="M9.32079 54.1008 18.2088 54.1008 18.2088 0 9.32079 0 9.32079 54.1008ZM9.32079 75.1692 18.2088 75.1692 18.2088 63.9007 9.32079 63.9007 9.32079 75.1692Z" transform="matrix(1.00009 0 0 -1 2064.23 1774.05)"/><path d="M30.281 47.8715C25.5201 47.8715 21.7536 46.0115 18.9816 42.2914 16.2097 38.5712 14.8236 33.4756 14.8236 27.004 14.8236 20.5325 16.1993 15.4368 18.9507 11.7167 21.7125 7.99661 25.4892 6.13657 30.281 6.13657 35.0213 6.13657 38.7722 8.00177 41.5339 11.7321 44.3059 15.4728 45.692 20.5634 45.692 27.004 45.692 33.4137 44.3059 38.4939 41.5339 42.245 38.7722 45.996 35.0213 47.8715 30.281 47.8715ZM30.281 55.3992C38.0097 55.3992 44.0793 52.8848 48.4898 47.856 52.9106 42.8375 55.121 35.8869 55.121 27.004 55.121 18.152 52.9106 11.2014 48.4898 6.15203 44.0793 1.11293 38.0097-1.40662 30.281-1.40662 22.5214-1.40662 16.4415 1.11293 12.0413 6.15203 7.6514 11.2014 5.45645 18.152 5.45645 27.004 5.45645 35.8869 7.6514 42.8375 12.0413 47.856 16.4415 52.8848 22.5214 55.3992 30.281 55.3992Z" transform="matrix(1.00009 0 0 -1 2091.72 1774.05)"/><path d="M54.3017 32.6614 54.3017 0 45.4137 0 45.4137 32.3677C45.4137 37.4892 44.4141 41.3175 42.415 43.8525 40.4159 46.3979 37.4223 47.6705 33.4343 47.6705 28.6321 47.6705 24.8451 46.1402 22.0731 43.0797 19.3011 40.0295 17.9151 35.8611 17.9151 30.5747L17.9151 0 8.98073 0 8.98073 54.1008 17.9151 54.1008 17.9151 45.692C20.0482 48.9484 22.5523 51.3803 25.4274 52.9879 28.3128 54.5954 31.6412 55.3992 35.4128 55.3992 41.6267 55.3992 46.3257 53.4774 49.5099 49.6336 52.7045 45.7898 54.3017 40.1324 54.3017 32.6614Z" transform="matrix(1.00009 0 0 -1 2152.25 1774.05)"/><path d="M43.8062 52.5087 43.8062 44.0999C41.3021 45.3879 38.6949 46.3515 35.9847 46.9904 33.2848 47.6396 30.4819 47.9642 27.5759 47.9642 23.1655 47.9642 19.8576 47.2892 17.6523 45.9393 15.4471 44.5894 14.3444 42.5592 14.3444 39.8491 14.3444 37.7882 15.1328 36.1702 16.7094 34.9955 18.2861 33.8207 21.4599 32.7027 26.2311 31.6412L29.2763 30.9611C35.5829 29.6112 40.0655 27.7047 42.7242 25.2419 45.3828 22.7791 46.7122 19.3423 46.7122 14.9318 46.7122 9.90302 44.7233 5.92017 40.7456 2.98327 36.768 0.0566771 31.3012-1.40662 24.3454-1.40662 21.4497-1.40662 18.4303-1.12324 15.2873-0.556465 12.1443 0.0103049 8.83647 0.855307 5.36371 1.97854L5.36371 11.1602C8.65098 9.4496 11.8867 8.16664 15.0709 7.31133 18.2551 6.46633 21.4136 6.04383 24.5463 6.04383 28.7301 6.04383 31.9453 6.76002 34.1917 8.1924 36.4485 9.62479 37.5769 11.6445 37.5769 14.2517 37.5769 16.663 36.7627 18.5128 35.1346 19.8009 33.5167 21.0889 29.9513 22.3308 24.4381 23.5261L21.3466 24.2526C15.8438 25.4068 11.8661 27.1844 9.41354 29.5854 6.97127 31.9864 5.75014 35.2788 5.75014 39.4627 5.75014 44.5532 7.5535 48.4794 11.1602 51.2412 14.7669 54.0131 19.8885 55.3992 26.5248 55.3992 29.8018 55.3992 32.8882 55.157 35.7838 54.6727 38.6898 54.1986 41.3639 53.4774 43.8062 52.5087Z" transform="matrix(1.00009 0 0 -1 2214.96 1774.05)"/><path d="M0 0-12.8239 0" stroke="#000000" stroke-width="2.93117" stroke-linejoin="round" fill="none" transform="matrix(1.00009 0 0 1 712.618 1402.41)"/><path d="M8.11512 72.1241 54.4872 72.1241 54.4872 67.966 28.3024 0 18.116 0 42.7551 63.9007 8.11512 63.9007 8.11512 72.1241Z" transform="matrix(1.00009 0 0 -1 372.228 1440)"/><path d="M8.11512 72.1241 54.4872 72.1241 54.4872 67.966 28.3024 0 18.116 0 42.7551 63.9007 8.11512 63.9007 8.11512 72.1241Z" transform="matrix(1.00009 0 0 -1 435.174 1440)"/><path d="M31.4403 34.2535C26.8031 34.2535 23.1551 33.0118 20.4965 30.5283 17.8482 28.0448 16.5239 24.6339 16.5239 20.2955 16.5239 15.9469 17.8482 12.5308 20.4965 10.0473 23.1551 7.5638 26.8031 6.32206 31.4403 6.32206 36.0775 6.32206 39.7305 7.56896 42.3996 10.0627 45.0788 12.5668 46.4185 15.9778 46.4185 20.2955 46.4185 24.6339 45.0891 28.0448 42.4305 30.5283 39.7822 33.0118 36.1188 34.2535 31.4403 34.2535ZM21.6867 38.3961C17.5028 39.4266 14.2414 41.3743 11.9022 44.239 9.57326 47.1141 8.40881 50.6125 8.40881 54.7345 8.40881 60.495 10.4595 65.0497 14.5608 68.3988 18.6725 71.748 24.299 73.4225 31.4403 73.4225 38.6229 73.4225 44.2595 71.748 48.3506 68.3988 52.4417 65.0497 54.4872 60.495 54.4872 54.7345 54.4872 50.6125 53.3176 47.1141 50.9784 44.239 48.6494 41.3743 45.4086 39.4266 41.2557 38.3961 45.9547 37.3037 49.613 35.1604 52.2304 31.9658 54.8582 28.7816 56.1721 24.8915 56.1721 20.2955 56.1721 13.2985 54.039 7.92963 49.7727 4.18895 45.5065 0.458569 39.3957-1.40662 31.4403-1.40662 23.4952-1.40662 17.3844 0.458569 13.1078 4.18895 8.84161 7.92963 6.7085 13.2985 6.7085 20.2955 6.7085 24.8915 8.02752 28.7816 10.6656 31.9658 13.3139 35.1604 16.9876 37.3037 21.6867 38.3961ZM18.116 53.8071C18.116 50.0768 19.2804 47.1655 21.6094 45.0737 23.9486 42.9818 27.2255 41.9358 31.4403 41.9358 35.6343 41.9358 38.9113 42.9818 41.2712 45.0737 43.6412 47.1655 44.8264 50.0768 44.8264 53.8071 44.8264 57.5478 43.6412 60.4641 41.2712 62.556 38.9113 64.6478 35.6343 65.6938 31.4403 65.6938 27.2255 65.6938 23.9486 64.6478 21.6094 62.556 19.2804 60.4641 18.116 57.5478 18.116 53.8071Z" transform="matrix(1.00009 0 0 -1 498.12 1440)"/><path d="M31.4403 65.6938C26.4217 65.6938 22.645 63.2206 20.11 58.2743 17.5854 53.3383 16.323 45.9084 16.323 35.9847 16.323 26.1024 17.5854 18.688 20.11 13.7416 22.645 8.79524 26.4217 6.32206 31.4403 6.32206 36.4999 6.32206 40.2923 8.79524 42.8169 13.7416 45.3519 18.688 46.6194 26.1024 46.6194 35.9847 46.6194 45.9084 45.3519 53.3383 42.8169 58.2743 40.2923 63.2206 36.4999 65.6938 31.4403 65.6938ZM31.4403 73.4225C39.5296 73.4225 45.7074 70.2228 49.9737 63.8235 54.2399 57.4345 56.373 48.1548 56.373 35.9847 56.373 23.8456 54.2399 14.5763 49.9737 8.17695 45.7074 1.78791 39.5296-1.40662 31.4403-1.40662 23.3612-1.40662 17.1886 1.78791 12.9224 8.17695 8.65613 14.5763 6.52301 23.8456 6.52301 35.9847 6.52301 48.1548 8.65613 57.4345 12.9224 63.8235 17.1886 70.2228 23.3612 73.4225 31.4403 73.4225Z" transform="matrix(1.00009 0 0 -1 561.066 1440)"/><path d="M31.4403 65.6938C26.4217 65.6938 22.645 63.2206 20.11 58.2743 17.5854 53.3383 16.323 45.9084 16.323 35.9847 16.323 26.1024 17.5854 18.688 20.11 13.7416 22.645 8.79524 26.4217 6.32206 31.4403 6.32206 36.4999 6.32206 40.2923 8.79524 42.8169 13.7416 45.3519 18.688 46.6194 26.1024 46.6194 35.9847 46.6194 45.9084 45.3519 53.3383 42.8169 58.2743 40.2923 63.2206 36.4999 65.6938 31.4403 65.6938ZM31.4403 73.4225C39.5296 73.4225 45.7074 70.2228 49.9737 63.8235 54.2399 57.4345 56.373 48.1548 56.373 35.9847 56.373 23.8456 54.2399 14.5763 49.9737 8.17695 45.7074 1.78791 39.5296-1.40662 31.4403-1.40662 23.3612-1.40662 17.1886 1.78791 12.9224 8.17695 8.65613 14.5763 6.52301 23.8456 6.52301 35.9847 6.52301 48.1548 8.65613 57.4345 12.9224 63.8235 17.1886 70.2228 23.3612 73.4225 31.4403 73.4225Z" transform="matrix(1.00009 0 0 -1 624.011 1440)"/><path d="M0 0-12.8239 0" stroke="#000000" stroke-width="2.93117" stroke-linejoin="round" fill="none" transform="matrix(1.00009 0 0 1 712.618 1227.91)"/><path d="M8.11512 72.1241 54.4872 72.1241 54.4872 67.966 28.3024 0 18.116 0 42.7551 63.9007 8.11512 63.9007 8.11512 72.1241Z" transform="matrix(1.00009 0 0 -1 372.228 1265.5)"/><path d="M8.11512 72.1241 54.4872 72.1241 54.4872 67.966 28.3024 0 18.116 0 42.7551 63.9007 8.11512 63.9007 8.11512 72.1241Z" transform="matrix(1.00009 0 0 -1 435.174 1265.5)"/><path d="M10.8665 1.49936 10.8665 10.3874C13.3191 9.2229 15.7974 8.33667 18.3015 7.72868 20.816 7.1207 23.2839 6.8167 25.7056 6.8167 32.1462 6.8167 37.0617 8.98073 40.4519 13.3088 43.8525 17.6369 45.7951 24.2166 46.2794 33.0478 44.4141 30.2759 42.044 28.1479 39.169 26.664 36.3042 25.18 33.1355 24.4381 29.6627 24.4381 22.4492 24.4381 16.7403 26.6176 12.5359 30.9766 8.33152 35.3459 6.22932 41.3175 6.22932 48.8916 6.22932 56.2906 8.41912 62.2263 12.7987 66.6985 17.1782 71.1812 23.0057 73.4225 30.281 73.4225 38.628 73.4225 44.9964 70.2228 49.3863 63.8235 53.7865 57.4345 55.9866 48.1548 55.9866 35.9847 55.9866 24.6185 53.2866 15.545 47.8869 8.76433 42.4974 1.98369 35.2479-1.40662 26.1384-1.40662 23.6858-1.40662 21.2024-1.16445 18.688-0.680124 16.1839-0.195794 13.5767 0.530702 10.8665 1.49936ZM30.281 32.074C34.6605 32.074 38.1282 33.5683 40.6838 36.5567 43.2497 39.5554 44.5327 43.6671 44.5327 48.8916 44.5327 54.075 43.2497 58.1712 40.6838 61.1803 38.1282 64.1893 34.6605 65.6938 30.281 65.6938 25.9014 65.6938 22.4337 64.1893 19.8782 61.1803 17.3226 58.1712 16.0447 54.075 16.0447 48.8916 16.0447 43.6671 17.3226 39.5554 19.8782 36.5567 22.4337 33.5683 25.9014 32.074 30.281 32.074Z" transform="matrix(1.00009 0 0 -1 498.12 1265.5)"/><path d="M31.4403 65.6938C26.4217 65.6938 22.645 63.2206 20.11 58.2743 17.5854 53.3383 16.323 45.9084 16.323 35.9847 16.323 26.1024 17.5854 18.688 20.11 13.7416 22.645 8.79524 26.4217 6.32206 31.4403 6.32206 36.4999 6.32206 40.2923 8.79524 42.8169 13.7416 45.3519 18.688 46.6194 26.1024 46.6194 35.9847 46.6194 45.9084 45.3519 53.3383 42.8169 58.2743 40.2923 63.2206 36.4999 65.6938 31.4403 65.6938ZM31.4403 73.4225C39.5296 73.4225 45.7074 70.2228 49.9737 63.8235 54.2399 57.4345 56.373 48.1548 56.373 35.9847 56.373 23.8456 54.2399 14.5763 49.9737 8.17695 45.7074 1.78791 39.5296-1.40662 31.4403-1.40662 23.3612-1.40662 17.1886 1.78791 12.9224 8.17695 8.65613 14.5763 6.52301 23.8456 6.52301 35.9847 6.52301 48.1548 8.65613 57.4345 12.9224 63.8235 17.1886 70.2228 23.3612 73.4225 31.4403 73.4225Z" transform="matrix(1.00009 0 0 -1 561.066 1265.5)"/><path d="M31.4403 65.6938C26.4217 65.6938 22.645 63.2206 20.11 58.2743 17.5854 53.3383 16.323 45.9084 16.323 35.9847 16.323 26.1024 17.5854 18.688 20.11 13.7416 22.645 8.79524 26.4217 6.32206 31.4403 6.32206 36.4999 6.32206 40.2923 8.79524 42.8169 13.7416 45.3519 18.688 46.6194 26.1024 46.6194 35.9847 46.6194 45.9084 45.3519 53.3383 42.8169 58.2743 40.2923 63.2206 36.4999 65.6938 31.4403 65.6938ZM31.4403 73.4225C39.5296 73.4225 45.7074 70.2228 49.9737 63.8235 54.2399 57.4345 56.373 48.1548 56.373 35.9847 56.373 23.8456 54.2399 14.5763 49.9737 8.17695 45.7074 1.78791 39.5296-1.40662 31.4403-1.40662 23.3612-1.40662 17.1886 1.78791 12.9224 8.17695 8.65613 14.5763 6.52301 23.8456 6.52301 35.9847 6.52301 48.1548 8.65613 57.4345 12.9224 63.8235 17.1886 70.2228 23.3612 73.4225 31.4403 73.4225Z" transform="matrix(1.00009 0 0 -1 624.011 1265.5)"/><path d="M0 0-12.8239 0" stroke="#000000" stroke-width="2.93117" stroke-linejoin="round" fill="none" transform="matrix(1.00009 0 0 1 712.618 1053.41)"/><path d="M8.11512 72.1241 54.4872 72.1241 54.4872 67.966 28.3024 0 18.116 0 42.7551 63.9007 8.11512 63.9007 8.11512 72.1241Z" transform="matrix(1.00009 0 0 -1 372.228 1091)"/><path d="M31.4403 34.2535C26.8031 34.2535 23.1551 33.0118 20.4965 30.5283 17.8482 28.0448 16.5239 24.6339 16.5239 20.2955 16.5239 15.9469 17.8482 12.5308 20.4965 10.0473 23.1551 7.5638 26.8031 6.32206 31.4403 6.32206 36.0775 6.32206 39.7305 7.56896 42.3996 10.0627 45.0788 12.5668 46.4185 15.9778 46.4185 20.2955 46.4185 24.6339 45.0891 28.0448 42.4305 30.5283 39.7822 33.0118 36.1188 34.2535 31.4403 34.2535ZM21.6867 38.3961C17.5028 39.4266 14.2414 41.3743 11.9022 44.239 9.57326 47.1141 8.40881 50.6125 8.40881 54.7345 8.40881 60.495 10.4595 65.0497 14.5608 68.3988 18.6725 71.748 24.299 73.4225 31.4403 73.4225 38.6229 73.4225 44.2595 71.748 48.3506 68.3988 52.4417 65.0497 54.4872 60.495 54.4872 54.7345 54.4872 50.6125 53.3176 47.1141 50.9784 44.239 48.6494 41.3743 45.4086 39.4266 41.2557 38.3961 45.9547 37.3037 49.613 35.1604 52.2304 31.9658 54.8582 28.7816 56.1721 24.8915 56.1721 20.2955 56.1721 13.2985 54.039 7.92963 49.7727 4.18895 45.5065 0.458569 39.3957-1.40662 31.4403-1.40662 23.4952-1.40662 17.3844 0.458569 13.1078 4.18895 8.84161 7.92963 6.7085 13.2985 6.7085 20.2955 6.7085 24.8915 8.02752 28.7816 10.6656 31.9658 13.3139 35.1604 16.9876 37.3037 21.6867 38.3961ZM18.116 53.8071C18.116 50.0768 19.2804 47.1655 21.6094 45.0737 23.9486 42.9818 27.2255 41.9358 31.4403 41.9358 35.6343 41.9358 38.9113 42.9818 41.2712 45.0737 43.6412 47.1655 44.8264 50.0768 44.8264 53.8071 44.8264 57.5478 43.6412 60.4641 41.2712 62.556 38.9113 64.6478 35.6343 65.6938 31.4403 65.6938 27.2255 65.6938 23.9486 64.6478 21.6094 62.556 19.2804 60.4641 18.116 57.5478 18.116 53.8071Z" transform="matrix(1.00009 0 0 -1 435.174 1091)"/><path d="M31.4403 65.6938C26.4217 65.6938 22.645 63.2206 20.11 58.2743 17.5854 53.3383 16.323 45.9084 16.323 35.9847 16.323 26.1024 17.5854 18.688 20.11 13.7416 22.645 8.79524 26.4217 6.32206 31.4403 6.32206 36.4999 6.32206 40.2923 8.79524 42.8169 13.7416 45.3519 18.688 46.6194 26.1024 46.6194 35.9847 46.6194 45.9084 45.3519 53.3383 42.8169 58.2743 40.2923 63.2206 36.4999 65.6938 31.4403 65.6938ZM31.4403 73.4225C39.5296 73.4225 45.7074 70.2228 49.9737 63.8235 54.2399 57.4345 56.373 48.1548 56.373 35.9847 56.373 23.8456 54.2399 14.5763 49.9737 8.17695 45.7074 1.78791 39.5296-1.40662 31.4403-1.40662 23.3612-1.40662 17.1886 1.78791 12.9224 8.17695 8.65613 14.5763 6.52301 23.8456 6.52301 35.9847 6.52301 48.1548 8.65613 57.4345 12.9224 63.8235 17.1886 70.2228 23.3612 73.4225 31.4403 73.4225Z" transform="matrix(1.00009 0 0 -1 498.12 1091)"/><path d="M31.4403 65.6938C26.4217 65.6938 22.645 63.2206 20.11 58.2743 17.5854 53.3383 16.323 45.9084 16.323 35.9847 16.323 26.1024 17.5854 18.688 20.11 13.7416 22.645 8.79524 26.4217 6.32206 31.4403 6.32206 36.4999 6.32206 40.2923 8.79524 42.8169 13.7416 45.3519 18.688 46.6194 26.1024 46.6194 35.9847 46.6194 45.9084 45.3519 53.3383 42.8169 58.2743 40.2923 63.2206 36.4999 65.6938 31.4403 65.6938ZM31.4403 73.4225C39.5296 73.4225 45.7074 70.2228 49.9737 63.8235 54.2399 57.4345 56.373 48.1548 56.373 35.9847 56.373 23.8456 54.2399 14.5763 49.9737 8.17695 45.7074 1.78791 39.5296-1.40662 31.4403-1.40662 23.3612-1.40662 17.1886 1.78791 12.9224 8.17695 8.65613 14.5763 6.52301 23.8456 6.52301 35.9847 6.52301 48.1548 8.65613 57.4345 12.9224 63.8235 17.1886 70.2228 23.3612 73.4225 31.4403 73.4225Z" transform="matrix(1.00009 0 0 -1 561.066 1091)"/><path d="M31.4403 65.6938C26.4217 65.6938 22.645 63.2206 20.11 58.2743 17.5854 53.3383 16.323 45.9084 16.323 35.9847 16.323 26.1024 17.5854 18.688 20.11 13.7416 22.645 8.79524 26.4217 6.32206 31.4403 6.32206 36.4999 6.32206 40.2923 8.79524 42.8169 13.7416 45.3519 18.688 46.6194 26.1024 46.6194 35.9847 46.6194 45.9084 45.3519 53.3383 42.8169 58.2743 40.2923 63.2206 36.4999 65.6938 31.4403 65.6938ZM31.4403 73.4225C39.5296 73.4225 45.7074 70.2228 49.9737 63.8235 54.2399 57.4345 56.373 48.1548 56.373 35.9847 56.373 23.8456 54.2399 14.5763 49.9737 8.17695 45.7074 1.78791 39.5296-1.40662 31.4403-1.40662 23.3612-1.40662 17.1886 1.78791 12.9224 8.17695 8.65613 14.5763 6.52301 23.8456 6.52301 35.9847 6.52301 48.1548 8.65613 57.4345 12.9224 63.8235 17.1886 70.2228 23.3612 73.4225 31.4403 73.4225Z" transform="matrix(1.00009 0 0 -1 624.011 1091)"/><path d="M0 0-12.8239 0" stroke="#000000" stroke-width="2.93117" stroke-linejoin="round" fill="none" transform="matrix(1.00009 0 0 1 712.618 878.917)"/><path d="M8.11512 72.1241 54.4872 72.1241 54.4872 67.966 28.3024 0 18.116 0 42.7551 63.9007 8.11512 63.9007 8.11512 72.1241Z" transform="matrix(1.00009 0 0 -1 372.228 916.498)"/><path d="M31.4403 34.2535C26.8031 34.2535 23.1551 33.0118 20.4965 30.5283 17.8482 28.0448 16.5239 24.6339 16.5239 20.2955 16.5239 15.9469 17.8482 12.5308 20.4965 10.0473 23.1551 7.5638 26.8031 6.32206 31.4403 6.32206 36.0775 6.32206 39.7305 7.56896 42.3996 10.0627 45.0788 12.5668 46.4185 15.9778 46.4185 20.2955 46.4185 24.6339 45.0891 28.0448 42.4305 30.5283 39.7822 33.0118 36.1188 34.2535 31.4403 34.2535ZM21.6867 38.3961C17.5028 39.4266 14.2414 41.3743 11.9022 44.239 9.57326 47.1141 8.40881 50.6125 8.40881 54.7345 8.40881 60.495 10.4595 65.0497 14.5608 68.3988 18.6725 71.748 24.299 73.4225 31.4403 73.4225 38.6229 73.4225 44.2595 71.748 48.3506 68.3988 52.4417 65.0497 54.4872 60.495 54.4872 54.7345 54.4872 50.6125 53.3176 47.1141 50.9784 44.239 48.6494 41.3743 45.4086 39.4266 41.2557 38.3961 45.9547 37.3037 49.613 35.1604 52.2304 31.9658 54.8582 28.7816 56.1721 24.8915 56.1721 20.2955 56.1721 13.2985 54.039 7.92963 49.7727 4.18895 45.5065 0.458569 39.3957-1.40662 31.4403-1.40662 23.4952-1.40662 17.3844 0.458569 13.1078 4.18895 8.84161 7.92963 6.7085 13.2985 6.7085 20.2955 6.7085 24.8915 8.02752 28.7816 10.6656 31.9658 13.3139 35.1604 16.9876 37.3037 21.6867 38.3961ZM18.116 53.8071C18.116 50.0768 19.2804 47.1655 21.6094 45.0737 23.9486 42.9818 27.2255 41.9358 31.4403 41.9358 35.6343 41.9358 38.9113 42.9818 41.2712 45.0737 43.6412 47.1655 44.8264 50.0768 44.8264 53.8071 44.8264 57.5478 43.6412 60.4641 41.2712 62.556 38.9113 64.6478 35.6343 65.6938 31.4403 65.6938 27.2255 65.6938 23.9486 64.6478 21.6094 62.556 19.2804 60.4641 18.116 57.5478 18.116 53.8071Z" transform="matrix(1.00009 0 0 -1 435.174 916.498)"/><path d="M12.2731 8.20786 28.2097 8.20786 28.2097 63.2361 10.8665 59.7582 10.8665 68.6462 28.1169 72.1241 37.8705 72.1241 37.8705 8.20786 53.8071 8.20786 53.8071 0 12.2731 0 12.2731 8.20786Z" transform="matrix(1.00009 0 0 -1 498.12 916.498)"/><path d="M31.4403 65.6938C26.4217 65.6938 22.645 63.2206 20.11 58.2743 17.5854 53.3383 16.323 45.9084 16.323 35.9847 16.323 26.1024 17.5854 18.688 20.11 13.7416 22.645 8.79524 26.4217 6.32206 31.4403 6.32206 36.4999 6.32206 40.2923 8.79524 42.8169 13.7416 45.3519 18.688 46.6194 26.1024 46.6194 35.9847 46.6194 45.9084 45.3519 53.3383 42.8169 58.2743 40.2923 63.2206 36.4999 65.6938 31.4403 65.6938ZM31.4403 73.4225C39.5296 73.4225 45.7074 70.2228 49.9737 63.8235 54.2399 57.4345 56.373 48.1548 56.373 35.9847 56.373 23.8456 54.2399 14.5763 49.9737 8.17695 45.7074 1.78791 39.5296-1.40662 31.4403-1.40662 23.3612-1.40662 17.1886 1.78791 12.9224 8.17695 8.65613 14.5763 6.52301 23.8456 6.52301 35.9847 6.52301 48.1548 8.65613 57.4345 12.9224 63.8235 17.1886 70.2228 23.3612 73.4225 31.4403 73.4225Z" transform="matrix(1.00009 0 0 -1 561.066 916.498)"/><path d="M31.4403 65.6938C26.4217 65.6938 22.645 63.2206 20.11 58.2743 17.5854 53.3383 16.323 45.9084 16.323 35.9847 16.323 26.1024 17.5854 18.688 20.11 13.7416 22.645 8.79524 26.4217 6.32206 31.4403 6.32206 36.4999 6.32206 40.2923 8.79524 42.8169 13.7416 45.3519 18.688 46.6194 26.1024 46.6194 35.9847 46.6194 45.9084 45.3519 53.3383 42.8169 58.2743 40.2923 63.2206 36.4999 65.6938 31.4403 65.6938ZM31.4403 73.4225C39.5296 73.4225 45.7074 70.2228 49.9737 63.8235 54.2399 57.4345 56.373 48.1548 56.373 35.9847 56.373 23.8456 54.2399 14.5763 49.9737 8.17695 45.7074 1.78791 39.5296-1.40662 31.4403-1.40662 23.3612-1.40662 17.1886 1.78791 12.9224 8.17695 8.65613 14.5763 6.52301 23.8456 6.52301 35.9847 6.52301 48.1548 8.65613 57.4345 12.9224 63.8235 17.1886 70.2228 23.3612 73.4225 31.4403 73.4225Z" transform="matrix(1.00009 0 0 -1 624.011 916.498)"/><path d="M0 0-12.8239 0" stroke="#000000" stroke-width="2.93117" stroke-linejoin="round" fill="none" transform="matrix(1.00009 0 0 1 712.618 704.417)"/><path d="M8.11512 72.1241 54.4872 72.1241 54.4872 67.966 28.3024 0 18.116 0 42.7551 63.9007 8.11512 63.9007 8.11512 72.1241Z" transform="matrix(1.00009 0 0 -1 372.228 742.002)"/><path d="M31.4403 34.2535C26.8031 34.2535 23.1551 33.0118 20.4965 30.5283 17.8482 28.0448 16.5239 24.6339 16.5239 20.2955 16.5239 15.9469 17.8482 12.5308 20.4965 10.0473 23.1551 7.5638 26.8031 6.32206 31.4403 6.32206 36.0775 6.32206 39.7305 7.56896 42.3996 10.0627 45.0788 12.5668 46.4185 15.9778 46.4185 20.2955 46.4185 24.6339 45.0891 28.0448 42.4305 30.5283 39.7822 33.0118 36.1188 34.2535 31.4403 34.2535ZM21.6867 38.3961C17.5028 39.4266 14.2414 41.3743 11.9022 44.239 9.57326 47.1141 8.40881 50.6125 8.40881 54.7345 8.40881 60.495 10.4595 65.0497 14.5608 68.3988 18.6725 71.748 24.299 73.4225 31.4403 73.4225 38.6229 73.4225 44.2595 71.748 48.3506 68.3988 52.4417 65.0497 54.4872 60.495 54.4872 54.7345 54.4872 50.6125 53.3176 47.1141 50.9784 44.239 48.6494 41.3743 45.4086 39.4266 41.2557 38.3961 45.9547 37.3037 49.613 35.1604 52.2304 31.9658 54.8582 28.7816 56.1721 24.8915 56.1721 20.2955 56.1721 13.2985 54.039 7.92963 49.7727 4.18895 45.5065 0.458569 39.3957-1.40662 31.4403-1.40662 23.4952-1.40662 17.3844 0.458569 13.1078 4.18895 8.84161 7.92963 6.7085 13.2985 6.7085 20.2955 6.7085 24.8915 8.02752 28.7816 10.6656 31.9658 13.3139 35.1604 16.9876 37.3037 21.6867 38.3961ZM18.116 53.8071C18.116 50.0768 19.2804 47.1655 21.6094 45.0737 23.9486 42.9818 27.2255 41.9358 31.4403 41.9358 35.6343 41.9358 38.9113 42.9818 41.2712 45.0737 43.6412 47.1655 44.8264 50.0768 44.8264 53.8071 44.8264 57.5478 43.6412 60.4641 41.2712 62.556 38.9113 64.6478 35.6343 65.6938 31.4403 65.6938 27.2255 65.6938 23.9486 64.6478 21.6094 62.556 19.2804 60.4641 18.116 57.5478 18.116 53.8071Z" transform="matrix(1.00009 0 0 -1 435.174 742.002)"/><path d="M18.9816 8.20786 53.0342 8.20786 53.0342 0 7.2495 0 7.2495 8.20786C10.949 12.0413 15.9933 17.1835 22.3823 23.6343 28.7816 30.0955 32.8005 34.2639 34.439 36.1393 37.5614 39.643 39.7409 42.6109 40.9775 45.0428 42.2244 47.4747 42.8478 49.8655 42.8478 52.215 42.8478 56.0484 41.503 59.1708 38.8134 61.5821 36.1239 64.0039 32.6201 65.2146 28.3024 65.2146 25.2419 65.2146 22.0113 64.684 18.6107 63.6225 15.2204 62.5611 11.593 60.9484 7.72868 58.7844L7.72868 68.6462C11.6549 70.2228 15.3234 71.413 18.7343 72.2168 22.1555 73.0206 25.2831 73.4225 28.1169 73.4225 35.588 73.4225 41.5443 71.5521 45.9857 67.8115 50.427 64.0811 52.6478 59.0935 52.6478 52.8487 52.6478 49.8809 52.0913 47.0677 50.9784 44.409 49.8758 41.7607 47.856 38.6331 44.9191 35.0264 44.1153 34.0886 41.5545 31.3888 37.2368 26.9267 32.9293 22.4647 26.8443 16.2251 18.9816 8.20786Z" transform="matrix(1.00009 0 0 -1 498.12 742.002)"/><path d="M31.4403 65.6938C26.4217 65.6938 22.645 63.2206 20.11 58.2743 17.5854 53.3383 16.323 45.9084 16.323 35.9847 16.323 26.1024 17.5854 18.688 20.11 13.7416 22.645 8.79524 26.4217 6.32206 31.4403 6.32206 36.4999 6.32206 40.2923 8.79524 42.8169 13.7416 45.3519 18.688 46.6194 26.1024 46.6194 35.9847 46.6194 45.9084 45.3519 53.3383 42.8169 58.2743 40.2923 63.2206 36.4999 65.6938 31.4403 65.6938ZM31.4403 73.4225C39.5296 73.4225 45.7074 70.2228 49.9737 63.8235 54.2399 57.4345 56.373 48.1548 56.373 35.9847 56.373 23.8456 54.2399 14.5763 49.9737 8.17695 45.7074 1.78791 39.5296-1.40662 31.4403-1.40662 23.3612-1.40662 17.1886 1.78791 12.9224 8.17695 8.65613 14.5763 6.52301 23.8456 6.52301 35.9847 6.52301 48.1548 8.65613 57.4345 12.9224 63.8235 17.1886 70.2228 23.3612 73.4225 31.4403 73.4225Z" transform="matrix(1.00009 0 0 -1 561.066 742.002)"/><path d="M31.4403 65.6938C26.4217 65.6938 22.645 63.2206 20.11 58.2743 17.5854 53.3383 16.323 45.9084 16.323 35.9847 16.323 26.1024 17.5854 18.688 20.11 13.7416 22.645 8.79524 26.4217 6.32206 31.4403 6.32206 36.4999 6.32206 40.2923 8.79524 42.8169 13.7416 45.3519 18.688 46.6194 26.1024 46.6194 35.9847 46.6194 45.9084 45.3519 53.3383 42.8169 58.2743 40.2923 63.2206 36.4999 65.6938 31.4403 65.6938ZM31.4403 73.4225C39.5296 73.4225 45.7074 70.2228 49.9737 63.8235 54.2399 57.4345 56.373 48.1548 56.373 35.9847 56.373 23.8456 54.2399 14.5763 49.9737 8.17695 45.7074 1.78791 39.5296-1.40662 31.4403-1.40662 23.3612-1.40662 17.1886 1.78791 12.9224 8.17695 8.65613 14.5763 6.52301 23.8456 6.52301 35.9847 6.52301 48.1548 8.65613 57.4345 12.9224 63.8235 17.1886 70.2228 23.3612 73.4225 31.4403 73.4225Z" transform="matrix(1.00009 0 0 -1 624.011 742.002)"/><path d="M0 0-12.8239 0" stroke="#000000" stroke-width="2.93117" stroke-linejoin="round" fill="none" transform="matrix(1.00009 0 0 1 712.618 529.916)"/><path d="M8.11512 72.1241 54.4872 72.1241 54.4872 67.966 28.3024 0 18.116 0 42.7551 63.9007 8.11512 63.9007 8.11512 72.1241Z" transform="matrix(1.00009 0 0 -1 372.228 567.501)"/><path d="M31.4403 34.2535C26.8031 34.2535 23.1551 33.0118 20.4965 30.5283 17.8482 28.0448 16.5239 24.6339 16.5239 20.2955 16.5239 15.9469 17.8482 12.5308 20.4965 10.0473 23.1551 7.5638 26.8031 6.32206 31.4403 6.32206 36.0775 6.32206 39.7305 7.56896 42.3996 10.0627 45.0788 12.5668 46.4185 15.9778 46.4185 20.2955 46.4185 24.6339 45.0891 28.0448 42.4305 30.5283 39.7822 33.0118 36.1188 34.2535 31.4403 34.2535ZM21.6867 38.3961C17.5028 39.4266 14.2414 41.3743 11.9022 44.239 9.57326 47.1141 8.40881 50.6125 8.40881 54.7345 8.40881 60.495 10.4595 65.0497 14.5608 68.3988 18.6725 71.748 24.299 73.4225 31.4403 73.4225 38.6229 73.4225 44.2595 71.748 48.3506 68.3988 52.4417 65.0497 54.4872 60.495 54.4872 54.7345 54.4872 50.6125 53.3176 47.1141 50.9784 44.239 48.6494 41.3743 45.4086 39.4266 41.2557 38.3961 45.9547 37.3037 49.613 35.1604 52.2304 31.9658 54.8582 28.7816 56.1721 24.8915 56.1721 20.2955 56.1721 13.2985 54.039 7.92963 49.7727 4.18895 45.5065 0.458569 39.3957-1.40662 31.4403-1.40662 23.4952-1.40662 17.3844 0.458569 13.1078 4.18895 8.84161 7.92963 6.7085 13.2985 6.7085 20.2955 6.7085 24.8915 8.02752 28.7816 10.6656 31.9658 13.3139 35.1604 16.9876 37.3037 21.6867 38.3961ZM18.116 53.8071C18.116 50.0768 19.2804 47.1655 21.6094 45.0737 23.9486 42.9818 27.2255 41.9358 31.4403 41.9358 35.6343 41.9358 38.9113 42.9818 41.2712 45.0737 43.6412 47.1655 44.8264 50.0768 44.8264 53.8071 44.8264 57.5478 43.6412 60.4641 41.2712 62.556 38.9113 64.6478 35.6343 65.6938 31.4403 65.6938 27.2255 65.6938 23.9486 64.6478 21.6094 62.556 19.2804 60.4641 18.116 57.5478 18.116 53.8071Z" transform="matrix(1.00009 0 0 -1 435.174 567.501)"/><path d="M40.1428 38.8907C44.8109 37.8911 48.4537 35.8096 51.0711 32.646 53.6989 29.4927 55.0128 25.5974 55.0128 20.9602 55.0128 13.8498 52.5654 8.34183 47.6705 4.43626 42.7756 0.541008 35.8198-1.40662 26.8031-1.40662 23.7838-1.40662 20.6716-1.10778 17.4668-0.510093 14.262 0.0875918 10.9541 0.984119 7.54319 2.17949L7.54319 11.593C10.2431 10.0164 13.2006 8.82616 16.4157 8.02237 19.6412 7.21859 23.0109 6.8167 26.5248 6.8167 32.6356 6.8167 37.2935 8.02237 40.4983 10.4337 43.7031 12.8451 45.3055 16.3539 45.3055 20.9602 45.3055 25.2161 43.8165 28.5394 40.8384 30.9302 37.8602 33.3312 33.7176 34.5318 28.4106 34.5318L20.0018 34.5318 20.0018 42.5541 28.7971 42.5541C33.5889 42.5541 37.2574 43.5125 39.8027 45.4292 42.3481 47.3459 43.6207 50.1077 43.6207 53.7143 43.6207 57.4138 42.3068 60.2528 39.6791 62.2314 37.0617 64.2203 33.3055 65.2146 28.4106 65.2146 25.7314 65.2146 22.8614 64.9209 19.8009 64.3336 16.7403 63.7565 13.3758 62.86 9.70723 61.644L9.70723 70.331C13.417 71.3616 16.8898 72.1344 20.1255 72.6496 23.3612 73.1648 26.4115 73.4225 29.2763 73.4225 36.6854 73.4225 42.5438 71.7376 46.8513 68.3679 51.169 65.0086 53.3279 60.4641 53.3279 54.7345 53.3279 50.7362 52.1841 47.3614 49.8964 44.61 47.6087 41.8585 44.3575 39.9522 40.1428 38.8907Z" transform="matrix(1.00009 0 0 -1 498.12 567.501)"/><path d="M31.4403 65.6938C26.4217 65.6938 22.645 63.2206 20.11 58.2743 17.5854 53.3383 16.323 45.9084 16.323 35.9847 16.323 26.1024 17.5854 18.688 20.11 13.7416 22.645 8.79524 26.4217 6.32206 31.4403 6.32206 36.4999 6.32206 40.2923 8.79524 42.8169 13.7416 45.3519 18.688 46.6194 26.1024 46.6194 35.9847 46.6194 45.9084 45.3519 53.3383 42.8169 58.2743 40.2923 63.2206 36.4999 65.6938 31.4403 65.6938ZM31.4403 73.4225C39.5296 73.4225 45.7074 70.2228 49.9737 63.8235 54.2399 57.4345 56.373 48.1548 56.373 35.9847 56.373 23.8456 54.2399 14.5763 49.9737 8.17695 45.7074 1.78791 39.5296-1.40662 31.4403-1.40662 23.3612-1.40662 17.1886 1.78791 12.9224 8.17695 8.65613 14.5763 6.52301 23.8456 6.52301 35.9847 6.52301 48.1548 8.65613 57.4345 12.9224 63.8235 17.1886 70.2228 23.3612 73.4225 31.4403 73.4225Z" transform="matrix(1.00009 0 0 -1 561.066 567.501)"/><path d="M31.4403 65.6938C26.4217 65.6938 22.645 63.2206 20.11 58.2743 17.5854 53.3383 16.323 45.9084 16.323 35.9847 16.323 26.1024 17.5854 18.688 20.11 13.7416 22.645 8.79524 26.4217 6.32206 31.4403 6.32206 36.4999 6.32206 40.2923 8.79524 42.8169 13.7416 45.3519 18.688 46.6194 26.1024 46.6194 35.9847 46.6194 45.9084 45.3519 53.3383 42.8169 58.2743 40.2923 63.2206 36.4999 65.6938 31.4403 65.6938ZM31.4403 73.4225C39.5296 73.4225 45.7074 70.2228 49.9737 63.8235 54.2399 57.4345 56.373 48.1548 56.373 35.9847 56.373 23.8456 54.2399 14.5763 49.9737 8.17695 45.7074 1.78791 39.5296-1.40662 31.4403-1.40662 23.3612-1.40662 17.1886 1.78791 12.9224 8.17695 8.65613 14.5763 6.52301 23.8456 6.52301 35.9847 6.52301 48.1548 8.65613 57.4345 12.9224 63.8235 17.1886 70.2228 23.3612 73.4225 31.4403 73.4225Z" transform="matrix(1.00009 0 0 -1 624.011 567.501)"/><path d="M0 0-12.8239 0" stroke="#000000" stroke-width="2.93117" stroke-linejoin="round" fill="none" transform="matrix(1.00009 0 0 1 712.618 355.417)"/><path d="M8.11512 72.1241 54.4872 72.1241 54.4872 67.966 28.3024 0 18.116 0 42.7551 63.9007 8.11512 63.9007 8.11512 72.1241Z" transform="matrix(1.00009 0 0 -1 372.228 393.002)"/><path d="M31.4403 34.2535C26.8031 34.2535 23.1551 33.0118 20.4965 30.5283 17.8482 28.0448 16.5239 24.6339 16.5239 20.2955 16.5239 15.9469 17.8482 12.5308 20.4965 10.0473 23.1551 7.5638 26.8031 6.32206 31.4403 6.32206 36.0775 6.32206 39.7305 7.56896 42.3996 10.0627 45.0788 12.5668 46.4185 15.9778 46.4185 20.2955 46.4185 24.6339 45.0891 28.0448 42.4305 30.5283 39.7822 33.0118 36.1188 34.2535 31.4403 34.2535ZM21.6867 38.3961C17.5028 39.4266 14.2414 41.3743 11.9022 44.239 9.57326 47.1141 8.40881 50.6125 8.40881 54.7345 8.40881 60.495 10.4595 65.0497 14.5608 68.3988 18.6725 71.748 24.299 73.4225 31.4403 73.4225 38.6229 73.4225 44.2595 71.748 48.3506 68.3988 52.4417 65.0497 54.4872 60.495 54.4872 54.7345 54.4872 50.6125 53.3176 47.1141 50.9784 44.239 48.6494 41.3743 45.4086 39.4266 41.2557 38.3961 45.9547 37.3037 49.613 35.1604 52.2304 31.9658 54.8582 28.7816 56.1721 24.8915 56.1721 20.2955 56.1721 13.2985 54.039 7.92963 49.7727 4.18895 45.5065 0.458569 39.3957-1.40662 31.4403-1.40662 23.4952-1.40662 17.3844 0.458569 13.1078 4.18895 8.84161 7.92963 6.7085 13.2985 6.7085 20.2955 6.7085 24.8915 8.02752 28.7816 10.6656 31.9658 13.3139 35.1604 16.9876 37.3037 21.6867 38.3961ZM18.116 53.8071C18.116 50.0768 19.2804 47.1655 21.6094 45.0737 23.9486 42.9818 27.2255 41.9358 31.4403 41.9358 35.6343 41.9358 38.9113 42.9818 41.2712 45.0737 43.6412 47.1655 44.8264 50.0768 44.8264 53.8071 44.8264 57.5478 43.6412 60.4641 41.2712 62.556 38.9113 64.6478 35.6343 65.6938 31.4403 65.6938 27.2255 65.6938 23.9486 64.6478 21.6094 62.556 19.2804 60.4641 18.116 57.5478 18.116 53.8071Z" transform="matrix(1.00009 0 0 -1 435.174 393.002)"/><path d="M37.3914 63.6225 12.7523 25.1182 37.3914 25.1182 37.3914 63.6225ZM34.8254 72.1241 47.0986 72.1241 47.0986 25.1182 57.3932 25.1182 57.3932 17.0031 47.0986 17.0031 47.0986 0 37.3914 0 37.3914 17.0031 4.83816 17.0031 4.83816 26.4166 34.8254 72.1241Z" transform="matrix(1.00009 0 0 -1 498.12 393.002)"/><path d="M31.4403 65.6938C26.4217 65.6938 22.645 63.2206 20.11 58.2743 17.5854 53.3383 16.323 45.9084 16.323 35.9847 16.323 26.1024 17.5854 18.688 20.11 13.7416 22.645 8.79524 26.4217 6.32206 31.4403 6.32206 36.4999 6.32206 40.2923 8.79524 42.8169 13.7416 45.3519 18.688 46.6194 26.1024 46.6194 35.9847 46.6194 45.9084 45.3519 53.3383 42.8169 58.2743 40.2923 63.2206 36.4999 65.6938 31.4403 65.6938ZM31.4403 73.4225C39.5296 73.4225 45.7074 70.2228 49.9737 63.8235 54.2399 57.4345 56.373 48.1548 56.373 35.9847 56.373 23.8456 54.2399 14.5763 49.9737 8.17695 45.7074 1.78791 39.5296-1.40662 31.4403-1.40662 23.3612-1.40662 17.1886 1.78791 12.9224 8.17695 8.65613 14.5763 6.52301 23.8456 6.52301 35.9847 6.52301 48.1548 8.65613 57.4345 12.9224 63.8235 17.1886 70.2228 23.3612 73.4225 31.4403 73.4225Z" transform="matrix(1.00009 0 0 -1 561.066 393.002)"/><path d="M31.4403 65.6938C26.4217 65.6938 22.645 63.2206 20.11 58.2743 17.5854 53.3383 16.323 45.9084 16.323 35.9847 16.323 26.1024 17.5854 18.688 20.11 13.7416 22.645 8.79524 26.4217 6.32206 31.4403 6.32206 36.4999 6.32206 40.2923 8.79524 42.8169 13.7416 45.3519 18.688 46.6194 26.1024 46.6194 35.9847 46.6194 45.9084 45.3519 53.3383 42.8169 58.2743 40.2923 63.2206 36.4999 65.6938 31.4403 65.6938ZM31.4403 73.4225C39.5296 73.4225 45.7074 70.2228 49.9737 63.8235 54.2399 57.4345 56.373 48.1548 56.373 35.9847 56.373 23.8456 54.2399 14.5763 49.9737 8.17695 45.7074 1.78791 39.5296-1.40662 31.4403-1.40662 23.3612-1.40662 17.1886 1.78791 12.9224 8.17695 8.65613 14.5763 6.52301 23.8456 6.52301 35.9847 6.52301 48.1548 8.65613 57.4345 12.9224 63.8235 17.1886 70.2228 23.3612 73.4225 31.4403 73.4225Z" transform="matrix(1.00009 0 0 -1 624.011 393.002)"/><path d="M9.70723 72.1241 55.3065 72.1241 55.3065 63.9007 19.4608 63.9007 19.4608 42.5541 53.8071 42.5541 53.8071 34.3463 19.4608 34.3463 19.4608 8.20786 56.1721 8.20786 56.1721 0 9.70723 0 9.70723 72.1241Z" transform="matrix(6.12375e-17 -1 -1.00009 -6.12322e-17 336.996 1375.94)"/><path d="M9.32079 75.1692 18.2088 75.1692 18.2088 0 9.32079 0 9.32079 75.1692Z" transform="matrix(6.12375e-17 -1 -1.00009 -6.12322e-17 336.996 1313.43)"/><path d="M55.6001 29.2763 55.6001 24.9327 14.7309 24.9327C15.1225 18.8116 16.9671 14.1486 20.2646 10.9438 23.5621 7.73899 28.1582 6.13657 34.0526 6.13657 37.4636 6.13657 40.7714 6.55392 43.9762 7.38862 47.181 8.22332 50.3652 9.48051 53.5289 11.1602L53.5289 2.75141C50.3343 1.40147 47.0626 0.370977 43.7134-0.340062 40.3643-1.0511 36.9689-1.40662 33.527-1.40662 24.8915-1.40662 18.0542 1.10262 13.0151 6.12112 7.976 11.1499 5.45645 17.9511 5.45645 26.5248 5.45645 35.3768 7.84719 42.3996 12.6287 47.5932 17.4101 52.7973 23.8611 55.3992 31.9813 55.3992 39.2566 55.3992 45.0118 53.0548 49.2472 48.3661 53.4825 43.6876 55.6001 37.3244 55.6001 29.2763ZM46.7122 31.8885C46.6503 36.7422 45.2901 40.6169 42.6314 43.5125 39.9727 46.4185 36.4536 47.8715 32.074 47.8715 27.1173 47.8715 23.15 46.4699 20.1719 43.6671 17.1937 40.8642 15.4779 36.9173 15.0246 31.8267L46.7122 31.8885Z" transform="matrix(6.12375e-17 -1 -1.00009 -6.12322e-17 336.996 1285.95)"/><path d="M48.2579 52.0295 48.2579 43.7134C45.7434 45.1046 43.2239 46.1453 40.6992 46.8358 38.1746 47.5263 35.6241 47.8715 33.0478 47.8715 27.2771 47.8715 22.7945 46.0424 19.5999 42.3841 16.4157 38.7362 14.8236 33.6094 14.8236 27.004 14.8236 20.3986 16.4157 15.2667 19.5999 11.6085 22.7945 7.96054 27.2771 6.13657 33.0478 6.13657 35.6241 6.13657 38.1746 6.48178 40.6992 7.17222 43.2239 7.86265 45.7434 8.90344 48.2579 10.2946L48.2579 2.07129C45.7744 0.917137 43.2033 0.0515245 40.5447-0.52555 37.8964-1.11293 35.0728-1.40662 32.074-1.40662 23.9229-1.40662 17.4463 1.15415 12.6441 6.27569 7.85234 11.3972 5.45645 18.3066 5.45645 27.004 5.45645 35.8251 7.87811 42.7602 12.7214 47.8096 17.575 52.8693 24.2217 55.3992 32.6614 55.3992 35.3923 55.3992 38.0611 55.1159 40.6683 54.549 43.2755 53.9926 45.8053 53.1528 48.2579 52.0295Z" transform="matrix(6.12375e-17 -1 -1.00009 -6.12322e-17 336.996 1225.08)"/><path d="M18.116 69.4654 18.116 54.1008 36.4176 54.1008 36.4176 47.1913 18.116 47.1913 18.116 17.8223C18.116 13.4118 18.7189 10.578 19.9245 9.32079 21.1302 8.0636 23.5879 7.43499 27.2977 7.43499L36.4176 7.43499 36.4176 0 27.2977 0C20.4346 0 15.6996 1.27781 13.0924 3.83343 10.4852 6.39935 9.18167 11.0623 9.18167 17.8223L9.18167 47.1913 2.65867 47.1913 2.65867 54.1008 9.18167 54.1008 9.18167 69.4654 18.116 69.4654Z" transform="matrix(6.12375e-17 -1 -1.00009 -6.12322e-17 336.996 1170.69)"/><path d="M40.6683 45.8002C39.6687 46.3772 38.5816 46.7998 37.4068 47.0677 36.2321 47.3459 34.9387 47.485 33.527 47.485 28.4983 47.485 24.639 45.8517 21.9495 42.585 19.2599 39.3184 17.9151 34.6245 17.9151 28.5034L17.9151 0 8.98073 0 8.98073 54.1008 17.9151 54.1008 17.9151 45.692C19.7905 48.9793 22.2226 51.4163 25.211 53.0033 28.2097 54.6005 31.8525 55.3992 36.1393 55.3992 36.7473 55.3992 37.4223 55.3579 38.1642 55.2755 38.9062 55.2034 39.7254 55.0849 40.622 54.92L40.6683 45.8002Z" transform="matrix(6.12375e-17 -1 -1.00009 -6.12322e-17 336.996 1131.9)"/><path d="M9.32079 54.1008 18.2088 54.1008 18.2088 0 9.32079 0 9.32079 54.1008ZM9.32079 75.1692 18.2088 75.1692 18.2088 63.9007 9.32079 63.9007 9.32079 75.1692Z" transform="matrix(6.12375e-17 -1 -1.00009 -6.12322e-17 336.996 1091.23)"/><path d="M48.2579 52.0295 48.2579 43.7134C45.7434 45.1046 43.2239 46.1453 40.6992 46.8358 38.1746 47.5263 35.6241 47.8715 33.0478 47.8715 27.2771 47.8715 22.7945 46.0424 19.5999 42.3841 16.4157 38.7362 14.8236 33.6094 14.8236 27.004 14.8236 20.3986 16.4157 15.2667 19.5999 11.6085 22.7945 7.96054 27.2771 6.13657 33.0478 6.13657 35.6241 6.13657 38.1746 6.48178 40.6992 7.17222 43.2239 7.86265 45.7434 8.90344 48.2579 10.2946L48.2579 2.07129C45.7744 0.917137 43.2033 0.0515245 40.5447-0.52555 37.8964-1.11293 35.0728-1.40662 32.074-1.40662 23.9229-1.40662 17.4463 1.15415 12.6441 6.27569 7.85234 11.3972 5.45645 18.3066 5.45645 27.004 5.45645 35.8251 7.87811 42.7602 12.7214 47.8096 17.575 52.8693 24.2217 55.3992 32.6614 55.3992 35.3923 55.3992 38.0611 55.1159 40.6683 54.549 43.2755 53.9926 45.8053 53.1528 48.2579 52.0295Z" transform="matrix(6.12375e-17 -1 -1.00009 -6.12322e-17 336.996 1063.75)"/><path d="M9.32079 54.1008 18.2088 54.1008 18.2088 0 9.32079 0 9.32079 54.1008ZM9.32079 75.1692 18.2088 75.1692 18.2088 63.9007 9.32079 63.9007 9.32079 75.1692Z" transform="matrix(6.12375e-17 -1 -1.00009 -6.12322e-17 336.996 1009.36)"/><path d="M18.116 69.4654 18.116 54.1008 36.4176 54.1008 36.4176 47.1913 18.116 47.1913 18.116 17.8223C18.116 13.4118 18.7189 10.578 19.9245 9.32079 21.1302 8.0636 23.5879 7.43499 27.2977 7.43499L36.4176 7.43499 36.4176 0 27.2977 0C20.4346 0 15.6996 1.27781 13.0924 3.83343 10.4852 6.39935 9.18167 11.0623 9.18167 17.8223L9.18167 47.1913 2.65867 47.1913 2.65867 54.1008 9.18167 54.1008 9.18167 69.4654 18.116 69.4654Z" transform="matrix(6.12375e-17 -1 -1.00009 -6.12322e-17 336.996 981.871)"/><path d="M31.8267-5.02364C29.3226-11.4642 26.8753-15.6634 24.4845-17.6214 22.104-19.5896 18.9198-20.5738 14.9318-20.5738L7.82143-20.5738 7.82143-13.1388 13.046-13.1388C15.4883-13.1388 17.3844-12.5565 18.7343-11.3921 20.0946-10.2379 21.5939-7.50197 23.2324-3.18422L24.8245 0.865613 2.95236 54.1008 12.3659 54.1008 29.2763 11.794 46.1866 54.1008 55.6001 54.1008 31.8267-5.02364Z" transform="matrix(6.12375e-17 -1 -1.00009 -6.12322e-17 336.996 943.083)"/><path d="M48.2579 52.0295 48.2579 43.7134C45.7434 45.1046 43.2239 46.1453 40.6992 46.8358 38.1746 47.5263 35.6241 47.8715 33.0478 47.8715 27.2771 47.8715 22.7945 46.0424 19.5999 42.3841 16.4157 38.7362 14.8236 33.6094 14.8236 27.004 14.8236 20.3986 16.4157 15.2667 19.5999 11.6085 22.7945 7.96054 27.2771 6.13657 33.0478 6.13657 35.6241 6.13657 38.1746 6.48178 40.6992 7.17222 43.2239 7.86265 45.7434 8.90344 48.2579 10.2946L48.2579 2.07129C45.7744 0.917137 43.2033 0.0515245 40.5447-0.52555 37.8964-1.11293 35.0728-1.40662 32.074-1.40662 23.9229-1.40662 17.4463 1.15415 12.6441 6.27569 7.85234 11.3972 5.45645 18.3066 5.45645 27.004 5.45645 35.8251 7.87811 42.7602 12.7214 47.8096 17.575 52.8693 24.2217 55.3992 32.6614 55.3992 35.3923 55.3992 38.0611 55.1159 40.6683 54.549 43.2755 53.9926 45.8053 53.1528 48.2579 52.0295Z" transform="matrix(6.12375e-17 -1 -1.00009 -6.12322e-17 336.996 853.092)"/><path d="M30.281 47.8715C25.5201 47.8715 21.7536 46.0115 18.9816 42.2914 16.2097 38.5712 14.8236 33.4756 14.8236 27.004 14.8236 20.5325 16.1993 15.4368 18.9507 11.7167 21.7125 7.99661 25.4892 6.13657 30.281 6.13657 35.0213 6.13657 38.7722 8.00177 41.5339 11.7321 44.3059 15.4728 45.692 20.5634 45.692 27.004 45.692 33.4137 44.3059 38.4939 41.5339 42.245 38.7722 45.996 35.0213 47.8715 30.281 47.8715ZM30.281 55.3992C38.0097 55.3992 44.0793 52.8848 48.4898 47.856 52.9106 42.8375 55.121 35.8869 55.121 27.004 55.121 18.152 52.9106 11.2014 48.4898 6.15203 44.0793 1.11293 38.0097-1.40662 30.281-1.40662 22.5214-1.40662 16.4415 1.11293 12.0413 6.15203 7.6514 11.2014 5.45645 18.152 5.45645 27.004 5.45645 35.8869 7.6514 42.8375 12.0413 47.856 16.4415 52.8848 22.5214 55.3992 30.281 55.3992Z" transform="matrix(6.12375e-17 -1 -1.00009 -6.12322e-17 336.996 798.702)"/><path d="M43.8062 52.5087 43.8062 44.0999C41.3021 45.3879 38.6949 46.3515 35.9847 46.9904 33.2848 47.6396 30.4819 47.9642 27.5759 47.9642 23.1655 47.9642 19.8576 47.2892 17.6523 45.9393 15.4471 44.5894 14.3444 42.5592 14.3444 39.8491 14.3444 37.7882 15.1328 36.1702 16.7094 34.9955 18.2861 33.8207 21.4599 32.7027 26.2311 31.6412L29.2763 30.9611C35.5829 29.6112 40.0655 27.7047 42.7242 25.2419 45.3828 22.7791 46.7122 19.3423 46.7122 14.9318 46.7122 9.90302 44.7233 5.92017 40.7456 2.98327 36.768 0.0566771 31.3012-1.40662 24.3454-1.40662 21.4497-1.40662 18.4303-1.12324 15.2873-0.556465 12.1443 0.0103049 8.83647 0.855307 5.36371 1.97854L5.36371 11.1602C8.65098 9.4496 11.8867 8.16664 15.0709 7.31133 18.2551 6.46633 21.4136 6.04383 24.5463 6.04383 28.7301 6.04383 31.9453 6.76002 34.1917 8.1924 36.4485 9.62479 37.5769 11.6445 37.5769 14.2517 37.5769 16.663 36.7627 18.5128 35.1346 19.8009 33.5167 21.0889 29.9513 22.3308 24.4381 23.5261L21.3466 24.2526C15.8438 25.4068 11.8661 27.1844 9.41354 29.5854 6.97127 31.9864 5.75014 35.2788 5.75014 39.4627 5.75014 44.5532 7.5535 48.4794 11.1602 51.2412 14.7669 54.0131 19.8885 55.3992 26.5248 55.3992 29.8018 55.3992 32.8882 55.157 35.7838 54.6727 38.6898 54.1986 41.3639 53.4774 43.8062 52.5087Z" transform="matrix(6.12375e-17 -1 -1.00009 -6.12322e-17 336.996 738.176)"/><path d="M18.116 69.4654 18.116 54.1008 36.4176 54.1008 36.4176 47.1913 18.116 47.1913 18.116 17.8223C18.116 13.4118 18.7189 10.578 19.9245 9.32079 21.1302 8.0636 23.5879 7.43499 27.2977 7.43499L36.4176 7.43499 36.4176 0 27.2977 0C20.4346 0 15.6996 1.27781 13.0924 3.83343 10.4852 6.39935 9.18167 11.0623 9.18167 17.8223L9.18167 47.1913 2.65867 47.1913 2.65867 54.1008 9.18167 54.1008 9.18167 69.4654 18.116 69.4654Z" transform="matrix(6.12375e-17 -1 -1.00009 -6.12322e-17 336.996 686.636)"/><path d="M30.6674 75.061C26.3599 67.662 23.1551 60.3352 21.0529 53.0806 18.9611 45.8362 17.9151 38.4939 17.9151 31.0538 17.9151 23.624 18.9713 16.2611 21.0838 8.96527 23.1964 1.6694 26.3908-5.66771 30.6674-13.046L22.9387-13.046C18.116-5.47191 14.5042 1.96823 12.1031 9.27442 9.70208 16.5807 8.50155 23.8404 8.50155 31.0538 8.50155 38.2364 9.69177 45.4652 12.0722 52.7405 14.4629 60.0261 18.0851 67.4663 22.9387 75.061L30.6674 75.061Z" transform="matrix(6.12375e-17 -1 -1.00009 -6.12322e-17 336.996 616.402)"/><path d="M53.2352 70.532 53.2352 61.7367C50.7825 63.0557 48.4588 64.045 46.2639 64.7045 44.0793 65.3641 42.008 65.6938 40.05 65.6938 35.2788 65.6938 31.9607 64.4469 30.0955 61.9531 28.2302 59.4594 27.2977 54.7964 27.2977 47.9642L27.2977 37.5769 46.1866 37.5769 46.1866 30.6674 27.2977 30.6674 27.2977 8.20786 54.1935 8.20786 54.1935 0 6.22932 0 6.22932 8.20786 17.6369 8.20786 17.6369 30.6674 8.02237 30.6674 8.02237 37.5769 17.6369 37.5769 17.6369 49.0771C17.6369 57.4859 19.3577 63.6431 22.7996 67.5487 26.2415 71.4645 31.698 73.4225 39.169 73.4225 41.1372 73.4225 43.3374 73.1701 45.7693 72.6651 48.2012 72.1704 50.6898 71.4594 53.2352 70.532Z" transform="matrix(6.12375e-17 -1 -1.00009 -6.12322e-17 336.996 577.806)"/><path d="M7.92963 75.061 15.6583 75.061C20.481 67.4663 24.0929 60.0261 26.4939 52.7405 28.8949 45.4652 30.0955 38.2364 30.0955 31.0538 30.0955 23.8404 28.8949 16.5807 26.4939 9.27442 24.0929 1.96823 20.481-5.47191 15.6583-13.046L7.92963-13.046C12.2062-5.66771 15.4007 1.6694 17.5132 8.96527 19.6258 16.2611 20.682 23.624 20.682 31.0538 20.682 38.4939 19.6258 45.8362 17.5132 53.0806 15.4007 60.3352 12.2062 67.662 7.92963 75.061Z" transform="matrix(6.12375e-17 -1 -1.00009 -6.12322e-17 336.996 514.866)"/><g><path d="M596.974 84.2647 629.144 84.2647 645.228 347.323 693.483 347.323 709.568 754.341 757.822 754.341 773.907 1147.54 1208.2 1147.54 1224.29 1182.25 1385.14 1182.25 1401.22 1196.85 1706.84 1196.85 1722.92 1241.95 2993.64 1241.95 2993.64 1241.95" stroke="#FF1493" stroke-width="21.9838" stroke-linecap="square" stroke-linejoin="round" fill="none" transform="matrix(1.00009 0 0 1 235.437 263)"/></g><path d="M477.14 1299.83 477.14 26.3806" stroke="#000000" stroke-width="2.93117" stroke-linecap="square" fill="none" transform="matrix(1.00009 0 0 1 235.437 263)"/><path d="M3113.48 1299.83 3113.48 26.3806" stroke="#000000" stroke-width="2.93117" stroke-linecap="square" fill="none" transform="matrix(1.00009 0 0 1 235.437 263)"/><path d="M477.14 1299.83 3113.48 1299.83" stroke="#000000" stroke-width="2.93117" stroke-linecap="square" fill="none" transform="matrix(1.00009 0 0 1 235.437 263)"/><path d="M477.14 26.3806 3113.48 26.3806" stroke="#000000" stroke-width="2.93117" stroke-linecap="square" fill="none" transform="matrix(1.00009 0 0 1 235.437 263)"/><text font-family="Aptos,Aptos_MSFontService,sans-serif" font-weight="400" font-size="110" transform="matrix(1 0 0 1 383.625 1564)">76500</text><path d="M715.5 1529.5 3246.67 1540.61" stroke="#156082" stroke-width="20.625" stroke-miterlimit="8" stroke-dasharray="20.625 20.625" fill="none" fill-rule="evenodd"/><rect x="2277.5" y="329.5" width="969" height="299" stroke="#000000" stroke-width="4.58333" stroke-linejoin="round" stroke-miterlimit="10" fill="none"/><text font-family="Aptos,Aptos_MSFontService,sans-serif" font-weight="400" font-size="110" transform="matrix(1 0 0 1 2578.13 447)">DRL method</text><text font-family="Aptos,Aptos_MSFontService,sans-serif" font-weight="400" font-size="110" transform="matrix(1 0 0 1 2578.13 579)">MILP solver</text><path d="M2302.5 417.5 2500.5 417.501" stroke="#FF1493" stroke-width="20.625" stroke-miterlimit="8" fill="none" fill-rule="evenodd"/><path d="M2335.5 562.5 2533.5 562.5" stroke="#156082" stroke-width="20.625" stroke-miterlimit="8" stroke-dasharray="20.625 20.625" fill="none" fill-rule="evenodd"/></g></svg>