<?xml version="1.0" encoding="utf-8" standalone="no"?>
<!DOCTYPE svg PUBLIC "-//W3C//DTD SVG 1.1//EN"
  "http://www.w3.org/Graphics/SVG/1.1/DTD/svg11.dtd">
<svg xmlns:xlink="http://www.w3.org/1999/xlink" width="1000.5545pt" height="431.693739pt" viewBox="0 0 1000.5545 431.693739" xmlns="http://www.w3.org/2000/svg" version="1.1">
 <metadata>
  <rdf:RDF xmlns:dc="http://purl.org/dc/elements/1.1/" xmlns:cc="http://creativecommons.org/ns#" xmlns:rdf="http://www.w3.org/1999/02/22-rdf-syntax-ns#">
   <cc:Work>
    <dc:type rdf:resource="http://purl.org/dc/dcmitype/StillImage"/>
    <dc:date>2025-01-25T16:22:28.320948</dc:date>
    <dc:format>image/svg+xml</dc:format>
    <dc:creator>
     <cc:Agent>
      <dc:title>Matplotlib v3.7.2, https://matplotlib.org/</dc:title>
     </cc:Agent>
    </dc:creator>
   </cc:Work>
  </rdf:RDF>
 </metadata>
 <defs>
  <style type="text/css">*{stroke-linejoin: round; stroke-linecap: butt}</style>
 </defs>
 <g id="figure_1">
  <g id="patch_1">
   <path d="M 0 431.693739 
L 1000.5545 431.693739 
L 1000.5545 0 
L 0 0 
z
" style="fill: #ffffff"/>
  </g>
  <g id="axes_1">
   <g id="patch_2">
    <path d="M 100 346.44 
L 878.79 346.44 
L 878.79 7.2 
L 100 7.2 
z
" style="fill: #ffffff"/>
   </g>
   <g id="patch_3">
    <path d="M 100 323.824 
L 140.561979 323.824 
L 140.561979 312.516 
L 100 312.516 
z
" clip-path="url(#pf64ccab246)" style="fill: #7fffd4"/>
   </g>
   <g id="patch_4">
    <path d="M 148.674375 323.824 
L 189.236354 323.824 
L 189.236354 312.516 
L 148.674375 312.516 
z
" clip-path="url(#pf64ccab246)" style="fill: #87ceeb"/>
   </g>
   <g id="patch_5">
    <path d="M 197.34875 323.824 
L 237.910729 323.824 
L 237.910729 312.516 
L 197.34875 312.516 
z
" clip-path="url(#pf64ccab246)" style="fill: #bf00bf"/>
   </g>
   <g id="patch_6">
    <path d="M 246.023125 323.824 
L 286.585104 323.824 
L 286.585104 312.516 
L 246.023125 312.516 
z
" clip-path="url(#pf64ccab246)" style="fill: #800080"/>
   </g>
   <g id="patch_7">
    <path d="M 294.6975 323.824 
L 335.259479 323.824 
L 335.259479 312.516 
L 294.6975 312.516 
z
" clip-path="url(#pf64ccab246)" style="fill: #0000ff"/>
   </g>
   <g id="patch_8">
    <path d="M 359.596667 323.824 
L 408.271042 323.824 
L 408.271042 312.516 
L 359.596667 312.516 
z
" clip-path="url(#pf64ccab246)" style="fill: #00ff00"/>
   </g>
   <g id="patch_9">
    <path d="M 408.271042 323.824 
L 448.833021 323.824 
L 448.833021 312.516 
L 408.271042 312.516 
z
" clip-path="url(#pf64ccab246)" style="fill: #ff0000"/>
   </g>
   <g id="patch_10">
    <path d="M 489.395 323.824 
L 529.956979 323.824 
L 529.956979 312.516 
L 489.395 312.516 
z
" clip-path="url(#pf64ccab246)" style="fill: #808000"/>
   </g>
   <g id="patch_11">
    <path d="M 538.069375 323.824 
L 578.631354 323.824 
L 578.631354 312.516 
L 538.069375 312.516 
z
" clip-path="url(#pf64ccab246)" style="fill: #bfbf00"/>
   </g>
   <g id="patch_12">
    <path d="M 586.74375 323.824 
L 627.305729 323.824 
L 627.305729 312.516 
L 586.74375 312.516 
z
" clip-path="url(#pf64ccab246)" style="fill: #dda0dd"/>
   </g>
   <g id="patch_13">
    <path d="M 643.530521 323.824 
L 684.0925 323.824 
L 684.0925 312.516 
L 643.530521 312.516 
z
" clip-path="url(#pf64ccab246)" style="fill: #c0c0c0"/>
   </g>
   <g id="patch_14">
    <path d="M 692.204896 323.824 
L 732.766875 323.824 
L 732.766875 312.516 
L 692.204896 312.516 
z
" clip-path="url(#pf64ccab246)" style="fill: #008000"/>
   </g>
   <g id="patch_15">
    <path d="M 740.879271 323.824 
L 781.44125 323.824 
L 781.44125 312.516 
L 740.879271 312.516 
z
" clip-path="url(#pf64ccab246)" style="fill: #ffd700"/>
   </g>
   <g id="patch_16">
    <path d="M 100 267.284 
L 140.561979 267.284 
L 140.561979 255.976 
L 100 255.976 
z
" clip-path="url(#pf64ccab246)" style="fill: #ffa500"/>
   </g>
   <g id="patch_17">
    <path d="M 148.674375 267.284 
L 189.236354 267.284 
L 189.236354 255.976 
L 148.674375 255.976 
z
" clip-path="url(#pf64ccab246)" style="fill: #000080"/>
   </g>
   <g id="patch_18">
    <path d="M 197.34875 267.284 
L 237.910729 267.284 
L 237.910729 255.976 
L 197.34875 255.976 
z
" clip-path="url(#pf64ccab246)" style="fill: #008080"/>
   </g>
   <g id="patch_19">
    <path d="M 246.023125 267.284 
L 286.585104 267.284 
L 286.585104 255.976 
L 246.023125 255.976 
z
" clip-path="url(#pf64ccab246)" style="fill: #ffc0cb"/>
   </g>
   <g id="patch_20">
    <path d="M 294.6975 267.284 
L 335.259479 267.284 
L 335.259479 255.976 
L 294.6975 255.976 
z
" clip-path="url(#pf64ccab246)" style="fill: #fa8072"/>
   </g>
   <g id="patch_21">
    <path d="M 343.371875 267.284 
L 383.933854 267.284 
L 383.933854 255.976 
L 343.371875 255.976 
z
" clip-path="url(#pf64ccab246)" style="fill: #808080"/>
   </g>
   <g id="patch_22">
    <path d="M 392.04625 267.284 
L 432.608229 267.284 
L 432.608229 255.976 
L 392.04625 255.976 
z
" clip-path="url(#pf64ccab246)"/>
   </g>
   <g id="patch_23">
    <path d="M 440.720625 267.284 
L 481.282604 267.284 
L 481.282604 255.976 
L 440.720625 255.976 
z
" clip-path="url(#pf64ccab246)" style="fill: #00bfbf"/>
   </g>
   <g id="patch_24">
    <path d="M 635.418125 267.284 
L 675.980104 267.284 
L 675.980104 255.976 
L 635.418125 255.976 
z
" clip-path="url(#pf64ccab246)" style="fill: #cd853f"/>
   </g>
   <g id="patch_25">
    <path d="M 684.0925 267.284 
L 724.654479 267.284 
L 724.654479 255.976 
L 684.0925 255.976 
z
" clip-path="url(#pf64ccab246)" style="fill: #006400"/>
   </g>
   <g id="patch_26">
    <path d="M 732.766875 267.284 
L 773.328854 267.284 
L 773.328854 255.976 
L 732.766875 255.976 
z
" clip-path="url(#pf64ccab246)" style="fill: #800000"/>
   </g>
   <g id="patch_27">
    <path d="M 156.786771 210.744 
L 205.461146 210.744 
L 205.461146 199.436 
L 156.786771 199.436 
z
" clip-path="url(#pf64ccab246)" style="fill: #7fffd4"/>
   </g>
   <g id="patch_28">
    <path d="M 213.573542 210.744 
L 262.247917 210.744 
L 262.247917 199.436 
L 213.573542 199.436 
z
" clip-path="url(#pf64ccab246)" style="fill: #87ceeb"/>
   </g>
   <g id="patch_29">
    <path d="M 270.360313 210.744 
L 310.922292 210.744 
L 310.922292 199.436 
L 270.360313 199.436 
z
" clip-path="url(#pf64ccab246)" style="fill: #bf00bf"/>
   </g>
   <g id="patch_30">
    <path d="M 319.034688 210.744 
L 359.596667 210.744 
L 359.596667 199.436 
L 319.034688 199.436 
z
" clip-path="url(#pf64ccab246)" style="fill: #800080"/>
   </g>
   <g id="patch_31">
    <path d="M 367.709063 210.744 
L 400.158646 210.744 
L 400.158646 199.436 
L 367.709063 199.436 
z
" clip-path="url(#pf64ccab246)" style="fill: #0000ff"/>
   </g>
   <g id="patch_32">
    <path d="M 408.271042 210.744 
L 448.833021 210.744 
L 448.833021 199.436 
L 408.271042 199.436 
z
" clip-path="url(#pf64ccab246)" style="fill: #808080"/>
   </g>
   <g id="patch_33">
    <path d="M 473.170208 210.744 
L 513.732188 210.744 
L 513.732188 199.436 
L 473.170208 199.436 
z
" clip-path="url(#pf64ccab246)"/>
   </g>
   <g id="patch_34">
    <path d="M 529.956979 210.744 
L 562.406563 210.744 
L 562.406563 199.436 
L 529.956979 199.436 
z
" clip-path="url(#pf64ccab246)" style="fill: #ff0000"/>
   </g>
   <g id="patch_35">
    <path d="M 602.968542 210.744 
L 643.530521 210.744 
L 643.530521 199.436 
L 602.968542 199.436 
z
" clip-path="url(#pf64ccab246)" style="fill: #bfbf00"/>
   </g>
   <g id="patch_36">
    <path d="M 651.642917 210.744 
L 692.204896 210.744 
L 692.204896 199.436 
L 651.642917 199.436 
z
" clip-path="url(#pf64ccab246)" style="fill: #dda0dd"/>
   </g>
   <g id="patch_37">
    <path d="M 700.317292 210.744 
L 748.991667 210.744 
L 748.991667 199.436 
L 700.317292 199.436 
z
" clip-path="url(#pf64ccab246)" style="fill: #c0c0c0"/>
   </g>
   <g id="patch_38">
    <path d="M 757.104063 210.744 
L 789.553646 210.744 
L 789.553646 199.436 
L 757.104063 199.436 
z
" clip-path="url(#pf64ccab246)" style="fill: #008000"/>
   </g>
   <g id="patch_39">
    <path d="M 797.666042 210.744 
L 838.228021 210.744 
L 838.228021 199.436 
L 797.666042 199.436 
z
" clip-path="url(#pf64ccab246)" style="fill: #ffd700"/>
   </g>
   <g id="patch_40">
    <path d="M 156.786771 154.204 
L 205.461146 154.204 
L 205.461146 142.896 
L 156.786771 142.896 
z
" clip-path="url(#pf64ccab246)" style="fill: #ffa500"/>
   </g>
   <g id="patch_41">
    <path d="M 213.573542 154.204 
L 262.247917 154.204 
L 262.247917 142.896 
L 213.573542 142.896 
z
" clip-path="url(#pf64ccab246)" style="fill: #000080"/>
   </g>
   <g id="patch_42">
    <path d="M 270.360313 154.204 
L 310.922292 154.204 
L 310.922292 142.896 
L 270.360313 142.896 
z
" clip-path="url(#pf64ccab246)" style="fill: #008080"/>
   </g>
   <g id="patch_43">
    <path d="M 319.034688 154.204 
L 359.596667 154.204 
L 359.596667 142.896 
L 319.034688 142.896 
z
" clip-path="url(#pf64ccab246)" style="fill: #ffc0cb"/>
   </g>
   <g id="patch_44">
    <path d="M 400.158646 154.204 
L 440.720625 154.204 
L 440.720625 142.896 
L 400.158646 142.896 
z
" clip-path="url(#pf64ccab246)" style="fill: #fa8072"/>
   </g>
   <g id="patch_45">
    <path d="M 473.170208 154.204 
L 513.732188 154.204 
L 513.732188 142.896 
L 473.170208 142.896 
z
" clip-path="url(#pf64ccab246)" style="fill: #00ff00"/>
   </g>
   <g id="patch_46">
    <path d="M 521.844583 154.204 
L 554.294167 154.204 
L 554.294167 142.896 
L 521.844583 142.896 
z
" clip-path="url(#pf64ccab246)" style="fill: #00bfbf"/>
   </g>
   <g id="patch_47">
    <path d="M 627.305729 154.204 
L 675.980104 154.204 
L 675.980104 142.896 
L 627.305729 142.896 
z
" clip-path="url(#pf64ccab246)" style="fill: #808000"/>
   </g>
   <g id="patch_48">
    <path d="M 692.204896 154.204 
L 732.766875 154.204 
L 732.766875 142.896 
L 692.204896 142.896 
z
" clip-path="url(#pf64ccab246)" style="fill: #cd853f"/>
   </g>
   <g id="patch_49">
    <path d="M 740.879271 154.204 
L 781.44125 154.204 
L 781.44125 142.896 
L 740.879271 142.896 
z
" clip-path="url(#pf64ccab246)" style="fill: #006400"/>
   </g>
   <g id="patch_50">
    <path d="M 789.553646 154.204 
L 838.228021 154.204 
L 838.228021 142.896 
L 789.553646 142.896 
z
" clip-path="url(#pf64ccab246)" style="fill: #800000"/>
   </g>
   <g id="patch_51">
    <path d="M 221.685938 97.664 
L 237.910729 97.664 
L 237.910729 86.356 
L 221.685938 86.356 
z
" clip-path="url(#pf64ccab246)" style="fill: #7fffd4"/>
   </g>
   <g id="patch_52">
    <path d="M 278.472708 97.664 
L 294.6975 97.664 
L 294.6975 86.356 
L 278.472708 86.356 
z
" clip-path="url(#pf64ccab246)" style="fill: #87ceeb"/>
   </g>
   <g id="patch_53">
    <path d="M 335.259479 97.664 
L 351.484271 97.664 
L 351.484271 86.356 
L 335.259479 86.356 
z
" clip-path="url(#pf64ccab246)" style="fill: #bf00bf"/>
   </g>
   <g id="patch_54">
    <path d="M 400.158646 97.664 
L 408.271042 97.664 
L 408.271042 86.356 
L 400.158646 86.356 
z
" clip-path="url(#pf64ccab246)" style="fill: #800080"/>
   </g>
   <g id="patch_55">
    <path d="M 432.608229 97.664 
L 448.833021 97.664 
L 448.833021 86.356 
L 432.608229 86.356 
z
" clip-path="url(#pf64ccab246)" style="fill: #0000ff"/>
   </g>
   <g id="patch_56">
    <path d="M 481.282604 97.664 
L 489.395 97.664 
L 489.395 86.356 
L 481.282604 86.356 
z
" clip-path="url(#pf64ccab246)" style="fill: #808080"/>
   </g>
   <g id="patch_57">
    <path d="M 529.956979 97.664 
L 538.069375 97.664 
L 538.069375 86.356 
L 529.956979 86.356 
z
" clip-path="url(#pf64ccab246)"/>
   </g>
   <g id="patch_58">
    <path d="M 619.193333 97.664 
L 635.418125 97.664 
L 635.418125 86.356 
L 619.193333 86.356 
z
" clip-path="url(#pf64ccab246)" style="fill: #ff0000"/>
   </g>
   <g id="patch_59">
    <path d="M 781.44125 97.664 
L 797.666042 97.664 
L 797.666042 86.356 
L 781.44125 86.356 
z
" clip-path="url(#pf64ccab246)" style="fill: #bfbf00"/>
   </g>
   <g id="patch_60">
    <path d="M 805.778438 97.664 
L 822.003229 97.664 
L 822.003229 86.356 
L 805.778438 86.356 
z
" clip-path="url(#pf64ccab246)" style="fill: #008000"/>
   </g>
   <g id="patch_61">
    <path d="M 830.115625 97.664 
L 846.340417 97.664 
L 846.340417 86.356 
L 830.115625 86.356 
z
" clip-path="url(#pf64ccab246)" style="fill: #c0c0c0"/>
   </g>
   <g id="patch_62">
    <path d="M 854.452813 97.664 
L 862.565208 97.664 
L 862.565208 86.356 
L 854.452813 86.356 
z
" clip-path="url(#pf64ccab246)" style="fill: #ffd700"/>
   </g>
   <g id="patch_63">
    <path d="M 221.685938 41.124 
L 237.910729 41.124 
L 237.910729 29.816 
L 221.685938 29.816 
z
" clip-path="url(#pf64ccab246)" style="fill: #ffa500"/>
   </g>
   <g id="patch_64">
    <path d="M 278.472708 41.124 
L 294.6975 41.124 
L 294.6975 29.816 
L 278.472708 29.816 
z
" clip-path="url(#pf64ccab246)" style="fill: #000080"/>
   </g>
   <g id="patch_65">
    <path d="M 400.158646 41.124 
L 408.271042 41.124 
L 408.271042 29.816 
L 400.158646 29.816 
z
" clip-path="url(#pf64ccab246)" style="fill: #008080"/>
   </g>
   <g id="patch_66">
    <path d="M 432.608229 41.124 
L 440.720625 41.124 
L 440.720625 29.816 
L 432.608229 29.816 
z
" clip-path="url(#pf64ccab246)" style="fill: #ffc0cb"/>
   </g>
   <g id="patch_67">
    <path d="M 481.282604 41.124 
L 489.395 41.124 
L 489.395 29.816 
L 481.282604 29.816 
z
" clip-path="url(#pf64ccab246)" style="fill: #fa8072"/>
   </g>
   <g id="patch_68">
    <path d="M 529.956979 41.124 
L 538.069375 41.124 
L 538.069375 29.816 
L 529.956979 29.816 
z
" clip-path="url(#pf64ccab246)" style="fill: #00ff00"/>
   </g>
   <g id="patch_69">
    <path d="M 627.305729 41.124 
L 643.530521 41.124 
L 643.530521 29.816 
L 627.305729 29.816 
z
" clip-path="url(#pf64ccab246)" style="fill: #00bfbf"/>
   </g>
   <g id="patch_70">
    <path d="M 781.44125 41.124 
L 789.553646 41.124 
L 789.553646 29.816 
L 781.44125 29.816 
z
" clip-path="url(#pf64ccab246)" style="fill: #dda0dd"/>
   </g>
   <g id="patch_71">
    <path d="M 797.666042 41.124 
L 805.778438 41.124 
L 805.778438 29.816 
L 797.666042 29.816 
z
" clip-path="url(#pf64ccab246)" style="fill: #006400"/>
   </g>
   <g id="patch_72">
    <path d="M 813.890833 41.124 
L 830.115625 41.124 
L 830.115625 29.816 
L 813.890833 29.816 
z
" clip-path="url(#pf64ccab246)" style="fill: #808000"/>
   </g>
   <g id="patch_73">
    <path d="M 838.228021 41.124 
L 846.340417 41.124 
L 846.340417 29.816 
L 838.228021 29.816 
z
" clip-path="url(#pf64ccab246)" style="fill: #cd853f"/>
   </g>
   <g id="patch_74">
    <path d="M 854.452813 41.124 
L 862.565208 41.124 
L 862.565208 29.816 
L 854.452813 29.816 
z
" clip-path="url(#pf64ccab246)" style="fill: #800000"/>
   </g>
   <g id="matplotlib.axis_1">
    <g id="xtick_1">
     <g id="line2d_1">
      <defs>
       <path id="m434f186004" d="M 0 0 
L 0 3.5 
" style="stroke: #000000; stroke-width: 0.8"/>
      </defs>
      <g>
       <use xlink:href="#m434f186004" x="100" y="346.44" style="stroke: #000000; stroke-width: 0.8"/>
      </g>
     </g>
     <g id="text_1">
      <!-- 0 -->
      <g transform="translate(85.673133 377.132497) rotate(-45) scale(0.24 -0.24)">
       <defs>
        <path id="DejaVuSans-30" d="M 2034 4250 
Q 1547 4250 1301 3770 
Q 1056 3291 1056 2328 
Q 1056 1369 1301 889 
Q 1547 409 2034 409 
Q 2525 409 2770 889 
Q 3016 1369 3016 2328 
Q 3016 3291 2770 3770 
Q 2525 4250 2034 4250 
z
M 2034 4750 
Q 2819 4750 3233 4129 
Q 3647 3509 3647 2328 
Q 3647 1150 3233 529 
Q 2819 -91 2034 -91 
Q 1250 -91 836 529 
Q 422 1150 422 2328 
Q 422 3509 836 4129 
Q 1250 4750 2034 4750 
z
" transform="scale(0.015625)"/>
       </defs>
       <use xlink:href="#DejaVuSans-30"/>
      </g>
     </g>
    </g>
    <g id="xtick_2">
     <g id="line2d_2">
      <g>
       <use xlink:href="#m434f186004" x="132.449583" y="346.44" style="stroke: #000000; stroke-width: 0.8"/>
      </g>
     </g>
     <g id="text_2">
      <!-- 4 -->
      <g transform="translate(118.122716 377.132497) rotate(-45) scale(0.24 -0.24)">
       <defs>
        <path id="DejaVuSans-34" d="M 2419 4116 
L 825 1625 
L 2419 1625 
L 2419 4116 
z
M 2253 4666 
L 3047 4666 
L 3047 1625 
L 3713 1625 
L 3713 1100 
L 3047 1100 
L 3047 0 
L 2419 0 
L 2419 1100 
L 313 1100 
L 313 1709 
L 2253 4666 
z
" transform="scale(0.015625)"/>
       </defs>
       <use xlink:href="#DejaVuSans-34"/>
      </g>
     </g>
    </g>
    <g id="xtick_3">
     <g id="line2d_3">
      <g>
       <use xlink:href="#m434f186004" x="164.899167" y="346.44" style="stroke: #000000; stroke-width: 0.8"/>
      </g>
     </g>
     <g id="text_3">
      <!-- 8 -->
      <g transform="translate(150.572299 377.132497) rotate(-45) scale(0.24 -0.24)">
       <defs>
        <path id="DejaVuSans-38" d="M 2034 2216 
Q 1584 2216 1326 1975 
Q 1069 1734 1069 1313 
Q 1069 891 1326 650 
Q 1584 409 2034 409 
Q 2484 409 2743 651 
Q 3003 894 3003 1313 
Q 3003 1734 2745 1975 
Q 2488 2216 2034 2216 
z
M 1403 2484 
Q 997 2584 770 2862 
Q 544 3141 544 3541 
Q 544 4100 942 4425 
Q 1341 4750 2034 4750 
Q 2731 4750 3128 4425 
Q 3525 4100 3525 3541 
Q 3525 3141 3298 2862 
Q 3072 2584 2669 2484 
Q 3125 2378 3379 2068 
Q 3634 1759 3634 1313 
Q 3634 634 3220 271 
Q 2806 -91 2034 -91 
Q 1263 -91 848 271 
Q 434 634 434 1313 
Q 434 1759 690 2068 
Q 947 2378 1403 2484 
z
M 1172 3481 
Q 1172 3119 1398 2916 
Q 1625 2713 2034 2713 
Q 2441 2713 2670 2916 
Q 2900 3119 2900 3481 
Q 2900 3844 2670 4047 
Q 2441 4250 2034 4250 
Q 1625 4250 1398 4047 
Q 1172 3844 1172 3481 
z
" transform="scale(0.015625)"/>
       </defs>
       <use xlink:href="#DejaVuSans-38"/>
      </g>
     </g>
    </g>
    <g id="xtick_4">
     <g id="line2d_4">
      <g>
       <use xlink:href="#m434f186004" x="197.34875" y="346.44" style="stroke: #000000; stroke-width: 0.8"/>
      </g>
     </g>
     <g id="text_4">
      <!-- 12 -->
      <g transform="translate(172.224362 387.930017) rotate(-45) scale(0.24 -0.24)">
       <defs>
        <path id="DejaVuSans-31" d="M 794 531 
L 1825 531 
L 1825 4091 
L 703 3866 
L 703 4441 
L 1819 4666 
L 2450 4666 
L 2450 531 
L 3481 531 
L 3481 0 
L 794 0 
L 794 531 
z
" transform="scale(0.015625)"/>
        <path id="DejaVuSans-32" d="M 1228 531 
L 3431 531 
L 3431 0 
L 469 0 
L 469 531 
Q 828 903 1448 1529 
Q 2069 2156 2228 2338 
Q 2531 2678 2651 2914 
Q 2772 3150 2772 3378 
Q 2772 3750 2511 3984 
Q 2250 4219 1831 4219 
Q 1534 4219 1204 4116 
Q 875 4013 500 3803 
L 500 4441 
Q 881 4594 1212 4672 
Q 1544 4750 1819 4750 
Q 2544 4750 2975 4387 
Q 3406 4025 3406 3419 
Q 3406 3131 3298 2873 
Q 3191 2616 2906 2266 
Q 2828 2175 2409 1742 
Q 1991 1309 1228 531 
z
" transform="scale(0.015625)"/>
       </defs>
       <use xlink:href="#DejaVuSans-31"/>
       <use xlink:href="#DejaVuSans-32" x="63.623047"/>
      </g>
     </g>
    </g>
    <g id="xtick_5">
     <g id="line2d_5">
      <g>
       <use xlink:href="#m434f186004" x="229.798333" y="346.44" style="stroke: #000000; stroke-width: 0.8"/>
      </g>
     </g>
     <g id="text_5">
      <!-- 16 -->
      <g transform="translate(204.673946 387.930017) rotate(-45) scale(0.24 -0.24)">
       <defs>
        <path id="DejaVuSans-36" d="M 2113 2584 
Q 1688 2584 1439 2293 
Q 1191 2003 1191 1497 
Q 1191 994 1439 701 
Q 1688 409 2113 409 
Q 2538 409 2786 701 
Q 3034 994 3034 1497 
Q 3034 2003 2786 2293 
Q 2538 2584 2113 2584 
z
M 3366 4563 
L 3366 3988 
Q 3128 4100 2886 4159 
Q 2644 4219 2406 4219 
Q 1781 4219 1451 3797 
Q 1122 3375 1075 2522 
Q 1259 2794 1537 2939 
Q 1816 3084 2150 3084 
Q 2853 3084 3261 2657 
Q 3669 2231 3669 1497 
Q 3669 778 3244 343 
Q 2819 -91 2113 -91 
Q 1303 -91 875 529 
Q 447 1150 447 2328 
Q 447 3434 972 4092 
Q 1497 4750 2381 4750 
Q 2619 4750 2861 4703 
Q 3103 4656 3366 4563 
z
" transform="scale(0.015625)"/>
       </defs>
       <use xlink:href="#DejaVuSans-31"/>
       <use xlink:href="#DejaVuSans-36" x="63.623047"/>
      </g>
     </g>
    </g>
    <g id="xtick_6">
     <g id="line2d_6">
      <g>
       <use xlink:href="#m434f186004" x="262.247917" y="346.44" style="stroke: #000000; stroke-width: 0.8"/>
      </g>
     </g>
     <g id="text_6">
      <!-- 20 -->
      <g transform="translate(237.123529 387.930017) rotate(-45) scale(0.24 -0.24)">
       <use xlink:href="#DejaVuSans-32"/>
       <use xlink:href="#DejaVuSans-30" x="63.623047"/>
      </g>
     </g>
    </g>
    <g id="xtick_7">
     <g id="line2d_7">
      <g>
       <use xlink:href="#m434f186004" x="294.6975" y="346.44" style="stroke: #000000; stroke-width: 0.8"/>
      </g>
     </g>
     <g id="text_7">
      <!-- 24 -->
      <g transform="translate(269.573112 387.930017) rotate(-45) scale(0.24 -0.24)">
       <use xlink:href="#DejaVuSans-32"/>
       <use xlink:href="#DejaVuSans-34" x="63.623047"/>
      </g>
     </g>
    </g>
    <g id="xtick_8">
     <g id="line2d_8">
      <g>
       <use xlink:href="#m434f186004" x="327.147083" y="346.44" style="stroke: #000000; stroke-width: 0.8"/>
      </g>
     </g>
     <g id="text_8">
      <!-- 28 -->
      <g transform="translate(302.022696 387.930017) rotate(-45) scale(0.24 -0.24)">
       <use xlink:href="#DejaVuSans-32"/>
       <use xlink:href="#DejaVuSans-38" x="63.623047"/>
      </g>
     </g>
    </g>
    <g id="xtick_9">
     <g id="line2d_9">
      <g>
       <use xlink:href="#m434f186004" x="359.596667" y="346.44" style="stroke: #000000; stroke-width: 0.8"/>
      </g>
     </g>
     <g id="text_9">
      <!-- 32 -->
      <g transform="translate(334.472279 387.930017) rotate(-45) scale(0.24 -0.24)">
       <defs>
        <path id="DejaVuSans-33" d="M 2597 2516 
Q 3050 2419 3304 2112 
Q 3559 1806 3559 1356 
Q 3559 666 3084 287 
Q 2609 -91 1734 -91 
Q 1441 -91 1130 -33 
Q 819 25 488 141 
L 488 750 
Q 750 597 1062 519 
Q 1375 441 1716 441 
Q 2309 441 2620 675 
Q 2931 909 2931 1356 
Q 2931 1769 2642 2001 
Q 2353 2234 1838 2234 
L 1294 2234 
L 1294 2753 
L 1863 2753 
Q 2328 2753 2575 2939 
Q 2822 3125 2822 3475 
Q 2822 3834 2567 4026 
Q 2313 4219 1838 4219 
Q 1578 4219 1281 4162 
Q 984 4106 628 3988 
L 628 4550 
Q 988 4650 1302 4700 
Q 1616 4750 1894 4750 
Q 2613 4750 3031 4423 
Q 3450 4097 3450 3541 
Q 3450 3153 3228 2886 
Q 3006 2619 2597 2516 
z
" transform="scale(0.015625)"/>
       </defs>
       <use xlink:href="#DejaVuSans-33"/>
       <use xlink:href="#DejaVuSans-32" x="63.623047"/>
      </g>
     </g>
    </g>
    <g id="xtick_10">
     <g id="line2d_10">
      <g>
       <use xlink:href="#m434f186004" x="392.04625" y="346.44" style="stroke: #000000; stroke-width: 0.8"/>
      </g>
     </g>
     <g id="text_10">
      <!-- 36 -->
      <g transform="translate(366.921862 387.930017) rotate(-45) scale(0.24 -0.24)">
       <use xlink:href="#DejaVuSans-33"/>
       <use xlink:href="#DejaVuSans-36" x="63.623047"/>
      </g>
     </g>
    </g>
    <g id="xtick_11">
     <g id="line2d_11">
      <g>
       <use xlink:href="#m434f186004" x="424.495833" y="346.44" style="stroke: #000000; stroke-width: 0.8"/>
      </g>
     </g>
     <g id="text_11">
      <!-- 40 -->
      <g transform="translate(399.371446 387.930017) rotate(-45) scale(0.24 -0.24)">
       <use xlink:href="#DejaVuSans-34"/>
       <use xlink:href="#DejaVuSans-30" x="63.623047"/>
      </g>
     </g>
    </g>
    <g id="xtick_12">
     <g id="line2d_12">
      <g>
       <use xlink:href="#m434f186004" x="456.945417" y="346.44" style="stroke: #000000; stroke-width: 0.8"/>
      </g>
     </g>
     <g id="text_12">
      <!-- 44 -->
      <g transform="translate(431.821029 387.930017) rotate(-45) scale(0.24 -0.24)">
       <use xlink:href="#DejaVuSans-34"/>
       <use xlink:href="#DejaVuSans-34" x="63.623047"/>
      </g>
     </g>
    </g>
    <g id="xtick_13">
     <g id="line2d_13">
      <g>
       <use xlink:href="#m434f186004" x="489.395" y="346.44" style="stroke: #000000; stroke-width: 0.8"/>
      </g>
     </g>
     <g id="text_13">
      <!-- 48 -->
      <g transform="translate(464.270612 387.930017) rotate(-45) scale(0.24 -0.24)">
       <use xlink:href="#DejaVuSans-34"/>
       <use xlink:href="#DejaVuSans-38" x="63.623047"/>
      </g>
     </g>
    </g>
    <g id="xtick_14">
     <g id="line2d_14">
      <g>
       <use xlink:href="#m434f186004" x="521.844583" y="346.44" style="stroke: #000000; stroke-width: 0.8"/>
      </g>
     </g>
     <g id="text_14">
      <!-- 52 -->
      <g transform="translate(496.720196 387.930017) rotate(-45) scale(0.24 -0.24)">
       <defs>
        <path id="DejaVuSans-35" d="M 691 4666 
L 3169 4666 
L 3169 4134 
L 1269 4134 
L 1269 2991 
Q 1406 3038 1543 3061 
Q 1681 3084 1819 3084 
Q 2600 3084 3056 2656 
Q 3513 2228 3513 1497 
Q 3513 744 3044 326 
Q 2575 -91 1722 -91 
Q 1428 -91 1123 -41 
Q 819 9 494 109 
L 494 744 
Q 775 591 1075 516 
Q 1375 441 1709 441 
Q 2250 441 2565 725 
Q 2881 1009 2881 1497 
Q 2881 1984 2565 2268 
Q 2250 2553 1709 2553 
Q 1456 2553 1204 2497 
Q 953 2441 691 2322 
L 691 4666 
z
" transform="scale(0.015625)"/>
       </defs>
       <use xlink:href="#DejaVuSans-35"/>
       <use xlink:href="#DejaVuSans-32" x="63.623047"/>
      </g>
     </g>
    </g>
    <g id="xtick_15">
     <g id="line2d_15">
      <g>
       <use xlink:href="#m434f186004" x="554.294167" y="346.44" style="stroke: #000000; stroke-width: 0.8"/>
      </g>
     </g>
     <g id="text_15">
      <!-- 56 -->
      <g transform="translate(529.169779 387.930017) rotate(-45) scale(0.24 -0.24)">
       <use xlink:href="#DejaVuSans-35"/>
       <use xlink:href="#DejaVuSans-36" x="63.623047"/>
      </g>
     </g>
    </g>
    <g id="xtick_16">
     <g id="line2d_16">
      <g>
       <use xlink:href="#m434f186004" x="586.74375" y="346.44" style="stroke: #000000; stroke-width: 0.8"/>
      </g>
     </g>
     <g id="text_16">
      <!-- 60 -->
      <g transform="translate(561.619362 387.930017) rotate(-45) scale(0.24 -0.24)">
       <use xlink:href="#DejaVuSans-36"/>
       <use xlink:href="#DejaVuSans-30" x="63.623047"/>
      </g>
     </g>
    </g>
    <g id="xtick_17">
     <g id="line2d_17">
      <g>
       <use xlink:href="#m434f186004" x="619.193333" y="346.44" style="stroke: #000000; stroke-width: 0.8"/>
      </g>
     </g>
     <g id="text_17">
      <!-- 64 -->
      <g transform="translate(594.068946 387.930017) rotate(-45) scale(0.24 -0.24)">
       <use xlink:href="#DejaVuSans-36"/>
       <use xlink:href="#DejaVuSans-34" x="63.623047"/>
      </g>
     </g>
    </g>
    <g id="xtick_18">
     <g id="line2d_18">
      <g>
       <use xlink:href="#m434f186004" x="651.642917" y="346.44" style="stroke: #000000; stroke-width: 0.8"/>
      </g>
     </g>
     <g id="text_18">
      <!-- 68 -->
      <g transform="translate(626.518529 387.930017) rotate(-45) scale(0.24 -0.24)">
       <use xlink:href="#DejaVuSans-36"/>
       <use xlink:href="#DejaVuSans-38" x="63.623047"/>
      </g>
     </g>
    </g>
    <g id="xtick_19">
     <g id="line2d_19">
      <g>
       <use xlink:href="#m434f186004" x="684.0925" y="346.44" style="stroke: #000000; stroke-width: 0.8"/>
      </g>
     </g>
     <g id="text_19">
      <!-- 72 -->
      <g transform="translate(658.968112 387.930017) rotate(-45) scale(0.24 -0.24)">
       <defs>
        <path id="DejaVuSans-37" d="M 525 4666 
L 3525 4666 
L 3525 4397 
L 1831 0 
L 1172 0 
L 2766 4134 
L 525 4134 
L 525 4666 
z
" transform="scale(0.015625)"/>
       </defs>
       <use xlink:href="#DejaVuSans-37"/>
       <use xlink:href="#DejaVuSans-32" x="63.623047"/>
      </g>
     </g>
    </g>
    <g id="xtick_20">
     <g id="line2d_20">
      <g>
       <use xlink:href="#m434f186004" x="716.542083" y="346.44" style="stroke: #000000; stroke-width: 0.8"/>
      </g>
     </g>
     <g id="text_20">
      <!-- 76 -->
      <g transform="translate(691.417696 387.930017) rotate(-45) scale(0.24 -0.24)">
       <use xlink:href="#DejaVuSans-37"/>
       <use xlink:href="#DejaVuSans-36" x="63.623047"/>
      </g>
     </g>
    </g>
    <g id="xtick_21">
     <g id="line2d_21">
      <g>
       <use xlink:href="#m434f186004" x="748.991667" y="346.44" style="stroke: #000000; stroke-width: 0.8"/>
      </g>
     </g>
     <g id="text_21">
      <!-- 80 -->
      <g transform="translate(723.867279 387.930017) rotate(-45) scale(0.24 -0.24)">
       <use xlink:href="#DejaVuSans-38"/>
       <use xlink:href="#DejaVuSans-30" x="63.623047"/>
      </g>
     </g>
    </g>
    <g id="xtick_22">
     <g id="line2d_22">
      <g>
       <use xlink:href="#m434f186004" x="781.44125" y="346.44" style="stroke: #000000; stroke-width: 0.8"/>
      </g>
     </g>
     <g id="text_22">
      <!-- 84 -->
      <g transform="translate(756.316862 387.930017) rotate(-45) scale(0.24 -0.24)">
       <use xlink:href="#DejaVuSans-38"/>
       <use xlink:href="#DejaVuSans-34" x="63.623047"/>
      </g>
     </g>
    </g>
    <g id="xtick_23">
     <g id="line2d_23">
      <g>
       <use xlink:href="#m434f186004" x="813.890833" y="346.44" style="stroke: #000000; stroke-width: 0.8"/>
      </g>
     </g>
     <g id="text_23">
      <!-- 88 -->
      <g transform="translate(788.766446 387.930017) rotate(-45) scale(0.24 -0.24)">
       <use xlink:href="#DejaVuSans-38"/>
       <use xlink:href="#DejaVuSans-38" x="63.623047"/>
      </g>
     </g>
    </g>
    <g id="xtick_24">
     <g id="line2d_24">
      <g>
       <use xlink:href="#m434f186004" x="846.340417" y="346.44" style="stroke: #000000; stroke-width: 0.8"/>
      </g>
     </g>
     <g id="text_24">
      <!-- 92 -->
      <g transform="translate(821.216029 387.930017) rotate(-45) scale(0.24 -0.24)">
       <defs>
        <path id="DejaVuSans-39" d="M 703 97 
L 703 672 
Q 941 559 1184 500 
Q 1428 441 1663 441 
Q 2288 441 2617 861 
Q 2947 1281 2994 2138 
Q 2813 1869 2534 1725 
Q 2256 1581 1919 1581 
Q 1219 1581 811 2004 
Q 403 2428 403 3163 
Q 403 3881 828 4315 
Q 1253 4750 1959 4750 
Q 2769 4750 3195 4129 
Q 3622 3509 3622 2328 
Q 3622 1225 3098 567 
Q 2575 -91 1691 -91 
Q 1453 -91 1209 -44 
Q 966 3 703 97 
z
M 1959 2075 
Q 2384 2075 2632 2365 
Q 2881 2656 2881 3163 
Q 2881 3666 2632 3958 
Q 2384 4250 1959 4250 
Q 1534 4250 1286 3958 
Q 1038 3666 1038 3163 
Q 1038 2656 1286 2365 
Q 1534 2075 1959 2075 
z
" transform="scale(0.015625)"/>
       </defs>
       <use xlink:href="#DejaVuSans-39"/>
       <use xlink:href="#DejaVuSans-32" x="63.623047"/>
      </g>
     </g>
    </g>
    <g id="xtick_25">
     <g id="line2d_25">
      <g>
       <use xlink:href="#m434f186004" x="878.79" y="346.44" style="stroke: #000000; stroke-width: 0.8"/>
      </g>
     </g>
     <g id="text_25">
      <!-- 96 -->
      <g transform="translate(853.665612 387.930017) rotate(-45) scale(0.24 -0.24)">
       <use xlink:href="#DejaVuSans-39"/>
       <use xlink:href="#DejaVuSans-36" x="63.623047"/>
      </g>
     </g>
    </g>
    <g id="text_26">
     <!-- Time slots -->
     <g transform="translate(413.073125 418.254676) scale(0.3 -0.3)">
      <defs>
       <path id="DejaVuSans-54" d="M -19 4666 
L 3928 4666 
L 3928 4134 
L 2272 4134 
L 2272 0 
L 1638 0 
L 1638 4134 
L -19 4134 
L -19 4666 
z
" transform="scale(0.015625)"/>
       <path id="DejaVuSans-69" d="M 603 3500 
L 1178 3500 
L 1178 0 
L 603 0 
L 603 3500 
z
M 603 4863 
L 1178 4863 
L 1178 4134 
L 603 4134 
L 603 4863 
z
" transform="scale(0.015625)"/>
       <path id="DejaVuSans-6d" d="M 3328 2828 
Q 3544 3216 3844 3400 
Q 4144 3584 4550 3584 
Q 5097 3584 5394 3201 
Q 5691 2819 5691 2113 
L 5691 0 
L 5113 0 
L 5113 2094 
Q 5113 2597 4934 2840 
Q 4756 3084 4391 3084 
Q 3944 3084 3684 2787 
Q 3425 2491 3425 1978 
L 3425 0 
L 2847 0 
L 2847 2094 
Q 2847 2600 2669 2842 
Q 2491 3084 2119 3084 
Q 1678 3084 1418 2786 
Q 1159 2488 1159 1978 
L 1159 0 
L 581 0 
L 581 3500 
L 1159 3500 
L 1159 2956 
Q 1356 3278 1631 3431 
Q 1906 3584 2284 3584 
Q 2666 3584 2933 3390 
Q 3200 3197 3328 2828 
z
" transform="scale(0.015625)"/>
       <path id="DejaVuSans-65" d="M 3597 1894 
L 3597 1613 
L 953 1613 
Q 991 1019 1311 708 
Q 1631 397 2203 397 
Q 2534 397 2845 478 
Q 3156 559 3463 722 
L 3463 178 
Q 3153 47 2828 -22 
Q 2503 -91 2169 -91 
Q 1331 -91 842 396 
Q 353 884 353 1716 
Q 353 2575 817 3079 
Q 1281 3584 2069 3584 
Q 2775 3584 3186 3129 
Q 3597 2675 3597 1894 
z
M 3022 2063 
Q 3016 2534 2758 2815 
Q 2500 3097 2075 3097 
Q 1594 3097 1305 2825 
Q 1016 2553 972 2059 
L 3022 2063 
z
" transform="scale(0.015625)"/>
       <path id="DejaVuSans-20" transform="scale(0.015625)"/>
       <path id="DejaVuSans-73" d="M 2834 3397 
L 2834 2853 
Q 2591 2978 2328 3040 
Q 2066 3103 1784 3103 
Q 1356 3103 1142 2972 
Q 928 2841 928 2578 
Q 928 2378 1081 2264 
Q 1234 2150 1697 2047 
L 1894 2003 
Q 2506 1872 2764 1633 
Q 3022 1394 3022 966 
Q 3022 478 2636 193 
Q 2250 -91 1575 -91 
Q 1294 -91 989 -36 
Q 684 19 347 128 
L 347 722 
Q 666 556 975 473 
Q 1284 391 1588 391 
Q 1994 391 2212 530 
Q 2431 669 2431 922 
Q 2431 1156 2273 1281 
Q 2116 1406 1581 1522 
L 1381 1569 
Q 847 1681 609 1914 
Q 372 2147 372 2553 
Q 372 3047 722 3315 
Q 1072 3584 1716 3584 
Q 2034 3584 2315 3537 
Q 2597 3491 2834 3397 
z
" transform="scale(0.015625)"/>
       <path id="DejaVuSans-6c" d="M 603 4863 
L 1178 4863 
L 1178 0 
L 603 0 
L 603 4863 
z
" transform="scale(0.015625)"/>
       <path id="DejaVuSans-6f" d="M 1959 3097 
Q 1497 3097 1228 2736 
Q 959 2375 959 1747 
Q 959 1119 1226 758 
Q 1494 397 1959 397 
Q 2419 397 2687 759 
Q 2956 1122 2956 1747 
Q 2956 2369 2687 2733 
Q 2419 3097 1959 3097 
z
M 1959 3584 
Q 2709 3584 3137 3096 
Q 3566 2609 3566 1747 
Q 3566 888 3137 398 
Q 2709 -91 1959 -91 
Q 1206 -91 779 398 
Q 353 888 353 1747 
Q 353 2609 779 3096 
Q 1206 3584 1959 3584 
z
" transform="scale(0.015625)"/>
       <path id="DejaVuSans-74" d="M 1172 4494 
L 1172 3500 
L 2356 3500 
L 2356 3053 
L 1172 3053 
L 1172 1153 
Q 1172 725 1289 603 
Q 1406 481 1766 481 
L 2356 481 
L 2356 0 
L 1766 0 
Q 1100 0 847 248 
Q 594 497 594 1153 
L 594 3053 
L 172 3053 
L 172 3500 
L 594 3500 
L 594 4494 
L 1172 4494 
z
" transform="scale(0.015625)"/>
      </defs>
      <use xlink:href="#DejaVuSans-54"/>
      <use xlink:href="#DejaVuSans-69" x="57.958984"/>
      <use xlink:href="#DejaVuSans-6d" x="85.742188"/>
      <use xlink:href="#DejaVuSans-65" x="183.154297"/>
      <use xlink:href="#DejaVuSans-20" x="244.677734"/>
      <use xlink:href="#DejaVuSans-73" x="276.464844"/>
      <use xlink:href="#DejaVuSans-6c" x="328.564453"/>
      <use xlink:href="#DejaVuSans-6f" x="356.347656"/>
      <use xlink:href="#DejaVuSans-74" x="417.529297"/>
      <use xlink:href="#DejaVuSans-73" x="456.738281"/>
     </g>
    </g>
   </g>
   <g id="matplotlib.axis_2">
    <g id="ytick_1">
     <g id="line2d_26">
      <defs>
       <path id="m66e9ff5f41" d="M 0 0 
L -3.5 0 
" style="stroke: #000000; stroke-width: 0.8"/>
      </defs>
      <g>
       <use xlink:href="#m66e9ff5f41" x="100" y="318.17" style="stroke: #000000; stroke-width: 0.8"/>
      </g>
     </g>
     <g id="text_27">
      <!-- EAF1 -->
      <g transform="translate(17.179688 329.567656) scale(0.3 -0.3)">
       <defs>
        <path id="DejaVuSans-45" d="M 628 4666 
L 3578 4666 
L 3578 4134 
L 1259 4134 
L 1259 2753 
L 3481 2753 
L 3481 2222 
L 1259 2222 
L 1259 531 
L 3634 531 
L 3634 0 
L 628 0 
L 628 4666 
z
" transform="scale(0.015625)"/>
        <path id="DejaVuSans-41" d="M 2188 4044 
L 1331 1722 
L 3047 1722 
L 2188 4044 
z
M 1831 4666 
L 2547 4666 
L 4325 0 
L 3669 0 
L 3244 1197 
L 1141 1197 
L 716 0 
L 50 0 
L 1831 4666 
z
" transform="scale(0.015625)"/>
        <path id="DejaVuSans-46" d="M 628 4666 
L 3309 4666 
L 3309 4134 
L 1259 4134 
L 1259 2759 
L 3109 2759 
L 3109 2228 
L 1259 2228 
L 1259 0 
L 628 0 
L 628 4666 
z
" transform="scale(0.015625)"/>
       </defs>
       <use xlink:href="#DejaVuSans-45"/>
       <use xlink:href="#DejaVuSans-41" x="63.183594"/>
       <use xlink:href="#DejaVuSans-46" x="131.591797"/>
       <use xlink:href="#DejaVuSans-31" x="189.111328"/>
      </g>
     </g>
    </g>
    <g id="ytick_2">
     <g id="line2d_27">
      <g>
       <use xlink:href="#m66e9ff5f41" x="100" y="261.63" style="stroke: #000000; stroke-width: 0.8"/>
      </g>
     </g>
     <g id="text_28">
      <!-- EAF2 -->
      <g transform="translate(17.179688 273.027656) scale(0.3 -0.3)">
       <use xlink:href="#DejaVuSans-45"/>
       <use xlink:href="#DejaVuSans-41" x="63.183594"/>
       <use xlink:href="#DejaVuSans-46" x="131.591797"/>
       <use xlink:href="#DejaVuSans-32" x="189.111328"/>
      </g>
     </g>
    </g>
    <g id="ytick_3">
     <g id="line2d_28">
      <g>
       <use xlink:href="#m66e9ff5f41" x="100" y="205.09" style="stroke: #000000; stroke-width: 0.8"/>
      </g>
     </g>
     <g id="text_29">
      <!-- AOD1 -->
      <g transform="translate(7.2 216.487656) scale(0.3 -0.3)">
       <defs>
        <path id="DejaVuSans-4f" d="M 2522 4238 
Q 1834 4238 1429 3725 
Q 1025 3213 1025 2328 
Q 1025 1447 1429 934 
Q 1834 422 2522 422 
Q 3209 422 3611 934 
Q 4013 1447 4013 2328 
Q 4013 3213 3611 3725 
Q 3209 4238 2522 4238 
z
M 2522 4750 
Q 3503 4750 4090 4092 
Q 4678 3434 4678 2328 
Q 4678 1225 4090 567 
Q 3503 -91 2522 -91 
Q 1538 -91 948 565 
Q 359 1222 359 2328 
Q 359 3434 948 4092 
Q 1538 4750 2522 4750 
z
" transform="scale(0.015625)"/>
        <path id="DejaVuSans-44" d="M 1259 4147 
L 1259 519 
L 2022 519 
Q 2988 519 3436 956 
Q 3884 1394 3884 2338 
Q 3884 3275 3436 3711 
Q 2988 4147 2022 4147 
L 1259 4147 
z
M 628 4666 
L 1925 4666 
Q 3281 4666 3915 4102 
Q 4550 3538 4550 2338 
Q 4550 1131 3912 565 
Q 3275 0 1925 0 
L 628 0 
L 628 4666 
z
" transform="scale(0.015625)"/>
       </defs>
       <use xlink:href="#DejaVuSans-41"/>
       <use xlink:href="#DejaVuSans-4f" x="66.658203"/>
       <use xlink:href="#DejaVuSans-44" x="145.369141"/>
       <use xlink:href="#DejaVuSans-31" x="222.371094"/>
      </g>
     </g>
    </g>
    <g id="ytick_4">
     <g id="line2d_29">
      <g>
       <use xlink:href="#m66e9ff5f41" x="100" y="148.55" style="stroke: #000000; stroke-width: 0.8"/>
      </g>
     </g>
     <g id="text_30">
      <!-- AOD2 -->
      <g transform="translate(7.2 159.947656) scale(0.3 -0.3)">
       <use xlink:href="#DejaVuSans-41"/>
       <use xlink:href="#DejaVuSans-4f" x="66.658203"/>
       <use xlink:href="#DejaVuSans-44" x="145.369141"/>
       <use xlink:href="#DejaVuSans-32" x="222.371094"/>
      </g>
     </g>
    </g>
    <g id="ytick_5">
     <g id="line2d_30">
      <g>
       <use xlink:href="#m66e9ff5f41" x="100" y="92.01" style="stroke: #000000; stroke-width: 0.8"/>
      </g>
     </g>
     <g id="text_31">
      <!-- LF1 -->
      <g transform="translate(39.942188 103.407656) scale(0.3 -0.3)">
       <defs>
        <path id="DejaVuSans-4c" d="M 628 4666 
L 1259 4666 
L 1259 531 
L 3531 531 
L 3531 0 
L 628 0 
L 628 4666 
z
" transform="scale(0.015625)"/>
       </defs>
       <use xlink:href="#DejaVuSans-4c"/>
       <use xlink:href="#DejaVuSans-46" x="55.712891"/>
       <use xlink:href="#DejaVuSans-31" x="113.232422"/>
      </g>
     </g>
    </g>
    <g id="ytick_6">
     <g id="line2d_31">
      <g>
       <use xlink:href="#m66e9ff5f41" x="100" y="35.47" style="stroke: #000000; stroke-width: 0.8"/>
      </g>
     </g>
     <g id="text_32">
      <!-- LF2 -->
      <g transform="translate(39.942188 46.867656) scale(0.3 -0.3)">
       <use xlink:href="#DejaVuSans-4c"/>
       <use xlink:href="#DejaVuSans-46" x="55.712891"/>
       <use xlink:href="#DejaVuSans-32" x="113.232422"/>
      </g>
     </g>
    </g>
   </g>
   <g id="patch_75">
    <path d="M 100 346.44 
L 100 7.2 
" style="fill: none; stroke: #000000; stroke-width: 0.8; stroke-linejoin: miter; stroke-linecap: square"/>
   </g>
   <g id="patch_76">
    <path d="M 878.79 346.44 
L 878.79 7.2 
" style="fill: none; stroke: #000000; stroke-width: 0.8; stroke-linejoin: miter; stroke-linecap: square"/>
   </g>
   <g id="patch_77">
    <path d="M 100 346.44 
L 878.79 346.44 
" style="fill: none; stroke: #000000; stroke-width: 0.8; stroke-linejoin: miter; stroke-linecap: square"/>
   </g>
   <g id="patch_78">
    <path d="M 100 7.2 
L 878.79 7.2 
" style="fill: none; stroke: #000000; stroke-width: 0.8; stroke-linejoin: miter; stroke-linecap: square"/>
   </g>
   <g id="legend_1">
    <g id="patch_79">
     <path d="M 919.7295 362.475 
L 991.3545 362.475 
Q 993.3545 362.475 993.3545 360.475 
L 993.3545 9.2 
Q 993.3545 7.2 991.3545 7.2 
L 919.7295 7.2 
Q 917.7295 7.2 917.7295 9.2 
L 917.7295 360.475 
Q 917.7295 362.475 919.7295 362.475 
z
" style="fill: #ffffff; opacity: 0.8; stroke: #cccccc; stroke-linejoin: miter"/>
    </g>
    <g id="patch_80">
     <path d="M 921.7295 18.798437 
L 941.7295 18.798437 
L 941.7295 11.798437 
L 921.7295 11.798437 
z
" style="fill: #7fffd4; stroke: #7fffd4; stroke-linejoin: miter"/>
    </g>
    <g id="text_33">
     <!-- Heat 9 -->
     <g transform="translate(949.7295 18.798437) scale(0.1 -0.1)">
      <defs>
       <path id="DejaVuSans-48" d="M 628 4666 
L 1259 4666 
L 1259 2753 
L 3553 2753 
L 3553 4666 
L 4184 4666 
L 4184 0 
L 3553 0 
L 3553 2222 
L 1259 2222 
L 1259 0 
L 628 0 
L 628 4666 
z
" transform="scale(0.015625)"/>
       <path id="DejaVuSans-61" d="M 2194 1759 
Q 1497 1759 1228 1600 
Q 959 1441 959 1056 
Q 959 750 1161 570 
Q 1363 391 1709 391 
Q 2188 391 2477 730 
Q 2766 1069 2766 1631 
L 2766 1759 
L 2194 1759 
z
M 3341 1997 
L 3341 0 
L 2766 0 
L 2766 531 
Q 2569 213 2275 61 
Q 1981 -91 1556 -91 
Q 1019 -91 701 211 
Q 384 513 384 1019 
Q 384 1609 779 1909 
Q 1175 2209 1959 2209 
L 2766 2209 
L 2766 2266 
Q 2766 2663 2505 2880 
Q 2244 3097 1772 3097 
Q 1472 3097 1187 3025 
Q 903 2953 641 2809 
L 641 3341 
Q 956 3463 1253 3523 
Q 1550 3584 1831 3584 
Q 2591 3584 2966 3190 
Q 3341 2797 3341 1997 
z
" transform="scale(0.015625)"/>
      </defs>
      <use xlink:href="#DejaVuSans-48"/>
      <use xlink:href="#DejaVuSans-65" x="75.195312"/>
      <use xlink:href="#DejaVuSans-61" x="136.71875"/>
      <use xlink:href="#DejaVuSans-74" x="197.998047"/>
      <use xlink:href="#DejaVuSans-20" x="237.207031"/>
      <use xlink:href="#DejaVuSans-39" x="268.994141"/>
     </g>
    </g>
    <g id="patch_81">
     <path d="M 921.7295 33.476562 
L 941.7295 33.476562 
L 941.7295 26.476562 
L 921.7295 26.476562 
z
" style="fill: #87ceeb; stroke: #87ceeb; stroke-linejoin: miter"/>
    </g>
    <g id="text_34">
     <!-- Heat 10 -->
     <g transform="translate(949.7295 33.476562) scale(0.1 -0.1)">
      <use xlink:href="#DejaVuSans-48"/>
      <use xlink:href="#DejaVuSans-65" x="75.195312"/>
      <use xlink:href="#DejaVuSans-61" x="136.71875"/>
      <use xlink:href="#DejaVuSans-74" x="197.998047"/>
      <use xlink:href="#DejaVuSans-20" x="237.207031"/>
      <use xlink:href="#DejaVuSans-31" x="268.994141"/>
      <use xlink:href="#DejaVuSans-30" x="332.617188"/>
     </g>
    </g>
    <g id="patch_82">
     <path d="M 921.7295 48.154687 
L 941.7295 48.154687 
L 941.7295 41.154687 
L 921.7295 41.154687 
z
" style="fill: #bf00bf; stroke: #bf00bf; stroke-linejoin: miter"/>
    </g>
    <g id="text_35">
     <!-- Heat 5 -->
     <g transform="translate(949.7295 48.154687) scale(0.1 -0.1)">
      <use xlink:href="#DejaVuSans-48"/>
      <use xlink:href="#DejaVuSans-65" x="75.195312"/>
      <use xlink:href="#DejaVuSans-61" x="136.71875"/>
      <use xlink:href="#DejaVuSans-74" x="197.998047"/>
      <use xlink:href="#DejaVuSans-20" x="237.207031"/>
      <use xlink:href="#DejaVuSans-35" x="268.994141"/>
     </g>
    </g>
    <g id="patch_83">
     <path d="M 921.7295 62.832812 
L 941.7295 62.832812 
L 941.7295 55.832812 
L 921.7295 55.832812 
z
" style="fill: #800080; stroke: #800080; stroke-linejoin: miter"/>
    </g>
    <g id="text_36">
     <!-- Heat 13 -->
     <g transform="translate(949.7295 62.832812) scale(0.1 -0.1)">
      <use xlink:href="#DejaVuSans-48"/>
      <use xlink:href="#DejaVuSans-65" x="75.195312"/>
      <use xlink:href="#DejaVuSans-61" x="136.71875"/>
      <use xlink:href="#DejaVuSans-74" x="197.998047"/>
      <use xlink:href="#DejaVuSans-20" x="237.207031"/>
      <use xlink:href="#DejaVuSans-31" x="268.994141"/>
      <use xlink:href="#DejaVuSans-33" x="332.617188"/>
     </g>
    </g>
    <g id="patch_84">
     <path d="M 921.7295 77.510938 
L 941.7295 77.510938 
L 941.7295 70.510938 
L 921.7295 70.510938 
z
" style="fill: #0000ff; stroke: #0000ff; stroke-linejoin: miter"/>
    </g>
    <g id="text_37">
     <!-- Heat 1 -->
     <g transform="translate(949.7295 77.510938) scale(0.1 -0.1)">
      <use xlink:href="#DejaVuSans-48"/>
      <use xlink:href="#DejaVuSans-65" x="75.195312"/>
      <use xlink:href="#DejaVuSans-61" x="136.71875"/>
      <use xlink:href="#DejaVuSans-74" x="197.998047"/>
      <use xlink:href="#DejaVuSans-20" x="237.207031"/>
      <use xlink:href="#DejaVuSans-31" x="268.994141"/>
     </g>
    </g>
    <g id="patch_85">
     <path d="M 921.7295 92.189062 
L 941.7295 92.189062 
L 941.7295 85.189062 
L 921.7295 85.189062 
z
" style="fill: #00ff00; stroke: #00ff00; stroke-linejoin: miter"/>
    </g>
    <g id="text_38">
     <!-- Heat 14 -->
     <g transform="translate(949.7295 92.189062) scale(0.1 -0.1)">
      <use xlink:href="#DejaVuSans-48"/>
      <use xlink:href="#DejaVuSans-65" x="75.195312"/>
      <use xlink:href="#DejaVuSans-61" x="136.71875"/>
      <use xlink:href="#DejaVuSans-74" x="197.998047"/>
      <use xlink:href="#DejaVuSans-20" x="237.207031"/>
      <use xlink:href="#DejaVuSans-31" x="268.994141"/>
      <use xlink:href="#DejaVuSans-34" x="332.617188"/>
     </g>
    </g>
    <g id="patch_86">
     <path d="M 921.7295 106.867188 
L 941.7295 106.867188 
L 941.7295 99.867188 
L 921.7295 99.867188 
z
" style="fill: #ff0000; stroke: #ff0000; stroke-linejoin: miter"/>
    </g>
    <g id="text_39">
     <!-- Heat 3 -->
     <g transform="translate(949.7295 106.867188) scale(0.1 -0.1)">
      <use xlink:href="#DejaVuSans-48"/>
      <use xlink:href="#DejaVuSans-65" x="75.195312"/>
      <use xlink:href="#DejaVuSans-61" x="136.71875"/>
      <use xlink:href="#DejaVuSans-74" x="197.998047"/>
      <use xlink:href="#DejaVuSans-20" x="237.207031"/>
      <use xlink:href="#DejaVuSans-33" x="268.994141"/>
     </g>
    </g>
    <g id="patch_87">
     <path d="M 921.7295 121.545312 
L 941.7295 121.545312 
L 941.7295 114.545312 
L 921.7295 114.545312 
z
" style="fill: #808000; stroke: #808000; stroke-linejoin: miter"/>
    </g>
    <g id="text_40">
     <!-- Heat 19 -->
     <g transform="translate(949.7295 121.545312) scale(0.1 -0.1)">
      <use xlink:href="#DejaVuSans-48"/>
      <use xlink:href="#DejaVuSans-65" x="75.195312"/>
      <use xlink:href="#DejaVuSans-61" x="136.71875"/>
      <use xlink:href="#DejaVuSans-74" x="197.998047"/>
      <use xlink:href="#DejaVuSans-20" x="237.207031"/>
      <use xlink:href="#DejaVuSans-31" x="268.994141"/>
      <use xlink:href="#DejaVuSans-39" x="332.617188"/>
     </g>
    </g>
    <g id="patch_88">
     <path d="M 921.7295 136.223437 
L 941.7295 136.223437 
L 941.7295 129.223437 
L 921.7295 129.223437 
z
" style="fill: #bfbf00; stroke: #bfbf00; stroke-linejoin: miter"/>
    </g>
    <g id="text_41">
     <!-- Heat 6 -->
     <g transform="translate(949.7295 136.223437) scale(0.1 -0.1)">
      <use xlink:href="#DejaVuSans-48"/>
      <use xlink:href="#DejaVuSans-65" x="75.195312"/>
      <use xlink:href="#DejaVuSans-61" x="136.71875"/>
      <use xlink:href="#DejaVuSans-74" x="197.998047"/>
      <use xlink:href="#DejaVuSans-20" x="237.207031"/>
      <use xlink:href="#DejaVuSans-36" x="268.994141"/>
     </g>
    </g>
    <g id="patch_89">
     <path d="M 921.7295 150.901562 
L 941.7295 150.901562 
L 941.7295 143.901562 
L 921.7295 143.901562 
z
" style="fill: #dda0dd; stroke: #dda0dd; stroke-linejoin: miter"/>
    </g>
    <g id="text_42">
     <!-- Heat 23 -->
     <g transform="translate(949.7295 150.901562) scale(0.1 -0.1)">
      <use xlink:href="#DejaVuSans-48"/>
      <use xlink:href="#DejaVuSans-65" x="75.195312"/>
      <use xlink:href="#DejaVuSans-61" x="136.71875"/>
      <use xlink:href="#DejaVuSans-74" x="197.998047"/>
      <use xlink:href="#DejaVuSans-20" x="237.207031"/>
      <use xlink:href="#DejaVuSans-32" x="268.994141"/>
      <use xlink:href="#DejaVuSans-33" x="332.617188"/>
     </g>
    </g>
    <g id="patch_90">
     <path d="M 921.7295 165.579687 
L 941.7295 165.579687 
L 941.7295 158.579687 
L 921.7295 158.579687 
z
" style="fill: #c0c0c0; stroke: #c0c0c0; stroke-linejoin: miter"/>
    </g>
    <g id="text_43">
     <!-- Heat 18 -->
     <g transform="translate(949.7295 165.579687) scale(0.1 -0.1)">
      <use xlink:href="#DejaVuSans-48"/>
      <use xlink:href="#DejaVuSans-65" x="75.195312"/>
      <use xlink:href="#DejaVuSans-61" x="136.71875"/>
      <use xlink:href="#DejaVuSans-74" x="197.998047"/>
      <use xlink:href="#DejaVuSans-20" x="237.207031"/>
      <use xlink:href="#DejaVuSans-31" x="268.994141"/>
      <use xlink:href="#DejaVuSans-38" x="332.617188"/>
     </g>
    </g>
    <g id="patch_91">
     <path d="M 921.7295 180.257812 
L 941.7295 180.257812 
L 941.7295 173.257812 
L 921.7295 173.257812 
z
" style="fill: #008000; stroke: #008000; stroke-linejoin: miter"/>
    </g>
    <g id="text_44">
     <!-- Heat 2 -->
     <g transform="translate(949.7295 180.257812) scale(0.1 -0.1)">
      <use xlink:href="#DejaVuSans-48"/>
      <use xlink:href="#DejaVuSans-65" x="75.195312"/>
      <use xlink:href="#DejaVuSans-61" x="136.71875"/>
      <use xlink:href="#DejaVuSans-74" x="197.998047"/>
      <use xlink:href="#DejaVuSans-20" x="237.207031"/>
      <use xlink:href="#DejaVuSans-32" x="268.994141"/>
     </g>
    </g>
    <g id="patch_92">
     <path d="M 921.7295 194.935937 
L 941.7295 194.935937 
L 941.7295 187.935937 
L 921.7295 187.935937 
z
" style="fill: #ffd700; stroke: #ffd700; stroke-linejoin: miter"/>
    </g>
    <g id="text_45">
     <!-- Heat 17 -->
     <g transform="translate(949.7295 194.935937) scale(0.1 -0.1)">
      <use xlink:href="#DejaVuSans-48"/>
      <use xlink:href="#DejaVuSans-65" x="75.195312"/>
      <use xlink:href="#DejaVuSans-61" x="136.71875"/>
      <use xlink:href="#DejaVuSans-74" x="197.998047"/>
      <use xlink:href="#DejaVuSans-20" x="237.207031"/>
      <use xlink:href="#DejaVuSans-31" x="268.994141"/>
      <use xlink:href="#DejaVuSans-37" x="332.617188"/>
     </g>
    </g>
    <g id="patch_93">
     <path d="M 921.7295 209.614062 
L 941.7295 209.614062 
L 941.7295 202.614062 
L 921.7295 202.614062 
z
" style="fill: #ffa500; stroke: #ffa500; stroke-linejoin: miter"/>
    </g>
    <g id="text_46">
     <!-- Heat 12 -->
     <g transform="translate(949.7295 209.614062) scale(0.1 -0.1)">
      <use xlink:href="#DejaVuSans-48"/>
      <use xlink:href="#DejaVuSans-65" x="75.195312"/>
      <use xlink:href="#DejaVuSans-61" x="136.71875"/>
      <use xlink:href="#DejaVuSans-74" x="197.998047"/>
      <use xlink:href="#DejaVuSans-20" x="237.207031"/>
      <use xlink:href="#DejaVuSans-31" x="268.994141"/>
      <use xlink:href="#DejaVuSans-32" x="332.617188"/>
     </g>
    </g>
    <g id="patch_94">
     <path d="M 921.7295 224.292187 
L 941.7295 224.292187 
L 941.7295 217.292187 
L 921.7295 217.292187 
z
" style="fill: #000080; stroke: #000080; stroke-linejoin: miter"/>
    </g>
    <g id="text_47">
     <!-- Heat 11 -->
     <g transform="translate(949.7295 224.292187) scale(0.1 -0.1)">
      <use xlink:href="#DejaVuSans-48"/>
      <use xlink:href="#DejaVuSans-65" x="75.195312"/>
      <use xlink:href="#DejaVuSans-61" x="136.71875"/>
      <use xlink:href="#DejaVuSans-74" x="197.998047"/>
      <use xlink:href="#DejaVuSans-20" x="237.207031"/>
      <use xlink:href="#DejaVuSans-31" x="268.994141"/>
      <use xlink:href="#DejaVuSans-31" x="332.617188"/>
     </g>
    </g>
    <g id="patch_95">
     <path d="M 921.7295 238.970312 
L 941.7295 238.970312 
L 941.7295 231.970312 
L 921.7295 231.970312 
z
" style="fill: #008080; stroke: #008080; stroke-linejoin: miter"/>
    </g>
    <g id="text_48">
     <!-- Heat 16 -->
     <g transform="translate(949.7295 238.970312) scale(0.1 -0.1)">
      <use xlink:href="#DejaVuSans-48"/>
      <use xlink:href="#DejaVuSans-65" x="75.195312"/>
      <use xlink:href="#DejaVuSans-61" x="136.71875"/>
      <use xlink:href="#DejaVuSans-74" x="197.998047"/>
      <use xlink:href="#DejaVuSans-20" x="237.207031"/>
      <use xlink:href="#DejaVuSans-31" x="268.994141"/>
      <use xlink:href="#DejaVuSans-36" x="332.617188"/>
     </g>
    </g>
    <g id="patch_96">
     <path d="M 921.7295 253.648437 
L 941.7295 253.648437 
L 941.7295 246.648437 
L 921.7295 246.648437 
z
" style="fill: #ffc0cb; stroke: #ffc0cb; stroke-linejoin: miter"/>
    </g>
    <g id="text_49">
     <!-- Heat 15 -->
     <g transform="translate(949.7295 253.648437) scale(0.1 -0.1)">
      <use xlink:href="#DejaVuSans-48"/>
      <use xlink:href="#DejaVuSans-65" x="75.195312"/>
      <use xlink:href="#DejaVuSans-61" x="136.71875"/>
      <use xlink:href="#DejaVuSans-74" x="197.998047"/>
      <use xlink:href="#DejaVuSans-20" x="237.207031"/>
      <use xlink:href="#DejaVuSans-31" x="268.994141"/>
      <use xlink:href="#DejaVuSans-35" x="332.617188"/>
     </g>
    </g>
    <g id="patch_97">
     <path d="M 921.7295 268.326562 
L 941.7295 268.326562 
L 941.7295 261.326562 
L 921.7295 261.326562 
z
" style="fill: #fa8072; stroke: #fa8072; stroke-linejoin: miter"/>
    </g>
    <g id="text_50">
     <!-- Heat 21 -->
     <g transform="translate(949.7295 268.326562) scale(0.1 -0.1)">
      <use xlink:href="#DejaVuSans-48"/>
      <use xlink:href="#DejaVuSans-65" x="75.195312"/>
      <use xlink:href="#DejaVuSans-61" x="136.71875"/>
      <use xlink:href="#DejaVuSans-74" x="197.998047"/>
      <use xlink:href="#DejaVuSans-20" x="237.207031"/>
      <use xlink:href="#DejaVuSans-32" x="268.994141"/>
      <use xlink:href="#DejaVuSans-31" x="332.617188"/>
     </g>
    </g>
    <g id="patch_98">
     <path d="M 921.7295 283.004687 
L 941.7295 283.004687 
L 941.7295 276.004687 
L 921.7295 276.004687 
z
" style="fill: #808080; stroke: #808080; stroke-linejoin: miter"/>
    </g>
    <g id="text_51">
     <!-- Heat 8 -->
     <g transform="translate(949.7295 283.004687) scale(0.1 -0.1)">
      <use xlink:href="#DejaVuSans-48"/>
      <use xlink:href="#DejaVuSans-65" x="75.195312"/>
      <use xlink:href="#DejaVuSans-61" x="136.71875"/>
      <use xlink:href="#DejaVuSans-74" x="197.998047"/>
      <use xlink:href="#DejaVuSans-20" x="237.207031"/>
      <use xlink:href="#DejaVuSans-38" x="268.994141"/>
     </g>
    </g>
    <g id="patch_99">
     <path d="M 921.7295 297.682812 
L 941.7295 297.682812 
L 941.7295 290.682812 
L 921.7295 290.682812 
z
" style="stroke: #000000; stroke-linejoin: miter"/>
    </g>
    <g id="text_52">
     <!-- Heat 7 -->
     <g transform="translate(949.7295 297.682812) scale(0.1 -0.1)">
      <use xlink:href="#DejaVuSans-48"/>
      <use xlink:href="#DejaVuSans-65" x="75.195312"/>
      <use xlink:href="#DejaVuSans-61" x="136.71875"/>
      <use xlink:href="#DejaVuSans-74" x="197.998047"/>
      <use xlink:href="#DejaVuSans-20" x="237.207031"/>
      <use xlink:href="#DejaVuSans-37" x="268.994141"/>
     </g>
    </g>
    <g id="patch_100">
     <path d="M 921.7295 312.360937 
L 941.7295 312.360937 
L 941.7295 305.360937 
L 921.7295 305.360937 
z
" style="fill: #00bfbf; stroke: #00bfbf; stroke-linejoin: miter"/>
    </g>
    <g id="text_53">
     <!-- Heat 4 -->
     <g transform="translate(949.7295 312.360937) scale(0.1 -0.1)">
      <use xlink:href="#DejaVuSans-48"/>
      <use xlink:href="#DejaVuSans-65" x="75.195312"/>
      <use xlink:href="#DejaVuSans-61" x="136.71875"/>
      <use xlink:href="#DejaVuSans-74" x="197.998047"/>
      <use xlink:href="#DejaVuSans-20" x="237.207031"/>
      <use xlink:href="#DejaVuSans-34" x="268.994141"/>
     </g>
    </g>
    <g id="patch_101">
     <path d="M 921.7295 327.039062 
L 941.7295 327.039062 
L 941.7295 320.039062 
L 921.7295 320.039062 
z
" style="fill: #cd853f; stroke: #cd853f; stroke-linejoin: miter"/>
    </g>
    <g id="text_54">
     <!-- Heat 22 -->
     <g transform="translate(949.7295 327.039062) scale(0.1 -0.1)">
      <use xlink:href="#DejaVuSans-48"/>
      <use xlink:href="#DejaVuSans-65" x="75.195312"/>
      <use xlink:href="#DejaVuSans-61" x="136.71875"/>
      <use xlink:href="#DejaVuSans-74" x="197.998047"/>
      <use xlink:href="#DejaVuSans-20" x="237.207031"/>
      <use xlink:href="#DejaVuSans-32" x="268.994141"/>
      <use xlink:href="#DejaVuSans-32" x="332.617188"/>
     </g>
    </g>
    <g id="patch_102">
     <path d="M 921.7295 341.717188 
L 941.7295 341.717188 
L 941.7295 334.717188 
L 921.7295 334.717188 
z
" style="fill: #006400; stroke: #006400; stroke-linejoin: miter"/>
    </g>
    <g id="text_55">
     <!-- Heat 24 -->
     <g transform="translate(949.7295 341.717188) scale(0.1 -0.1)">
      <use xlink:href="#DejaVuSans-48"/>
      <use xlink:href="#DejaVuSans-65" x="75.195312"/>
      <use xlink:href="#DejaVuSans-61" x="136.71875"/>
      <use xlink:href="#DejaVuSans-74" x="197.998047"/>
      <use xlink:href="#DejaVuSans-20" x="237.207031"/>
      <use xlink:href="#DejaVuSans-32" x="268.994141"/>
      <use xlink:href="#DejaVuSans-34" x="332.617188"/>
     </g>
    </g>
    <g id="patch_103">
     <path d="M 921.7295 356.395313 
L 941.7295 356.395313 
L 941.7295 349.395313 
L 921.7295 349.395313 
z
" style="fill: #800000; stroke: #800000; stroke-linejoin: miter"/>
    </g>
    <g id="text_56">
     <!-- Heat 20 -->
     <g transform="translate(949.7295 356.395313) scale(0.1 -0.1)">
      <use xlink:href="#DejaVuSans-48"/>
      <use xlink:href="#DejaVuSans-65" x="75.195312"/>
      <use xlink:href="#DejaVuSans-61" x="136.71875"/>
      <use xlink:href="#DejaVuSans-74" x="197.998047"/>
      <use xlink:href="#DejaVuSans-20" x="237.207031"/>
      <use xlink:href="#DejaVuSans-32" x="268.994141"/>
      <use xlink:href="#DejaVuSans-30" x="332.617188"/>
     </g>
    </g>
   </g>
  </g>
 </g>
 <defs>
  <clipPath id="pf64ccab246">
   <rect x="100" y="7.2" width="778.79" height="339.24"/>
  </clipPath>
 </defs>
</svg>
